<svg width="141" height="33" viewBox="0 0 141 33" fill="none" xmlns="http://www.w3.org/2000/svg">
<path d="M63.0044 31.9195L62.9243 21.4695L63.1843 12.5595C63.1977 12.1995 63.381 12.0195 63.7344 12.0195L77.8744 12.0295C78.3011 12.0295 78.5111 12.2429 78.5044 12.6695L78.4644 15.0195C78.4577 15.5062 78.211 15.7495 77.7244 15.7495L68.2644 15.7695C67.9577 15.7695 67.8043 15.9229 67.8043 16.2295L67.7644 19.5295C67.7631 19.5921 67.7742 19.6543 67.7972 19.7125C67.8203 19.7706 67.8547 19.8236 67.8984 19.8684C67.9422 19.9131 67.9944 19.9486 68.0521 19.9728C68.1098 19.9971 68.1718 20.0095 68.2344 20.0095L76.1444 20.0295C76.2949 20.0294 76.4438 20.0597 76.5824 20.1184C76.721 20.1772 76.8463 20.2633 76.9508 20.3716C77.0553 20.4799 77.137 20.6081 77.1909 20.7486C77.2448 20.8892 77.2698 21.0391 77.2644 21.1895L77.2043 22.9095C77.1992 23.0705 77.1316 23.2231 77.0159 23.3351C76.9002 23.447 76.7454 23.5096 76.5844 23.5095L68.5244 23.5195C68.0644 23.5195 67.831 23.7529 67.8243 24.2195L67.7943 27.6795C67.7943 28.0795 67.9911 28.2795 68.3844 28.2795H78.2244C78.591 28.2795 78.781 28.4629 78.7943 28.8295L78.8944 31.3195C78.9077 31.7395 78.7044 31.9495 78.2844 31.9495L63.0044 31.9195Z" fill="white"/>
<path d="M89.4343 28.29L98.6444 28.33C98.7647 28.33 98.8802 28.3771 98.9662 28.4612C99.0522 28.5453 99.1018 28.6597 99.1044 28.78L99.1843 31.54C99.1857 31.6012 99.1747 31.6621 99.1522 31.7191C99.1297 31.7761 99.0961 31.828 99.0532 31.8718C99.0104 31.9155 98.9592 31.9503 98.9027 31.9741C98.8462 31.9978 98.7856 32.01 98.7244 32.01L84.7444 32.02C84.6224 32.02 84.5053 31.9715 84.4191 31.8853C84.3328 31.799 84.2844 31.682 84.2844 31.56L84.2544 12.46C84.2544 12.3996 84.2663 12.3398 84.2894 12.284C84.3125 12.2282 84.3463 12.1774 84.389 12.1347C84.4318 12.092 84.4825 12.0581 84.5383 12.035C84.5941 12.0119 84.6539 12 84.7144 12L88.5144 12.03C88.6364 12.03 88.7533 12.0785 88.8396 12.1647C88.9259 12.251 88.9744 12.368 88.9744 12.49V27.83C88.9744 27.952 89.0229 28.069 89.1091 28.1553C89.1954 28.2415 89.3123 28.29 89.4343 28.29Z" fill="white"/>
<path d="M110.474 16.507V32.007C110.474 32.1077 110.434 32.2044 110.363 32.2757C110.292 32.3469 110.195 32.387 110.094 32.387H106.154C106.054 32.387 105.957 32.3469 105.886 32.2757C105.814 32.2044 105.774 32.1077 105.774 32.007L105.784 16.517C105.784 16.4162 105.744 16.3195 105.673 16.2482C105.602 16.177 105.505 16.137 105.404 16.137L99.7544 16.117C99.6603 16.1148 99.5704 16.0778 99.502 16.0131C99.4337 15.9485 99.3918 15.8607 99.3844 15.767L99.1743 12.817C99.1701 12.7646 99.1769 12.7119 99.1942 12.6623C99.2114 12.6127 99.2388 12.5672 99.2745 12.5286C99.3102 12.4901 99.3534 12.4594 99.4016 12.4385C99.4497 12.4175 99.5018 12.4068 99.5543 12.407L116.594 12.377C116.695 12.377 116.792 12.417 116.863 12.4883C116.934 12.5595 116.974 12.6562 116.974 12.757L116.964 15.757C116.964 15.8577 116.924 15.9544 116.853 16.0257C116.782 16.0969 116.685 16.137 116.584 16.137L110.854 16.127C110.754 16.127 110.657 16.167 110.586 16.2383C110.514 16.3095 110.474 16.4062 110.474 16.507Z" fill="white"/>
<path d="M123.814 28.7364L122.534 31.9764C122.421 32.2497 122.218 32.3864 121.924 32.3864L118.004 32.3764C117.684 32.3764 117.591 32.2297 117.724 31.9364L125.834 13.9764C126.096 13.3942 126.521 12.8999 127.057 12.5528C127.593 12.2058 128.218 12.0206 128.856 12.0195C129.495 12.0185 130.12 12.2016 130.657 12.5469C131.194 12.8922 131.62 13.3851 131.884 13.9664L140.014 31.9064C140.154 32.2197 140.054 32.3764 139.714 32.3764L135.934 32.3864C135.746 32.3893 135.561 32.3344 135.404 32.229C135.247 32.1237 135.125 31.9729 135.054 31.7964L133.754 28.6464C133.614 28.3064 133.358 28.1364 132.984 28.1364H124.714C124.521 28.1366 124.332 28.1937 124.172 28.3005C124.012 28.4073 123.887 28.559 123.814 28.7364ZM125.794 24.2164C125.774 24.2639 125.767 24.3155 125.772 24.3667C125.777 24.418 125.794 24.4671 125.823 24.5098C125.852 24.5524 125.891 24.5873 125.937 24.6111C125.982 24.635 126.033 24.6471 126.084 24.6464H131.564C131.616 24.6471 131.667 24.635 131.712 24.6111C131.758 24.5873 131.797 24.5524 131.826 24.5098C131.854 24.4671 131.872 24.418 131.877 24.3667C131.882 24.3155 131.874 24.2639 131.854 24.2164L129.114 17.5464C129.092 17.4875 129.052 17.4368 129.001 17.4009C128.949 17.3651 128.887 17.346 128.824 17.346C128.761 17.346 128.7 17.3651 128.648 17.4009C128.596 17.4368 128.557 17.4875 128.534 17.5464L125.794 24.2164Z" fill="white"/>
<path d="M54.6236 1.16L46.6636 18.36L40.3636 31.83C38.3436 26.7633 36.167 21.91 33.8336 17.27C33.667 16.93 33.6369 16.44 33.7436 15.8L40.8836 0.500001C41.0369 0.166668 41.2969 1.34117e-06 41.6636 1.34117e-06H54.1836C54.2694 -0.000175692 54.3543 0.0171754 54.433 0.0509562C54.5117 0.0847369 54.5824 0.134212 54.6407 0.19625C54.6989 0.258288 54.7436 0.331538 54.7716 0.411365C54.7997 0.491192 54.8105 0.575856 54.8036 0.660001C54.797 0.826668 54.7369 0.993334 54.6236 1.16Z" fill="white"/>
<path d="M12.1036 0.330078L20.1234 18.0201L14.9836 31.4401C14.8369 31.8134 14.5635 32.0001 14.1635 32.0001H1.43351C1.35199 31.9999 1.27173 31.9803 1.19938 31.9427C1.12703 31.9051 1.06475 31.8508 1.01774 31.7842C0.970725 31.7176 0.94028 31.6407 0.929113 31.5599C0.917946 31.4792 0.926354 31.3969 0.953527 31.3201L12.1036 0.330078Z" fill="white"/>
<path d="M33.7434 15.7998C33.6367 16.4398 33.6668 16.9298 33.8335 17.2698C36.1668 21.9098 38.3434 26.7632 40.3634 31.8298L26.9235 31.9698C26.5901 31.9698 26.3535 31.8198 26.2135 31.5198L20.1234 18.0198L12.1035 0.329822L25.2935 0.0998221C25.6335 0.0931555 25.8768 0.243154 26.0234 0.549821C28.4834 5.55649 30.8467 10.5665 33.1134 15.5798C33.1734 15.7198 33.3834 15.7932 33.7434 15.7998Z" fill="#787C9E"/>
<path d="M54.6235 1.16016C55.1035 1.32682 55.4069 1.60682 55.5336 2.00016C57.5402 8.30682 59.9035 14.7902 62.6235 21.4502L62.7036 31.9002L52.5536 31.9502C52.2069 31.9502 51.967 31.7868 51.8336 31.4602L46.6636 18.3602L54.6235 1.16016Z" fill="#787C9E"/>
</svg>
