<svg width="140" height="26" viewBox="0 0 140 26" fill="none" xmlns="http://www.w3.org/2000/svg">
<path d="M11.7024 17.5C11.6091 17.5 11.5298 17.472 11.4644 17.416C11.4084 17.3507 11.3804 17.2713 11.3804 17.178V12.992C11.3804 12.2453 11.1938 11.6667 10.8204 11.256C10.4471 10.836 9.84509 10.626 9.01442 10.626H6.38242C6.28909 10.626 6.20976 10.598 6.14442 10.542C6.08842 10.4767 6.06042 10.3973 6.06042 10.304V9.828C6.06042 9.73467 6.08842 9.66 6.14442 9.604C6.20976 9.53867 6.28909 9.506 6.38242 9.506H9.08442C10.2978 9.506 11.1938 9.8 11.7724 10.388C12.3604 10.976 12.6544 11.83 12.6544 12.95V17.178C12.6544 17.2713 12.6218 17.3507 12.5564 17.416C12.5004 17.472 12.4258 17.5 12.3324 17.5H11.7024ZM6.38242 17.5C6.28909 17.5 6.20976 17.472 6.14442 17.416C6.08842 17.3507 6.06042 17.2713 6.06042 17.178V12.502C6.06042 12.4087 6.08842 12.334 6.14442 12.278C6.20976 12.2127 6.28909 12.18 6.38242 12.18H7.01242C7.11509 12.18 7.19442 12.2127 7.25042 12.278C7.30642 12.334 7.33442 12.4087 7.33442 12.502V17.178C7.33442 17.2713 7.30642 17.3507 7.25042 17.416C7.19442 17.472 7.11509 17.5 7.01242 17.5H6.38242ZM18.7044 16.45C19.3111 16.4593 19.8197 16.3473 20.2304 16.114C20.6504 15.8807 20.9677 15.5493 21.1824 15.12C21.4064 14.6813 21.5184 14.182 21.5184 13.622V9.828C21.5184 9.73467 21.5464 9.66 21.6024 9.604C21.6677 9.53867 21.7471 9.506 21.8404 9.506H22.4144C22.5171 9.506 22.5964 9.53867 22.6524 9.604C22.7084 9.66 22.7364 9.73467 22.7364 9.828V13.72C22.7364 14.3173 22.6431 14.8587 22.4564 15.344C22.2697 15.82 22.0037 16.2307 21.6584 16.576C21.3131 16.912 20.9024 17.1687 20.4264 17.346C19.9597 17.5233 19.4417 17.6027 18.8724 17.584H17.8224C17.2157 17.584 16.6697 17.444 16.1844 17.164C15.6991 16.884 15.3164 16.492 15.0364 15.988C14.7564 15.484 14.6164 14.9007 14.6164 14.238V9.828C14.6164 9.73467 14.6444 9.66 14.7004 9.604C14.7657 9.53867 14.8451 9.506 14.9384 9.506H15.5264C15.6197 9.506 15.6944 9.53867 15.7504 9.604C15.8157 9.66 15.8484 9.73467 15.8484 9.828L15.8904 13.958C15.8904 14.7607 16.1144 15.3767 16.5624 15.806C17.0104 16.2353 17.5797 16.45 18.2704 16.45H18.7044ZM15.5964 14.812L15.5684 13.79C16.2591 13.7807 16.7864 13.678 17.1504 13.482C17.5144 13.2767 17.7664 13.006 17.9064 12.67C18.0557 12.334 18.1304 11.9653 18.1304 11.564V9.828C18.1304 9.73467 18.1584 9.66 18.2144 9.604C18.2704 9.53867 18.3497 9.506 18.4524 9.506H19.0264C19.1197 9.506 19.1944 9.53867 19.2504 9.604C19.3157 9.66 19.3484 9.73467 19.3484 9.828V11.62C19.3484 12.2267 19.2131 12.7727 18.9424 13.258C18.6717 13.7433 18.2564 14.126 17.6964 14.406C17.1457 14.686 16.4457 14.8213 15.5964 14.812ZM28.2372 17.5C28.0319 17.5 27.9292 17.3973 27.9292 17.192V12.194C27.9292 11.6433 27.9945 11.214 28.1252 10.906C28.2559 10.598 28.4192 10.444 28.6152 10.444H29.9872C29.7539 10.444 29.5625 10.6213 29.4132 10.976C29.2732 11.3307 29.2032 11.7693 29.2032 12.292V17.192C29.2032 17.2853 29.1705 17.36 29.1052 17.416C29.0399 17.472 28.9605 17.5 28.8672 17.5H28.2372ZM24.4572 10.626C24.3639 10.626 24.2845 10.598 24.2192 10.542C24.1632 10.4767 24.1352 10.3973 24.1352 10.304V9.828C24.1352 9.73467 24.1632 9.66 24.2192 9.604C24.2845 9.53867 24.3639 9.506 24.4572 9.506H30.4632C30.5565 9.506 30.6312 9.53867 30.6872 9.604C30.7525 9.66 30.7852 9.73467 30.7852 9.828V10.304C30.7852 10.3973 30.7525 10.4767 30.6872 10.542C30.6312 10.598 30.5565 10.626 30.4632 10.626H24.4572ZM32.8102 17.5C32.7168 17.5 32.6375 17.472 32.5722 17.416C32.5162 17.3507 32.4882 17.2713 32.4882 17.178V9.828C32.4882 9.73467 32.5162 9.66 32.5722 9.604C32.6375 9.53867 32.7168 9.506 32.8102 9.506H35.5262C36.3382 9.506 37.0055 9.63667 37.5282 9.898C38.0602 10.15 38.4568 10.5327 38.7182 11.046C38.9795 11.55 39.1102 12.1847 39.1102 12.95V17.178C39.1102 17.2713 39.0775 17.3507 39.0122 17.416C38.9562 17.472 38.8815 17.5 38.7882 17.5H38.1582C38.0555 17.5 37.9762 17.472 37.9202 17.416C37.8642 17.3507 37.8362 17.2713 37.8362 17.178V12.992C37.8362 12.2453 37.6495 11.6667 37.2762 11.256C36.9028 10.836 36.2962 10.626 35.4562 10.626H33.7622V17.178C33.7622 17.2713 33.7342 17.3507 33.6782 17.416C33.6222 17.472 33.5428 17.5 33.4402 17.5H32.8102ZM48.7953 17.5C48.702 17.5 48.6226 17.472 48.5573 17.416C48.5013 17.3507 48.4733 17.2713 48.4733 17.178V12.992C48.4733 12.2453 48.2866 11.6667 47.9133 11.256C47.54 10.836 46.938 10.626 46.1073 10.626H44.2733C44.18 10.626 44.1006 10.598 44.0353 10.542C43.9793 10.4767 43.9513 10.3973 43.9513 10.304V9.828C43.9513 9.73467 43.9793 9.66 44.0353 9.604C44.1006 9.53867 44.18 9.506 44.2733 9.506H46.1773C46.98 9.506 47.6426 9.632 48.1653 9.884C48.6973 10.136 49.094 10.5187 49.3553 11.032C49.6166 11.536 49.7473 12.166 49.7473 12.922V17.178C49.7473 17.2713 49.7146 17.3507 49.6493 17.416C49.5933 17.472 49.5186 17.5 49.4253 17.5H48.7953ZM55.7962 16.45C56.4029 16.4593 56.9115 16.3473 57.3222 16.114C57.7422 15.8807 58.0595 15.5493 58.2742 15.12C58.4982 14.6813 58.6102 14.182 58.6102 13.622V9.828C58.6102 9.73467 58.6382 9.66 58.6942 9.604C58.7595 9.53867 58.8389 9.506 58.9322 9.506H59.5062C59.6089 9.506 59.6882 9.53867 59.7442 9.604C59.8002 9.66 59.8282 9.73467 59.8282 9.828V13.72C59.8282 14.3173 59.7349 14.8587 59.5482 15.344C59.3615 15.82 59.0955 16.2307 58.7502 16.576C58.4049 16.912 57.9942 17.1687 57.5182 17.346C57.0515 17.5233 56.5335 17.6027 55.9642 17.584H54.9142C54.3075 17.584 53.7615 17.444 53.2762 17.164C52.7909 16.884 52.4082 16.492 52.1282 15.988C51.8482 15.484 51.7082 14.9007 51.7082 14.238V9.828C51.7082 9.73467 51.7362 9.66 51.7922 9.604C51.8575 9.53867 51.9369 9.506 52.0302 9.506H52.6182C52.7115 9.506 52.7862 9.53867 52.8422 9.604C52.9075 9.66 52.9402 9.73467 52.9402 9.828L52.9822 13.958C52.9822 14.7607 53.2062 15.3767 53.6542 15.806C54.1022 16.2353 54.6715 16.45 55.3622 16.45H55.7962ZM52.6882 14.812L52.6602 13.79C53.3509 13.7807 53.8782 13.678 54.2422 13.482C54.6062 13.2767 54.8582 13.006 54.9982 12.67C55.1475 12.334 55.2222 11.9653 55.2222 11.564V9.828C55.2222 9.73467 55.2502 9.66 55.3062 9.604C55.3622 9.53867 55.4415 9.506 55.5442 9.506H56.1182C56.2115 9.506 56.2862 9.53867 56.3422 9.604C56.4075 9.66 56.4402 9.73467 56.4402 9.828V11.62C56.4402 12.2267 56.3049 12.7727 56.0342 13.258C55.7635 13.7433 55.3482 14.126 54.7882 14.406C54.2375 14.686 53.5375 14.8213 52.6882 14.812ZM62.109 20.174C62.0157 20.174 61.9363 20.1413 61.871 20.076C61.815 20.02 61.787 19.9453 61.787 19.852V12.502C61.787 12.4087 61.815 12.334 61.871 12.278C61.9363 12.2127 62.0157 12.18 62.109 12.18H62.725C62.8277 12.18 62.907 12.2127 62.963 12.278C63.019 12.334 63.047 12.4087 63.047 12.502V19.852C63.047 19.9453 63.019 20.02 62.963 20.076C62.907 20.1413 62.8277 20.174 62.725 20.174H62.109ZM64.797 17.626C64.713 17.654 64.6337 17.64 64.559 17.584C64.4937 17.5373 64.461 17.4673 64.461 17.374V16.73C64.461 16.646 64.4843 16.5713 64.531 16.506C64.587 16.4407 64.6663 16.3893 64.769 16.352L65.301 16.142C65.6743 15.9927 66.0103 15.806 66.309 15.582C66.617 15.3487 66.855 15.036 67.023 14.644C67.2003 14.252 67.289 13.7387 67.289 13.104C67.289 12.4973 67.2143 12.0167 67.065 11.662C66.9157 11.298 66.6683 11.0413 66.323 10.892C65.987 10.7333 65.5297 10.654 64.951 10.654H62.109C62.0157 10.654 61.9363 10.626 61.871 10.57C61.815 10.5047 61.787 10.4253 61.787 10.332V9.828C61.787 9.73467 61.815 9.66 61.871 9.604C61.9363 9.53867 62.0157 9.506 62.109 9.506H65.133C65.9917 9.506 66.6683 9.62733 67.163 9.87C67.667 10.1127 68.0263 10.5047 68.241 11.046C68.465 11.578 68.577 12.278 68.577 13.146C68.577 13.7993 68.4883 14.364 68.311 14.84C68.1337 15.316 67.891 15.722 67.583 16.058C67.2843 16.394 66.9437 16.674 66.561 16.898C66.1877 17.1127 65.7957 17.29 65.385 17.43L64.797 17.626ZM74.5423 10.626C74.449 10.626 74.3696 10.598 74.3043 10.542C74.2483 10.4767 74.2203 10.3973 74.2203 10.304V9.828C74.2203 9.73467 74.2483 9.66 74.3043 9.604C74.3696 9.53867 74.449 9.506 74.5423 9.506H77.5803C78.383 9.506 79.0456 9.63667 79.5683 9.898C80.1003 10.15 80.497 10.5327 80.7583 11.046C81.0196 11.55 81.1503 12.1753 81.1503 12.922V17.178C81.1503 17.2713 81.1176 17.3507 81.0523 17.416C80.9963 17.472 80.9216 17.5 80.8283 17.5H80.1983C80.0956 17.5 80.0163 17.472 79.9603 17.416C79.9043 17.3507 79.8763 17.2713 79.8763 17.178V12.992C79.8763 12.2453 79.685 11.6667 79.3023 11.256C78.929 10.836 78.327 10.626 77.4963 10.626H74.5423ZM75.8023 9.94H76.1523C76.2923 9.94 76.395 9.97733 76.4603 10.052C76.535 10.1173 76.5676 10.2013 76.5583 10.304C76.4836 10.696 76.4183 11.0507 76.3623 11.368C76.3156 11.6853 76.283 12.0027 76.2643 12.32C76.2456 12.628 76.2363 12.978 76.2363 13.37L76.2643 17.178C76.2643 17.2713 76.2363 17.3507 76.1803 17.416C76.1243 17.472 76.0496 17.5 75.9563 17.5L73.9683 17.472C73.875 17.472 73.7956 17.444 73.7303 17.388C73.6743 17.332 73.6463 17.2527 73.6463 17.15V16.702C73.6463 16.6087 73.6743 16.534 73.7303 16.478C73.7956 16.4127 73.875 16.38 73.9683 16.38L75.0463 16.394V13.426C75.0463 13.0433 75.051 12.6933 75.0603 12.376C75.0696 12.0493 75.0976 11.7227 75.1443 11.396C75.191 11.0693 75.2656 10.7007 75.3683 10.29C75.3963 10.1873 75.4383 10.1033 75.4943 10.038C75.5596 9.97267 75.6623 9.94 75.8023 9.94ZM83.4485 14.252C83.3552 14.252 83.2758 14.224 83.2105 14.168C83.1545 14.1027 83.1265 14.0233 83.1265 13.93V9.828C83.1265 9.73467 83.1545 9.66 83.2105 9.604C83.2758 9.53867 83.3552 9.506 83.4485 9.506H84.1065C84.2092 9.506 84.2885 9.53867 84.3445 9.604C84.4005 9.66 84.4285 9.73467 84.4285 9.828V13.93C84.4285 14.0233 84.4005 14.1027 84.3445 14.168C84.2885 14.224 84.2092 14.252 84.1065 14.252H83.4485ZM86.3797 17.5C86.2864 17.5 86.2071 17.472 86.1417 17.416C86.0857 17.3507 86.0577 17.2713 86.0577 17.178V16.702C86.0577 16.6087 86.0857 16.534 86.1417 16.478C86.2071 16.4127 86.2864 16.38 86.3797 16.38H90.3277V17.234C90.3277 17.3273 90.2951 17.3973 90.2297 17.444C90.1737 17.4813 90.0991 17.5 90.0057 17.5H86.3797ZM89.4737 17.5C89.3804 17.5 89.3057 17.472 89.2497 17.416C89.2031 17.3507 89.1704 17.2713 89.1517 17.178L88.8857 12.852C88.8671 12.3947 88.8297 11.998 88.7737 11.662C88.7271 11.326 88.6151 11.0647 88.4377 10.878C88.2697 10.6913 87.9851 10.598 87.5837 10.598H87.0097C86.9164 10.598 86.8371 10.57 86.7717 10.514C86.7157 10.4487 86.6877 10.3693 86.6877 10.276V9.8C86.6877 9.70667 86.7157 9.632 86.7717 9.576C86.8371 9.51067 86.9164 9.478 87.0097 9.478H87.5977C88.1297 9.478 88.5591 9.55733 88.8857 9.716C89.2124 9.86533 89.4644 10.0893 89.6417 10.388C89.8191 10.6867 89.9497 11.0413 90.0337 11.452C90.1177 11.8533 90.1737 12.306 90.2017 12.81L90.4537 17.178C90.4724 17.2713 90.4491 17.3507 90.3837 17.416C90.3184 17.472 90.2391 17.5 90.1457 17.5H89.4737ZM92.1929 17.5C92.0996 17.5 92.0202 17.472 91.9549 17.416C91.8989 17.3507 91.8709 17.2713 91.8709 17.178V16.702C91.8709 16.6087 91.8989 16.534 91.9549 16.478C92.0202 16.4127 92.0996 16.38 92.1929 16.38H96.2109V12.992C96.2109 12.2453 96.0242 11.6667 95.6509 11.256C95.2776 10.836 94.6756 10.626 93.8449 10.626H92.3329C92.2396 10.626 92.1602 10.598 92.0949 10.542C92.0389 10.4767 92.0109 10.3973 92.0109 10.304V9.828C92.0109 9.73467 92.0389 9.66 92.0949 9.604C92.1602 9.53867 92.2396 9.506 92.3329 9.506H93.9149C94.7176 9.506 95.3849 9.63667 95.9169 9.898C96.4489 10.1593 96.8456 10.5467 97.1069 11.06C97.3776 11.564 97.5129 12.194 97.5129 12.95V16.38H98.0309C98.1242 16.38 98.1989 16.4127 98.2549 16.478C98.3202 16.534 98.3529 16.6087 98.3529 16.702V17.178C98.3529 17.2713 98.3202 17.3507 98.2549 17.416C98.1989 17.472 98.1242 17.5 98.0309 17.5H92.1929ZM100.396 10.626C100.302 10.626 100.223 10.598 100.158 10.542C100.102 10.4767 100.074 10.3973 100.074 10.304V9.828C100.074 9.73467 100.102 9.66 100.158 9.604C100.223 9.53867 100.302 9.506 100.396 9.506H103.434C104.236 9.506 104.899 9.63667 105.422 9.898C105.954 10.15 106.35 10.5327 106.612 11.046C106.873 11.55 107.004 12.1753 107.004 12.922V17.178C107.004 17.2713 106.971 17.3507 106.906 17.416C106.85 17.472 106.775 17.5 106.682 17.5H106.052C105.949 17.5 105.87 17.472 105.814 17.416C105.758 17.3507 105.73 17.2713 105.73 17.178V12.992C105.73 12.2453 105.538 11.6667 105.156 11.256C104.782 10.836 104.18 10.626 103.35 10.626H100.396ZM101.656 9.94H102.006C102.146 9.94 102.248 9.97733 102.314 10.052C102.388 10.1173 102.421 10.2013 102.412 10.304C102.337 10.696 102.272 11.0507 102.216 11.368C102.169 11.6853 102.136 12.0027 102.118 12.32C102.099 12.628 102.09 12.978 102.09 13.37L102.118 17.178C102.118 17.2713 102.09 17.3507 102.034 17.416C101.978 17.472 101.903 17.5 101.81 17.5L99.8218 17.472C99.7285 17.472 99.6491 17.444 99.5838 17.388C99.5278 17.332 99.4998 17.2527 99.4998 17.15V16.702C99.4998 16.6087 99.5278 16.534 99.5838 16.478C99.6491 16.4127 99.7285 16.38 99.8218 16.38L100.9 16.394V13.426C100.9 13.0433 100.904 12.6933 100.914 12.376C100.923 12.0493 100.951 11.7227 100.998 11.396C101.044 11.0693 101.119 10.7007 101.222 10.29C101.25 10.1873 101.292 10.1033 101.348 10.038C101.413 9.97267 101.516 9.94 101.656 9.94Z" fill="#1E2775"/>
<rect x="118" y="4" width="18" height="18" rx="9" fill="#1E2775"/>
<path d="M132.143 13.8571H127.857V18.1429C127.857 18.6143 127.471 19 127 19C126.529 19 126.143 18.6143 126.143 18.1429V13.8571H121.857C121.386 13.8571 121 13.4714 121 13C121 12.5286 121.386 12.1429 121.857 12.1429H126.143V7.85714C126.143 7.38571 126.529 7 127 7C127.471 7 127.857 7.38571 127.857 7.85714V12.1429H132.143C132.614 12.1429 133 12.5286 133 13C133 13.4714 132.614 13.8571 132.143 13.8571Z" fill="white"/>
</svg>
