<svg width="84" height="26" viewBox="0 0 84 26" fill="none" xmlns="http://www.w3.org/2000/svg">
<path d="M8.48434 16.1C9.00434 16.108 9.44034 16.012 9.79234 15.812C10.1523 15.612 10.4243 15.328 10.6083 14.96C10.8003 14.584 10.8963 14.156 10.8963 13.676V10.424C10.8963 10.344 10.9203 10.28 10.9683 10.232C11.0243 10.176 11.0923 10.148 11.1723 10.148H11.6643C11.7523 10.148 11.8203 10.176 11.8683 10.232C11.9163 10.28 11.9403 10.344 11.9403 10.424V13.76C11.9403 14.272 11.8603 14.736 11.7003 15.152C11.5403 15.56 11.3123 15.912 11.0163 16.208C10.7203 16.496 10.3683 16.716 9.96034 16.868C9.56034 17.02 9.11634 17.088 8.62834 17.072H7.72834C7.20834 17.072 6.74034 16.952 6.32434 16.712C5.90834 16.472 5.58034 16.136 5.34034 15.704C5.10034 15.272 4.98034 14.772 4.98034 14.204V10.424C4.98034 10.344 5.00434 10.28 5.05234 10.232C5.10834 10.176 5.17634 10.148 5.25634 10.148H5.76034C5.84034 10.148 5.90434 10.176 5.95234 10.232C6.00834 10.28 6.03634 10.344 6.03634 10.424L6.07234 13.964C6.07234 14.652 6.26434 15.18 6.64834 15.548C7.03234 15.916 7.52034 16.1 8.11234 16.1H8.48434ZM5.82034 14.696L5.79634 13.82C6.38834 13.812 6.84034 13.724 7.15234 13.556C7.46434 13.38 7.68034 13.148 7.80034 12.86C7.92834 12.572 7.99234 12.256 7.99234 11.912V10.424C7.99234 10.344 8.01634 10.28 8.06434 10.232C8.11234 10.176 8.18034 10.148 8.26834 10.148H8.76034C8.84034 10.148 8.90434 10.176 8.95234 10.232C9.00834 10.28 9.03634 10.344 9.03634 10.424V11.96C9.03634 12.48 8.92034 12.948 8.68834 13.364C8.45634 13.78 8.10034 14.108 7.62034 14.348C7.14834 14.588 6.54834 14.704 5.82034 14.696ZM16.6553 17C16.4793 17 16.3913 16.912 16.3913 16.736V12.452C16.3913 11.98 16.4473 11.612 16.5593 11.348C16.6713 11.084 16.8113 10.952 16.9793 10.952H18.1553C17.9553 10.952 17.7913 11.104 17.6633 11.408C17.5433 11.712 17.4833 12.088 17.4833 12.536V16.736C17.4833 16.816 17.4553 16.88 17.3993 16.928C17.3433 16.976 17.2753 17 17.1953 17H16.6553ZM13.4153 11.108C13.3353 11.108 13.2673 11.084 13.2113 11.036C13.1633 10.98 13.1393 10.912 13.1393 10.832V10.424C13.1393 10.344 13.1633 10.28 13.2113 10.232C13.2673 10.176 13.3353 10.148 13.4153 10.148H18.5633C18.6433 10.148 18.7073 10.176 18.7553 10.232C18.8113 10.28 18.8393 10.344 18.8393 10.424V10.832C18.8393 10.912 18.8113 10.98 18.7553 11.036C18.7073 11.084 18.6433 11.108 18.5633 11.108H13.4153ZM20.575 17C20.495 17 20.427 16.976 20.371 16.928C20.323 16.872 20.299 16.804 20.299 16.724V10.424C20.299 10.344 20.323 10.28 20.371 10.232C20.427 10.176 20.495 10.148 20.575 10.148H22.903C23.599 10.148 24.171 10.26 24.619 10.484C25.075 10.7 25.415 11.028 25.639 11.468C25.863 11.9 25.975 12.444 25.975 13.1V16.724C25.975 16.804 25.947 16.872 25.891 16.928C25.843 16.976 25.779 17 25.699 17H25.159C25.071 17 25.003 16.976 24.955 16.928C24.907 16.872 24.883 16.804 24.883 16.724V13.136C24.883 12.496 24.723 12 24.403 11.648C24.083 11.288 23.563 11.108 22.843 11.108H21.391V16.724C21.391 16.804 21.367 16.872 21.319 16.928C21.271 16.976 21.203 17 21.115 17H20.575ZM34.2766 17C34.1966 17 34.1286 16.976 34.0726 16.928C34.0246 16.872 34.0006 16.804 34.0006 16.724V13.136C34.0006 12.496 33.8406 12 33.5206 11.648C33.2006 11.288 32.6846 11.108 31.9726 11.108H30.4006C30.3206 11.108 30.2526 11.084 30.1966 11.036C30.1486 10.98 30.1246 10.912 30.1246 10.832V10.424C30.1246 10.344 30.1486 10.28 30.1966 10.232C30.2526 10.176 30.3206 10.148 30.4006 10.148H32.0326C32.7206 10.148 33.2886 10.256 33.7366 10.472C34.1926 10.688 34.5326 11.016 34.7566 11.456C34.9806 11.888 35.0926 12.428 35.0926 13.076V16.724C35.0926 16.804 35.0646 16.872 35.0086 16.928C34.9606 16.976 34.8966 17 34.8166 17H34.2766ZM40.2773 16.1C40.7973 16.108 41.2333 16.012 41.5853 15.812C41.9453 15.612 42.2173 15.328 42.4013 14.96C42.5933 14.584 42.6893 14.156 42.6893 13.676V10.424C42.6893 10.344 42.7133 10.28 42.7613 10.232C42.8173 10.176 42.8853 10.148 42.9653 10.148H43.4573C43.5453 10.148 43.6133 10.176 43.6613 10.232C43.7093 10.28 43.7333 10.344 43.7333 10.424V13.76C43.7333 14.272 43.6533 14.736 43.4933 15.152C43.3333 15.56 43.1053 15.912 42.8093 16.208C42.5133 16.496 42.1613 16.716 41.7533 16.868C41.3533 17.02 40.9093 17.088 40.4213 17.072H39.5213C39.0013 17.072 38.5333 16.952 38.1173 16.712C37.7013 16.472 37.3733 16.136 37.1333 15.704C36.8933 15.272 36.7733 14.772 36.7733 14.204V10.424C36.7733 10.344 36.7973 10.28 36.8453 10.232C36.9013 10.176 36.9693 10.148 37.0493 10.148H37.5533C37.6333 10.148 37.6973 10.176 37.7453 10.232C37.8013 10.28 37.8293 10.344 37.8293 10.424L37.8653 13.964C37.8653 14.652 38.0573 15.18 38.4413 15.548C38.8253 15.916 39.3133 16.1 39.9053 16.1H40.2773ZM37.6133 14.696L37.5893 13.82C38.1813 13.812 38.6333 13.724 38.9453 13.556C39.2573 13.38 39.4733 13.148 39.5933 12.86C39.7213 12.572 39.7853 12.256 39.7853 11.912V10.424C39.7853 10.344 39.8093 10.28 39.8573 10.232C39.9053 10.176 39.9733 10.148 40.0613 10.148H40.5533C40.6333 10.148 40.6973 10.176 40.7453 10.232C40.8013 10.28 40.8293 10.344 40.8293 10.424V11.96C40.8293 12.48 40.7133 12.948 40.4813 13.364C40.2493 13.78 39.8933 14.108 39.4133 14.348C38.9413 14.588 38.3413 14.704 37.6133 14.696ZM45.6883 19.292C45.6083 19.292 45.5403 19.264 45.4843 19.208C45.4363 19.16 45.4123 19.096 45.4123 19.016V12.716C45.4123 12.636 45.4363 12.572 45.4843 12.524C45.5403 12.468 45.6083 12.44 45.6883 12.44H46.2163C46.3043 12.44 46.3723 12.468 46.4203 12.524C46.4683 12.572 46.4923 12.636 46.4923 12.716V19.016C46.4923 19.096 46.4683 19.16 46.4203 19.208C46.3723 19.264 46.3043 19.292 46.2163 19.292H45.6883ZM47.9923 17.108C47.9203 17.132 47.8523 17.12 47.7883 17.072C47.7323 17.032 47.7043 16.972 47.7043 16.892V16.34C47.7043 16.268 47.7243 16.204 47.7643 16.148C47.8123 16.092 47.8803 16.048 47.9683 16.016L48.4243 15.836C48.7443 15.708 49.0323 15.548 49.2883 15.356C49.5523 15.156 49.7563 14.888 49.9003 14.552C50.0523 14.216 50.1283 13.776 50.1283 13.232C50.1283 12.712 50.0643 12.3 49.9363 11.996C49.8083 11.684 49.5963 11.464 49.3003 11.336C49.0123 11.2 48.6203 11.132 48.1243 11.132H45.6883C45.6083 11.132 45.5403 11.108 45.4843 11.06C45.4363 11.004 45.4123 10.936 45.4123 10.856V10.424C45.4123 10.344 45.4363 10.28 45.4843 10.232C45.5403 10.176 45.6083 10.148 45.6883 10.148H48.2803C49.0163 10.148 49.5963 10.252 50.0203 10.46C50.4523 10.668 50.7603 11.004 50.9443 11.468C51.1363 11.924 51.2323 12.524 51.2323 13.268C51.2323 13.828 51.1563 14.312 51.0043 14.72C50.8523 15.128 50.6443 15.476 50.3803 15.764C50.1243 16.052 49.8323 16.292 49.5043 16.484C49.1843 16.668 48.8483 16.82 48.4963 16.94L47.9923 17.108Z" fill="#c7c8cb"/>
<rect x="62" y="4" width="18" height="18" rx="9" fill="#c7c8cb"/>
<path d="M76.1429 13.8571H71.8571V18.1429C71.8571 18.6143 71.4714 19 71 19C70.5286 19 70.1429 18.6143 70.1429 18.1429V13.8571H65.8571C65.3857 13.8571 65 13.4714 65 13C65 12.5286 65.3857 12.1429 65.8571 12.1429H70.1429V7.85714C70.1429 7.38571 70.5286 7 71 7C71.4714 7 71.8571 7.38571 71.8571 7.85714V12.1429H76.1429C76.6143 12.1429 77 12.5286 77 13C77 13.4714 76.6143 13.8571 76.1429 13.8571Z" fill="white"/>
</svg>
