<svg width="95" height="26" viewBox="0 0 95 26" fill="none" xmlns="http://www.w3.org/2000/svg">
<path d="M10.6584 17C10.5784 17 10.5104 16.976 10.4544 16.928C10.4064 16.872 10.3824 16.804 10.3824 16.724V13.136C10.3824 12.496 10.2224 12 9.90244 11.648C9.58244 11.288 9.06644 11.108 8.35444 11.108H6.09844C6.01844 11.108 5.95044 11.084 5.89444 11.036C5.84644 10.98 5.82244 10.912 5.82244 10.832V10.424C5.82244 10.344 5.84644 10.28 5.89444 10.232C5.95044 10.176 6.01844 10.148 6.09844 10.148H8.41444C9.45444 10.148 10.2224 10.4 10.7184 10.904C11.2224 11.408 11.4744 12.14 11.4744 13.1V16.724C11.4744 16.804 11.4464 16.872 11.3904 16.928C11.3424 16.976 11.2784 17 11.1984 17H10.6584ZM6.09844 17C6.01844 17 5.95044 16.976 5.89444 16.928C5.84644 16.872 5.82244 16.804 5.82244 16.724V12.716C5.82244 12.636 5.84644 12.572 5.89444 12.524C5.95044 12.468 6.01844 12.44 6.09844 12.44H6.63844C6.72644 12.44 6.79444 12.468 6.84244 12.524C6.89044 12.572 6.91444 12.636 6.91444 12.716V16.724C6.91444 16.804 6.89044 16.872 6.84244 16.928C6.79444 16.976 6.72644 17 6.63844 17H6.09844ZM16.6601 16.1C17.1801 16.108 17.6161 16.012 17.9681 15.812C18.3281 15.612 18.6001 15.328 18.7841 14.96C18.9761 14.584 19.0721 14.156 19.0721 13.676V10.424C19.0721 10.344 19.0961 10.28 19.1441 10.232C19.2001 10.176 19.2681 10.148 19.3481 10.148H19.8401C19.9281 10.148 19.9961 10.176 20.0441 10.232C20.0921 10.28 20.1161 10.344 20.1161 10.424V13.76C20.1161 14.272 20.0361 14.736 19.8761 15.152C19.7161 15.56 19.4881 15.912 19.1921 16.208C18.8961 16.496 18.5441 16.716 18.1361 16.868C17.7361 17.02 17.2921 17.088 16.8041 17.072H15.9041C15.3841 17.072 14.9161 16.952 14.5001 16.712C14.0841 16.472 13.7561 16.136 13.5161 15.704C13.2761 15.272 13.1561 14.772 13.1561 14.204V10.424C13.1561 10.344 13.1801 10.28 13.2281 10.232C13.2841 10.176 13.3521 10.148 13.4321 10.148H13.9361C14.0161 10.148 14.0801 10.176 14.1281 10.232C14.1841 10.28 14.2121 10.344 14.2121 10.424L14.2481 13.964C14.2481 14.652 14.4401 15.18 14.8241 15.548C15.2081 15.916 15.6961 16.1 16.2881 16.1H16.6601ZM13.9961 14.696L13.9721 13.82C14.5641 13.812 15.0161 13.724 15.3281 13.556C15.6401 13.38 15.8561 13.148 15.9761 12.86C16.1041 12.572 16.1681 12.256 16.1681 11.912V10.424C16.1681 10.344 16.1921 10.28 16.2401 10.232C16.2881 10.176 16.3561 10.148 16.4441 10.148H16.9361C17.0161 10.148 17.0801 10.176 17.1281 10.232C17.1841 10.28 17.2121 10.344 17.2121 10.424V11.96C17.2121 12.48 17.0961 12.948 16.8641 13.364C16.6321 13.78 16.2761 14.108 15.7961 14.348C15.3241 14.588 14.7241 14.704 13.9961 14.696ZM24.8311 17C24.6551 17 24.5671 16.912 24.5671 16.736V12.452C24.5671 11.98 24.6231 11.612 24.7351 11.348C24.8471 11.084 24.9871 10.952 25.1551 10.952H26.3311C26.1311 10.952 25.9671 11.104 25.8391 11.408C25.7191 11.712 25.6591 12.088 25.6591 12.536V16.736C25.6591 16.816 25.6311 16.88 25.5751 16.928C25.5191 16.976 25.4511 17 25.3711 17H24.8311ZM21.5911 11.108C21.5111 11.108 21.4431 11.084 21.3871 11.036C21.3391 10.98 21.3151 10.912 21.3151 10.832V10.424C21.3151 10.344 21.3391 10.28 21.3871 10.232C21.4431 10.176 21.5111 10.148 21.5911 10.148H26.7391C26.8191 10.148 26.8831 10.176 26.9311 10.232C26.9871 10.28 27.0151 10.344 27.0151 10.424V10.832C27.0151 10.912 26.9871 10.98 26.9311 11.036C26.8831 11.084 26.8191 11.108 26.7391 11.108H21.5911ZM28.7508 17C28.6708 17 28.6028 16.976 28.5468 16.928C28.4988 16.872 28.4748 16.804 28.4748 16.724V10.424C28.4748 10.344 28.4988 10.28 28.5468 10.232C28.6028 10.176 28.6708 10.148 28.7508 10.148H31.0788C31.7748 10.148 32.3468 10.26 32.7948 10.484C33.2508 10.7 33.5908 11.028 33.8148 11.468C34.0388 11.9 34.1508 12.444 34.1508 13.1V16.724C34.1508 16.804 34.1228 16.872 34.0668 16.928C34.0188 16.976 33.9548 17 33.8748 17H33.3348C33.2468 17 33.1788 16.976 33.1308 16.928C33.0828 16.872 33.0588 16.804 33.0588 16.724V13.136C33.0588 12.496 32.8988 12 32.5788 11.648C32.2588 11.288 31.7388 11.108 31.0188 11.108H29.5668V16.724C29.5668 16.804 29.5428 16.872 29.4948 16.928C29.4468 16.976 29.3788 17 29.2908 17H28.7508ZM39.3493 11.108C39.2693 11.108 39.2013 11.084 39.1453 11.036C39.0973 10.98 39.0733 10.912 39.0733 10.832V10.424C39.0733 10.344 39.0973 10.28 39.1453 10.232C39.2013 10.176 39.2693 10.148 39.3493 10.148H41.9533C42.6413 10.148 43.2093 10.26 43.6573 10.484C44.1133 10.7 44.4533 11.028 44.6773 11.468C44.9013 11.9 45.0133 12.436 45.0133 13.076V16.724C45.0133 16.804 44.9853 16.872 44.9293 16.928C44.8813 16.976 44.8173 17 44.7373 17H44.1973C44.1093 17 44.0413 16.976 43.9933 16.928C43.9453 16.872 43.9213 16.804 43.9213 16.724V13.136C43.9213 12.496 43.7573 12 43.4293 11.648C43.1093 11.288 42.5933 11.108 41.8813 11.108H39.3493ZM40.4293 10.52H40.7293C40.8493 10.52 40.9373 10.552 40.9933 10.616C41.0573 10.672 41.0853 10.744 41.0773 10.832C41.0133 11.168 40.9573 11.472 40.9093 11.744C40.8693 12.016 40.8413 12.288 40.8253 12.56C40.8093 12.824 40.8013 13.124 40.8013 13.46L40.8253 16.724C40.8253 16.804 40.8013 16.872 40.7533 16.928C40.7053 16.976 40.6413 17 40.5613 17L38.8573 16.976C38.7773 16.976 38.7093 16.952 38.6533 16.904C38.6053 16.856 38.5813 16.788 38.5813 16.7V16.316C38.5813 16.236 38.6053 16.172 38.6533 16.124C38.7093 16.068 38.7773 16.04 38.8573 16.04L39.7813 16.052V13.508C39.7813 13.18 39.7853 12.88 39.7933 12.608C39.8013 12.328 39.8253 12.048 39.8653 11.768C39.9053 11.488 39.9693 11.172 40.0573 10.82C40.0813 10.732 40.1173 10.66 40.1653 10.604C40.2213 10.548 40.3093 10.52 40.4293 10.52ZM47.0672 17C46.9872 17 46.9192 16.976 46.8632 16.928C46.8152 16.872 46.7912 16.804 46.7912 16.724V10.424C46.7912 10.344 46.8152 10.28 46.8632 10.232C46.9192 10.176 46.9872 10.148 47.0672 10.148H47.6312C47.7192 10.148 47.7872 10.176 47.8352 10.232C47.8832 10.28 47.9072 10.344 47.9072 10.424V16.724C47.9072 16.804 47.8832 16.872 47.8352 16.928C47.7872 16.976 47.7192 17 47.6312 17H47.0672ZM53.164 16.1C53.684 16.108 54.12 16.012 54.472 15.812C54.832 15.612 55.104 15.328 55.288 14.96C55.48 14.584 55.576 14.156 55.576 13.676V10.424C55.576 10.344 55.6 10.28 55.648 10.232C55.704 10.176 55.772 10.148 55.852 10.148H56.344C56.432 10.148 56.5 10.176 56.548 10.232C56.596 10.28 56.62 10.344 56.62 10.424V13.76C56.62 14.272 56.54 14.736 56.38 15.152C56.22 15.56 55.992 15.912 55.696 16.208C55.4 16.496 55.048 16.716 54.64 16.868C54.24 17.02 53.796 17.088 53.308 17.072H52.408C51.888 17.072 51.42 16.952 51.004 16.712C50.588 16.472 50.26 16.136 50.02 15.704C49.78 15.272 49.66 14.772 49.66 14.204V10.424C49.66 10.344 49.684 10.28 49.732 10.232C49.788 10.176 49.856 10.148 49.936 10.148H50.44C50.52 10.148 50.584 10.176 50.632 10.232C50.688 10.28 50.716 10.344 50.716 10.424L50.752 13.964C50.752 14.652 50.944 15.18 51.328 15.548C51.712 15.916 52.2 16.1 52.792 16.1H53.164ZM50.5 14.696L50.476 13.82C51.068 13.812 51.52 13.724 51.832 13.556C52.144 13.38 52.36 13.148 52.48 12.86C52.608 12.572 52.672 12.256 52.672 11.912V10.424C52.672 10.344 52.696 10.28 52.744 10.232C52.792 10.176 52.86 10.148 52.948 10.148H53.44C53.52 10.148 53.584 10.176 53.632 10.232C53.688 10.28 53.716 10.344 53.716 10.424V11.96C53.716 12.48 53.6 12.948 53.368 13.364C53.136 13.78 52.78 14.108 52.3 14.348C51.828 14.588 51.228 14.704 50.5 14.696ZM58.491 14.216C58.411 14.216 58.343 14.192 58.287 14.144C58.239 14.088 58.215 14.02 58.215 13.94V10.424C58.215 10.344 58.239 10.28 58.287 10.232C58.343 10.176 58.411 10.148 58.491 10.148H59.055C59.143 10.148 59.211 10.176 59.259 10.232C59.307 10.28 59.331 10.344 59.331 10.424V13.94C59.331 14.02 59.307 14.088 59.259 14.144C59.211 14.192 59.143 14.216 59.055 14.216H58.491ZM61.3035 14.216C61.2235 14.216 61.1555 14.192 61.0995 14.144C61.0515 14.088 61.0275 14.02 61.0275 13.94V10.424C61.0275 10.344 61.0515 10.28 61.0995 10.232C61.1555 10.176 61.2235 10.148 61.3035 10.148H61.8675C61.9555 10.148 62.0235 10.176 62.0715 10.232C62.1195 10.28 62.1435 10.344 62.1435 10.424V13.94C62.1435 14.02 62.1195 14.088 62.0715 14.144C62.0235 14.192 61.9555 14.216 61.8675 14.216H61.3035Z" fill="#1E2775"/>
<rect x="73" y="4" width="18" height="18" rx="9" fill="#1E2775"/>
<path d="M87.1429 13.8571H82.8571V18.1429C82.8571 18.6143 82.4714 19 82 19C81.5286 19 81.1429 18.6143 81.1429 18.1429V13.8571H76.8571C76.3857 13.8571 76 13.4714 76 13C76 12.5286 76.3857 12.1429 76.8571 12.1429H81.1429V7.85714C81.1429 7.38571 81.5286 7 82 7C82.4714 7 82.8571 7.38571 82.8571 7.85714V12.1429H87.1429C87.6143 12.1429 88 12.5286 88 13C88 13.4714 87.6143 13.8571 87.1429 13.8571Z" fill="white"/>
</svg>
