<svg width="143" height="26" viewBox="0 0 143 26" fill="none" xmlns="http://www.w3.org/2000/svg">
<path d="M11.4075 17.5C11.3142 17.5 11.2348 17.472 11.1695 17.416C11.1135 17.3507 11.0855 17.2713 11.0855 17.178V12.992C11.0855 12.2453 10.8988 11.6667 10.5255 11.256C10.1522 10.836 9.55017 10.626 8.7195 10.626H6.0875C5.99417 10.626 5.91483 10.598 5.8495 10.542C5.7935 10.4767 5.7655 10.3973 5.7655 10.304V9.828C5.7655 9.73467 5.7935 9.66 5.8495 9.604C5.91483 9.53867 5.99417 9.506 6.0875 9.506H8.7895C10.0028 9.506 10.8988 9.8 11.4775 10.388C12.0655 10.976 12.3595 11.83 12.3595 12.95V17.178C12.3595 17.2713 12.3268 17.3507 12.2615 17.416C12.2055 17.472 12.1308 17.5 12.0375 17.5H11.4075ZM6.0875 17.5C5.99417 17.5 5.91483 17.472 5.8495 17.416C5.7935 17.3507 5.7655 17.2713 5.7655 17.178V12.502C5.7655 12.4087 5.7935 12.334 5.8495 12.278C5.91483 12.2127 5.99417 12.18 6.0875 12.18H6.7175C6.82017 12.18 6.8995 12.2127 6.9555 12.278C7.0115 12.334 7.0395 12.4087 7.0395 12.502V17.178C7.0395 17.2713 7.0115 17.3507 6.9555 17.416C6.8995 17.472 6.82017 17.5 6.7175 17.5H6.0875ZM18.4095 16.45C19.0161 16.4593 19.5248 16.3473 19.9355 16.114C20.3555 15.8807 20.6728 15.5493 20.8875 15.12C21.1115 14.6813 21.2235 14.182 21.2235 13.622V9.828C21.2235 9.73467 21.2515 9.66 21.3075 9.604C21.3728 9.53867 21.4521 9.506 21.5455 9.506H22.1195C22.2221 9.506 22.3015 9.53867 22.3575 9.604C22.4135 9.66 22.4415 9.73467 22.4415 9.828V13.72C22.4415 14.3173 22.3481 14.8587 22.1615 15.344C21.9748 15.82 21.7088 16.2307 21.3635 16.576C21.0181 16.912 20.6075 17.1687 20.1315 17.346C19.6648 17.5233 19.1468 17.6027 18.5775 17.584H17.5275C16.9208 17.584 16.3748 17.444 15.8895 17.164C15.4041 16.884 15.0215 16.492 14.7415 15.988C14.4615 15.484 14.3215 14.9007 14.3215 14.238V9.828C14.3215 9.73467 14.3495 9.66 14.4055 9.604C14.4708 9.53867 14.5501 9.506 14.6435 9.506H15.2315C15.3248 9.506 15.3995 9.53867 15.4555 9.604C15.5208 9.66 15.5535 9.73467 15.5535 9.828L15.5955 13.958C15.5955 14.7607 15.8195 15.3767 16.2675 15.806C16.7155 16.2353 17.2848 16.45 17.9755 16.45H18.4095ZM15.3015 14.812L15.2735 13.79C15.9641 13.7807 16.4915 13.678 16.8555 13.482C17.2195 13.2767 17.4715 13.006 17.6115 12.67C17.7608 12.334 17.8355 11.9653 17.8355 11.564V9.828C17.8355 9.73467 17.8635 9.66 17.9195 9.604C17.9755 9.53867 18.0548 9.506 18.1575 9.506H18.7315C18.8248 9.506 18.8995 9.53867 18.9555 9.604C19.0208 9.66 19.0535 9.73467 19.0535 9.828V11.62C19.0535 12.2267 18.9181 12.7727 18.6475 13.258C18.3768 13.7433 17.9615 14.126 17.4015 14.406C16.8508 14.686 16.1508 14.8213 15.3015 14.812ZM27.9423 17.5C27.7369 17.5 27.6343 17.3973 27.6343 17.192V12.194C27.6343 11.6433 27.6996 11.214 27.8303 10.906C27.9609 10.598 28.1243 10.444 28.3203 10.444H29.6923C29.4589 10.444 29.2676 10.6213 29.1183 10.976C28.9783 11.3307 28.9083 11.7693 28.9083 12.292V17.192C28.9083 17.2853 28.8756 17.36 28.8103 17.416C28.7449 17.472 28.6656 17.5 28.5723 17.5H27.9423ZM24.1623 10.626C24.0689 10.626 23.9896 10.598 23.9243 10.542C23.8683 10.4767 23.8403 10.3973 23.8403 10.304V9.828C23.8403 9.73467 23.8683 9.66 23.9243 9.604C23.9896 9.53867 24.0689 9.506 24.1623 9.506H30.1683C30.2616 9.506 30.3363 9.53867 30.3923 9.604C30.4576 9.66 30.4903 9.73467 30.4903 9.828V10.304C30.4903 10.3973 30.4576 10.4767 30.3923 10.542C30.3363 10.598 30.2616 10.626 30.1683 10.626H24.1623ZM32.5152 17.5C32.4219 17.5 32.3426 17.472 32.2772 17.416C32.2212 17.3507 32.1932 17.2713 32.1932 17.178V9.828C32.1932 9.73467 32.2212 9.66 32.2772 9.604C32.3426 9.53867 32.4219 9.506 32.5152 9.506H35.2312C36.0432 9.506 36.7106 9.63667 37.2332 9.898C37.7652 10.15 38.1619 10.5327 38.4232 11.046C38.6846 11.55 38.8152 12.1847 38.8152 12.95V17.178C38.8152 17.2713 38.7826 17.3507 38.7172 17.416C38.6612 17.472 38.5866 17.5 38.4932 17.5H37.8632C37.7606 17.5 37.6812 17.472 37.6252 17.416C37.5692 17.3507 37.5412 17.2713 37.5412 17.178V12.992C37.5412 12.2453 37.3546 11.6667 36.9812 11.256C36.6079 10.836 36.0012 10.626 35.1612 10.626H33.4672V17.178C33.4672 17.2713 33.4392 17.3507 33.3832 17.416C33.3272 17.472 33.2479 17.5 33.1452 17.5H32.5152ZM44.8802 10.626C44.7869 10.626 44.7075 10.598 44.6422 10.542C44.5862 10.4767 44.5582 10.3973 44.5582 10.304V9.828C44.5582 9.73467 44.5862 9.66 44.6422 9.604C44.7075 9.53867 44.7869 9.506 44.8802 9.506H47.9182C48.7209 9.506 49.3835 9.63667 49.9062 9.898C50.4382 10.15 50.8349 10.5327 51.0962 11.046C51.3575 11.55 51.4882 12.1753 51.4882 12.922V17.178C51.4882 17.2713 51.4555 17.3507 51.3902 17.416C51.3342 17.472 51.2595 17.5 51.1662 17.5H50.5362C50.4335 17.5 50.3542 17.472 50.2982 17.416C50.2422 17.3507 50.2142 17.2713 50.2142 17.178V12.992C50.2142 12.2453 50.0229 11.6667 49.6402 11.256C49.2669 10.836 48.6649 10.626 47.8342 10.626H44.8802ZM46.1402 9.94H46.4902C46.6302 9.94 46.7329 9.97733 46.7982 10.052C46.8729 10.1173 46.9055 10.2013 46.8962 10.304C46.8215 10.696 46.7562 11.0507 46.7002 11.368C46.6535 11.6853 46.6209 12.0027 46.6022 12.32C46.5835 12.628 46.5742 12.978 46.5742 13.37L46.6022 17.178C46.6022 17.2713 46.5742 17.3507 46.5182 17.416C46.4622 17.472 46.3875 17.5 46.2942 17.5L44.3062 17.472C44.2129 17.472 44.1335 17.444 44.0682 17.388C44.0122 17.332 43.9842 17.2527 43.9842 17.15V16.702C43.9842 16.6087 44.0122 16.534 44.0682 16.478C44.1335 16.4127 44.2129 16.38 44.3062 16.38L45.3842 16.394V13.426C45.3842 13.0433 45.3889 12.6933 45.3982 12.376C45.4075 12.0493 45.4355 11.7227 45.4822 11.396C45.5289 11.0693 45.6035 10.7007 45.7062 10.29C45.7342 10.1873 45.7762 10.1033 45.8322 10.038C45.8975 9.97267 46.0002 9.94 46.1402 9.94ZM53.8844 17.5C53.791 17.5 53.7117 17.472 53.6464 17.416C53.5904 17.3507 53.5624 17.2713 53.5624 17.178V9.828C53.5624 9.73467 53.5904 9.66 53.6464 9.604C53.7117 9.53867 53.791 9.506 53.8844 9.506H54.5424C54.645 9.506 54.7244 9.53867 54.7804 9.604C54.8364 9.66 54.8644 9.73467 54.8644 9.828V17.178C54.8644 17.2713 54.8364 17.3507 54.7804 17.416C54.7244 17.472 54.645 17.5 54.5424 17.5H53.8844ZM60.9974 16.45C61.604 16.4593 62.1127 16.3473 62.5234 16.114C62.9434 15.8807 63.2607 15.5493 63.4754 15.12C63.6994 14.6813 63.8114 14.182 63.8114 13.622V9.828C63.8114 9.73467 63.8394 9.66 63.8954 9.604C63.9607 9.53867 64.04 9.506 64.1334 9.506H64.7074C64.81 9.506 64.8894 9.53867 64.9454 9.604C65.0014 9.66 65.0294 9.73467 65.0294 9.828V13.72C65.0294 14.3173 64.936 14.8587 64.7494 15.344C64.5627 15.82 64.2967 16.2307 63.9514 16.576C63.606 16.912 63.1954 17.1687 62.7194 17.346C62.2527 17.5233 61.7347 17.6027 61.1654 17.584H60.1154C59.5087 17.584 58.9627 17.444 58.4774 17.164C57.992 16.884 57.6094 16.492 57.3294 15.988C57.0494 15.484 56.9094 14.9007 56.9094 14.238V9.828C56.9094 9.73467 56.9374 9.66 56.9934 9.604C57.0587 9.53867 57.138 9.506 57.2314 9.506H57.8194C57.9127 9.506 57.9874 9.53867 58.0434 9.604C58.1087 9.66 58.1414 9.73467 58.1414 9.828L58.1834 13.958C58.1834 14.7607 58.4074 15.3767 58.8554 15.806C59.3034 16.2353 59.8727 16.45 60.5634 16.45H60.9974ZM57.8894 14.812L57.8614 13.79C58.552 13.7807 59.0794 13.678 59.4434 13.482C59.8074 13.2767 60.0594 13.006 60.1994 12.67C60.3487 12.334 60.4234 11.9653 60.4234 11.564V9.828C60.4234 9.73467 60.4514 9.66 60.5074 9.604C60.5634 9.53867 60.6427 9.506 60.7454 9.506H61.3194C61.4127 9.506 61.4874 9.53867 61.5434 9.604C61.6087 9.66 61.6414 9.73467 61.6414 9.828V11.62C61.6414 12.2267 61.506 12.7727 61.2354 13.258C60.9647 13.7433 60.5494 14.126 59.9894 14.406C59.4387 14.686 58.7387 14.8213 57.8894 14.812ZM67.2122 14.252C67.1188 14.252 67.0395 14.224 66.9742 14.168C66.9182 14.1027 66.8902 14.0233 66.8902 13.93V9.828C66.8902 9.73467 66.9182 9.66 66.9742 9.604C67.0395 9.53867 67.1188 9.506 67.2122 9.506H67.8702C67.9728 9.506 68.0522 9.53867 68.1082 9.604C68.1642 9.66 68.1922 9.73467 68.1922 9.828V13.93C68.1922 14.0233 68.1642 14.1027 68.1082 14.168C68.0522 14.224 67.9728 14.252 67.8702 14.252H67.2122ZM70.4934 14.252C70.4001 14.252 70.3207 14.224 70.2554 14.168C70.1994 14.1027 70.1714 14.0233 70.1714 13.93V9.828C70.1714 9.73467 70.1994 9.66 70.2554 9.604C70.3207 9.53867 70.4001 9.506 70.4934 9.506H71.1514C71.2541 9.506 71.3334 9.53867 71.3894 9.604C71.4454 9.66 71.4734 9.73467 71.4734 9.828V13.93C71.4734 14.0233 71.4454 14.1027 71.3894 14.168C71.3334 14.224 71.2541 14.252 71.1514 14.252H70.4934ZM77.5423 10.626C77.449 10.626 77.3696 10.598 77.3043 10.542C77.2483 10.4767 77.2203 10.3973 77.2203 10.304V9.828C77.2203 9.73467 77.2483 9.66 77.3043 9.604C77.3696 9.53867 77.449 9.506 77.5423 9.506H80.5803C81.383 9.506 82.0456 9.63667 82.5683 9.898C83.1003 10.15 83.497 10.5327 83.7583 11.046C84.0196 11.55 84.1503 12.1753 84.1503 12.922V17.178C84.1503 17.2713 84.1176 17.3507 84.0523 17.416C83.9963 17.472 83.9216 17.5 83.8283 17.5H83.1983C83.0956 17.5 83.0163 17.472 82.9603 17.416C82.9043 17.3507 82.8763 17.2713 82.8763 17.178V12.992C82.8763 12.2453 82.685 11.6667 82.3023 11.256C81.929 10.836 81.327 10.626 80.4963 10.626H77.5423ZM78.8023 9.94H79.1523C79.2923 9.94 79.395 9.97733 79.4603 10.052C79.535 10.1173 79.5676 10.2013 79.5583 10.304C79.4836 10.696 79.4183 11.0507 79.3623 11.368C79.3156 11.6853 79.283 12.0027 79.2643 12.32C79.2456 12.628 79.2363 12.978 79.2363 13.37L79.2643 17.178C79.2643 17.2713 79.2363 17.3507 79.1803 17.416C79.1243 17.472 79.0496 17.5 78.9563 17.5L76.9683 17.472C76.875 17.472 76.7956 17.444 76.7303 17.388C76.6743 17.332 76.6463 17.2527 76.6463 17.15V16.702C76.6463 16.6087 76.6743 16.534 76.7303 16.478C76.7956 16.4127 76.875 16.38 76.9683 16.38L78.0463 16.394V13.426C78.0463 13.0433 78.051 12.6933 78.0603 12.376C78.0696 12.0493 78.0976 11.7227 78.1443 11.396C78.191 11.0693 78.2656 10.7007 78.3683 10.29C78.3963 10.1873 78.4383 10.1033 78.4943 10.038C78.5596 9.97267 78.6623 9.94 78.8023 9.94ZM86.4485 14.252C86.3552 14.252 86.2758 14.224 86.2105 14.168C86.1545 14.1027 86.1265 14.0233 86.1265 13.93V9.828C86.1265 9.73467 86.1545 9.66 86.2105 9.604C86.2758 9.53867 86.3552 9.506 86.4485 9.506H87.1065C87.2092 9.506 87.2885 9.53867 87.3445 9.604C87.4005 9.66 87.4285 9.73467 87.4285 9.828V13.93C87.4285 14.0233 87.4005 14.1027 87.3445 14.168C87.2885 14.224 87.2092 14.252 87.1065 14.252H86.4485ZM89.3797 17.5C89.2864 17.5 89.2071 17.472 89.1417 17.416C89.0857 17.3507 89.0577 17.2713 89.0577 17.178V16.702C89.0577 16.6087 89.0857 16.534 89.1417 16.478C89.2071 16.4127 89.2864 16.38 89.3797 16.38H93.3277V17.234C93.3277 17.3273 93.2951 17.3973 93.2297 17.444C93.1737 17.4813 93.0991 17.5 93.0057 17.5H89.3797ZM92.4737 17.5C92.3804 17.5 92.3057 17.472 92.2497 17.416C92.2031 17.3507 92.1704 17.2713 92.1517 17.178L91.8857 12.852C91.8671 12.3947 91.8297 11.998 91.7737 11.662C91.7271 11.326 91.6151 11.0647 91.4377 10.878C91.2697 10.6913 90.9851 10.598 90.5837 10.598H90.0097C89.9164 10.598 89.8371 10.57 89.7717 10.514C89.7157 10.4487 89.6877 10.3693 89.6877 10.276V9.8C89.6877 9.70667 89.7157 9.632 89.7717 9.576C89.8371 9.51067 89.9164 9.478 90.0097 9.478H90.5977C91.1297 9.478 91.5591 9.55733 91.8857 9.716C92.2124 9.86533 92.4644 10.0893 92.6417 10.388C92.8191 10.6867 92.9497 11.0413 93.0337 11.452C93.1177 11.8533 93.1737 12.306 93.2017 12.81L93.4537 17.178C93.4724 17.2713 93.4491 17.3507 93.3837 17.416C93.3184 17.472 93.2391 17.5 93.1457 17.5H92.4737ZM95.1929 17.5C95.0996 17.5 95.0202 17.472 94.9549 17.416C94.8989 17.3507 94.8709 17.2713 94.8709 17.178V16.702C94.8709 16.6087 94.8989 16.534 94.9549 16.478C95.0202 16.4127 95.0996 16.38 95.1929 16.38H99.2109V12.992C99.2109 12.2453 99.0242 11.6667 98.6509 11.256C98.2776 10.836 97.6756 10.626 96.8449 10.626H95.3329C95.2396 10.626 95.1602 10.598 95.0949 10.542C95.0389 10.4767 95.0109 10.3973 95.0109 10.304V9.828C95.0109 9.73467 95.0389 9.66 95.0949 9.604C95.1602 9.53867 95.2396 9.506 95.3329 9.506H96.9149C97.7176 9.506 98.3849 9.63667 98.9169 9.898C99.4489 10.1593 99.8456 10.5467 100.107 11.06C100.378 11.564 100.513 12.194 100.513 12.95V16.38H101.031C101.124 16.38 101.199 16.4127 101.255 16.478C101.32 16.534 101.353 16.6087 101.353 16.702V17.178C101.353 17.2713 101.32 17.3507 101.255 17.416C101.199 17.472 101.124 17.5 101.031 17.5H95.1929ZM103.396 10.626C103.302 10.626 103.223 10.598 103.158 10.542C103.102 10.4767 103.074 10.3973 103.074 10.304V9.828C103.074 9.73467 103.102 9.66 103.158 9.604C103.223 9.53867 103.302 9.506 103.396 9.506H106.434C107.236 9.506 107.899 9.63667 108.422 9.898C108.954 10.15 109.35 10.5327 109.612 11.046C109.873 11.55 110.004 12.1753 110.004 12.922V17.178C110.004 17.2713 109.971 17.3507 109.906 17.416C109.85 17.472 109.775 17.5 109.682 17.5H109.052C108.949 17.5 108.87 17.472 108.814 17.416C108.758 17.3507 108.73 17.2713 108.73 17.178V12.992C108.73 12.2453 108.538 11.6667 108.156 11.256C107.782 10.836 107.18 10.626 106.35 10.626H103.396ZM104.656 9.94H105.006C105.146 9.94 105.248 9.97733 105.314 10.052C105.388 10.1173 105.421 10.2013 105.412 10.304C105.337 10.696 105.272 11.0507 105.216 11.368C105.169 11.6853 105.136 12.0027 105.118 12.32C105.099 12.628 105.09 12.978 105.09 13.37L105.118 17.178C105.118 17.2713 105.09 17.3507 105.034 17.416C104.978 17.472 104.903 17.5 104.81 17.5L102.822 17.472C102.728 17.472 102.649 17.444 102.584 17.388C102.528 17.332 102.5 17.2527 102.5 17.15V16.702C102.5 16.6087 102.528 16.534 102.584 16.478C102.649 16.4127 102.728 16.38 102.822 16.38L103.9 16.394V13.426C103.9 13.0433 103.904 12.6933 103.914 12.376C103.923 12.0493 103.951 11.7227 103.998 11.396C104.044 11.0693 104.119 10.7007 104.222 10.29C104.25 10.1873 104.292 10.1033 104.348 10.038C104.413 9.97267 104.516 9.94 104.656 9.94Z" fill="#1E2775"/>
<rect x="121" y="4" width="18" height="18" rx="9" fill="#1E2775"/>
<path d="M135.143 13.8571H130.857V18.1429C130.857 18.6143 130.471 19 130 19C129.529 19 129.143 18.6143 129.143 18.1429V13.8571H124.857C124.386 13.8571 124 13.4714 124 13C124 12.5286 124.386 12.1429 124.857 12.1429H129.143V7.85714C129.143 7.38571 129.529 7 130 7C130.471 7 130.857 7.38571 130.857 7.85714V12.1429H135.143C135.614 12.1429 136 12.5286 136 13C136 13.4714 135.614 13.8571 135.143 13.8571Z" fill="white"/>
</svg>
