<svg width="97" height="26" viewBox="0 0 97 26" fill="none" xmlns="http://www.w3.org/2000/svg">
<path d="M9.52861 16.45C10.1353 16.4593 10.6439 16.3473 11.0546 16.114C11.4746 15.8807 11.7919 15.5493 12.0066 15.12C12.2306 14.6813 12.3426 14.182 12.3426 13.622V9.828C12.3426 9.73467 12.3706 9.66 12.4266 9.604C12.4919 9.53867 12.5713 9.506 12.6646 9.506H13.2386C13.3413 9.506 13.4206 9.53867 13.4766 9.604C13.5326 9.66 13.5606 9.73467 13.5606 9.828V13.72C13.5606 14.3173 13.4673 14.8587 13.2806 15.344C13.0939 15.82 12.8279 16.2307 12.4826 16.576C12.1373 16.912 11.7266 17.1687 11.2506 17.346C10.7839 17.5233 10.2659 17.6027 9.69661 17.584H8.64661C8.03994 17.584 7.49394 17.444 7.00861 17.164C6.52328 16.884 6.14061 16.492 5.86061 15.988C5.58061 15.484 5.44061 14.9007 5.44061 14.238V9.828C5.44061 9.73467 5.46861 9.66 5.52461 9.604C5.58994 9.53867 5.66928 9.506 5.76261 9.506H6.35061C6.44394 9.506 6.51861 9.53867 6.57461 9.604C6.63994 9.66 6.67261 9.73467 6.67261 9.828L6.71461 13.958C6.71461 14.7607 6.93861 15.3767 7.38661 15.806C7.83461 16.2353 8.40394 16.45 9.09461 16.45H9.52861ZM6.42061 14.812L6.39261 13.79C7.08328 13.7807 7.61061 13.678 7.97461 13.482C8.33861 13.2767 8.59061 13.006 8.73061 12.67C8.87994 12.334 8.95461 11.9653 8.95461 11.564V9.828C8.95461 9.73467 8.98261 9.66 9.03861 9.604C9.09461 9.53867 9.17394 9.506 9.27661 9.506H9.85061C9.94394 9.506 10.0186 9.53867 10.0746 9.604C10.1399 9.66 10.1726 9.73467 10.1726 9.828V11.62C10.1726 12.2267 10.0373 12.7727 9.76661 13.258C9.49594 13.7433 9.08061 14.126 8.52061 14.406C7.96994 14.686 7.26994 14.8213 6.42061 14.812ZM19.0614 17.5C18.8561 17.5 18.7534 17.3973 18.7534 17.192V12.194C18.7534 11.6433 18.8187 11.214 18.9494 10.906C19.0801 10.598 19.2434 10.444 19.4394 10.444H20.8114C20.5781 10.444 20.3867 10.6213 20.2374 10.976C20.0974 11.3307 20.0274 11.7693 20.0274 12.292V17.192C20.0274 17.2853 19.9947 17.36 19.9294 17.416C19.8641 17.472 19.7847 17.5 19.6914 17.5H19.0614ZM15.2814 10.626C15.1881 10.626 15.1087 10.598 15.0434 10.542C14.9874 10.4767 14.9594 10.3973 14.9594 10.304V9.828C14.9594 9.73467 14.9874 9.66 15.0434 9.604C15.1087 9.53867 15.1881 9.506 15.2814 9.506H21.2874C21.3807 9.506 21.4554 9.53867 21.5114 9.604C21.5767 9.66 21.6094 9.73467 21.6094 9.828V10.304C21.6094 10.3973 21.5767 10.4767 21.5114 10.542C21.4554 10.598 21.3807 10.626 21.2874 10.626H15.2814ZM23.6344 17.5C23.541 17.5 23.4617 17.472 23.3964 17.416C23.3404 17.3507 23.3124 17.2713 23.3124 17.178V9.828C23.3124 9.73467 23.3404 9.66 23.3964 9.604C23.4617 9.53867 23.541 9.506 23.6344 9.506H26.3504C27.1624 9.506 27.8297 9.63667 28.3524 9.898C28.8844 10.15 29.281 10.5327 29.5424 11.046C29.8037 11.55 29.9344 12.1847 29.9344 12.95V17.178C29.9344 17.2713 29.9017 17.3507 29.8364 17.416C29.7804 17.472 29.7057 17.5 29.6124 17.5H28.9824C28.8797 17.5 28.8004 17.472 28.7444 17.416C28.6884 17.3507 28.6604 17.2713 28.6604 17.178V12.992C28.6604 12.2453 28.4737 11.6667 28.1004 11.256C27.727 10.836 27.1204 10.626 26.2804 10.626H24.5864V17.178C24.5864 17.2713 24.5584 17.3507 24.5024 17.416C24.4464 17.472 24.367 17.5 24.2644 17.5H23.6344ZM38.6395 17.5C38.4342 17.5 38.3315 17.3973 38.3315 17.192V12.194C38.3315 11.6433 38.3969 11.214 38.5275 10.906C38.6582 10.598 38.8215 10.444 39.0175 10.444H40.3895C40.1562 10.444 39.9649 10.6213 39.8155 10.976C39.6755 11.3307 39.6055 11.7693 39.6055 12.292V17.192C39.6055 17.2853 39.5729 17.36 39.5075 17.416C39.4422 17.472 39.3629 17.5 39.2695 17.5H38.6395ZM34.8595 10.626C34.7662 10.626 34.6869 10.598 34.6215 10.542C34.5655 10.4767 34.5375 10.3973 34.5375 10.304V9.828C34.5375 9.73467 34.5655 9.66 34.6215 9.604C34.6869 9.53867 34.7662 9.506 34.8595 9.506H40.8655C40.9589 9.506 41.0335 9.53867 41.0895 9.604C41.1549 9.66 41.1875 9.73467 41.1875 9.828V10.304C41.1875 10.3973 41.1549 10.4767 41.0895 10.542C41.0335 10.598 40.9589 10.626 40.8655 10.626H34.8595ZM46.5448 17.5C46.4515 17.5 46.3768 17.472 46.3208 17.416C46.2742 17.3507 46.2415 17.2713 46.2228 17.178L45.3688 12.88C45.2755 12.3853 45.1635 11.9747 45.0328 11.648C44.9115 11.312 44.7435 11.06 44.5288 10.892C44.3235 10.7147 44.0388 10.626 43.6748 10.626H43.1708C43.0775 10.626 42.9982 10.598 42.9328 10.542C42.8768 10.4767 42.8488 10.3973 42.8488 10.304V9.8C42.8488 9.70667 42.8768 9.632 42.9328 9.576C42.9982 9.51067 43.0775 9.478 43.1708 9.478H43.6888C44.3142 9.478 44.8182 9.604 45.2008 9.856C45.5835 10.0987 45.8868 10.4673 46.1108 10.962C46.3442 11.4567 46.5355 12.0727 46.6848 12.81L47.5248 17.178C47.5435 17.2713 47.5202 17.3507 47.4548 17.416C47.3895 17.472 47.3102 17.5 47.2168 17.5H46.5448ZM44.7388 16.786C44.3935 17.0193 44.0668 17.2013 43.7588 17.332C43.4602 17.4533 43.1475 17.5467 42.8208 17.612C42.7275 17.6213 42.6482 17.612 42.5828 17.584C42.5175 17.556 42.4848 17.4953 42.4848 17.402V16.702C42.4848 16.5433 42.5828 16.4267 42.7788 16.352C42.8442 16.324 42.9655 16.282 43.1428 16.226C43.3202 16.17 43.5115 16.1 43.7168 16.016C43.9222 15.9227 44.0995 15.8293 44.2488 15.736C44.4822 15.5867 44.7108 15.3953 44.9348 15.162C45.1588 14.9193 45.3455 14.672 45.4948 14.42C45.6535 14.1587 45.7328 13.93 45.7328 13.734L46.5448 13.636C46.5355 14.0373 46.4468 14.4433 46.2788 14.854C46.1108 15.2647 45.8915 15.638 45.6208 15.974C45.3502 16.31 45.0562 16.5807 44.7388 16.786ZM54.5709 17.5C54.4682 17.5 54.3889 17.472 54.3329 17.416C54.2769 17.36 54.2255 17.3133 54.1789 17.276L49.0409 10.052C48.9755 9.94933 48.9429 9.86067 48.9429 9.786C48.9429 9.71133 48.9709 9.646 49.0269 9.59C49.0922 9.534 49.1622 9.506 49.2369 9.506H49.8809C49.9929 9.506 50.0769 9.534 50.1329 9.59C50.1982 9.646 50.2495 9.69733 50.2869 9.744L55.4389 16.954C55.4762 17.0193 55.4995 17.0707 55.5089 17.108C55.5275 17.1453 55.5369 17.1827 55.5369 17.22C55.5369 17.2947 55.5089 17.36 55.4529 17.416C55.3969 17.472 55.3269 17.5 55.2429 17.5H54.5709ZM49.1109 17.5C49.0175 17.5 48.9382 17.472 48.8729 17.416C48.8169 17.3507 48.7889 17.2713 48.7889 17.178V15.078C48.7889 14.6487 48.8309 14.2427 48.9149 13.86C48.9989 13.468 49.1622 13.0993 49.4049 12.754C49.6569 12.3993 50.0302 12.068 50.5249 11.76L51.1689 12.698C50.8329 12.9127 50.5809 13.16 50.4129 13.44C50.2449 13.7107 50.1329 13.9953 50.0769 14.294C50.0209 14.5833 49.9929 14.8633 49.9929 15.134V17.178C49.9929 17.2713 49.9602 17.3507 49.8949 17.416C49.8389 17.472 49.7642 17.5 49.6709 17.5H49.1109ZM53.4509 14.938L52.8769 13.972C53.3342 13.7573 53.6562 13.5333 53.8429 13.3C54.0389 13.0667 54.1555 12.824 54.1929 12.572C54.2302 12.3107 54.2489 12.04 54.2489 11.76V9.828C54.2489 9.73467 54.2769 9.66 54.3329 9.604C54.3982 9.53867 54.4775 9.506 54.5709 9.506H55.1589C55.2522 9.506 55.3269 9.53867 55.3829 9.604C55.4482 9.66 55.4809 9.73467 55.4809 9.828V11.83C55.4809 12.222 55.4342 12.6 55.3409 12.964C55.2475 13.328 55.0562 13.6733 54.7669 14C54.4869 14.3267 54.0482 14.6393 53.4509 14.938ZM60.8553 10.654H57.4533C57.3507 10.654 57.2713 10.626 57.2153 10.57C57.1593 10.5047 57.1313 10.4253 57.1313 10.332V9.828C57.1313 9.73467 57.1593 9.66 57.2153 9.604C57.2713 9.53867 57.3507 9.506 57.4533 9.506H61.0093C61.588 9.506 62.1013 9.64133 62.5493 9.912C63.0067 10.1827 63.3613 10.5747 63.6133 11.088C63.8747 11.592 64.0053 12.2033 64.0053 12.922V17.178C64.0053 17.2713 63.9727 17.3507 63.9073 17.416C63.8513 17.472 63.7767 17.5 63.6833 17.5H60.0713C59.978 17.5 59.8987 17.472 59.8333 17.416C59.7773 17.3507 59.7493 17.2713 59.7493 17.178V16.702C59.7493 16.6087 59.7773 16.534 59.8333 16.478C59.8987 16.4127 59.978 16.38 60.0713 16.38H62.7313V13.006C62.7313 12.53 62.6473 12.1147 62.4793 11.76C62.3207 11.4053 62.0967 11.1347 61.8073 10.948C61.5273 10.752 61.21 10.654 60.8553 10.654ZM57.3133 17.5C57.2293 17.5 57.1593 17.4673 57.1033 17.402C57.0473 17.3367 57.024 17.2573 57.0333 17.164L58.2233 10.304C58.242 10.2107 58.284 10.1407 58.3493 10.094C58.4147 10.038 58.494 10.0193 58.5873 10.038L59.1473 10.066C59.2407 10.0753 59.3153 10.1173 59.3713 10.192C59.4273 10.2573 59.4413 10.3367 59.4133 10.43L58.3073 17.164C58.298 17.2573 58.256 17.3367 58.1813 17.402C58.116 17.4673 58.0367 17.5 57.9433 17.5H57.3133Z" fill="#1E2775"/>
<rect x="75" y="4" width="18" height="18" rx="9" fill="#1E2775"/>
<path d="M89.1429 13.8571H84.8571V18.1429C84.8571 18.6143 84.4714 19 84 19C83.5286 19 83.1429 18.6143 83.1429 18.1429V13.8571H78.8571C78.3857 13.8571 78 13.4714 78 13C78 12.5286 78.3857 12.1429 78.8571 12.1429H83.1429V7.85714C83.1429 7.38571 83.5286 7 84 7C84.4714 7 84.8571 7.38571 84.8571 7.85714V12.1429H89.1429C89.6143 12.1429 90 12.5286 90 13C90 13.4714 89.6143 13.8571 89.1429 13.8571Z" fill="white"/>
</svg>
