<svg width="150" height="26" viewBox="0 0 150 26" fill="none" xmlns="http://www.w3.org/2000/svg">
<path d="M11.5305 17.5C11.4372 17.5 11.3579 17.472 11.2925 17.416C11.2365 17.3507 11.2085 17.2713 11.2085 17.178V12.992C11.2085 12.2453 11.0219 11.6667 10.6485 11.256C10.2752 10.836 9.67321 10.626 8.84255 10.626H6.21055C6.11721 10.626 6.03788 10.598 5.97255 10.542C5.91655 10.4767 5.88855 10.3973 5.88855 10.304V9.828C5.88855 9.73467 5.91655 9.66 5.97255 9.604C6.03788 9.53867 6.11721 9.506 6.21055 9.506H8.91255C10.1259 9.506 11.0219 9.8 11.6005 10.388C12.1885 10.976 12.4825 11.83 12.4825 12.95V17.178C12.4825 17.2713 12.4499 17.3507 12.3845 17.416C12.3285 17.472 12.2539 17.5 12.1605 17.5H11.5305ZM6.21055 17.5C6.11721 17.5 6.03788 17.472 5.97255 17.416C5.91655 17.3507 5.88855 17.2713 5.88855 17.178V12.502C5.88855 12.4087 5.91655 12.334 5.97255 12.278C6.03788 12.2127 6.11721 12.18 6.21055 12.18H6.84055C6.94321 12.18 7.02255 12.2127 7.07855 12.278C7.13455 12.334 7.16255 12.4087 7.16255 12.502V17.178C7.16255 17.2713 7.13455 17.3507 7.07855 17.416C7.02255 17.472 6.94321 17.5 6.84055 17.5H6.21055ZM18.5325 16.45C19.1392 16.4593 19.6478 16.3473 20.0585 16.114C20.4785 15.8807 20.7958 15.5493 21.0105 15.12C21.2345 14.6813 21.3465 14.182 21.3465 13.622V9.828C21.3465 9.73467 21.3745 9.66 21.4305 9.604C21.4958 9.53867 21.5752 9.506 21.6685 9.506H22.2425C22.3452 9.506 22.4245 9.53867 22.4805 9.604C22.5365 9.66 22.5645 9.73467 22.5645 9.828V13.72C22.5645 14.3173 22.4712 14.8587 22.2845 15.344C22.0978 15.82 21.8318 16.2307 21.4865 16.576C21.1412 16.912 20.7305 17.1687 20.2545 17.346C19.7878 17.5233 19.2698 17.6027 18.7005 17.584H17.6505C17.0438 17.584 16.4978 17.444 16.0125 17.164C15.5272 16.884 15.1445 16.492 14.8645 15.988C14.5845 15.484 14.4445 14.9007 14.4445 14.238V9.828C14.4445 9.73467 14.4725 9.66 14.5285 9.604C14.5938 9.53867 14.6732 9.506 14.7665 9.506H15.3545C15.4478 9.506 15.5225 9.53867 15.5785 9.604C15.6438 9.66 15.6765 9.73467 15.6765 9.828L15.7185 13.958C15.7185 14.7607 15.9425 15.3767 16.3905 15.806C16.8385 16.2353 17.4078 16.45 18.0985 16.45H18.5325ZM15.4245 14.812L15.3965 13.79C16.0872 13.7807 16.6145 13.678 16.9785 13.482C17.3425 13.2767 17.5945 13.006 17.7345 12.67C17.8838 12.334 17.9585 11.9653 17.9585 11.564V9.828C17.9585 9.73467 17.9865 9.66 18.0425 9.604C18.0985 9.53867 18.1778 9.506 18.2805 9.506H18.8545C18.9478 9.506 19.0225 9.53867 19.0785 9.604C19.1438 9.66 19.1765 9.73467 19.1765 9.828V11.62C19.1765 12.2267 19.0412 12.7727 18.7705 13.258C18.4998 13.7433 18.0845 14.126 17.5245 14.406C16.9738 14.686 16.2738 14.8213 15.4245 14.812ZM28.0653 17.5C27.86 17.5 27.7573 17.3973 27.7573 17.192V12.194C27.7573 11.6433 27.8226 11.214 27.9533 10.906C28.084 10.598 28.2473 10.444 28.4433 10.444H29.8153C29.582 10.444 29.3906 10.6213 29.2413 10.976C29.1013 11.3307 29.0313 11.7693 29.0313 12.292V17.192C29.0313 17.2853 28.9986 17.36 28.9333 17.416C28.868 17.472 28.7886 17.5 28.6953 17.5H28.0653ZM24.2853 10.626C24.192 10.626 24.1126 10.598 24.0473 10.542C23.9913 10.4767 23.9633 10.3973 23.9633 10.304V9.828C23.9633 9.73467 23.9913 9.66 24.0473 9.604C24.1126 9.53867 24.192 9.506 24.2853 9.506H30.2913C30.3846 9.506 30.4593 9.53867 30.5153 9.604C30.5806 9.66 30.6133 9.73467 30.6133 9.828V10.304C30.6133 10.3973 30.5806 10.4767 30.5153 10.542C30.4593 10.598 30.3846 10.626 30.2913 10.626H24.2853ZM32.6383 17.5C32.5449 17.5 32.4656 17.472 32.4003 17.416C32.3443 17.3507 32.3163 17.2713 32.3163 17.178V9.828C32.3163 9.73467 32.3443 9.66 32.4003 9.604C32.4656 9.53867 32.5449 9.506 32.6383 9.506H35.3543C36.1663 9.506 36.8336 9.63667 37.3563 9.898C37.8883 10.15 38.2849 10.5327 38.5463 11.046C38.8076 11.55 38.9383 12.1847 38.9383 12.95V17.178C38.9383 17.2713 38.9056 17.3507 38.8403 17.416C38.7843 17.472 38.7096 17.5 38.6163 17.5H37.9863C37.8836 17.5 37.8043 17.472 37.7483 17.416C37.6923 17.3507 37.6643 17.2713 37.6643 17.178V12.992C37.6643 12.2453 37.4776 11.6667 37.1043 11.256C36.7309 10.836 36.1243 10.626 35.2843 10.626H33.5903V17.178C33.5903 17.2713 33.5623 17.3507 33.5063 17.416C33.4503 17.472 33.3709 17.5 33.2683 17.5H32.6383ZM48.6654 12.992C48.6654 12.2453 48.4741 11.6667 48.0914 11.256C47.7181 10.836 47.1161 10.626 46.2854 10.626H44.2274C44.1341 10.626 44.0548 10.598 43.9894 10.542C43.9334 10.4767 43.9054 10.3973 43.9054 10.304V9.828C43.9054 9.73467 43.9334 9.66 43.9894 9.604C44.0548 9.53867 44.1341 9.506 44.2274 9.506H46.3554C47.1674 9.506 47.8348 9.632 48.3574 9.884C48.8894 10.1267 49.2861 10.5 49.5474 11.004C49.8088 11.4987 49.9394 12.138 49.9394 12.922V18.914C49.9394 19.0073 49.9068 19.082 49.8414 19.138C49.7854 19.2033 49.7108 19.236 49.6174 19.236H48.9874C48.8848 19.236 48.8054 19.2033 48.7494 19.138C48.6934 19.082 48.6654 19.0073 48.6654 18.914V12.992ZM52.2415 14.252C52.1481 14.252 52.0688 14.224 52.0035 14.168C51.9475 14.1027 51.9195 14.0233 51.9195 13.93V9.828C51.9195 9.73467 51.9475 9.66 52.0035 9.604C52.0688 9.53867 52.1481 9.506 52.2415 9.506H52.8995C53.0021 9.506 53.0815 9.53867 53.1375 9.604C53.1935 9.66 53.2215 9.73467 53.2215 9.828V13.93C53.2215 14.0233 53.1935 14.1027 53.1375 14.168C53.0815 14.224 53.0021 14.252 52.8995 14.252H52.2415ZM57.0207 17.626C56.9367 17.654 56.8574 17.64 56.7827 17.584C56.708 17.5373 56.6707 17.4673 56.6707 17.374V16.73C56.6707 16.646 56.694 16.5713 56.7407 16.506C56.7967 16.4407 56.876 16.3893 56.9787 16.352L57.5247 16.142C57.8887 15.9927 58.22 15.806 58.5187 15.582C58.8267 15.3487 59.0647 15.036 59.2327 14.644C59.41 14.252 59.4987 13.7387 59.4987 13.104C59.4987 12.4973 59.424 12.0167 59.2747 11.662C59.1347 11.298 58.892 11.0413 58.5467 10.892C58.2107 10.7333 57.7487 10.654 57.1607 10.654H56.7407C56.6474 10.654 56.568 10.626 56.5027 10.57C56.4467 10.5047 56.4187 10.4253 56.4187 10.332V9.828C56.4187 9.73467 56.4467 9.66 56.5027 9.604C56.568 9.53867 56.6474 9.506 56.7407 9.506H57.3567C58.206 9.506 58.8827 9.62733 59.3867 9.87C59.8907 10.1127 60.25 10.5047 60.4647 11.046C60.6887 11.578 60.8007 12.278 60.8007 13.146C60.8007 13.7993 60.712 14.364 60.5347 14.84C60.3574 15.316 60.1147 15.722 59.8067 16.058C59.508 16.394 59.1674 16.674 58.7847 16.898C58.402 17.1127 58.0054 17.29 57.5947 17.43L57.0207 17.626ZM57.0487 10.654L55.3827 10.64C55.2894 10.64 55.21 10.612 55.1447 10.556C55.0887 10.5 55.0607 10.4253 55.0607 10.332V7.882C55.0607 7.78867 55.0887 7.714 55.1447 7.658C55.21 7.59267 55.2894 7.56 55.3827 7.56H55.9707C56.064 7.56 56.1387 7.59267 56.1947 7.658C56.26 7.714 56.2927 7.78867 56.2927 7.882V9.506H57.0767L57.0487 10.654ZM68.2825 17.5C68.1892 17.5 68.1098 17.472 68.0445 17.416C67.9885 17.3507 67.9605 17.2713 67.9605 17.178V12.992C67.9605 12.2453 67.7738 11.6667 67.4005 11.256C67.0272 10.836 66.4252 10.626 65.5945 10.626H62.9625C62.8692 10.626 62.7898 10.598 62.7245 10.542C62.6685 10.4767 62.6405 10.3973 62.6405 10.304V9.828C62.6405 9.73467 62.6685 9.66 62.7245 9.604C62.7898 9.53867 62.8692 9.506 62.9625 9.506H65.6645C66.8778 9.506 67.7738 9.8 68.3525 10.388C68.9405 10.976 69.2345 11.83 69.2345 12.95V17.178C69.2345 17.2713 69.2018 17.3507 69.1365 17.416C69.0805 17.472 69.0058 17.5 68.9125 17.5H68.2825ZM62.9625 17.5C62.8692 17.5 62.7898 17.472 62.7245 17.416C62.6685 17.3507 62.6405 17.2713 62.6405 17.178V12.502C62.6405 12.4087 62.6685 12.334 62.7245 12.278C62.7898 12.2127 62.8692 12.18 62.9625 12.18H63.5925C63.6952 12.18 63.7745 12.2127 63.8305 12.278C63.8865 12.334 63.9145 12.4087 63.9145 12.502V17.178C63.9145 17.2713 63.8865 17.3507 63.8305 17.416C63.7745 17.472 63.6952 17.5 63.5925 17.5H62.9625ZM71.8685 10.626C71.7751 10.626 71.6958 10.598 71.6305 10.542C71.5745 10.4767 71.5465 10.3973 71.5465 10.304V9.828C71.5465 9.73467 71.5745 9.66 71.6305 9.604C71.6958 9.53867 71.7751 9.506 71.8685 9.506H74.9065C75.7091 9.506 76.3718 9.63667 76.8945 9.898C77.4265 10.15 77.8231 10.5327 78.0845 11.046C78.3458 11.55 78.4765 12.1753 78.4765 12.922V17.178C78.4765 17.2713 78.4438 17.3507 78.3785 17.416C78.3225 17.472 78.2478 17.5 78.1545 17.5H77.5245C77.4218 17.5 77.3425 17.472 77.2865 17.416C77.2305 17.3507 77.2025 17.2713 77.2025 17.178V12.992C77.2025 12.2453 77.0111 11.6667 76.6285 11.256C76.2551 10.836 75.6531 10.626 74.8225 10.626H71.8685ZM73.1285 9.94H73.4785C73.6185 9.94 73.7211 9.97733 73.7865 10.052C73.8611 10.1173 73.8938 10.2013 73.8845 10.304C73.8098 10.696 73.7445 11.0507 73.6885 11.368C73.6418 11.6853 73.6091 12.0027 73.5905 12.32C73.5718 12.628 73.5625 12.978 73.5625 13.37L73.5905 17.178C73.5905 17.2713 73.5625 17.3507 73.5065 17.416C73.4505 17.472 73.3758 17.5 73.2825 17.5L71.2945 17.472C71.2011 17.472 71.1218 17.444 71.0565 17.388C71.0005 17.332 70.9725 17.2527 70.9725 17.15V16.702C70.9725 16.6087 71.0005 16.534 71.0565 16.478C71.1218 16.4127 71.2011 16.38 71.2945 16.38L72.3725 16.394V13.426C72.3725 13.0433 72.3771 12.6933 72.3865 12.376C72.3958 12.0493 72.4238 11.7227 72.4705 11.396C72.5171 11.0693 72.5918 10.7007 72.6945 10.29C72.7225 10.1873 72.7645 10.1033 72.8205 10.038C72.8858 9.97267 72.9885 9.94 73.1285 9.94ZM84.5423 10.626C84.449 10.626 84.3696 10.598 84.3043 10.542C84.2483 10.4767 84.2203 10.3973 84.2203 10.304V9.828C84.2203 9.73467 84.2483 9.66 84.3043 9.604C84.3696 9.53867 84.449 9.506 84.5423 9.506H87.5803C88.383 9.506 89.0456 9.63667 89.5683 9.898C90.1003 10.15 90.497 10.5327 90.7583 11.046C91.0196 11.55 91.1503 12.1753 91.1503 12.922V17.178C91.1503 17.2713 91.1176 17.3507 91.0523 17.416C90.9963 17.472 90.9216 17.5 90.8283 17.5H90.1983C90.0956 17.5 90.0163 17.472 89.9603 17.416C89.9043 17.3507 89.8763 17.2713 89.8763 17.178V12.992C89.8763 12.2453 89.685 11.6667 89.3023 11.256C88.929 10.836 88.327 10.626 87.4963 10.626H84.5423ZM85.8023 9.94H86.1523C86.2923 9.94 86.395 9.97733 86.4603 10.052C86.535 10.1173 86.5676 10.2013 86.5583 10.304C86.4836 10.696 86.4183 11.0507 86.3623 11.368C86.3156 11.6853 86.283 12.0027 86.2643 12.32C86.2456 12.628 86.2363 12.978 86.2363 13.37L86.2643 17.178C86.2643 17.2713 86.2363 17.3507 86.1803 17.416C86.1243 17.472 86.0496 17.5 85.9563 17.5L83.9683 17.472C83.875 17.472 83.7956 17.444 83.7303 17.388C83.6743 17.332 83.6463 17.2527 83.6463 17.15V16.702C83.6463 16.6087 83.6743 16.534 83.7303 16.478C83.7956 16.4127 83.875 16.38 83.9683 16.38L85.0463 16.394V13.426C85.0463 13.0433 85.051 12.6933 85.0603 12.376C85.0696 12.0493 85.0976 11.7227 85.1443 11.396C85.191 11.0693 85.2656 10.7007 85.3683 10.29C85.3963 10.1873 85.4383 10.1033 85.4943 10.038C85.5596 9.97267 85.6623 9.94 85.8023 9.94ZM93.4485 14.252C93.3552 14.252 93.2758 14.224 93.2105 14.168C93.1545 14.1027 93.1265 14.0233 93.1265 13.93V9.828C93.1265 9.73467 93.1545 9.66 93.2105 9.604C93.2758 9.53867 93.3552 9.506 93.4485 9.506H94.1065C94.2092 9.506 94.2885 9.53867 94.3445 9.604C94.4005 9.66 94.4285 9.73467 94.4285 9.828V13.93C94.4285 14.0233 94.4005 14.1027 94.3445 14.168C94.2885 14.224 94.2092 14.252 94.1065 14.252H93.4485ZM96.3797 17.5C96.2864 17.5 96.2071 17.472 96.1417 17.416C96.0857 17.3507 96.0577 17.2713 96.0577 17.178V16.702C96.0577 16.6087 96.0857 16.534 96.1417 16.478C96.2071 16.4127 96.2864 16.38 96.3797 16.38H100.328V17.234C100.328 17.3273 100.295 17.3973 100.23 17.444C100.174 17.4813 100.099 17.5 100.006 17.5H96.3797ZM99.4737 17.5C99.3804 17.5 99.3057 17.472 99.2497 17.416C99.2031 17.3507 99.1704 17.2713 99.1517 17.178L98.8857 12.852C98.8671 12.3947 98.8297 11.998 98.7737 11.662C98.7271 11.326 98.6151 11.0647 98.4377 10.878C98.2697 10.6913 97.9851 10.598 97.5837 10.598H97.0097C96.9164 10.598 96.8371 10.57 96.7717 10.514C96.7157 10.4487 96.6877 10.3693 96.6877 10.276V9.8C96.6877 9.70667 96.7157 9.632 96.7717 9.576C96.8371 9.51067 96.9164 9.478 97.0097 9.478H97.5977C98.1297 9.478 98.5591 9.55733 98.8857 9.716C99.2124 9.86533 99.4644 10.0893 99.6417 10.388C99.8191 10.6867 99.9497 11.0413 100.034 11.452C100.118 11.8533 100.174 12.306 100.202 12.81L100.454 17.178C100.472 17.2713 100.449 17.3507 100.384 17.416C100.318 17.472 100.239 17.5 100.146 17.5H99.4737ZM102.193 17.5C102.1 17.5 102.02 17.472 101.955 17.416C101.899 17.3507 101.871 17.2713 101.871 17.178V16.702C101.871 16.6087 101.899 16.534 101.955 16.478C102.02 16.4127 102.1 16.38 102.193 16.38H106.211V12.992C106.211 12.2453 106.024 11.6667 105.651 11.256C105.278 10.836 104.676 10.626 103.845 10.626H102.333C102.24 10.626 102.16 10.598 102.095 10.542C102.039 10.4767 102.011 10.3973 102.011 10.304V9.828C102.011 9.73467 102.039 9.66 102.095 9.604C102.16 9.53867 102.24 9.506 102.333 9.506H103.915C104.718 9.506 105.385 9.63667 105.917 9.898C106.449 10.1593 106.846 10.5467 107.107 11.06C107.378 11.564 107.513 12.194 107.513 12.95V16.38H108.031C108.124 16.38 108.199 16.4127 108.255 16.478C108.32 16.534 108.353 16.6087 108.353 16.702V17.178C108.353 17.2713 108.32 17.3507 108.255 17.416C108.199 17.472 108.124 17.5 108.031 17.5H102.193ZM110.396 10.626C110.302 10.626 110.223 10.598 110.158 10.542C110.102 10.4767 110.074 10.3973 110.074 10.304V9.828C110.074 9.73467 110.102 9.66 110.158 9.604C110.223 9.53867 110.302 9.506 110.396 9.506H113.434C114.236 9.506 114.899 9.63667 115.422 9.898C115.954 10.15 116.35 10.5327 116.612 11.046C116.873 11.55 117.004 12.1753 117.004 12.922V17.178C117.004 17.2713 116.971 17.3507 116.906 17.416C116.85 17.472 116.775 17.5 116.682 17.5H116.052C115.949 17.5 115.87 17.472 115.814 17.416C115.758 17.3507 115.73 17.2713 115.73 17.178V12.992C115.73 12.2453 115.538 11.6667 115.156 11.256C114.782 10.836 114.18 10.626 113.35 10.626H110.396ZM111.656 9.94H112.006C112.146 9.94 112.248 9.97733 112.314 10.052C112.388 10.1173 112.421 10.2013 112.412 10.304C112.337 10.696 112.272 11.0507 112.216 11.368C112.169 11.6853 112.136 12.0027 112.118 12.32C112.099 12.628 112.09 12.978 112.09 13.37L112.118 17.178C112.118 17.2713 112.09 17.3507 112.034 17.416C111.978 17.472 111.903 17.5 111.81 17.5L109.822 17.472C109.728 17.472 109.649 17.444 109.584 17.388C109.528 17.332 109.5 17.2527 109.5 17.15V16.702C109.5 16.6087 109.528 16.534 109.584 16.478C109.649 16.4127 109.728 16.38 109.822 16.38L110.9 16.394V13.426C110.9 13.0433 110.904 12.6933 110.914 12.376C110.923 12.0493 110.951 11.7227 110.998 11.396C111.044 11.0693 111.119 10.7007 111.222 10.29C111.25 10.1873 111.292 10.1033 111.348 10.038C111.413 9.97267 111.516 9.94 111.656 9.94Z" fill="#1E2775"/>
<rect x="128" y="4" width="18" height="18" rx="9" fill="#1E2775"/>
<path d="M142.143 13.8571H137.857V18.1429C137.857 18.6143 137.471 19 137 19C136.529 19 136.143 18.6143 136.143 18.1429V13.8571H131.857C131.386 13.8571 131 13.4714 131 13C131 12.5286 131.386 12.1429 131.857 12.1429H136.143V7.85714C136.143 7.38571 136.529 7 137 7C137.471 7 137.857 7.38571 137.857 7.85714V12.1429H142.143C142.614 12.1429 143 12.5286 143 13C143 13.4714 142.614 13.8571 142.143 13.8571Z" fill="white"/>
</svg>
