<svg aria-hidden="true" width="14" height="8" viewBox="0 0 14 8" fill="none" xmlns="http://www.w3.org/2000/svg">
        <path
            d="M12.853 4.18213C13.1292 4.18213 13.353 3.95827 13.353 3.68213C13.353 3.40599 13.1292 3.18213 12.853 3.18213V3.68213V4.18213ZM0.146446 3.32858C-0.0488157 3.52384 -0.0488157 3.84042 0.146446 4.03568L3.32843 7.21766C3.52369 7.41293 3.84027 7.41293 4.03553 7.21766C4.2308 7.0224 4.2308 6.70582 4.03553 6.51056L1.20711 3.68213L4.03553 0.853702C4.2308 0.65844 4.2308 0.341857 4.03553 0.146595C3.84027 -0.0486672 3.52369 -0.0486672 3.32843 0.146595L0.146446 3.32858ZM12.853 3.68213V3.18213L0.5 3.18213V3.68213V4.18213L12.853 4.18213V3.68213Z"
            fill="#9398C2"
        />
</svg>