<svg width="24" height="25" viewBox="0 0 24 25" fill="none" xmlns="http://www.w3.org/2000/svg">
<path d="M13.389 2.43896C11.5326 2.43896 9.96708 3.77551 9.96708 5.48584C9.96708 6.34975 10.3668 7.11803 11.0014 7.66707L11.3986 6.88567C11.0294 6.5012 10.8108 6.01065 10.8108 5.48584C10.8108 4.29662 11.9316 3.28271 13.3889 3.28271C14.8462 3.28271 15.967 4.29662 15.967 5.48584C15.967 6.30161 15.4395 7.03487 14.6378 7.41493L14.2871 8.42537C14.3757 8.40393 14.4635 8.37923 14.5502 8.35131L14.9795 9.10192C14.4955 9.44237 14.027 9.86439 13.5248 10.3897L17.3381 18.7987C19.6942 18.9073 21.9676 17.658 23.139 15.6107L18.0845 7.88396C17.1392 8.07273 16.3787 8.30837 15.6997 8.662L15.3205 7.999C16.2138 7.45454 16.8108 6.54165 16.8108 5.48589C16.8108 3.77556 15.2453 2.43901 13.389 2.43901V2.43896ZM7.63898 2.71773C7.5143 2.71914 7.38333 2.73976 7.25686 2.78092C6.96764 2.87486 6.72295 3.06845 6.61655 3.27732L6.60305 3.30404L3.56067 7.63047C3.46059 7.83915 3.44902 8.14361 3.53925 8.42593C3.63159 8.71454 3.82261 8.95586 4.01747 9.05509L10.7526 12.4845C10.9434 12.5817 11.249 12.5972 11.5329 12.5045C11.8116 12.4135 12.0484 12.2286 12.1612 12.0127L13.35 8.53173L13.357 8.53192L13.6536 7.67739C13.6495 7.67776 13.6454 7.67786 13.6414 7.67823L13.8713 7.00487L13.8849 6.97825C13.9913 6.76937 14.004 6.457 13.9107 6.16815C13.8174 5.87931 13.6247 5.63589 13.4216 5.53243L11.9179 4.76682C11.6112 5.15017 11.5171 5.69814 11.9017 6.21386L12.0006 6.37942L12.4829 6.63254L12.0959 7.39257L12.089 7.38929L11.7085 8.13789L11.7148 8.14093L11.4194 8.72106L6.65733 6.29631L7.52948 4.58359L7.72083 4.20765L9.16711 4.94415C9.24005 4.48431 9.39783 4.0419 9.65156 3.61271L8.06747 2.80623C7.94962 2.74623 7.7993 2.716 7.63898 2.71773ZM17.8544 8.87617L18.9832 10.9302L15.6146 12.7813L14.6889 11.0971L14.4857 10.7274L17.8544 8.87617ZM17.5213 10.022L15.6316 11.0604L15.9477 11.6356L17.8373 10.5971L17.5213 10.022ZM5.36733 10.6893L4.38905 12.6108L7.64723 14.2698L8.62566 12.3483L5.36733 10.6893ZM19.2992 11.5054L20.428 13.5593L17.0594 15.4104L16.1339 13.7262L15.9307 13.3565L19.2993 11.5053L19.2992 11.5054ZM18.9661 12.6511L17.0764 13.6896L17.3925 14.2647L19.2822 13.2263L18.9661 12.6511ZM4.67452 13.703H4.67442L0.861328 21.1915L1.14834 22.0742L4.77009 14.9615L5.52187 15.3444L1.90022 22.457L2.94905 22.116L3.55692 21.9183L3.22945 20.9079L4.23708 20.5811L3.90914 19.5729L4.91789 19.2449L4.66617 18.4713L6.59602 14.6814L4.67452 13.703Z" fill="#1E2775"/>
</svg>
