<svg width="34" height="34" viewBox="0 0 34 34" fill="none" xmlns="http://www.w3.org/2000/svg">
<rect width="34" height="34" rx="5" fill="#CCCFE6"/>
<rect width="6" height="6" rx="1" transform="matrix(-1 0 0 1 26.5 9.5)" fill="#1E2775"/>
<rect width="6" height="6" rx="1" transform="matrix(-1 0 0 1 26.5 18.5)" fill="#1E2775"/>
<rect width="6" height="6" rx="1" transform="matrix(-1 0 0 1 13.5 14)" fill="#1E2775"/>
<path d="M19.5 12H17.5" stroke="#1E2775"/>
<path d="M16.5 17H14.5" stroke="#1E2775"/>
<line y1="-0.5" x2="2" y2="-0.5" transform="matrix(-1 8.74228e-08 8.74228e-08 1 19.5 22)" stroke="#1E2775"/>
<line y1="-0.5" x2="10.5" y2="-0.5" transform="matrix(-4.37114e-08 1 1 4.37114e-08 17.5 11.5)" stroke="#1E2775"/>
</svg>
