<svg width="11" height="9" viewBox="0 0 11 9" fill="none" xmlns="http://www.w3.org/2000/svg">
<path d="M3.4398 6.83539L1.2984 4.69398C1.18301 4.57859 1.02651 4.51377 0.863327 4.51377C0.700145 4.51377 0.543646 4.57859 0.428258 4.69398C0.312871 4.80937 0.248047 4.96587 0.248047 5.12905C0.248047 5.20985 0.263962 5.28986 0.294882 5.36451C0.325803 5.43916 0.371124 5.50699 0.428258 5.56412L3.00782 8.14368C3.24849 8.38435 3.63728 8.38435 3.87795 8.14368L10.4071 1.61456C10.5225 1.49917 10.5873 1.34267 10.5873 1.17949C10.5873 1.01631 10.5225 0.859808 10.4071 0.744421C10.2917 0.629033 10.1352 0.564209 9.972 0.564209C9.80882 0.564209 9.65232 0.629033 9.53693 0.744421L3.4398 6.83539Z" fill="#1ABC00"/>
</svg>
