<svg width="19" height="89" viewBox="0 0 19 89" fill="none" xmlns="http://www.w3.org/2000/svg">
<path d="M2 0.297112C2 0.13302 2.13302 0 2.29711 0C2.68183 0 3.00288 0.293751 3.03698 0.676955L4 11.5L4.34186 14.0905C5.03692 19.3576 7.58369 24.2055 11.5264 27.7665C21.214 36.5162 21.3838 51.6675 11.8945 60.6321L11.4464 61.0555C7.55117 64.7353 5.06696 69.6626 4.42468 74.9825L4 78.5L3.04249 88.3253C3.00519 88.7081 2.68344 89 2.29886 89C2.13381 89 2 88.8662 2 88.7011V0.297112Z" fill="#F2F4FA"/>
<path d="M8.49984 48.0833L12.0415 44.5417L8.49984 41" stroke="#1E2775" stroke-width="2" stroke-linecap="round" stroke-linejoin="round"/>
</svg>
