<svg width="7" height="8" viewBox="0 0 7 8" fill="none" xmlns="http://www.w3.org/2000/svg">
<path d="M0.410069 2.26294C0.359349 2.31325 0.319091 2.3731 0.291618 2.43904C0.264145 2.50499 0.25 2.57572 0.25 2.64716C0.25 2.71859 0.264145 2.78932 0.291618 2.85527C0.319091 2.92121 0.359349 2.98106 0.410069 3.03137L3.11579 5.73709C3.16609 5.78781 3.22595 5.82806 3.29189 5.85554C3.35783 5.88301 3.42856 5.89716 3.5 5.89716C3.57144 5.89716 3.64217 5.88301 3.70811 5.85554C3.77405 5.82806 3.83391 5.78781 3.88421 5.73709L6.58993 3.03137C6.64065 2.98106 6.68091 2.92121 6.70838 2.85527C6.73586 2.78932 6.75 2.71859 6.75 2.64716C6.75 2.57572 6.73586 2.50499 6.70838 2.43904C6.68091 2.3731 6.64065 2.31325 6.58993 2.26294C6.53962 2.21222 6.47977 2.17197 6.41383 2.14449C6.34789 2.11702 6.27716 2.10287 6.20572 2.10287C6.13428 2.10287 6.06355 2.11702 5.99761 2.14449C5.93166 2.17197 5.87181 2.21222 5.82151 2.26294L3.5 4.58986L1.17849 2.26294C1.12819 2.21222 1.06834 2.17197 1.00239 2.14449C0.936449 2.11702 0.865719 2.10287 0.794281 2.10287C0.722844 2.10287 0.652114 2.11702 0.58617 2.14449C0.520227 2.17197 0.460376 2.21222 0.410069 2.26294Z" fill="#9398C2"/>
</svg>
