<svg width="77" height="26" viewBox="0 0 77 26" fill="none" xmlns="http://www.w3.org/2000/svg">
<path d="M10.9587 11.108C10.8787 11.108 10.8107 11.084 10.7547 11.036C10.7067 10.98 10.6827 10.912 10.6827 10.832V10.424C10.6827 10.344 10.7067 10.28 10.7547 10.232C10.8107 10.176 10.8787 10.148 10.9587 10.148H13.5627C14.2507 10.148 14.8187 10.26 15.2667 10.484C15.7227 10.7 16.0627 11.028 16.2867 11.468C16.5107 11.9 16.6227 12.436 16.6227 13.076V16.724C16.6227 16.804 16.5947 16.872 16.5387 16.928C16.4907 16.976 16.4267 17 16.3467 17H15.8067C15.7187 17 15.6507 16.976 15.6027 16.928C15.5547 16.872 15.5307 16.804 15.5307 16.724V13.136C15.5307 12.496 15.3667 12 15.0387 11.648C14.7187 11.288 14.2027 11.108 13.4907 11.108H10.9587ZM12.0387 10.52H12.3387C12.4587 10.52 12.5467 10.552 12.6027 10.616C12.6667 10.672 12.6947 10.744 12.6867 10.832C12.6227 11.168 12.5667 11.472 12.5187 11.744C12.4787 12.016 12.4507 12.288 12.4347 12.56C12.4187 12.824 12.4107 13.124 12.4107 13.46L12.4347 16.724C12.4347 16.804 12.4107 16.872 12.3627 16.928C12.3147 16.976 12.2507 17 12.1707 17L10.4667 16.976C10.3867 16.976 10.3187 16.952 10.2627 16.904C10.2147 16.856 10.1907 16.788 10.1907 16.7V16.316C10.1907 16.236 10.2147 16.172 10.2627 16.124C10.3187 16.068 10.3867 16.04 10.4667 16.04L11.3907 16.052V13.508C11.3907 13.18 11.3947 12.88 11.4027 12.608C11.4107 12.328 11.4347 12.048 11.4747 11.768C11.5147 11.488 11.5787 11.172 11.6667 10.82C11.6907 10.732 11.7267 10.66 11.7747 10.604C11.8307 10.548 11.9187 10.52 12.0387 10.52ZM18.6766 17C18.5966 17 18.5286 16.976 18.4726 16.928C18.4246 16.872 18.4006 16.804 18.4006 16.724V10.424C18.4006 10.344 18.4246 10.28 18.4726 10.232C18.5286 10.176 18.5966 10.148 18.6766 10.148H19.2406C19.3286 10.148 19.3966 10.176 19.4446 10.232C19.4926 10.28 19.5166 10.344 19.5166 10.424V16.724C19.5166 16.804 19.4926 16.872 19.4446 16.928C19.3966 16.976 19.3286 17 19.2406 17H18.6766ZM24.4014 17C24.2254 17 24.1374 16.912 24.1374 16.736V12.452C24.1374 11.98 24.1934 11.612 24.3054 11.348C24.4174 11.084 24.5574 10.952 24.7254 10.952H25.9014C25.7014 10.952 25.5374 11.104 25.4094 11.408C25.2894 11.712 25.2294 12.088 25.2294 12.536V16.736C25.2294 16.816 25.2014 16.88 25.1454 16.928C25.0894 16.976 25.0214 17 24.9414 17H24.4014ZM21.1614 11.108C21.0814 11.108 21.0134 11.084 20.9574 11.036C20.9094 10.98 20.8854 10.912 20.8854 10.832V10.424C20.8854 10.344 20.9094 10.28 20.9574 10.232C21.0134 10.176 21.0814 10.148 21.1614 10.148H26.3094C26.3894 10.148 26.4534 10.176 26.5014 10.232C26.5574 10.28 26.5854 10.344 26.5854 10.424V10.832C26.5854 10.912 26.5574 10.98 26.5014 11.036C26.4534 11.084 26.3894 11.108 26.3094 11.108H21.1614ZM28.3211 17C28.2411 17 28.1731 16.976 28.1171 16.928C28.0691 16.872 28.0451 16.804 28.0451 16.724V10.424C28.0451 10.344 28.0691 10.28 28.1171 10.232C28.1731 10.176 28.2411 10.148 28.3211 10.148H28.8851C28.9731 10.148 29.0411 10.176 29.0891 10.232C29.1371 10.28 29.1611 10.344 29.1611 10.424V16.724C29.1611 16.804 29.1371 16.872 29.0891 16.928C29.0411 16.976 28.9731 17 28.8851 17H28.3211ZM34.0099 11.132H31.0939C31.0059 11.132 30.9379 11.108 30.8899 11.06C30.8419 11.004 30.8179 10.936 30.8179 10.856V10.424C30.8179 10.344 30.8419 10.28 30.8899 10.232C30.9379 10.176 31.0059 10.148 31.0939 10.148H34.1419C34.6379 10.148 35.0779 10.264 35.4619 10.496C35.8539 10.728 36.1579 11.064 36.3739 11.504C36.5979 11.936 36.7099 12.46 36.7099 13.076V16.724C36.7099 16.804 36.6819 16.872 36.6259 16.928C36.5779 16.976 36.5139 17 36.4339 17H33.3379C33.2579 17 33.1899 16.976 33.1339 16.928C33.0859 16.872 33.0619 16.804 33.0619 16.724V16.316C33.0619 16.236 33.0859 16.172 33.1339 16.124C33.1899 16.068 33.2579 16.04 33.3379 16.04H35.6179V13.148C35.6179 12.74 35.5459 12.384 35.4019 12.08C35.2659 11.776 35.0739 11.544 34.8259 11.384C34.5859 11.216 34.3139 11.132 34.0099 11.132ZM30.9739 17C30.9019 17 30.8419 16.972 30.7939 16.916C30.7459 16.86 30.7259 16.792 30.7339 16.712L31.7539 10.832C31.7699 10.752 31.8059 10.692 31.8619 10.652C31.9179 10.604 31.9859 10.588 32.0659 10.604L32.5459 10.628C32.6259 10.636 32.6899 10.672 32.7379 10.736C32.7859 10.792 32.7979 10.86 32.7739 10.94L31.8259 16.712C31.8179 16.792 31.7819 16.86 31.7179 16.916C31.6619 16.972 31.5939 17 31.5139 17H30.9739ZM38.4265 17.66C38.3465 17.692 38.2705 17.684 38.1985 17.636C38.1265 17.596 38.0905 17.536 38.0905 17.456V17.048C38.0905 16.976 38.1065 16.908 38.1385 16.844C38.1705 16.78 38.2225 16.74 38.2945 16.724L40.8265 15.884C41.2825 15.732 41.6345 15.536 41.8825 15.296C42.1305 15.056 42.3025 14.776 42.3985 14.456C42.5025 14.136 42.5545 13.788 42.5545 13.412V10.424C42.5545 10.344 42.5785 10.28 42.6265 10.232C42.6825 10.176 42.7505 10.148 42.8305 10.148H43.3705C43.4505 10.148 43.5145 10.176 43.5625 10.232C43.6185 10.28 43.6465 10.344 43.6465 10.424V13.748C43.6465 14.212 43.5385 14.652 43.3225 15.068C43.1145 15.476 42.8185 15.836 42.4345 16.148C42.0505 16.452 41.5945 16.684 41.0665 16.844L38.4265 17.66ZM39.9985 16.712L38.3065 10.628C38.2905 10.564 38.2745 10.516 38.2585 10.484C38.2505 10.452 38.2465 10.42 38.2465 10.388C38.2465 10.324 38.2705 10.268 38.3185 10.22C38.3665 10.172 38.4225 10.148 38.4865 10.148H39.0745C39.2265 10.148 39.3185 10.208 39.3505 10.328L41.0185 16.436L39.9985 16.712Z" fill="#c7c8cb"/>
<g clip-path="url(#clip0_4282_20007)">
<g clip-path="url(#clip1_4282_20007)">
<path d="M72.4697 5.10645V14.1063H71.3447V9.60638H66.8447V12.9813H65.7197V9.60638H61.2197V18.6063H63.4697V19.7312H54.4697V5.10645H72.4697ZM60.0947 9.60638H55.5947V18.6063H60.0947V9.60638ZM71.3447 8.4814V6.23143H55.5947V8.4814H71.3447ZM72.3818 17.0594L71.292 17.5076C71.3271 17.6834 71.3447 17.8621 71.3447 18.0438C71.3447 18.2254 71.3271 18.4041 71.292 18.5799L72.3818 19.0281L71.9512 20.074L70.8613 19.617C70.6562 19.9158 70.4043 20.1678 70.1055 20.3728L70.5625 21.4627L69.5166 21.8933L69.0684 20.8035C68.8926 20.8387 68.7139 20.8562 68.5322 20.8562C68.3506 20.8562 68.1719 20.8387 67.9961 20.8035L67.5479 21.8933L66.502 21.4627L66.959 20.3728C66.6602 20.1678 66.4082 19.9158 66.2031 19.617L65.1133 20.074L64.6826 19.0281L65.7725 18.5799C65.7373 18.4041 65.7197 18.2254 65.7197 18.0438C65.7197 17.8621 65.7373 17.6834 65.7725 17.5076L64.6826 17.0594L65.1133 16.0135L66.2031 16.4706C66.4082 16.1717 66.6602 15.9198 66.959 15.7147L66.502 14.6249L67.5479 14.1942L67.9961 15.284C68.1719 15.2489 68.3506 15.2313 68.5322 15.2313C68.7139 15.2313 68.8926 15.2489 69.0684 15.284L69.5166 14.1942L70.5625 14.6249L70.1055 15.7147C70.4043 15.9198 70.6562 16.1717 70.8613 16.4706L71.9512 16.0135L72.3818 17.0594ZM68.541 19.7312C68.7754 19.7312 68.9922 19.6873 69.1914 19.5994C69.3906 19.5115 69.5693 19.3914 69.7275 19.2391C69.8857 19.0867 70.0059 18.9051 70.0879 18.6942C70.1699 18.4832 70.2139 18.2635 70.2197 18.035C70.2197 17.8065 70.1758 17.5897 70.0879 17.3846C70 17.1795 69.8799 17.0008 69.7275 16.8485C69.5752 16.6961 69.3936 16.576 69.1826 16.4881C68.9717 16.4002 68.7549 16.3563 68.5322 16.3563C68.2979 16.3563 68.0781 16.4002 67.873 16.4881C67.668 16.576 67.4893 16.6991 67.3369 16.8573C67.1846 17.0155 67.0645 17.1942 66.9766 17.3934C66.8887 17.5926 66.8447 17.8123 66.8447 18.0526C66.8447 18.2869 66.8887 18.5037 66.9766 18.7029C67.0645 18.9022 67.1846 19.0809 67.3369 19.2391C67.4893 19.3973 67.6709 19.5174 67.8818 19.5994C68.0928 19.6814 68.3125 19.7254 68.541 19.7312Z" fill="#c7c8cb"/>
</g>
</g>
<defs>
<clipPath id="clip0_4282_20007">
<rect width="18" height="18" fill="white" transform="translate(54.5 4)"/>
</clipPath>
<clipPath id="clip1_4282_20007">
<rect width="18" height="18" fill="white" transform="matrix(1 0 0 -1 54.5 22)"/>
</clipPath>
</defs>
</svg>
