<svg width="16" height="17" viewBox="0 0 16 17" fill="none" xmlns="http://www.w3.org/2000/svg">
<path d="M8.0013 15.8343C7.82449 15.8343 7.65492 15.764 7.5299 15.639C7.40487 15.514 7.33464 15.3444 7.33464 15.1676V13.1676H4.66797C4.31435 13.1676 3.97521 13.0271 3.72516 12.7771C3.47511 12.527 3.33464 12.1879 3.33464 11.8343V5.1676C3.33464 4.81398 3.47511 4.47484 3.72516 4.22479C3.97521 3.97475 4.31435 3.83427 4.66797 3.83427H14.0013C14.3549 3.83427 14.6941 3.97475 14.9441 4.22479C15.1942 4.47484 15.3346 4.81398 15.3346 5.1676V11.8343C15.3346 12.1879 15.1942 12.527 14.9441 12.7771C14.6941 13.0271 14.3549 13.1676 14.0013 13.1676H11.268L8.8013 15.6409C8.66797 15.7676 8.5013 15.8343 8.33464 15.8343H8.0013ZM8.66797 11.8343V13.8876L10.7213 11.8343H14.0013V5.1676H4.66797V11.8343H8.66797ZM2.0013 10.5009H0.667969V2.50094C0.667969 2.14731 0.808445 1.80818 1.05849 1.55813C1.30854 1.30808 1.64768 1.1676 2.0013 1.1676H12.668V2.50094H2.0013V10.5009Z" fill="#9398C2"/>
</svg>
