<svg width="94" height="26" viewBox="0 0 94 26" fill="none" xmlns="http://www.w3.org/2000/svg">
<path d="M5.70781 18.488C5.62781 18.488 5.55981 18.46 5.50381 18.404C5.45581 18.356 5.43181 18.292 5.43181 18.212V10.424C5.43181 10.344 5.45581 10.28 5.50381 10.232C5.55981 10.176 5.62781 10.148 5.70781 10.148H6.24781C6.33581 10.148 6.40381 10.176 6.45181 10.232C6.49981 10.28 6.52381 10.344 6.52381 10.424V18.212C6.52381 18.292 6.49981 18.356 6.45181 18.404C6.40381 18.46 6.33581 18.488 6.24781 18.488H5.70781ZM8.64922 17C8.56922 17 8.50122 16.976 8.44522 16.928C8.39722 16.872 8.37322 16.804 8.37322 16.724V10.424C8.37322 10.344 8.39722 10.28 8.44522 10.232C8.50122 10.176 8.56922 10.148 8.64922 10.148H9.21322C9.30122 10.148 9.36922 10.176 9.41722 10.232C9.46522 10.28 9.48922 10.344 9.48922 10.424V16.724C9.48922 16.804 9.46522 16.872 9.41722 16.928C9.36922 16.976 9.30122 17 9.21322 17H8.64922ZM11.2301 17C11.1501 17 11.0821 16.976 11.0261 16.928C10.9781 16.872 10.9541 16.804 10.9541 16.724V16.316C10.9541 16.236 10.9781 16.172 11.0261 16.124C11.0821 16.068 11.1501 16.04 11.2301 16.04H14.6141V16.772C14.6141 16.852 14.5861 16.912 14.5301 16.952C14.4821 16.984 14.4181 17 14.3381 17H11.2301ZM13.8821 17C13.8021 17 13.7381 16.976 13.6901 16.928C13.6501 16.872 13.6221 16.804 13.6061 16.724L13.3781 13.016C13.3621 12.624 13.3301 12.284 13.2821 11.996C13.2421 11.708 13.1461 11.484 12.9941 11.324C12.8501 11.164 12.6061 11.084 12.2621 11.084H11.7701C11.6901 11.084 11.6221 11.06 11.5661 11.012C11.5181 10.956 11.4941 10.888 11.4941 10.808V10.4C11.4941 10.32 11.5181 10.256 11.5661 10.208C11.6221 10.152 11.6901 10.124 11.7701 10.124H12.2741C12.7301 10.124 13.0981 10.192 13.3781 10.328C13.6581 10.456 13.8741 10.648 14.0261 10.904C14.1781 11.16 14.2901 11.464 14.3621 11.816C14.4341 12.16 14.4821 12.548 14.5061 12.98L14.7221 16.724C14.7381 16.804 14.7181 16.872 14.6621 16.928C14.6061 16.976 14.5381 17 14.4581 17H13.8821ZM16.4168 14.216C16.3368 14.216 16.2688 14.192 16.2128 14.144C16.1648 14.088 16.1408 14.02 16.1408 13.94V10.424C16.1408 10.344 16.1648 10.28 16.2128 10.232C16.2688 10.176 16.3368 10.148 16.4168 10.148H16.9808C17.0688 10.148 17.1368 10.176 17.1848 10.232C17.2328 10.28 17.2568 10.344 17.2568 10.424V13.94C17.2568 14.02 17.2328 14.088 17.1848 14.144C17.1368 14.192 17.0688 14.216 16.9808 14.216H16.4168ZM21.9293 17.12C20.9293 17.12 20.1853 16.86 19.6973 16.34C19.2093 15.82 18.9653 15.08 18.9653 14.12V10.424C18.9653 10.344 18.9893 10.28 19.0373 10.232C19.0933 10.176 19.1613 10.148 19.2413 10.148H22.1333C22.8453 10.148 23.4133 10.256 23.8373 10.472C24.2613 10.688 24.5693 11.008 24.7613 11.432C24.9613 11.848 25.0733 12.364 25.0973 12.98C25.1053 13.06 25.1093 13.188 25.1093 13.364C25.1093 13.54 25.1093 13.716 25.1093 13.892C25.1093 14.068 25.1053 14.196 25.0973 14.276C25.0813 14.884 24.9653 15.404 24.7493 15.836C24.5333 16.26 24.1933 16.58 23.7293 16.796C23.2733 17.012 22.6733 17.12 21.9293 17.12ZM21.9293 16.136C22.6893 16.136 23.2253 15.98 23.5373 15.668C23.8493 15.348 24.0133 14.864 24.0293 14.216C24.0373 14.136 24.0413 14.016 24.0413 13.856C24.0413 13.696 24.0413 13.54 24.0413 13.388C24.0413 13.236 24.0373 13.12 24.0293 13.04C24.0133 12.4 23.8293 11.92 23.4773 11.6C23.1333 11.272 22.6653 11.108 22.0733 11.108H20.0093V14.12C20.0093 14.768 20.1693 15.268 20.4893 15.62C20.8093 15.964 21.2893 16.136 21.9293 16.136ZM32.5113 17.12C31.5113 17.12 30.7673 16.86 30.2793 16.34C29.7913 15.82 29.5473 15.08 29.5473 14.12V10.424C29.5473 10.344 29.5713 10.28 29.6193 10.232C29.6753 10.176 29.7433 10.148 29.8233 10.148H32.7153C33.4273 10.148 33.9953 10.256 34.4193 10.472C34.8433 10.688 35.1513 11.008 35.3433 11.432C35.5433 11.848 35.6553 12.364 35.6793 12.98C35.6873 13.06 35.6913 13.188 35.6913 13.364C35.6913 13.54 35.6913 13.716 35.6913 13.892C35.6913 14.068 35.6873 14.196 35.6793 14.276C35.6633 14.884 35.5473 15.404 35.3313 15.836C35.1153 16.26 34.7753 16.58 34.3113 16.796C33.8553 17.012 33.2553 17.12 32.5113 17.12ZM32.5113 16.136C33.2713 16.136 33.8073 15.98 34.1193 15.668C34.4313 15.348 34.5953 14.864 34.6113 14.216C34.6193 14.136 34.6233 14.016 34.6233 13.856C34.6233 13.696 34.6233 13.54 34.6233 13.388C34.6233 13.236 34.6193 13.12 34.6113 13.04C34.5953 12.4 34.4113 11.92 34.0593 11.6C33.7153 11.272 33.2473 11.108 32.6553 11.108H30.5913V14.12C30.5913 14.768 30.7513 15.268 31.0713 15.62C31.3913 15.964 31.8713 16.136 32.5113 16.136ZM37.5359 17C37.4559 17 37.3879 16.976 37.3319 16.928C37.2839 16.872 37.2599 16.804 37.2599 16.724V10.424C37.2599 10.344 37.2839 10.28 37.3319 10.232C37.3879 10.176 37.4559 10.148 37.5359 10.148H38.0999C38.1879 10.148 38.2559 10.176 38.3039 10.232C38.3519 10.28 38.3759 10.344 38.3759 10.424V16.724C38.3759 16.804 38.3519 16.872 38.3039 16.928C38.2559 16.976 38.1879 17 38.0999 17H37.5359ZM41.1968 11.132V12.068C41.2048 12.356 41.2408 12.596 41.3048 12.788C41.3688 12.98 41.4928 13.1 41.6768 13.148L42.1208 13.268C42.1848 13.284 42.2328 13.328 42.2648 13.4C42.3048 13.464 42.3248 13.544 42.3248 13.64V13.94C42.3248 14.028 42.2808 14.092 42.1928 14.132C42.1048 14.172 42.0088 14.184 41.9048 14.168L41.4368 14.072C41.1808 14.008 40.9608 13.896 40.7768 13.736C40.5928 13.568 40.4528 13.344 40.3568 13.064C40.2688 12.776 40.2248 12.432 40.2248 12.032V10.424C40.2248 10.344 40.2488 10.28 40.2968 10.232C40.3448 10.176 40.4128 10.148 40.5008 10.148H42.7208C43.3208 10.148 43.8208 10.268 44.2208 10.508C44.6208 10.74 44.9248 11.08 45.1328 11.528C45.3408 11.968 45.4528 12.5 45.4688 13.124C45.4768 13.244 45.4808 13.396 45.4808 13.58C45.4808 13.756 45.4768 13.904 45.4688 14.024C45.4528 14.64 45.3408 15.172 45.1328 15.62C44.9248 16.068 44.6208 16.412 44.2208 16.652C43.8208 16.884 43.3208 17 42.7208 17H40.6448C40.5648 17 40.4968 16.976 40.4408 16.928C40.3928 16.872 40.3688 16.804 40.3688 16.724V16.292C40.3688 16.212 40.3928 16.148 40.4408 16.1C40.4968 16.044 40.5648 16.016 40.6448 16.016H42.6608C43.2128 16.016 43.6368 15.84 43.9328 15.488C44.2368 15.128 44.4048 14.628 44.4368 13.988C44.4448 13.868 44.4488 13.732 44.4488 13.58C44.4488 13.42 44.4448 13.28 44.4368 13.16C44.4208 12.52 44.2568 12.024 43.9448 11.672C43.6408 11.312 43.2128 11.132 42.6608 11.132H41.1968ZM47.2488 14.216C47.1688 14.216 47.1008 14.192 47.0448 14.144C46.9968 14.088 46.9728 14.02 46.9728 13.94V10.424C46.9728 10.344 46.9968 10.28 47.0448 10.232C47.1008 10.176 47.1688 10.148 47.2488 10.148H47.8128C47.9008 10.148 47.9688 10.176 48.0168 10.232C48.0648 10.28 48.0888 10.344 48.0888 10.424V13.94C48.0888 14.02 48.0648 14.088 48.0168 14.144C47.9688 14.192 47.9008 14.216 47.8128 14.216H47.2488ZM54.5373 17C54.4493 17 54.3813 16.976 54.3333 16.928C54.2853 16.88 54.2413 16.84 54.2013 16.808L49.7973 10.616C49.7413 10.528 49.7133 10.452 49.7133 10.388C49.7133 10.324 49.7373 10.268 49.7853 10.22C49.8413 10.172 49.9013 10.148 49.9653 10.148H50.5173C50.6133 10.148 50.6853 10.172 50.7333 10.22C50.7893 10.268 50.8333 10.312 50.8653 10.352L55.2813 16.532C55.3133 16.588 55.3333 16.632 55.3413 16.664C55.3573 16.696 55.3653 16.728 55.3653 16.76C55.3653 16.824 55.3413 16.88 55.2933 16.928C55.2453 16.976 55.1853 17 55.1133 17H54.5373ZM49.8573 17C49.7773 17 49.7093 16.976 49.6533 16.928C49.6053 16.872 49.5813 16.804 49.5813 16.724V14.924C49.5813 14.556 49.6173 14.208 49.6893 13.88C49.7613 13.544 49.9013 13.228 50.1093 12.932C50.3253 12.628 50.6453 12.344 51.0693 12.08L51.6213 12.884C51.3333 13.068 51.1173 13.28 50.9733 13.52C50.8293 13.752 50.7333 13.996 50.6853 14.252C50.6373 14.5 50.6133 14.74 50.6133 14.972V16.724C50.6133 16.804 50.5853 16.872 50.5293 16.928C50.4813 16.976 50.4173 17 50.3373 17H49.8573ZM53.5773 14.804L53.0853 13.976C53.4773 13.792 53.7533 13.6 53.9133 13.4C54.0813 13.2 54.1813 12.992 54.2133 12.776C54.2453 12.552 54.2613 12.32 54.2613 12.08V10.424C54.2613 10.344 54.2853 10.28 54.3333 10.232C54.3893 10.176 54.4573 10.148 54.5373 10.148H55.0413C55.1213 10.148 55.1853 10.176 55.2333 10.232C55.2893 10.28 55.3173 10.344 55.3173 10.424V12.14C55.3173 12.476 55.2773 12.8 55.1973 13.112C55.1173 13.424 54.9533 13.72 54.7053 14C54.4653 14.28 54.0893 14.548 53.5773 14.804Z" fill="#1E2775"/>
<path d="M76 17H80C80.2549 17.0003 80.5 17.0979 80.6854 17.2728C80.8707 17.4478 80.9822 17.687 80.9972 17.9414C81.0121 18.1958 80.9293 18.4464 80.7657 18.6418C80.6022 18.8373 80.3701 18.9629 80.117 18.993L80 19H76C75.7451 18.9997 75.5 18.9021 75.3146 18.7272C75.1293 18.5522 75.0178 18.313 75.0028 18.0586C74.9879 17.8042 75.0707 17.5536 75.2343 17.3582C75.3979 17.1627 75.6299 17.0371 75.883 17.007L76 17ZM74 12H82C82.2549 12.0003 82.5 12.0979 82.6854 12.2728C82.8707 12.4478 82.9822 12.687 82.9972 12.9414C83.0121 13.1958 82.9293 13.4464 82.7657 13.6418C82.6022 13.8373 82.3701 13.9629 82.117 13.993L82 14H74C73.7451 13.9997 73.5 13.9021 73.3146 13.7272C73.1293 13.5522 73.0178 13.313 73.0028 13.0586C72.9879 12.8042 73.0707 12.5536 73.2343 12.3582C73.3979 12.1627 73.6299 12.0371 73.883 12.007L74 12ZM71 7H85C85.2549 7.00028 85.5 7.09788 85.6854 7.27285C85.8707 7.44782 85.9822 7.68695 85.9972 7.94139C86.0121 8.19584 85.9293 8.44638 85.7657 8.64183C85.6022 8.83729 85.3701 8.9629 85.117 8.993L85 9H71C70.7451 8.99972 70.5 8.90212 70.3146 8.72715C70.1293 8.55218 70.0178 8.31305 70.0028 8.05861C69.9879 7.80416 70.0707 7.55362 70.2343 7.35817C70.3979 7.16271 70.6299 7.0371 70.883 7.007L71 7Z" fill="#1E2775"/>
</svg>
