<svg width="76" height="26" viewBox="0 0 76 26" fill="none" xmlns="http://www.w3.org/2000/svg">
<path d="M19.0569 17C18.9769 17 18.9089 16.976 18.8529 16.928C18.8049 16.872 18.7809 16.804 18.7809 16.724V13.136C18.7809 12.496 18.6209 12 18.3009 11.648C17.9809 11.288 17.4649 11.108 16.7529 11.108H14.4969C14.4169 11.108 14.3489 11.084 14.2929 11.036C14.2449 10.98 14.2209 10.912 14.2209 10.832V10.424C14.2209 10.344 14.2449 10.28 14.2929 10.232C14.3489 10.176 14.4169 10.148 14.4969 10.148H16.8129C17.8529 10.148 18.6209 10.4 19.1169 10.904C19.6209 11.408 19.8729 12.14 19.8729 13.1V16.724C19.8729 16.804 19.8449 16.872 19.7889 16.928C19.7409 16.976 19.6769 17 19.5969 17H19.0569ZM14.4969 17C14.4169 17 14.3489 16.976 14.2929 16.928C14.2449 16.872 14.2209 16.804 14.2209 16.724V12.716C14.2209 12.636 14.2449 12.572 14.2929 12.524C14.3489 12.468 14.4169 12.44 14.4969 12.44H15.0369C15.1249 12.44 15.1929 12.468 15.2409 12.524C15.2889 12.572 15.3129 12.636 15.3129 12.716V16.724C15.3129 16.804 15.2889 16.872 15.2409 16.928C15.1929 16.976 15.1249 17 15.0369 17H14.4969ZM24.417 17C24.241 17 24.153 16.912 24.153 16.736V12.452C24.153 11.98 24.209 11.612 24.321 11.348C24.433 11.084 24.573 10.952 24.741 10.952H25.917C25.717 10.952 25.553 11.104 25.425 11.408C25.305 11.712 25.245 12.088 25.245 12.536V16.736C25.245 16.816 25.217 16.88 25.161 16.928C25.105 16.976 25.037 17 24.957 17H24.417ZM21.177 11.108C21.097 11.108 21.029 11.084 20.973 11.036C20.925 10.98 20.901 10.912 20.901 10.832V10.424C20.901 10.344 20.925 10.28 20.973 10.232C21.029 10.176 21.097 10.148 21.177 10.148H26.325C26.405 10.148 26.469 10.176 26.517 10.232C26.573 10.28 26.601 10.344 26.601 10.424V10.832C26.601 10.912 26.573 10.98 26.517 11.036C26.469 11.084 26.405 11.108 26.325 11.108H21.177ZM31.9367 17C31.8567 17 31.7887 16.976 31.7327 16.928C31.6847 16.872 31.6607 16.804 31.6607 16.724V13.136C31.6607 12.496 31.5007 12 31.1807 11.648C30.8607 11.288 30.3447 11.108 29.6327 11.108H28.0607C27.9807 11.108 27.9127 11.084 27.8567 11.036C27.8087 10.98 27.7847 10.912 27.7847 10.832V10.424C27.7847 10.344 27.8087 10.28 27.8567 10.232C27.9127 10.176 27.9807 10.148 28.0607 10.148H29.6927C30.3807 10.148 30.9487 10.256 31.3967 10.472C31.8527 10.688 32.1927 11.016 32.4167 11.456C32.6407 11.888 32.7527 12.428 32.7527 13.076V16.724C32.7527 16.804 32.7247 16.872 32.6687 16.928C32.6207 16.976 32.5567 17 32.4767 17H31.9367ZM34.8055 17C34.7255 17 34.6575 16.976 34.6015 16.928C34.5535 16.872 34.5295 16.804 34.5295 16.724V10.424C34.5295 10.344 34.5535 10.28 34.6015 10.232C34.6575 10.176 34.7255 10.148 34.8055 10.148H35.3695C35.4575 10.148 35.5255 10.176 35.5735 10.232C35.6215 10.28 35.6455 10.344 35.6455 10.424V16.724C35.6455 16.804 35.6215 16.872 35.5735 16.928C35.5255 16.976 35.4575 17 35.3695 17H34.8055ZM42.3303 17C42.2503 17 42.1823 16.976 42.1263 16.928C42.0783 16.872 42.0543 16.804 42.0543 16.724V13.136C42.0543 12.496 41.8943 12 41.5743 11.648C41.2543 11.288 40.7383 11.108 40.0263 11.108H37.7703C37.6903 11.108 37.6223 11.084 37.5663 11.036C37.5183 10.98 37.4943 10.912 37.4943 10.832V10.424C37.4943 10.344 37.5183 10.28 37.5663 10.232C37.6223 10.176 37.6903 10.148 37.7703 10.148H40.0863C41.1263 10.148 41.8943 10.4 42.3903 10.904C42.8943 11.408 43.1463 12.14 43.1463 13.1V16.724C43.1463 16.804 43.1183 16.872 43.0623 16.928C43.0143 16.976 42.9503 17 42.8703 17H42.3303ZM37.7703 17C37.6903 17 37.6223 16.976 37.5663 16.928C37.5183 16.872 37.4943 16.804 37.4943 16.724V12.716C37.4943 12.636 37.5183 12.572 37.5663 12.524C37.6223 12.468 37.6903 12.44 37.7703 12.44H38.3103C38.3983 12.44 38.4663 12.468 38.5143 12.524C38.5623 12.572 38.5863 12.636 38.5863 12.716V16.724C38.5863 16.804 38.5623 16.872 38.5143 16.928C38.4663 16.976 38.3983 17 38.3103 17H37.7703Z" fill="#1E2775"/>
<g clip-path="url(#clip0_1532_38977)">
<path d="M56.3335 16.3363V17.1663C56.3335 17.8294 56.5969 18.4653 57.0657 18.9341C57.5346 19.4029 58.1705 19.6663 58.8335 19.6663H67.1668C67.8299 19.6663 68.4658 19.4029 68.9346 18.9341C69.4034 18.4653 69.6668 17.8294 69.6668 17.1663V16.333" stroke="#1E2775" stroke-width="1.335" stroke-linecap="round" stroke-linejoin="round"/>
<path d="M63.0002 6.74935V11.3327V15.916M63.0002 15.916L65.9168 12.9993M63.0002 15.916L60.0835 12.9993" stroke="#1E2775" stroke-width="1.335" stroke-linecap="round" stroke-linejoin="round"/>
</g>
<defs>
<clipPath id="clip0_1532_38977">
<rect width="15" height="15" fill="white" transform="translate(55.5 5.5)"/>
</clipPath>
</defs>
</svg>
