<svg width="16" height="19" viewBox="0 0 16 19" fill="none" xmlns="http://www.w3.org/2000/svg">
<path d="M1.67073 15.4004C2.21152 15.4004 2.65004 14.9617 2.65022 14.4209V3.79981C2.65033 3.24761 3.098 2.79981 3.65022 2.79981H11.5614C12.1072 2.79981 12.5496 2.35738 12.5496 1.81153C12.5496 1.26573 12.1072 0.823246 11.5614 0.823246H2.44222C1.94734 0.823246 1.52318 0.999244 1.17073 1.35157C0.818232 1.70407 0.691239 2.12219 0.691239 2.61719V14.4209C0.691418 14.9617 1.12992 15.4004 1.67073 15.4004ZM14.7225 18.5029C15.2748 18.5029 15.7225 18.0552 15.7225 17.5029V5.10254C15.7223 4.55044 15.2746 4.10254 14.7225 4.10254H5.02327C4.47112 4.10254 4.02348 4.55044 4.02327 5.10254V17.5029C4.02327 18.0552 4.47099 18.5029 5.02327 18.5029H14.7225Z" fill="black" fill-opacity="0.54"/>
</svg>
