<svg width="76" height="26" viewBox="0 0 76 26" fill="none" xmlns="http://www.w3.org/2000/svg">
<path d="M16.8069 17C16.7269 17 16.6589 16.976 16.6029 16.928C16.5549 16.872 16.5309 16.804 16.5309 16.724V13.136C16.5309 12.496 16.3709 12 16.0509 11.648C15.7309 11.288 15.2149 11.108 14.5029 11.108H12.2469C12.1669 11.108 12.0989 11.084 12.0429 11.036C11.9949 10.98 11.9709 10.912 11.9709 10.832V10.424C11.9709 10.344 11.9949 10.28 12.0429 10.232C12.0989 10.176 12.1669 10.148 12.2469 10.148H14.5629C15.6029 10.148 16.3709 10.4 16.8669 10.904C17.3709 11.408 17.6229 12.14 17.6229 13.1V16.724C17.6229 16.804 17.5949 16.872 17.5389 16.928C17.4909 16.976 17.4269 17 17.3469 17H16.8069ZM12.2469 17C12.1669 17 12.0989 16.976 12.0429 16.928C11.9949 16.872 11.9709 16.804 11.9709 16.724V12.716C11.9709 12.636 11.9949 12.572 12.0429 12.524C12.0989 12.468 12.1669 12.44 12.2469 12.44H12.7869C12.8749 12.44 12.9429 12.468 12.9909 12.524C13.0389 12.572 13.0629 12.636 13.0629 12.716V16.724C13.0629 16.804 13.0389 16.872 12.9909 16.928C12.9429 16.976 12.8749 17 12.7869 17H12.2469ZM20.6539 17.108C20.5819 17.132 20.5139 17.12 20.4499 17.072C20.3859 17.032 20.3539 16.972 20.3539 16.892V16.34C20.3539 16.268 20.3739 16.204 20.4139 16.148C20.4619 16.092 20.5299 16.048 20.6179 16.016L21.0859 15.836C21.3979 15.708 21.6819 15.548 21.9379 15.356C22.2019 15.156 22.4059 14.888 22.5499 14.552C22.7019 14.216 22.7779 13.776 22.7779 13.232C22.7779 12.712 22.7139 12.3 22.5859 11.996C22.4659 11.684 22.2579 11.464 21.9619 11.336C21.6739 11.2 21.2779 11.132 20.7739 11.132H20.4139C20.3339 11.132 20.2659 11.108 20.2099 11.06C20.1619 11.004 20.1379 10.936 20.1379 10.856V10.424C20.1379 10.344 20.1619 10.28 20.2099 10.232C20.2659 10.176 20.3339 10.148 20.4139 10.148H20.9419C21.6699 10.148 22.2499 10.252 22.6819 10.46C23.1139 10.668 23.4219 11.004 23.6059 11.468C23.7979 11.924 23.8939 12.524 23.8939 13.268C23.8939 13.828 23.8179 14.312 23.6659 14.72C23.5139 15.128 23.3059 15.476 23.0419 15.764C22.7859 16.052 22.4939 16.292 22.1659 16.484C21.8379 16.668 21.4979 16.82 21.1459 16.94L20.6539 17.108ZM20.6779 11.132L19.2499 11.12C19.1699 11.12 19.1019 11.096 19.0459 11.048C18.9979 11 18.9739 10.936 18.9739 10.856V8.756C18.9739 8.676 18.9979 8.612 19.0459 8.564C19.1019 8.508 19.1699 8.48 19.2499 8.48H19.7539C19.8339 8.48 19.8979 8.508 19.9459 8.564C20.0019 8.612 20.0299 8.676 20.0299 8.756V10.148H20.7019L20.6779 11.132ZM28.5069 17C28.3309 17 28.2429 16.912 28.2429 16.736V12.452C28.2429 11.98 28.2989 11.612 28.4109 11.348C28.5229 11.084 28.6629 10.952 28.8309 10.952H30.0069C29.8069 10.952 29.6429 11.104 29.5149 11.408C29.3949 11.712 29.3349 12.088 29.3349 12.536V16.736C29.3349 16.816 29.3069 16.88 29.2509 16.928C29.1949 16.976 29.1269 17 29.0469 17H28.5069ZM25.2669 11.108C25.1869 11.108 25.1189 11.084 25.0629 11.036C25.0149 10.98 24.9909 10.912 24.9909 10.832V10.424C24.9909 10.344 25.0149 10.28 25.0629 10.232C25.1189 10.176 25.1869 10.148 25.2669 10.148H30.4149C30.4949 10.148 30.5589 10.176 30.6069 10.232C30.6629 10.28 30.6909 10.344 30.6909 10.424V10.832C30.6909 10.912 30.6629 10.98 30.6069 11.036C30.5589 11.084 30.4949 11.108 30.4149 11.108H25.2669ZM35.2828 17C35.2028 17 35.1388 16.976 35.0908 16.928C35.0508 16.872 35.0228 16.804 35.0068 16.724L34.2748 13.04C34.1948 12.616 34.0988 12.264 33.9868 11.984C33.8828 11.696 33.7388 11.48 33.5548 11.336C33.3788 11.184 33.1348 11.108 32.8228 11.108H32.3908C32.3108 11.108 32.2428 11.084 32.1868 11.036C32.1388 10.98 32.1148 10.912 32.1148 10.832V10.4C32.1148 10.32 32.1388 10.256 32.1868 10.208C32.2428 10.152 32.3108 10.124 32.3908 10.124H32.8348C33.3708 10.124 33.8028 10.232 34.1308 10.448C34.4588 10.656 34.7188 10.972 34.9108 11.396C35.1108 11.82 35.2748 12.348 35.4028 12.98L36.1228 16.724C36.1388 16.804 36.1188 16.872 36.0628 16.928C36.0068 16.976 35.9388 17 35.8588 17H35.2828ZM33.7348 16.388C33.4388 16.588 33.1588 16.744 32.8948 16.856C32.6388 16.96 32.3708 17.04 32.0908 17.096C32.0108 17.104 31.9428 17.096 31.8868 17.072C31.8308 17.048 31.8028 16.996 31.8028 16.916V16.316C31.8028 16.18 31.8868 16.08 32.0548 16.016C32.1108 15.992 32.2148 15.956 32.3668 15.908C32.5188 15.86 32.6828 15.8 32.8588 15.728C33.0348 15.648 33.1868 15.568 33.3148 15.488C33.5148 15.36 33.7108 15.196 33.9028 14.996C34.0948 14.788 34.2548 14.576 34.3828 14.36C34.5188 14.136 34.5868 13.94 34.5868 13.772L35.2828 13.688C35.2748 14.032 35.1988 14.38 35.0548 14.732C34.9108 15.084 34.7228 15.404 34.4908 15.692C34.2588 15.98 34.0068 16.212 33.7348 16.388ZM42.3303 17C42.2503 17 42.1823 16.976 42.1263 16.928C42.0783 16.872 42.0543 16.804 42.0543 16.724V13.136C42.0543 12.496 41.8943 12 41.5743 11.648C41.2543 11.288 40.7383 11.108 40.0263 11.108H37.7703C37.6903 11.108 37.6223 11.084 37.5663 11.036C37.5183 10.98 37.4943 10.912 37.4943 10.832V10.424C37.4943 10.344 37.5183 10.28 37.5663 10.232C37.6223 10.176 37.6903 10.148 37.7703 10.148H40.0863C41.1263 10.148 41.8943 10.4 42.3903 10.904C42.8943 11.408 43.1463 12.14 43.1463 13.1V16.724C43.1463 16.804 43.1183 16.872 43.0623 16.928C43.0143 16.976 42.9503 17 42.8703 17H42.3303ZM37.7703 17C37.6903 17 37.6223 16.976 37.5663 16.928C37.5183 16.872 37.4943 16.804 37.4943 16.724V12.716C37.4943 12.636 37.5183 12.572 37.5663 12.524C37.6223 12.468 37.6903 12.44 37.7703 12.44H38.3103C38.3983 12.44 38.4663 12.468 38.5143 12.524C38.5623 12.572 38.5863 12.636 38.5863 12.716V16.724C38.5863 16.804 38.5623 16.872 38.5143 16.928C38.4663 16.976 38.3983 17 38.3103 17H37.7703Z" fill="#1E2775"/>
<path d="M57.75 7H67.5" stroke="#1E2775" stroke-width="1.335" stroke-linecap="round"/>
<path d="M57.75 19H67.5" stroke="#1E2775" stroke-width="1.335" stroke-linecap="round"/>
<path d="M62.625 9.25L59.625 10.75" stroke="#1E2775" stroke-width="0.75" stroke-linecap="round"/>
<path d="M62.625 9.25L65.625 10.75" stroke="#1E2775" stroke-width="0.75" stroke-linecap="round"/>
<path d="M62.625 16.75L59.625 15.25" stroke="#1E2775" stroke-width="0.75" stroke-linecap="round"/>
<path d="M62.625 16.75L65.625 15.25" stroke="#1E2775" stroke-width="0.75" stroke-linecap="round"/>
<path d="M62.625 16L62.625 10" stroke="#1E2775" stroke-width="1.335" stroke-linecap="round"/>
</svg>
