<svg width="11" height="11" viewBox="0 0 11 11" fill="none" xmlns="http://www.w3.org/2000/svg">
<path d="M2.9631 1.80448C2.62927 1.80448 2.30911 1.9371 2.07306 2.17315C1.837 2.40921 1.70439 2.72937 1.70439 3.0632V8.4577C1.70439 9.15251 2.26829 9.71641 2.9631 9.71641H8.3576C8.69143 9.71641 9.01159 9.5838 9.24764 9.34774C9.4837 9.11169 9.61631 8.79153 9.61631 8.4577V7.01916C9.61631 6.87609 9.67315 6.73888 9.77431 6.63772C9.87548 6.53655 10.0127 6.47971 10.1558 6.47971C10.2988 6.47971 10.436 6.53655 10.5372 6.63772C10.6384 6.73888 10.6952 6.87609 10.6952 7.01916V8.4577C10.6952 9.07767 10.4489 9.67225 10.0105 10.1106C9.57215 10.549 8.97757 10.7953 8.3576 10.7953H2.9631C2.34313 10.7953 1.74855 10.549 1.31016 10.1106C0.871772 9.67225 0.625488 9.07767 0.625488 8.4577V3.0632C0.625488 2.44323 0.871772 1.84865 1.31016 1.41026C1.74855 0.97187 2.34313 0.725586 2.9631 0.725586H4.40163C4.54471 0.725586 4.68192 0.782421 4.78308 0.883587C4.88425 0.984753 4.94108 1.12196 4.94108 1.26504C4.94108 1.40811 4.88425 1.54532 4.78308 1.64648C4.68192 1.74765 4.54471 1.80448 4.40163 1.80448H2.9631ZM6.01998 1.26504C6.01998 1.12196 6.07682 0.984753 6.17798 0.883587C6.27915 0.782421 6.41636 0.725586 6.55943 0.725586H10.1558C10.2988 0.725586 10.436 0.782421 10.5372 0.883587C10.6384 0.984753 10.6952 1.12196 10.6952 1.26504V4.86137C10.6952 5.00444 10.6384 5.14165 10.5372 5.24281C10.436 5.34398 10.2988 5.40082 10.1558 5.40082C10.0127 5.40082 9.87548 5.34398 9.77431 5.24281C9.67315 5.14165 9.61631 5.00444 9.61631 4.86137V2.56691L6.94064 5.24258C6.89126 5.29558 6.8317 5.33809 6.76553 5.36757C6.69936 5.39706 6.62792 5.41291 6.55549 5.41419C6.48306 5.41547 6.41111 5.40214 6.34394 5.37501C6.27677 5.34788 6.21575 5.3075 6.16453 5.25627C6.1133 5.20504 6.07292 5.14403 6.04579 5.07686C6.01866 5.00969 6.00533 4.93774 6.00661 4.86531C6.00789 4.79287 6.02374 4.72144 6.05323 4.65527C6.08271 4.5891 6.12522 4.52954 6.17822 4.48015L8.85389 1.80448H6.55943C6.41636 1.80448 6.27915 1.74765 6.17798 1.64648C6.07682 1.54532 6.01998 1.40811 6.01998 1.26504Z" fill="white"/>
</svg>
