<svg width="23" height="29" viewBox="0 0 23 29" fill="none" xmlns="http://www.w3.org/2000/svg">
<rect x="0.5" y="0.5" width="22" height="28" rx="3.07812" stroke="#9398C2" stroke-dasharray="3 3"/>
<g clip-path="url(#clip0_131_289)">
<path d="M12.7891 9.66602V4.1875H4.73242C4.19666 4.1875 3.76562 4.61853 3.76562 5.1543V23.8457C3.76562 24.3815 4.19666 24.8125 4.73242 24.8125H18.2676C18.8033 24.8125 19.2344 24.3815 19.2344 23.8457V10.6328H13.7559C13.2241 10.6328 12.7891 10.1978 12.7891 9.66602ZM19.2344 9.09802V9.34375H14.0781V4.1875H14.3239C14.5817 4.1875 14.8274 4.28821 15.0087 4.46948L18.9524 8.41724C19.1337 8.59851 19.2344 8.84424 19.2344 9.09802Z" fill="#9398C2"/>
</g>
<defs>
<clipPath id="clip0_131_289">
<rect width="15.4688" height="20.625" fill="white" transform="translate(3.76562 4.1875)"/>
</clipPath>
</defs>
</svg>
