<svg width="24" height="25" viewBox="0 0 24 25" fill="none" xmlns="http://www.w3.org/2000/svg">
<g id="Warning Sign" clip-path="url(#clip0_1757_99904)">
<path id="Vector" d="M20.2205 17.5266L13.7271 5.56661C13.5552 5.25075 13.3013 4.98708 12.9922 4.80337C12.683 4.61966 12.3301 4.52271 11.9705 4.52271C11.6108 4.52271 11.2579 4.61966 10.9487 4.80337C10.6396 4.98708 10.3857 5.25075 10.2138 5.56661L3.71379 17.5266C3.54365 17.832 3.45653 18.1766 3.46111 18.5262C3.46568 18.8757 3.56179 19.2179 3.73985 19.5187C3.91792 19.8196 4.17171 20.0685 4.47595 20.2406C4.78018 20.4128 5.12422 20.5022 5.47378 20.4999H18.4605C18.8071 20.5003 19.148 20.4104 19.4495 20.2393C19.751 20.0682 20.0029 19.8216 20.1803 19.5238C20.3578 19.226 20.4548 18.8871 20.4619 18.5405C20.4689 18.1939 20.3857 17.8514 20.2205 17.5466V17.5266ZM10.9738 8.99327C10.9738 8.72806 11.0791 8.4737 11.2667 8.28617C11.4542 8.09863 11.7086 7.99327 11.9738 7.99327C12.239 7.99327 12.4934 8.09863 12.6809 8.28617C12.8684 8.4737 12.9738 8.72806 12.9738 8.99327V13.5866C12.9738 13.8518 12.8684 14.1062 12.6809 14.2937C12.4934 14.4813 12.239 14.5866 11.9738 14.5866C11.7086 14.5866 11.4542 14.4813 11.2667 14.2937C11.0791 14.1062 10.9738 13.8518 10.9738 13.5866V8.99327ZM12.0005 17.9999C11.7737 17.9999 11.552 17.9327 11.3634 17.8067C11.1748 17.6807 11.0279 17.5016 10.9411 17.2921C10.8543 17.0826 10.8316 16.852 10.8758 16.6296C10.9201 16.4071 11.0293 16.2028 11.1896 16.0425C11.35 15.8821 11.5543 15.7729 11.7767 15.7286C11.9992 15.6844 12.2297 15.7071 12.4393 15.7939C12.6488 15.8807 12.8279 16.0277 12.9539 16.2162C13.0799 16.4048 13.1471 16.6265 13.1471 16.8533C13.1471 17.1574 13.0263 17.449 12.8113 17.6641C12.5962 17.8791 12.3046 17.9999 12.0005 17.9999Z" fill="#DD3500"/>
</g>
<defs>
<clipPath id="clip0_1757_99904">
<rect width="24" height="24" fill="white" transform="translate(0 0.5)"/>
</clipPath>
</defs>
</svg>
