<svg width="24" height="24" viewBox="0 0 24 24" fill="none" xmlns="http://www.w3.org/2000/svg">
<g clip-path="url(#clip0_1705_98666)">
<path d="M5.41748 12.9896L16.5875 12.9896L11.7075 17.8696C11.3175 18.2596 11.3175 18.8996 11.7075 19.2896C11.8 19.3823 11.9099 19.4558 12.0309 19.506C12.1518 19.5562 12.2815 19.582 12.4125 19.582C12.5434 19.582 12.6731 19.5562 12.7941 19.506C12.9151 19.4558 13.025 19.3823 13.1175 19.2896L19.7075 12.6996C19.8002 12.6071 19.8737 12.4972 19.9239 12.3762C19.9741 12.2552 19.9999 12.1256 19.9999 11.9946C19.9999 11.8636 19.9741 11.7339 19.9239 11.613C19.8737 11.492 19.8002 11.3821 19.7075 11.2896L13.1175 4.69959C13.0249 4.60701 12.915 4.53357 12.794 4.48346C12.6731 4.43336 12.5434 4.40757 12.4125 4.40757C12.2815 4.40757 12.1519 4.43336 12.0309 4.48346C11.91 4.53357 11.8001 4.60701 11.7075 4.69959C11.6149 4.79217 11.5415 4.90208 11.4914 5.02304C11.4412 5.14401 11.4155 5.27366 11.4155 5.40459C11.4155 5.53552 11.4412 5.66517 11.4914 5.78613C11.5415 5.90709 11.6149 6.01701 11.7075 6.10959L16.5875 10.9896L5.41748 10.9896C4.86748 10.9896 4.41748 11.4396 4.41748 11.9896C4.41748 12.5396 4.86748 12.9896 5.41748 12.9896Z" fill="#1E2775"/>
</g>
<defs>
<clipPath id="clip0_1705_98666">
<rect width="24" height="24" fill="white"/>
</clipPath>
</defs>
</svg>
