<svg width="19" height="21" viewBox="0 0 19 21" fill="none" xmlns="http://www.w3.org/2000/svg">
<path d="M0.815918 9.61681C0.815918 4.69412 5.00734 0.813688 9.91544 1.19245L10.3872 1.22885C14.658 1.55844 17.9668 5.10082 18.0046 9.38421L18.0191 11.0285C18.0504 14.5734 15.259 17.5015 11.7166 17.6396L12.7076 19.8692L11.8635 19.724C10.757 19.5337 9.75653 18.9498 9.04649 18.08C4.55066 18.2454 0.815918 14.6455 0.815918 10.1466V9.61681Z" fill="url(#paint0_linear_9764_45985)" fill-opacity="0.8"/>
<path d="M12.1375 2.98599H12.2438L12.2817 3.1302C12.2564 3.1302 12.2438 3.14285 12.2438 3.16815C12.3146 3.16815 12.35 3.19092 12.35 3.23646V3.27441C12.3045 3.24911 12.2691 3.23646 12.2438 3.23646C12.1982 3.26176 12.1628 3.27441 12.1375 3.27441L12.35 3.41862V3.44898H12.2817L12.1679 3.38067C12.1679 3.41609 12.1325 3.45151 12.0616 3.48693H12.0313V3.34272H12.0616L12.0313 3.27441C12.1223 3.22381 12.1679 3.16309 12.1679 3.09225C12.1476 3.04671 12.1375 3.01129 12.1375 2.98599ZM11.8491 3.52488C12.0869 3.60078 12.2058 3.70704 12.2058 3.84366C12.1654 3.86896 12.1173 3.8816 12.0616 3.8816V3.98786H12.2817C12.3273 3.99798 12.35 4.02328 12.35 4.06376C12.2084 4.14978 12.1375 4.20797 12.1375 4.23833C12.1375 4.31423 12.1856 4.41037 12.2817 4.52675C12.1654 4.71903 12.0819 4.81517 12.0313 4.81517V4.95179H12.0616V4.88348H12.1679C12.2185 4.8936 12.2438 4.91637 12.2438 4.95179C12.1223 4.98721 12.0616 5.02516 12.0616 5.06564L12.1375 5.1719C12.1375 5.21744 12.1122 5.24021 12.0616 5.24021L12.0996 5.31611C12.0996 5.33635 12.0869 5.34647 12.0616 5.34647C12.0869 5.39707 12.0996 5.43502 12.0996 5.46032C12.054 5.56658 12.006 5.62477 11.9554 5.63489L11.9933 5.71079V5.81705L11.9554 5.99162H11.8871V5.92331H11.8112V5.99162H11.8871L11.7808 6.09788C11.801 6.14848 11.8112 6.18643 11.8112 6.21173C11.7909 6.21173 11.7808 6.22185 11.7808 6.24209C11.801 6.24209 11.8112 6.25474 11.8112 6.28004C11.7656 6.29016 11.7428 6.31293 11.7428 6.34835L11.8112 6.3863L11.6366 7.03144L11.6669 7.10734C11.6214 7.34516 11.586 7.46407 11.5607 7.46407L11.5986 7.53238C11.5986 7.58298 11.5733 7.60828 11.5227 7.60828L11.5607 7.67659V7.96501C11.5 8.14717 11.4418 8.28885 11.3861 8.39005L11.4165 8.46595V8.53426C11.4165 8.55956 11.4064 8.57221 11.3861 8.57221L11.4165 8.64052L11.3102 8.86063L11.3861 8.96689L11.3102 9.07315C11.3608 9.08327 11.3861 9.10604 11.3861 9.14146H11.3482L11.2723 9.1111V9.17941L11.3482 9.28567C11.2976 9.29579 11.2723 9.32109 11.2723 9.36156V9.39951C11.3178 9.52095 11.4013 9.59179 11.5227 9.61203V9.68034L11.5986 9.64998C11.7707 9.69552 11.8668 9.71829 11.8871 9.71829H11.9174L11.9933 9.68034L12.0313 9.75624V9.7866L11.9933 9.8625C12.0389 9.86756 12.0616 9.89033 12.0616 9.93081C12.0616 9.98141 12.0389 10.0067 11.9933 10.0067H11.9554C11.9199 10.0067 11.8845 9.97129 11.8491 9.90045C11.8744 9.90045 11.8871 9.8878 11.8871 9.8625H11.8491L11.7049 9.96876H11.5986C11.5733 9.96876 11.5607 9.95611 11.5607 9.93081L11.4924 9.96876H11.4544C11.3988 9.96876 11.3507 9.95611 11.3102 9.93081C11.2647 9.95611 11.2293 9.96876 11.204 9.96876C11.204 9.94346 11.1913 9.93081 11.166 9.93081L11.1356 10.0067L11.204 10.113C11.204 10.1585 11.1685 10.1813 11.0977 10.1813C11.0977 10.2167 11.1205 10.3255 11.166 10.5077C11.1255 10.5077 11.0775 10.6873 11.0218 11.0465H10.9914L11.0218 11.1148L10.8852 11.5475H10.8093L10.8852 11.6537L10.7713 11.7979C10.8219 11.803 10.8472 11.8258 10.8472 11.8663L10.741 12.0105L10.7713 12.223C10.7157 12.4962 10.6701 12.6885 10.6347 12.7998C10.6347 12.8201 10.6448 12.8302 10.6651 12.8302C10.5487 13.5689 10.4905 13.951 10.4905 13.9763H10.4146V14.0142C10.4854 14.0142 10.5209 14.0395 10.5209 14.0901V14.1964C10.5209 14.2166 10.5107 14.2267 10.4905 14.2267L10.5209 14.3026C10.5209 14.3381 10.4854 14.3735 10.4146 14.4089H10.3463V14.3406H10.4526V14.2647C10.3716 14.2647 10.2881 14.3001 10.2021 14.3709C10.2021 14.2546 10.1667 14.1964 10.0958 14.1964C10.0452 14.2014 10.0199 14.2242 10.0199 14.2647V14.5152H9.98956C9.89342 14.4443 9.82005 14.4089 9.76945 14.4089V14.3709C9.85547 14.3709 9.91619 14.3229 9.95161 14.2267H9.91366C9.86812 14.252 9.8327 14.2647 9.8074 14.2647L9.84535 14.1964L9.70114 14.0522V13.9459L9.73909 13.87H9.70114C9.65054 13.8801 9.62524 13.9054 9.62524 13.9459C9.65054 13.9459 9.66319 13.956 9.66319 13.9763L9.55693 14.0522C9.60247 14.1483 9.62524 14.2191 9.62524 14.2647C9.5797 14.29 9.54428 14.3026 9.51898 14.3026L9.55693 14.3709V14.4468C9.55693 14.4924 9.53416 14.5152 9.48862 14.5152C9.40766 14.4443 9.34694 14.4089 9.30646 14.4089V14.3406H9.41272V14.2647L9.26851 14.3406V14.1964L9.45067 14.2267H9.48862C9.48862 14.1913 9.44055 14.1458 9.34441 14.0901C9.34441 14.1104 9.33176 14.1205 9.30646 14.1205L9.26851 14.0522C9.33935 14.0319 9.38742 13.9839 9.41272 13.908H9.37477C9.32923 13.9333 9.29381 13.9459 9.26851 13.9459V13.908L9.34441 13.8017C9.31911 13.7562 9.30646 13.7207 9.30646 13.6954H9.34441L9.45067 13.7637V13.7258C9.40007 13.6347 9.37477 13.5512 9.37477 13.4753C9.40007 13.4753 9.41272 13.4652 9.41272 13.445L9.34441 13.407H9.30646V13.5133H9.26851C9.23309 13.5133 9.19768 13.4779 9.16226 13.407V13.3691C9.33935 13.3286 9.44814 13.2704 9.48862 13.1945H9.51898C9.51898 13.1439 9.48356 13.1186 9.41272 13.1186V13.0503H9.51898C9.51898 13.0149 9.48356 12.9795 9.41272 12.944L9.30646 13.0123C9.30646 12.9516 9.25839 12.9162 9.16226 12.9061V12.8302H9.26851V12.9061H9.30646C9.34188 12.9061 9.3773 12.8707 9.41272 12.7998C9.38742 12.7998 9.37477 12.7872 9.37477 12.7619L9.30646 12.7998H9.26851C9.22297 12.7998 9.20021 12.7745 9.20021 12.7239L9.26851 12.4735C9.24827 12.4279 9.23815 12.3925 9.23815 12.3672H9.30646C9.30646 12.4431 9.36718 12.5139 9.48862 12.5797C9.48862 12.5595 9.49874 12.5494 9.51898 12.5494C9.5038 12.4785 9.45573 12.4304 9.37477 12.4051C9.40007 12.3748 9.41272 12.3039 9.41272 12.1926C9.34188 12.1673 9.30646 12.142 9.30646 12.1167C9.33176 12.0459 9.35453 12.0105 9.37477 12.0105C9.42537 12.0358 9.46332 12.0484 9.48862 12.0484C9.41272 11.9523 9.37477 11.8789 9.37477 11.8283C9.42537 11.8283 9.45067 11.7929 9.45067 11.722L9.70114 11.76V11.722C9.53416 11.631 9.45067 11.5728 9.45067 11.5475V11.4336C9.49621 11.4437 9.51898 11.469 9.51898 11.5095C9.49874 11.5095 9.48862 11.5222 9.48862 11.5475C9.50886 11.5475 9.51898 11.5576 9.51898 11.5778L9.59488 11.5475H9.73909L9.8074 11.5778V11.5095C9.64042 11.4842 9.55693 11.4488 9.55693 11.4033V11.3653L9.59488 11.297H9.51898L9.45067 11.3274C9.42537 11.2818 9.41272 11.2464 9.41272 11.2211C9.46332 11.1047 9.49874 11.0465 9.51898 11.0465L9.48862 10.9706V10.9023L9.55693 10.7961L9.51898 10.7202L9.55693 10.576C9.46079 10.4646 9.41272 10.3938 9.41272 10.3634L9.34441 10.4014C9.31911 10.4014 9.30646 10.3887 9.30646 10.3634C9.09395 10.3938 8.96239 10.4166 8.91179 10.4318L8.84348 10.4014L8.62337 10.4318C8.62337 10.4115 8.61325 10.4014 8.59301 10.4014L8.55506 10.4697L8.47916 10.4318C7.95798 10.4318 7.69739 10.5152 7.69739 10.6822C7.67209 10.6822 7.63414 10.6949 7.58354 10.7202C7.58354 10.6038 7.56077 10.5456 7.51523 10.5456C7.51523 10.6013 7.49246 10.6595 7.44692 10.7202L7.51523 10.8264H7.47728L7.51523 10.9023V10.9706H7.40897C7.40897 11.2338 7.3609 11.3653 7.26476 11.3653C7.26476 11.4109 7.30018 11.4336 7.37102 11.4336L7.26476 11.5778L7.30271 11.76H7.40897C7.40897 11.7398 7.43174 11.679 7.47728 11.5778H7.58354V11.6537C7.58354 11.6689 7.52535 11.7271 7.40897 11.8283V11.8663L7.47728 11.9725L7.26476 11.9422L7.30271 11.8663V11.8283H7.26476V11.9042L7.19645 11.8663L7.1585 11.9422V12.0105H7.22681V12.1167H7.1585C7.19392 12.2129 7.22934 12.2609 7.26476 12.2609H7.30271L7.37102 12.223L7.30271 12.0105H7.33307C7.36849 12.0105 7.40644 12.0459 7.44692 12.1167C7.44692 12.142 7.43427 12.1547 7.40897 12.1547L7.44692 12.223V12.2609L7.12055 12.4431C7.12055 12.4785 7.09778 12.5721 7.05224 12.7239C7.09778 12.7492 7.1332 12.7619 7.1585 12.7619V12.8302C7.08766 12.8302 7.05224 12.8428 7.05224 12.8681L7.0826 12.944C7.06236 13.0554 7.00417 13.1616 6.90803 13.2628C6.93333 13.3033 6.94598 13.3514 6.94598 13.407C6.87008 13.407 6.83213 13.4298 6.83213 13.4753C6.88273 13.5006 6.92068 13.5133 6.94598 13.5133V13.5512C6.94598 13.5968 6.92068 13.6195 6.87008 13.6195L6.76382 13.5512V13.6195L6.80177 13.6954L6.72587 13.7258L6.65756 13.6954L6.61961 13.7637H6.80177V13.6954C6.84731 13.7005 6.87008 13.7233 6.87008 13.7637C6.79924 13.87 6.76382 13.9788 6.76382 14.0901H6.72587C6.72587 14.0142 6.7031 13.9763 6.65756 13.9763V14.0901H6.72587V14.1964H6.69551C6.64491 14.1711 6.60696 14.1584 6.58166 14.1584V14.2267C6.65756 14.2267 6.69551 14.252 6.69551 14.3026C6.64491 14.3634 6.61961 14.4215 6.61961 14.4772H6.5513V14.4468C6.57154 14.4013 6.58166 14.3659 6.58166 14.3406H6.5513C6.51588 14.3406 6.48047 14.376 6.44505 14.4468V14.4772L6.47541 14.5531C6.45517 14.5531 6.44505 14.5658 6.44505 14.5911L6.36915 14.5531H6.3312L6.4071 14.6594C6.32614 14.71 6.26542 14.7353 6.22494 14.7353L6.26289 14.8036L6.15663 14.9478H6.18699L6.4071 14.9098V14.9478C6.32614 15.0085 6.23 15.1502 6.11868 15.3728C6.1541 15.3728 6.18952 15.4108 6.22494 15.4867C6.1794 15.6031 6.10856 15.6865 6.01242 15.7371C6.01242 15.8282 5.94158 15.8738 5.7999 15.8738V15.9117H5.83026L6.05037 15.8434L6.08073 15.9117L6.01242 15.9497L6.05037 16.018C5.95423 16.1546 5.90616 16.2507 5.90616 16.3064H5.83026L5.86821 16.1318C5.80749 16.1774 5.74677 16.2001 5.68605 16.2001V16.3064C5.78219 16.3165 5.83026 16.3519 5.83026 16.4126V16.4885C5.73412 16.4885 5.68605 16.5366 5.68605 16.6328L5.76195 16.5948H5.7999V16.6328C5.7999 16.6783 5.7746 16.7011 5.724 16.7011H5.61774C5.55702 16.7011 5.5216 16.653 5.51148 16.5569L5.43558 16.5948H5.26101V16.5569L5.32932 16.4126H5.15475C5.12945 16.3671 5.1168 16.3317 5.1168 16.3064L5.18511 16.2684H5.22306L5.32932 16.3443H5.36727L5.22306 16.1318V16.0559H5.29896L5.18511 15.8434C5.22559 15.8181 5.28631 15.8055 5.36727 15.8055L5.32932 15.7371V15.6992C5.40016 15.6081 5.43558 15.5373 5.43558 15.4867H5.40522C5.39004 15.4867 5.32932 15.5449 5.22306 15.6612H5.18511V15.6233L5.36727 15.4108L5.29896 15.3728L5.15475 15.4867L5.1168 15.4108C5.19776 15.3399 5.2686 15.3045 5.32932 15.3045L5.29896 15.2362V15.1983H5.40522V15.1224C5.33438 15.1224 5.29896 15.0996 5.29896 15.054C5.30908 15.054 5.37992 14.9832 5.51148 14.8415V14.8036C5.48618 14.8036 5.45076 14.7909 5.40522 14.7656C5.45076 14.5733 5.49883 14.4772 5.54943 14.4772L5.61774 14.5152V14.4089C5.59244 14.4089 5.55702 14.3962 5.51148 14.3709C5.53172 14.2748 5.55449 14.2267 5.57979 14.2267C5.53425 14.1104 5.51148 14.0269 5.51148 13.9763C5.55702 13.956 5.59244 13.9459 5.61774 13.9459L5.57979 13.87L5.61774 13.7258L5.57979 13.5512C5.60509 13.5057 5.61774 13.4703 5.61774 13.445L5.57979 13.3691C5.57979 13.3387 5.62786 13.2552 5.724 13.1186L5.65569 13.0807C5.67593 13.025 5.6987 12.9061 5.724 12.7239L5.68605 12.6556L5.83026 12.2989C5.78472 12.2989 5.76195 12.2736 5.76195 12.223C5.84797 11.8182 5.93146 11.6158 6.01242 11.6158V11.5778L5.93652 11.4716V11.297C5.93652 11.2464 5.97447 11.2211 6.05037 11.2211L6.01242 11.0465H6.05037C6.05037 11.0212 6.03772 11.0086 6.01242 11.0086C6.04278 10.7606 6.0782 10.6164 6.11868 10.576V10.5077C6.0782 10.5077 5.98206 10.4115 5.83026 10.2192L5.51148 10.2572C5.51148 10.2066 5.48618 10.1813 5.43558 10.1813L5.36727 10.2192C5.33185 10.1231 5.27113 10.0523 5.18511 10.0067H5.01054C5.01054 10.0523 5.06873 10.075 5.18511 10.075V10.1509C5.13451 10.1509 5.08897 10.1383 5.04849 10.113C5.00295 10.1383 4.89416 10.161 4.72212 10.1813C4.68164 10.161 4.63357 10.1509 4.57791 10.1509V10.1813L4.61586 10.2572L4.53996 10.2875L4.47165 10.2572L4.53996 10.075C4.46912 10.075 4.4337 10.0523 4.4337 10.0067V9.96876C4.48936 9.96876 4.53743 9.98141 4.57791 10.0067H4.61586V9.96876H4.53996V9.8625C5.02066 9.65504 5.26101 9.50071 5.26101 9.39951L5.32932 9.42987H5.36727C5.40269 9.42987 5.43811 9.39445 5.47353 9.32361H5.29896V9.25531C5.27366 9.25531 5.17752 9.27808 5.01054 9.32361H4.97259C4.92705 9.32361 4.90428 9.30085 4.90428 9.25531C4.94982 9.25531 4.97259 9.23001 4.97259 9.17941L4.90428 9.07315V8.96689L5.04849 9.00484L5.18511 8.96689L5.36727 9.00484L5.43558 8.96689C5.48618 8.99219 5.52413 9.00484 5.54943 9.00484L5.61774 8.96689C5.71388 9.01243 5.78472 9.0352 5.83026 9.0352L5.90616 9.00484L6.08073 9.0352L6.15663 9.00484L6.36915 9.0352H6.4071V8.86063C6.4071 8.71389 6.45517 8.64052 6.5513 8.64052C6.5513 8.59498 6.51588 8.57221 6.44505 8.57221V8.5039H6.51335L6.47541 8.32174V8.25343C6.54624 8.16235 6.58166 8.07886 6.58166 8.00296H6.5513C6.5513 7.92706 6.59937 7.88911 6.69551 7.88911C6.69551 7.83851 6.68286 7.79044 6.65756 7.7449C6.65756 7.67406 6.69298 7.63864 6.76382 7.63864L6.72587 7.57033V7.53238L6.90803 7.38817V7.35781L6.83213 7.24396C6.88273 7.24396 6.90803 7.22119 6.90803 7.17565L6.83213 7.1377L6.94598 6.96313V6.92518C6.89538 6.92518 6.87008 6.91253 6.87008 6.88723C6.94092 6.74555 7.02441 6.67471 7.12055 6.67471V6.63676H6.97634V6.56846C7.032 6.56846 7.08007 6.55581 7.12055 6.53051C7.09525 6.48497 7.0826 6.44955 7.0826 6.42425L7.12055 6.34835C7.09525 6.30281 7.0826 6.26739 7.0826 6.24209C7.1079 6.10041 7.14585 6.02957 7.19645 6.02957V6.09788C7.24199 6.09788 7.26476 6.07511 7.26476 6.02957C7.2091 6.02957 7.16103 5.9815 7.12055 5.88536C7.12055 5.84994 7.15597 5.81452 7.22681 5.7791L7.19645 5.71079L7.30271 5.56658V5.52863L7.1585 5.49068V5.42237H7.30271V5.34647C7.14079 5.34647 7.04465 5.25286 7.01429 5.06564H7.19645C7.31283 5.06564 7.43174 5.15925 7.55318 5.34647L7.69739 5.46032L7.58354 5.7791C7.60884 5.82464 7.62149 5.86006 7.62149 5.88536H7.58354L7.62149 5.96126C7.59619 6.0068 7.58354 6.04222 7.58354 6.06752C7.63414 6.07258 7.65944 6.09535 7.65944 6.13583C7.57848 6.23197 7.50764 6.28004 7.44692 6.28004V6.34835L7.65944 6.42425C7.72522 6.30281 7.79606 6.24209 7.87196 6.24209V6.13583H7.80365C7.80365 6.20667 7.77835 6.24209 7.72775 6.24209L7.69739 6.17378C7.69739 6.12318 7.73281 6.09788 7.80365 6.09788V6.06752L7.7657 5.99162C7.8163 5.99162 7.8416 5.96885 7.8416 5.92331C7.791 5.92331 7.7657 5.89801 7.7657 5.84741L7.8416 5.74115H7.7657V5.59694C7.77582 5.5514 7.80112 5.52863 7.8416 5.52863H7.87196C7.87196 5.61465 7.92003 5.67537 8.01617 5.71079L8.05412 5.63489C8.05412 5.58935 8.0187 5.56658 7.94786 5.56658L7.97822 5.49068L7.94786 5.42237L8.05412 5.34647L8.09207 5.42237C8.06677 5.42237 8.05412 5.43502 8.05412 5.46032C8.08954 5.46032 8.13761 5.50586 8.19833 5.59694L8.16038 5.67284C8.20592 5.6779 8.22869 5.70067 8.22869 5.74115L8.19833 5.81705H8.22869L8.34254 5.74115H8.3729V5.7791C8.32736 5.87524 8.26917 5.92331 8.19833 5.92331L8.22869 6.09788C8.18315 6.108 8.16038 6.1333 8.16038 6.17378H8.22869V6.31799C8.22869 6.33823 8.21857 6.34835 8.19833 6.34835C8.19833 6.37365 8.20845 6.3863 8.22869 6.3863C8.21351 6.53304 8.19074 6.6064 8.16038 6.6064C8.18568 6.65194 8.19833 6.68736 8.19833 6.71266C8.19833 6.7329 8.15026 6.80374 8.05412 6.92518C8.09966 6.95048 8.13508 6.96313 8.16038 6.96313V7.03144C8.08954 7.03144 8.02882 7.07951 7.97822 7.17565V7.2136C8.00352 7.2136 8.04147 7.22372 8.09207 7.24396C8.09207 7.22372 8.10219 7.2136 8.12243 7.2136V7.28191C8.12243 7.29709 8.06424 7.35781 7.94786 7.46407V7.49443L8.01617 7.60828C7.97063 7.60828 7.94786 7.6184 7.94786 7.63864C7.94786 7.73478 8.00605 7.78285 8.12243 7.78285V7.8208C8.01617 7.8208 7.93268 7.88152 7.87196 8.00296C7.9428 8.00296 7.97822 8.02573 7.97822 8.07127H7.87196V8.13958H7.94786V8.28379H7.87196L7.90991 8.35969V8.46595C7.90991 8.58233 7.87449 8.64052 7.80365 8.64052L7.87196 8.75437C7.82642 8.75437 7.791 8.82521 7.7657 8.96689H7.80365L8.01617 8.89099C8.01617 8.93147 8.09966 8.97954 8.26664 9.0352C8.30712 9.01496 8.41591 8.99219 8.59301 8.96689C8.66891 9.00231 8.77517 9.03773 8.91179 9.07315C8.95227 9.04785 9.00034 9.0352 9.056 9.0352H9.09395L9.056 9.1111H9.09395L9.26851 9.07315C9.27863 9.11869 9.30393 9.14146 9.34441 9.14146H9.45067V9.21736C9.56199 9.07568 9.66825 9.00484 9.76945 9.00484V8.92894H9.70114V8.86063H9.8074V8.78473H9.73909V8.75437C9.83017 8.66329 9.87571 8.56715 9.87571 8.46595H9.84535L9.73909 8.53426H9.70114C9.65054 8.53426 9.62524 8.49884 9.62524 8.428C9.62524 8.33186 9.68596 8.28379 9.8074 8.28379V8.25343L9.73909 8.13958V8.10922H9.87571V8.13958L9.95161 8.10922L9.91366 8.03332C9.91366 7.98778 9.94908 7.96501 10.0199 7.96501V7.92706C9.90354 7.92706 9.84535 7.91441 9.84535 7.88911L9.76945 7.92706C9.72391 7.92706 9.70114 7.90429 9.70114 7.85875C9.74668 7.83345 9.7821 7.8208 9.8074 7.8208V7.7449H9.73909V7.63864C9.74415 7.5931 9.76692 7.57033 9.8074 7.57033C9.8074 7.59563 9.82005 7.60828 9.84535 7.60828V7.53238C9.77451 7.53238 9.73909 7.49696 9.73909 7.42612C9.75933 7.30468 9.7821 7.24396 9.8074 7.24396L9.76945 7.17565C9.79475 7.13011 9.8074 7.09469 9.8074 7.06939L9.87571 7.10734H9.91366L9.87571 7.03144L9.91366 6.96313V6.92518H9.87571V6.99349C9.83017 6.99349 9.8074 6.97072 9.8074 6.92518V6.85687L9.95161 6.71266L9.87571 6.67471C9.87571 6.70001 9.86559 6.71266 9.84535 6.71266C9.84535 6.56593 9.89342 6.49256 9.98956 6.49256L9.95161 6.42425C9.99715 6.42425 10.0199 6.39895 10.0199 6.34835L9.98956 6.17378C10.0351 6.17378 10.0579 6.14848 10.0579 6.09788C10.0123 6.09788 9.98956 6.07511 9.98956 6.02957C10.0199 5.83729 10.0553 5.74115 10.0958 5.74115L10.0579 5.67284V5.63489C10.1135 5.63489 10.1743 5.58682 10.24 5.49068C10.1894 5.49068 10.1641 5.45526 10.1641 5.38442C10.235 5.26804 10.2704 5.18455 10.2704 5.13395H10.3767C10.3767 5.25539 10.3539 5.31611 10.3083 5.31611C10.3083 5.33635 10.321 5.34647 10.3463 5.34647C10.321 5.50333 10.2729 5.66019 10.2021 5.81705L10.24 6.02957C10.1894 6.02957 10.1641 6.06499 10.1641 6.13583L10.2021 6.21173C10.1768 6.32811 10.1515 6.3863 10.1262 6.3863L10.1641 6.4622C10.1641 6.48244 10.1515 6.49256 10.1262 6.49256L10.1641 6.56846C10.1641 6.61399 10.1287 6.63676 10.0579 6.63676L10.1262 6.74302C10.1262 6.77844 10.0908 6.81639 10.0199 6.85687L10.0579 6.92518V6.96313C10.0579 6.98337 10.0452 6.99349 10.0199 6.99349L10.0579 7.06939C10.0326 7.10987 10.0199 7.15794 10.0199 7.2136H10.0958C10.1515 7.163 10.1996 7.1377 10.24 7.1377L10.2021 7.06939V6.88723C10.2476 6.88723 10.2704 6.87711 10.2704 6.85687V6.74302H10.3083V6.71266H10.24V6.67471C10.24 6.64941 10.2502 6.63676 10.2704 6.63676L10.24 6.56846C10.24 6.51786 10.2856 6.49256 10.3767 6.49256L10.3083 6.3863C10.3083 6.361 10.321 6.34835 10.3463 6.34835L10.3083 6.28004L10.3767 6.17378L10.3463 6.09788C10.3918 6.09788 10.4399 5.9562 10.4905 5.67284C10.536 5.5767 10.5715 5.52863 10.5968 5.52863C10.6423 5.55393 10.6777 5.56658 10.703 5.56658C10.703 5.53622 10.7865 5.48815 10.9535 5.42237L10.9155 5.34647C10.9661 5.27057 10.9914 5.21238 10.9914 5.1719C10.9661 5.1719 10.9535 5.15925 10.9535 5.13395L11.0218 5.096L10.9914 5.02769C11.037 4.96697 11.0597 4.90625 11.0597 4.84553L11.1356 4.88348C11.2115 4.81264 11.2697 4.77722 11.3102 4.77722V4.73927C11.2394 4.73927 11.204 4.7165 11.204 4.67096H11.3102V4.59506H11.166V4.52675H11.2723V4.31423C11.2723 4.29905 11.3203 4.23833 11.4165 4.13207C11.3203 4.13207 11.2723 4.084 11.2723 3.98786C11.2976 3.98786 11.3102 3.97521 11.3102 3.94991L11.3861 3.98786H11.4165C11.4317 3.84619 11.4671 3.77535 11.5227 3.77535H11.5986V3.8133L11.5607 3.8816L11.7428 3.91955L11.7049 3.84366C11.7049 3.77282 11.7884 3.7374 11.9554 3.7374V3.66909C11.839 3.66909 11.7808 3.64379 11.7808 3.59319C11.8263 3.59319 11.8491 3.57042 11.8491 3.52488ZM12.1375 3.52488H12.1679C12.2185 3.52994 12.2438 3.55271 12.2438 3.59319V3.63114H12.1375V3.52488ZM12.2817 3.59319H12.35C12.3956 3.60331 12.4184 3.62861 12.4184 3.66909C12.4184 3.71463 12.3956 3.7374 12.35 3.7374L12.2817 3.63114V3.59319ZM11.7808 3.8816V3.94991H11.8491C11.9048 3.90437 11.9528 3.8816 11.9933 3.8816V3.8133H11.9554C11.8946 3.85884 11.8365 3.8816 11.7808 3.8816ZM12.4563 3.77535V3.8133C12.4563 3.84366 12.4209 3.87908 12.35 3.91955H12.2438C12.2438 3.87908 12.3146 3.83101 12.4563 3.77535ZM11.9933 4.02581V4.09412H12.0996V4.02581H11.9933ZM12.2438 4.17002C12.2893 4.17508 12.3121 4.19785 12.3121 4.23833V4.38254H12.2438C12.2438 4.35724 12.2311 4.32182 12.2058 4.27628C12.2311 4.23074 12.2438 4.19532 12.2438 4.17002ZM11.7049 4.34459H11.8112V4.27628H11.7808C11.7302 4.28134 11.7049 4.30411 11.7049 4.34459ZM11.3102 4.38254V4.45085H11.4165V4.38254H11.3102ZM11.9933 4.38254C11.9933 4.41796 12.0287 4.45338 12.0996 4.4888L12.1375 4.42049L12.0616 4.38254H11.9933ZM8.34254 4.95179C8.34254 4.96697 8.37796 5.08841 8.4488 5.31611C8.4235 5.36165 8.41085 5.39707 8.41085 5.42237C8.43615 5.42237 8.4488 5.43502 8.4488 5.46032C8.37796 5.46032 8.34254 5.49574 8.34254 5.56658H8.30459C8.25399 5.56658 8.21857 5.49321 8.19833 5.34647L8.26664 5.38442H8.30459C8.35013 5.38442 8.3729 5.36165 8.3729 5.31611C8.3729 5.20479 8.31471 5.13142 8.19833 5.096C8.17303 5.05046 8.16038 5.01504 8.16038 4.98974H8.19833L8.26664 5.02769C8.27676 4.97709 8.30206 4.95179 8.34254 4.95179ZM11.9174 5.20985V5.27816H12.0313C12.0313 5.23262 12.006 5.20985 11.9554 5.20985H11.9174ZM10.8472 5.52863L10.8093 5.67284C10.8548 5.64754 10.8902 5.63489 10.9155 5.63489V5.52863H10.8472ZM7.33307 5.67284H7.37102C7.42162 5.67284 7.44692 5.64754 7.44692 5.59694H7.40897C7.35837 5.60706 7.33307 5.63236 7.33307 5.67284ZM10.6651 5.81705V5.88536C10.7157 5.88536 10.741 5.89801 10.741 5.92331L10.8093 5.88536C10.8498 5.91066 10.8978 5.92331 10.9535 5.92331C10.8573 5.85247 10.8093 5.78163 10.8093 5.71079C10.7131 5.74621 10.6651 5.78163 10.6651 5.81705ZM10.5968 6.02957H10.703V5.96126H10.6651C10.6195 5.96632 10.5968 5.98909 10.5968 6.02957ZM10.5968 6.09788C10.5715 6.31546 10.536 6.42425 10.4905 6.42425C10.5107 6.46979 10.5209 6.50521 10.5209 6.53051H10.5588C10.6094 6.53051 10.6347 6.50774 10.6347 6.4622L10.5968 6.28004C10.6676 6.1839 10.7258 6.13583 10.7713 6.13583V6.09788H10.5968ZM8.59301 6.34835L8.62337 6.42425L8.55506 6.4622L8.51711 6.3863L8.59301 6.34835ZM7.47728 6.67471L7.65944 6.78097H7.69739V6.74302H7.62149C7.62149 6.69748 7.65691 6.67471 7.72775 6.67471C7.72775 6.63929 7.69233 6.60387 7.62149 6.56846H7.58354C7.55318 6.56846 7.51776 6.60387 7.47728 6.67471ZM10.4526 6.63676V6.81892L10.4146 7.03144C10.45 7.12758 10.4854 7.17565 10.5209 7.17565L10.5968 7.1377C10.5462 7.04156 10.5209 6.97072 10.5209 6.92518C10.5715 6.89988 10.6094 6.88723 10.6347 6.88723L10.5209 6.71266L10.5588 6.63676H10.4526ZM8.41085 6.74302H8.47916V6.78097C8.44374 6.87711 8.40832 6.92518 8.3729 6.92518L8.34254 6.85687C8.38808 6.85687 8.41085 6.81892 8.41085 6.74302ZM8.59301 6.96313V7.03144L8.51711 7.1377C8.54241 7.1377 8.55506 7.15035 8.55506 7.17565L8.47916 7.2136L8.30459 6.99349C8.47157 6.99349 8.56771 6.98337 8.59301 6.96313ZM7.37102 7.03144L7.33307 7.17565H7.40897L7.44692 7.03144H7.37102ZM7.19645 7.24396C7.21669 7.29456 7.22681 7.33251 7.22681 7.35781H7.30271C7.27741 7.30721 7.26476 7.26926 7.26476 7.24396H7.19645ZM10.4146 7.24396C10.3539 7.45142 10.3058 7.56021 10.2704 7.57033C10.2957 7.61587 10.3083 7.65129 10.3083 7.67659H10.3463C10.3969 7.67659 10.445 7.53238 10.4905 7.24396H10.4146ZM7.37102 7.28191V7.35781L7.51523 7.38817V7.31986C7.45957 7.31986 7.4115 7.30721 7.37102 7.28191ZM8.3729 7.24396L8.47916 7.31986C8.52976 7.29456 8.56771 7.28191 8.59301 7.28191V7.31986C8.59301 7.35528 8.54494 7.3907 8.4488 7.42612C8.40326 7.40082 8.35519 7.38817 8.30459 7.38817L8.55506 7.60828C8.44374 7.65382 8.38302 7.69936 8.3729 7.7449C8.4235 7.75502 8.4488 7.78032 8.4488 7.8208L8.3729 7.85875C8.33748 7.85875 8.28941 7.81068 8.22869 7.71454C8.37543 7.65888 8.4488 7.61081 8.4488 7.57033C8.25652 7.50961 8.16038 7.46154 8.16038 7.42612C8.30206 7.34516 8.3729 7.28444 8.3729 7.24396ZM7.22681 7.63864H7.33307V7.53238C7.30271 7.53238 7.26729 7.5678 7.22681 7.63864ZM8.22869 7.57033L8.26664 7.63864V7.67659H8.22869C8.18315 7.67659 8.16038 7.65382 8.16038 7.60828L8.22869 7.57033ZM8.12243 7.88911H8.19833V7.96501C8.12749 7.96501 8.09207 7.98778 8.09207 8.03332H7.97822C7.97822 7.9979 8.02629 7.94983 8.12243 7.88911ZM9.76945 7.96501H9.84535V8.00296C9.84535 8.0485 9.82005 8.07127 9.76945 8.07127C9.72391 8.07127 9.70114 8.0485 9.70114 8.00296L9.76945 7.96501ZM10.2021 8.07127H10.3463V8.00296H10.2704C10.2249 8.00802 10.2021 8.03079 10.2021 8.07127ZM8.09207 8.07127H8.12243C8.17303 8.07633 8.19833 8.0991 8.19833 8.13958C8.17303 8.13958 8.16038 8.15223 8.16038 8.17753C8.18568 8.17753 8.19833 8.19018 8.19833 8.21548L8.12243 8.25343L8.09207 8.07127ZM10.2021 8.10922L10.1262 8.21548C10.1768 8.22054 10.2021 8.24331 10.2021 8.28379C10.1667 8.28379 10.1312 8.31921 10.0958 8.39005L10.1641 8.428L10.0958 8.61016C10.1161 8.61016 10.1262 8.62028 10.1262 8.64052C10.2476 8.6304 10.3083 8.53679 10.3083 8.35969C10.2628 8.35969 10.24 8.33439 10.24 8.28379V8.25343H10.3083V8.21548C10.3083 8.18006 10.2729 8.14464 10.2021 8.10922ZM9.70114 8.428V8.46595H9.73909L9.84535 8.39005C9.88583 8.41535 9.9339 8.428 9.98956 8.428L10.0199 8.35969H9.98956C9.93896 8.37993 9.90101 8.39005 9.87571 8.39005C9.87571 8.34451 9.85294 8.32174 9.8074 8.32174C9.77198 8.32174 9.73656 8.35716 9.70114 8.428ZM10.1262 8.78473C10.0857 8.84039 10.0503 8.94918 10.0199 9.1111H10.0579C10.0882 9.1111 10.1363 9.01496 10.2021 8.82268L10.1262 8.78473ZM4.32744 9.68034C4.37804 9.69046 4.40334 9.71576 4.40334 9.75624L4.28949 9.82455C4.24395 9.82455 4.22118 9.80178 4.22118 9.75624L4.32744 9.68034ZM4.72212 9.82455V9.90045C4.81826 9.90045 4.86633 9.92322 4.86633 9.96876C4.86633 10.0396 4.81826 10.075 4.72212 10.075V10.113H4.79043C4.82079 10.113 4.88151 10.0776 4.97259 10.0067L4.93464 9.93081V9.90045C5.03078 9.90045 5.07885 9.87515 5.07885 9.82455V9.7866H4.97259L4.72212 9.82455ZM5.36727 10.113H5.51148V10.0371H5.43558C5.39004 10.0472 5.36727 10.0725 5.36727 10.113ZM6.01242 10.2192V10.2875C6.03772 10.2875 6.07314 10.3002 6.11868 10.3255C6.11868 10.28 6.16675 10.2572 6.26289 10.2572V10.1813H6.18699L6.01242 10.2192ZM9.76945 10.2572V10.3255H9.87571V10.2572H9.76945ZM9.66319 10.6139C9.67331 10.6595 9.69861 10.6822 9.73909 10.6822H9.76945C9.76945 10.6367 9.74668 10.6139 9.70114 10.6139H9.66319ZM7.90991 10.7202C7.95545 10.7303 7.97822 10.7556 7.97822 10.7961L7.90991 10.8264C7.86437 10.8264 7.8416 10.8037 7.8416 10.7581L7.90991 10.7202ZM7.51523 10.9706H7.58354C7.63414 10.9808 7.65944 11.0061 7.65944 11.0465C7.65944 11.0921 7.63414 11.1148 7.58354 11.1148H7.55318C7.55318 11.0592 7.54053 11.0111 7.51523 10.9706ZM9.66319 11.1528L9.70114 11.3653C9.73656 11.3653 9.77198 11.3299 9.8074 11.2591C9.8074 11.2236 9.77198 11.1882 9.70114 11.1528H9.66319ZM7.72775 11.1832C7.77835 11.1933 7.80365 11.2186 7.80365 11.2591L7.72775 11.297C7.68221 11.297 7.65944 11.2717 7.65944 11.2211L7.72775 11.1832ZM7.47728 11.3653H7.51523L7.55318 11.5095H7.51523C7.47981 11.5095 7.44439 11.4741 7.40897 11.4033L7.47728 11.3653ZM9.55693 11.9042L9.51898 11.9725C9.58982 11.9725 9.62524 11.9978 9.62524 12.0484H9.70114V11.9725C9.66066 11.9725 9.61259 11.9497 9.55693 11.9042ZM9.34441 12.1926H9.37477V12.223C9.37477 12.2736 9.352 12.2989 9.30646 12.2989L9.26851 12.223L9.34441 12.1926ZM7.26476 12.4051H7.30271C7.33813 12.4051 7.37355 12.4406 7.40897 12.5114C7.38367 12.5569 7.37102 12.5924 7.37102 12.6177H7.30271V12.5494L7.33307 12.4735H7.26476V12.4051ZM9.37477 12.7239H9.51898V12.6556H9.45067C9.40007 12.6607 9.37477 12.6834 9.37477 12.7239ZM10.2021 12.9061H10.24C10.2856 12.9061 10.3083 12.8808 10.3083 12.8302V12.6556C10.2628 12.6556 10.2274 12.7391 10.2021 12.9061ZM9.66319 12.8302C9.66319 12.8808 9.69861 12.9061 9.76945 12.9061V12.944L9.73909 13.0123H9.8074C9.8074 12.8909 9.83017 12.8302 9.87571 12.8302V12.7239H9.84535C9.76439 12.7948 9.70367 12.8302 9.66319 12.8302ZM10.1641 13.1186V13.1566H10.2021C10.2021 13.1211 10.2249 13.0731 10.2704 13.0123V12.9744C10.2147 12.9744 10.1793 13.0225 10.1641 13.1186ZM9.26851 13.0503H9.30646C9.352 13.0554 9.37477 13.0781 9.37477 13.1186H9.34441L9.37477 13.1945V13.2249H9.30646L9.26851 13.0503ZM7.12055 13.1566L7.1585 13.2249L7.0826 13.2628H6.97634C6.97634 13.2274 7.02441 13.192 7.12055 13.1566ZM10.1262 13.3387V13.5892H10.2021V13.3387H10.1262ZM6.5513 13.5892C6.5513 13.6347 6.51588 13.6575 6.44505 13.6575V13.6954H6.5513L6.58166 13.6195V13.5892H6.5513ZM7.01429 13.6195H7.0826C7.11802 13.6195 7.15597 13.655 7.19645 13.7258L7.12055 13.7637C7.12055 13.7182 7.08513 13.6954 7.01429 13.6954V13.6195ZM9.66319 13.6575C9.66319 13.7283 9.62777 13.7637 9.55693 13.7637V13.8396L9.73909 13.8017V13.6575H9.66319ZM9.09395 13.6575L9.12431 13.7258L9.056 13.7637L9.01805 13.6954L9.09395 13.6575ZM10.24 13.7637V13.908H10.2704C10.2704 13.8827 10.283 13.8472 10.3083 13.8017L10.24 13.7637ZM6.90803 14.0522H7.01429C7.01429 14.0977 6.99152 14.1205 6.94598 14.1205L6.90803 14.0522ZM6.44505 14.1964V14.3026C6.49059 14.3026 6.51335 14.2773 6.51335 14.2267V14.1964H6.44505ZM6.65756 14.5531H6.72587V14.5911C6.72587 14.6366 6.7031 14.6594 6.65756 14.6594C6.60696 14.6594 6.58166 14.6366 6.58166 14.5911L6.65756 14.5531ZM6.72587 15.092H6.76382V15.1224C6.76382 15.173 6.74105 15.1983 6.69551 15.1983L6.65756 15.1224L6.72587 15.092ZM6.05037 15.517C6.05037 15.5423 6.03772 15.5778 6.01242 15.6233H6.08073V15.517H6.05037ZM5.40522 15.9117C5.41028 15.9623 5.43305 15.9876 5.47353 15.9876L5.51148 15.9117H5.40522ZM5.51148 16.3064H5.54943C5.59497 16.3064 5.61774 16.2836 5.61774 16.2381H5.57979C5.53425 16.2431 5.51148 16.2659 5.51148 16.3064ZM13.4961 6.90241H13.5265V6.93277C13.5265 6.97325 13.5088 6.99349 13.4734 6.99349L13.443 6.93277L13.4961 6.90241ZM13.6176 6.90241L13.6783 6.93277H13.7011L13.7618 6.90241C13.782 6.93783 13.7921 6.96819 13.7921 6.99349L13.9136 6.90241H13.9363C13.9768 6.90747 13.9971 6.92771 13.9971 6.96313V7.01626C13.9971 7.05674 13.9768 7.07698 13.9363 7.07698L13.8832 7.04662V7.31227C13.8832 7.38311 13.8731 7.47166 13.8529 7.57792C13.8731 7.61334 13.8832 7.65129 13.8832 7.69177C13.8427 7.70189 13.8225 7.72213 13.8225 7.75249C13.8427 7.79297 13.8529 7.82333 13.8529 7.84357C13.8124 7.84863 13.7921 7.86634 13.7921 7.8967C13.8124 7.8967 13.8225 7.90682 13.8225 7.92706C13.782 7.93718 13.7618 7.95742 13.7618 7.98778V8.01814H13.8832C13.8832 8.06874 13.911 8.12693 13.9667 8.19271L13.9363 8.25343H13.9667C14.0021 8.23319 14.0426 8.22307 14.0881 8.22307L14.1185 8.28379L14.0578 8.31415C14.0173 8.29391 13.9869 8.28379 13.9667 8.28379L13.9363 8.33692L13.8832 8.31415H13.8529V8.33692L13.8832 8.39764C13.8529 8.51402 13.7921 8.57221 13.7011 8.57221V8.63293L13.7618 8.60257L13.8225 8.63293C13.8579 8.61269 13.8883 8.60257 13.9136 8.60257V8.63293C13.9389 8.63293 13.9971 8.58486 14.0881 8.48872C14.0881 8.50896 14.0983 8.51908 14.1185 8.51908L14.0274 8.66329C14.0274 8.72401 14.0654 8.75437 14.1413 8.75437L14.0578 8.86822V8.89858H14.0881L14.1413 8.86822V8.92894C14.0249 8.92894 13.9667 8.95677 13.9667 9.01243H14.0274C14.0628 8.99219 14.0932 8.98207 14.1185 8.98207C14.1185 9.00231 14.1261 9.01243 14.1413 9.01243C14.1413 9.15917 14.1033 9.27808 14.0274 9.36915C14.0881 9.36915 14.1185 9.38686 14.1185 9.42228C14.0831 9.44252 14.0325 9.45264 13.9667 9.45264L14.0274 9.54372L13.9971 9.60444L14.0274 9.65757C14.0072 9.69805 13.9971 9.72841 13.9971 9.74865V9.83973C13.9616 9.81949 13.9338 9.80937 13.9136 9.80937V9.8625C13.9692 9.8625 13.9971 9.88274 13.9971 9.92322V10.0143L13.8529 10.0674V10.0978H13.8832C13.9186 10.0776 13.9465 10.0674 13.9667 10.0674V10.1585C13.911 10.1585 13.8832 10.1788 13.8832 10.2192H13.9136C13.949 10.199 13.9768 10.1889 13.9971 10.1889V10.2496C13.9971 10.366 13.9591 10.4242 13.8832 10.4242L13.9363 10.5077V10.5684C13.9363 10.6139 13.8883 10.6443 13.7921 10.6595V10.7202H13.9136V10.7429C13.9136 10.7632 13.9035 10.7733 13.8832 10.7733L13.9136 10.834V10.8644C13.9136 10.8846 13.9035 10.8947 13.8832 10.8947C13.8832 10.915 13.8933 10.9251 13.9136 10.9251C13.9136 11.1224 13.8427 11.2388 13.7011 11.2742C13.6859 11.2742 13.6783 11.2844 13.6783 11.3046V11.335C13.7339 11.335 13.7618 11.3451 13.7618 11.3653C13.7618 11.5019 13.7238 11.5702 13.6479 11.5702V11.6841C13.7238 11.6841 13.7618 11.7043 13.7618 11.7448C13.6859 11.7651 13.6479 11.803 13.6479 11.8587C13.6682 11.8991 13.6783 11.9295 13.6783 11.9497C13.6429 11.97 13.5923 11.9801 13.5265 11.9801V12.0105C13.6074 12.0105 13.6479 12.0282 13.6479 12.0636V12.094H13.6176C13.5771 12.0737 13.5467 12.0636 13.5265 12.0636V12.1243L13.5872 12.2154L13.5265 12.2989C13.567 12.3039 13.5872 12.3242 13.5872 12.3596C13.5872 12.4001 13.5568 12.4203 13.4961 12.4203V12.4507L13.5872 12.5645C13.4708 12.6809 13.3544 12.7391 13.2381 12.7391C13.2128 12.648 13.1723 12.6 13.1166 12.5949C13.1166 12.6354 13.1065 12.6556 13.0863 12.6556L13.1166 12.7087V12.7391C13.1166 12.7593 13.1065 12.7695 13.0863 12.7695L13.147 12.8909C13.0913 12.8909 13.0534 12.9187 13.0331 12.9744L13.0863 13.1793C13.0104 13.2147 12.9724 13.2831 12.9724 13.3843H13.0331L13.0028 13.536C13.023 13.536 13.0331 13.5462 13.0331 13.5664C12.9927 13.5816 12.9623 13.5892 12.9421 13.5892L12.9724 13.6499V13.6803H12.9117V13.7713L12.9421 13.8245L12.8813 13.8548V13.7941C12.8459 13.8042 12.8282 13.8245 12.8282 13.8548H12.8813C12.8813 13.9712 12.8434 14.0294 12.7675 14.0294V14.0901H12.851V14.1508L12.8282 14.2116H12.8813V14.295L12.7979 14.2343C12.7979 14.3355 12.7473 14.3861 12.6461 14.3861V14.4393L12.7068 14.4165C12.7473 14.4215 12.7675 14.4393 12.7675 14.4696C12.7473 14.4696 12.7371 14.4797 12.7371 14.5C12.7776 14.505 12.7979 14.5253 12.7979 14.5607V14.5911H12.7675L12.7068 14.5607C12.6865 14.5911 12.6764 14.6391 12.6764 14.7049H12.6157L12.5322 14.6518H12.5018C12.5018 14.7277 12.4816 14.7656 12.4411 14.7656C12.3652 14.7353 12.3273 14.7049 12.3273 14.6745C12.3273 14.6391 12.3551 14.6214 12.4108 14.6214V14.5607C12.3096 14.5607 12.2514 14.5303 12.2362 14.4696V14.4393C12.2969 14.4393 12.3273 14.4215 12.3273 14.3861C12.2463 14.3861 12.2058 14.3558 12.2058 14.295V14.2647C12.216 14.2293 12.2362 14.2116 12.2666 14.2116C12.307 14.2116 12.3956 14.2697 12.5322 14.3861L12.5929 14.4165V14.3254L12.5322 14.3558C12.4563 14.2394 12.388 14.1812 12.3273 14.1812L12.3576 14.1205H12.2969V14.0901C12.2969 14.0699 12.307 14.0598 12.3273 14.0598L12.2969 13.999V13.9763H12.3273C12.3678 13.9763 12.388 14.0041 12.388 14.0598H12.4411L12.4715 13.9155L12.3273 13.9459C12.3273 13.9054 12.307 13.8852 12.2666 13.8852C12.2666 13.9257 12.2463 13.9459 12.2058 13.9459V13.7941C12.2463 13.8143 12.2767 13.8245 12.2969 13.8245C12.2969 13.789 12.3273 13.7713 12.388 13.7713V13.741L12.2362 13.7106C12.2362 13.6701 12.2868 13.6499 12.388 13.6499V13.6195C12.388 13.5993 12.3475 13.5715 12.2666 13.536C12.216 13.5411 12.178 13.5892 12.1527 13.6803C12.2084 13.6803 12.2362 13.7005 12.2362 13.741L12.1527 13.7941H12.1223C12.1223 13.7384 12.1021 13.7106 12.0616 13.7106C12.0616 13.6904 12.0717 13.6803 12.092 13.6803L12.0616 13.536C12.0616 13.4146 12.0996 13.3539 12.1755 13.3539L12.1223 13.2704C12.1527 13.1894 12.1805 13.149 12.2058 13.149C12.216 13.1894 12.2362 13.2097 12.2666 13.2097H12.3273C12.3678 13.2097 12.388 13.1894 12.388 13.149V13.0351H12.3273V13.149H12.2666C12.2261 13.149 12.2058 13.1211 12.2058 13.0655H12.1527L12.1223 13.1793H12.0616V13.0655L12.1527 12.944L12.1223 12.8909C12.2185 12.8656 12.2666 12.8352 12.2666 12.7998C12.2058 12.7998 12.1755 12.7897 12.1755 12.7695C12.1957 12.734 12.2058 12.7062 12.2058 12.686C12.1704 12.686 12.1527 12.6657 12.1527 12.6253C12.2488 12.5494 12.2969 12.4912 12.2969 12.4507H12.3576V12.5038H12.4108V12.4507C12.3703 12.4507 12.3425 12.4102 12.3273 12.3292C12.2868 12.3292 12.2666 12.309 12.2666 12.2685C12.2868 12.2331 12.2969 12.2053 12.2969 12.185C12.2767 12.1446 12.2666 12.1142 12.2666 12.094C12.2969 12.094 12.3273 12.0661 12.3576 12.0105V11.9497L12.2969 11.9801C12.2969 11.9599 12.2868 11.9497 12.2666 11.9497C12.3273 11.7676 12.3576 11.6512 12.3576 11.6006C12.3374 11.5601 12.3273 11.5298 12.3273 11.5095C12.3779 11.3527 12.4259 11.2742 12.4715 11.2742L12.5018 11.335C12.4512 11.4109 12.4133 11.4488 12.388 11.4488V11.5399C12.3931 11.5804 12.4108 11.6006 12.4411 11.6006C12.4411 11.4437 12.5297 11.3653 12.7068 11.3653C12.7068 11.335 12.6587 11.2945 12.5626 11.2439C12.5626 11.1781 12.5904 11.0997 12.6461 11.0086L12.6157 10.9479C12.6562 10.9327 12.6865 10.9251 12.7068 10.9251L12.5626 10.8037L12.6157 10.7733L12.5929 10.4849V10.4242L12.7675 10.2192L12.8282 10.2496C12.8636 10.2496 12.8813 10.2294 12.8813 10.1889C12.765 10.1686 12.7068 10.1383 12.7068 10.0978C12.7523 10.0624 12.7928 10.0447 12.8282 10.0447C12.808 10.0194 12.7979 9.96876 12.7979 9.89286C12.8738 9.87262 12.9117 9.82455 12.9117 9.74865C12.8712 9.74865 12.851 9.72841 12.851 9.68793V9.65757H12.8813L12.9421 9.68793C12.9421 9.62215 12.9522 9.57408 12.9724 9.54372C12.9319 9.54372 12.9117 9.52348 12.9117 9.483L12.9421 9.42228L12.9117 9.36915C12.9117 9.26796 12.9421 9.21736 13.0028 9.21736L12.9724 9.16423V9.13387C13.0483 9.06303 13.0863 8.9846 13.0863 8.89858H13.0331V8.86822L13.1774 8.75437C13.1571 8.71389 13.147 8.68353 13.147 8.66329C13.1774 8.66329 13.2077 8.61522 13.2381 8.51908L13.2077 8.45836C13.228 8.39764 13.2457 8.36728 13.2608 8.36728L13.2381 8.31415V8.28379C13.2735 8.28379 13.2912 8.27367 13.2912 8.25343V8.16235H13.3216V8.0485C13.2457 8.0485 13.2077 8.02826 13.2077 7.98778V7.95742H13.2608L13.3519 8.01814V7.98778L13.3216 7.92706C13.362 7.85116 13.3823 7.78285 13.3823 7.72213C13.3418 7.72213 13.3216 7.70442 13.3216 7.669V7.63864C13.4278 7.63864 13.5467 7.57033 13.6783 7.43371H13.6176L13.5265 7.48684H13.443V7.43371L13.6176 7.22878H13.5265V7.31227H13.3823V7.22878C13.3924 7.16806 13.4708 7.1377 13.6176 7.1377V7.10734C13.5771 7.10734 13.5568 7.09722 13.5568 7.07698L13.4961 7.10734H13.443V7.04662C13.5594 7.0112 13.6176 6.96313 13.6176 6.90241ZM13.2608 7.45648V7.48684C13.2608 7.52732 13.2431 7.54756 13.2077 7.54756H13.1774C13.1774 7.5172 13.2052 7.48684 13.2608 7.45648ZM14.0881 7.48684H14.1413V7.5172C14.1413 7.55768 14.1236 7.57792 14.0881 7.57792V7.48684ZM13.9667 7.75249H13.9971V7.78285C13.9971 7.82333 13.9768 7.84357 13.9363 7.84357L13.9136 7.78285L13.9667 7.75249ZM14.0274 7.95742H14.0578C14.0375 7.99284 14.0274 8.03332 14.0274 8.07886H13.9971C13.9566 8.07886 13.9363 8.05862 13.9363 8.01814L14.0274 7.95742ZM13.7921 8.0485V8.13199C13.8124 8.17247 13.8225 8.20283 13.8225 8.22307H13.8832V8.19271C13.8427 8.14211 13.8225 8.09404 13.8225 8.0485H13.7921ZM13.0863 8.07886H13.1774C13.2178 8.08392 13.2381 8.10163 13.2381 8.13199V8.16235H13.147C13.1065 8.16235 13.0863 8.14211 13.0863 8.10163V8.07886ZM14.0881 8.10163L14.1185 8.16235L14.0578 8.19271L14.0274 8.13199L14.0881 8.10163ZM13.7921 8.69365V8.72401H13.9136V8.66329C13.8782 8.68353 13.8377 8.69365 13.7921 8.69365ZM13.7618 8.77714L13.7314 8.83786H13.8225C13.8225 8.79738 13.8023 8.77714 13.7618 8.77714ZM13.7314 8.89858L13.6783 8.98207C13.6935 8.98207 13.7011 8.99219 13.7011 9.01243L13.8832 8.98207V8.92894L13.7314 8.89858ZM13.8529 9.01243L13.8225 9.07315V9.10351L13.8832 9.07315H13.9136L14.0274 9.16423V9.13387C13.9869 9.05291 13.9288 9.01243 13.8529 9.01243ZM13.7011 9.10351C13.7415 9.14905 13.7618 9.187 13.7618 9.21736H13.7921C13.8326 9.21736 13.8529 9.19965 13.8529 9.16423C13.8124 9.16423 13.7921 9.14399 13.7921 9.10351H13.7011ZM13.9136 9.19459V9.21736L14.0578 9.24772C14.0578 9.2123 14.0274 9.19459 13.9667 9.19459H13.9136ZM13.6783 9.24772V9.27808C13.7289 9.37421 13.7668 9.42228 13.7921 9.42228C13.7921 9.37674 13.8326 9.34891 13.9136 9.33879V9.30844C13.8579 9.30844 13.7795 9.2882 13.6783 9.24772ZM13.6176 9.39951V9.45264C13.6226 9.49312 13.6429 9.51336 13.6783 9.51336C13.7137 9.49312 13.7415 9.483 13.7618 9.483C13.7618 9.4577 13.7339 9.42987 13.6783 9.39951H13.6176ZM13.7921 9.45264C13.7972 9.49312 13.8174 9.51336 13.8529 9.51336H13.8832C13.8832 9.47288 13.863 9.45264 13.8225 9.45264H13.7921ZM13.7011 9.57408C13.7011 9.60444 13.6833 9.64239 13.6479 9.68793C13.6833 9.68793 13.7011 9.69805 13.7011 9.71829C13.6656 9.84479 13.6479 9.9131 13.6479 9.92322H13.6783L13.7618 9.8625C13.782 9.90298 13.7921 9.93334 13.7921 9.95358H13.8225C13.8225 9.93334 13.8326 9.90298 13.8529 9.8625C13.8124 9.8625 13.782 9.80431 13.7618 9.68793H13.7921C13.7719 9.65251 13.7618 9.61456 13.7618 9.57408H13.7011ZM13.0559 9.71829V9.80937H13.1166V9.71829H13.0559ZM13.6176 10.1282V10.1585H13.7314L13.7011 10.0978C13.6656 10.118 13.6378 10.1282 13.6176 10.1282ZM13.4961 10.3331V10.3634C13.4961 10.3837 13.5062 10.3938 13.5265 10.3938L13.4961 10.4545C13.5164 10.4899 13.5265 10.5178 13.5265 10.538H13.5872L13.5568 10.3938C13.5973 10.3938 13.6176 10.3736 13.6176 10.3331H13.4961ZM12.6461 10.4242V10.5077C12.6865 10.5077 12.7068 10.4899 12.7068 10.4545V10.4242H12.6461ZM13.443 10.6595L13.4734 10.8037C13.4531 10.8644 13.443 10.9226 13.443 10.9782H13.4734V11.0389C13.4126 11.0946 13.3519 11.2034 13.2912 11.3653L13.3519 11.3881H13.3823V11.2742L13.4734 11.335H13.4961L13.4734 11.2742C13.4734 11.2439 13.5012 11.2135 13.5568 11.1832V11.2135C13.5366 11.2489 13.5265 11.2894 13.5265 11.335L13.5872 11.3653C13.5872 11.2641 13.6074 11.2135 13.6479 11.2135C13.6479 11.1579 13.6074 11.13 13.5265 11.13V11.0997C13.5315 11.0592 13.5518 11.0389 13.5872 11.0389C13.6226 11.0592 13.6606 11.0693 13.7011 11.0693V11.0086L13.5265 10.9782V10.9479C13.5265 10.9377 13.567 10.8897 13.6479 10.8037V10.7733C13.6024 10.7733 13.572 10.7151 13.5568 10.5987H13.5265L13.443 10.6595ZM13.6783 10.8037H13.7921V10.7429H13.7314C13.696 10.7531 13.6783 10.7733 13.6783 10.8037ZM13.6176 10.9479H13.6479C13.6833 10.9479 13.7011 10.9302 13.7011 10.8947V10.8644C13.6758 10.8644 13.6479 10.8922 13.6176 10.9479ZM12.6764 11.0086V11.13C12.7169 11.13 12.7371 11.1098 12.7371 11.0693V11.0086H12.6764ZM13.7314 11.0997V11.1832H13.7921V11.0997H13.7314ZM12.851 11.1832L12.9117 11.2135V11.13C12.8712 11.1351 12.851 11.1528 12.851 11.1832ZM13.4126 11.13H13.4961V11.1832H13.4734C13.4329 11.1832 13.4126 11.1654 13.4126 11.13ZM12.7675 11.2135C12.7675 11.2439 12.7953 11.2742 12.851 11.3046H12.8813V11.2742C12.8813 11.2338 12.8636 11.2135 12.8282 11.2135H12.7675ZM12.9117 11.5702V11.6006C12.9168 11.636 12.937 11.6537 12.9724 11.6537V11.5702H12.9117ZM12.7068 11.6537V11.6841H12.7371C12.7827 11.6436 12.8206 11.6234 12.851 11.6234V11.6006H12.7675C12.727 11.6057 12.7068 11.6234 12.7068 11.6537ZM12.7068 11.8587H12.8282V11.8055H12.7675C12.727 11.8106 12.7068 11.8283 12.7068 11.8587ZM13.2912 11.8055V11.889C13.3722 11.889 13.4126 11.9194 13.4126 11.9801C13.4531 11.9801 13.4734 11.9599 13.4734 11.9194V11.8587C13.443 11.8587 13.4025 11.841 13.3519 11.8055H13.2912ZM13.2077 11.9801V12.0332C13.2431 12.0332 13.2608 12.0434 13.2608 12.0636C13.3418 12.0383 13.3823 12.0105 13.3823 11.9801C13.3216 11.9801 13.2912 11.97 13.2912 11.9497C13.2558 11.97 13.228 11.9801 13.2077 11.9801ZM12.7371 12.0105V12.0332C12.7574 12.0332 12.7877 12.0434 12.8282 12.0636H12.851V12.0332C12.8307 12.0332 12.8029 12.0256 12.7675 12.0105H12.7371ZM12.6461 12.094V12.1547H12.7068V12.0332C12.6663 12.0434 12.6461 12.0636 12.6461 12.094ZM13.2077 12.094V12.1547H13.2912V12.094H13.2077ZM12.3576 12.185V12.2685H12.4108V12.2458C12.4108 12.2053 12.3931 12.185 12.3576 12.185ZM13.2381 12.4507H13.2608C13.3013 12.4507 13.3216 12.4304 13.3216 12.39H13.2912C13.2558 12.395 13.2381 12.4153 13.2381 12.4507ZM13.1166 12.4735C13.1369 12.5139 13.147 12.5443 13.147 12.5645H13.2077L13.1774 12.4203C13.1369 12.4254 13.1166 12.4431 13.1166 12.4735ZM12.2058 12.6253C12.216 12.6657 12.2362 12.686 12.2666 12.686H12.2969C12.2969 12.6455 12.2767 12.6253 12.2362 12.6253H12.2058ZM13.2381 12.7695L13.2608 12.8302L13.2077 12.8605H13.1774V12.8302C13.1824 12.7897 13.2027 12.7695 13.2381 12.7695ZM12.3576 12.8302V12.8909H12.4411V12.8302H12.3576ZM13.4734 12.9744H13.4961V13.0351C13.4405 13.0351 13.4126 13.0554 13.4126 13.0958C13.4531 13.1009 13.4734 13.1186 13.4734 13.149L13.4126 13.1793C13.4329 13.2198 13.443 13.2502 13.443 13.2704C13.4228 13.3058 13.4126 13.3337 13.4126 13.3539H13.3823L13.3216 13.3311C13.3216 13.3564 13.2937 13.3843 13.2381 13.4146H13.2077C13.2077 13.3185 13.1875 13.2704 13.147 13.2704C13.147 13.3109 13.1268 13.3311 13.0863 13.3311V13.3008C13.0913 13.24 13.1698 13.1819 13.3216 13.1262C13.3216 13.0604 13.3722 13.0098 13.4734 12.9744ZM12.5322 13.0958L12.4715 13.1793L12.5322 13.2097H12.5626C12.5626 13.1894 12.5727 13.1616 12.5929 13.1262L12.5322 13.0958ZM12.7371 13.149L12.7068 13.2097C12.7473 13.1894 12.7776 13.1793 12.7979 13.1793V13.149H12.7371ZM12.388 13.4753V13.536H12.4411C12.4411 13.4753 12.4614 13.445 12.5018 13.445C12.5373 13.4652 12.5752 13.4753 12.6157 13.4753C12.6005 13.4348 12.5929 13.4045 12.5929 13.3843H12.5018C12.4512 13.445 12.4133 13.4753 12.388 13.4753ZM12.1223 13.536V13.5892H12.1527L12.1755 13.445C12.1401 13.445 12.1223 13.4753 12.1223 13.536ZM13.2912 13.4146C13.3823 13.4551 13.4329 13.4956 13.443 13.536L13.3823 13.5664C13.3823 13.5259 13.362 13.5057 13.3216 13.5057H13.2912C13.2912 13.5462 13.2634 13.5664 13.2077 13.5664V13.6195L13.4126 13.5892L13.443 13.6499C13.4076 13.6499 13.3393 13.7182 13.2381 13.8548C13.1925 13.8548 13.1521 13.8649 13.1166 13.8852L13.0863 13.8245C13.1065 13.7283 13.147 13.6803 13.2077 13.6803L13.147 13.5892V13.5664C13.147 13.536 13.1951 13.4854 13.2912 13.4146ZM12.6461 13.5057V13.536C12.6562 13.5715 12.6764 13.5892 12.7068 13.5892V13.5664C12.7068 13.5259 12.6865 13.5057 12.6461 13.5057ZM13.2077 13.7106L13.1774 13.7713H13.2608C13.2608 13.7309 13.2431 13.7106 13.2077 13.7106ZM12.6157 13.8548C12.6258 13.8953 12.6461 13.9155 12.6764 13.9155H12.7068C12.7068 13.8751 12.6865 13.8548 12.6461 13.8548H12.6157ZM13.3519 13.8548H13.3823V13.9459H13.3519C13.3114 13.9459 13.2912 13.9257 13.2912 13.8852L13.3519 13.8548ZM13.2077 13.8852L13.2381 13.9459L13.2077 13.999H13.2608C13.2608 14.0395 13.2431 14.0598 13.2077 14.0598C13.147 14.0395 13.1166 14.0193 13.1166 13.999C13.147 13.9231 13.1774 13.8852 13.2077 13.8852ZM12.5929 13.9459C12.5929 13.9813 12.5727 13.999 12.5322 13.999V14.0294H12.5929L12.6461 13.9459H12.5929ZM12.4108 14.1205C12.4209 14.161 12.4411 14.1812 12.4715 14.1812H12.5018V14.1205H12.4108ZM12.6461 14.2116L12.7068 14.2343L12.7371 14.1812V14.1508H12.7068C12.6663 14.1559 12.6461 14.1761 12.6461 14.2116ZM12.5018 14.2116V14.2647H12.5929V14.2116H12.5018Z" fill="white"/>
<path d="M9.59106 0.767183C9.52341 0.767455 9.45576 0.767727 9.38606 0.768008C8.82471 0.775213 8.28978 0.827456 7.74237 0.950667C7.67701 0.965367 7.67701 0.965367 7.61032 0.980364C5.54966 1.45857 3.58742 2.55007 2.314 4.27416C2.25167 4.35491 2.25167 4.35491 2.18807 4.4373C1.33549 5.56248 0.839106 6.83828 0.541475 8.20695C0.531122 8.25222 0.520769 8.29749 0.510101 8.34413C0.414743 8.80171 0.403858 9.25783 0.402996 9.72329C0.402885 9.76547 0.402773 9.80765 0.402658 9.8511C0.406914 12.2541 1.37994 14.454 3.05833 16.1539C4.47624 17.5545 6.50456 18.577 8.53516 18.579C8.64022 18.5756 8.74527 18.5715 8.8502 18.5652C8.86283 18.5951 8.87547 18.6251 8.88849 18.656C9.31639 19.4275 10.1859 20.0034 11.007 20.265C11.1002 20.2904 11.1936 20.3146 11.2874 20.3377C11.3563 20.3548 11.3563 20.3548 11.4265 20.3723C11.8935 20.4728 12.5798 20.5837 13.0219 20.3585C13.2364 20.1689 13.3178 20.0092 13.3646 19.7284C13.3277 19.5072 13.2184 19.3793 13.0599 19.2299C12.9923 19.1834 12.9923 19.1834 12.9232 19.1359C12.7413 18.9703 12.6811 18.8069 12.5995 18.579C12.5776 18.5211 12.5776 18.5211 12.5553 18.4619C12.5196 18.3674 12.485 18.2724 12.4506 18.1774C12.5135 18.174 12.5763 18.1706 12.641 18.167C14.2586 17.9739 15.8735 16.9973 16.882 15.7402C18.1156 14.1279 18.6375 12.0621 18.6268 10.0556C18.6267 10.0075 18.6266 9.95932 18.6266 9.90971C18.6233 9.11151 18.55 8.36616 18.3221 7.59764C18.3097 7.55338 18.2973 7.50912 18.2844 7.46352C17.9005 6.11515 17.1987 4.83627 16.2173 3.83102C16.1557 3.75863 16.0946 3.68593 16.0338 3.61292C15.506 3.01298 14.8846 2.55449 14.2232 2.11389C14.1706 2.07804 14.1181 2.0422 14.0639 2.00527C12.7723 1.18649 11.1109 0.759851 9.59106 0.767183ZM11.232 1.61536C11.3164 1.63336 11.3164 1.63336 11.4025 1.65172C13.6221 2.15023 15.511 3.65088 16.7158 5.54816C17.524 6.88979 17.9608 8.34102 17.9482 9.91024C17.9481 9.9493 17.9479 9.98835 17.9477 10.0286C17.9444 10.6091 17.9326 11.1801 17.8236 11.752C17.815 11.798 17.8063 11.844 17.7974 11.8915C17.542 13.2072 17.1109 14.4422 16.2173 15.4632C16.184 15.5044 16.1507 15.5456 16.1164 15.5881C15.1201 16.7866 13.5041 17.41 12.0075 17.6789C11.8479 17.6887 11.8479 17.6887 11.7306 17.6789C12.022 19.189 12.022 19.189 12.6168 19.7838C11.7009 19.8346 10.7967 19.6329 10.0883 19.0199C9.75366 18.7162 9.4416 18.3822 9.18254 18.0112C9.18254 17.9747 9.18254 17.9381 9.18254 17.9005C9.11336 17.9037 9.04417 17.9069 8.97288 17.9102C6.95854 17.974 5.12405 17.1607 3.66114 15.806C3.61873 15.766 3.57631 15.726 3.53261 15.6848C3.49249 15.6482 3.45236 15.6117 3.41101 15.574C2.22086 14.4478 1.47989 12.8553 1.20617 11.2535C1.19489 11.197 1.18361 11.1405 1.17199 11.0823C0.807764 9.02422 1.34464 6.83985 2.50549 5.11801C2.62099 4.96024 2.74047 4.81012 2.86792 4.6619C2.9069 4.61598 2.94589 4.57007 2.98606 4.52277C3.10987 4.38142 3.23728 4.24446 3.36644 4.10798C3.43777 4.03033 3.43777 4.03033 3.51054 3.95111C4.27014 3.14246 5.19733 2.58976 6.19141 2.11389C6.25422 2.08366 6.25422 2.08366 6.31831 2.05282C6.60883 1.91792 6.89881 1.82452 7.20922 1.74692C7.25532 1.73516 7.30141 1.72339 7.34891 1.71127C7.68098 1.62779 8.01206 1.5505 8.35167 1.50458C8.39709 1.49844 8.4425 1.4923 8.48929 1.48597C9.40598 1.38795 10.3354 1.39628 11.232 1.61536Z" fill="#F7F7F8"/>
<defs>
<linearGradient id="paint0_linear_9764_45985" x1="9.44563" y1="0.490234" x2="9.44563" y2="19.8692" gradientUnits="userSpaceOnUse">
<stop stop-color="#005CC9"/>
<stop offset="1" stop-color="#01274C"/>
</linearGradient>
</defs>
</svg>
