<svg width="120" height="36" viewBox="0 0 120 36" fill="none" xmlns="http://www.w3.org/2000/svg">
<rect y="0.5" width="120" height="35" rx="7" fill="#1E2775"/>
<path d="M29.72 22.5C29.6267 22.5 29.5473 22.472 29.482 22.416C29.426 22.3507 29.398 22.2713 29.398 22.178V17.992C29.398 17.2453 29.2113 16.6667 28.838 16.256C28.4647 15.836 27.8627 15.626 27.032 15.626H24.4C24.3067 15.626 24.2273 15.598 24.162 15.542C24.106 15.4767 24.078 15.3973 24.078 15.304V14.828C24.078 14.7347 24.106 14.66 24.162 14.604C24.2273 14.5387 24.3067 14.506 24.4 14.506H27.102C28.3153 14.506 29.2113 14.8 29.79 15.388C30.378 15.976 30.672 16.83 30.672 17.95V22.178C30.672 22.2713 30.6393 22.3507 30.574 22.416C30.518 22.472 30.4433 22.5 30.35 22.5H29.72ZM24.4 22.5C24.3067 22.5 24.2273 22.472 24.162 22.416C24.106 22.3507 24.078 22.2713 24.078 22.178V17.502C24.078 17.4087 24.106 17.334 24.162 17.278C24.2273 17.2127 24.3067 17.18 24.4 17.18H25.03C25.1327 17.18 25.212 17.2127 25.268 17.278C25.324 17.334 25.352 17.4087 25.352 17.502V22.178C25.352 22.2713 25.324 22.3507 25.268 22.416C25.212 22.472 25.1327 22.5 25.03 22.5H24.4ZM32.97 19.252C32.8766 19.252 32.7973 19.224 32.732 19.168C32.676 19.1027 32.648 19.0233 32.648 18.93V14.828C32.648 14.7347 32.676 14.66 32.732 14.604C32.7973 14.5387 32.8766 14.506 32.97 14.506H33.628C33.7306 14.506 33.81 14.5387 33.866 14.604C33.922 14.66 33.95 14.7347 33.95 14.828V18.93C33.95 19.0233 33.922 19.1027 33.866 19.168C33.81 19.224 33.7306 19.252 33.628 19.252H32.97ZM40.5492 22.5C40.4559 22.5 40.3766 22.472 40.3112 22.416C40.2552 22.3507 40.2272 22.2713 40.2272 22.178V17.992C40.2272 17.2453 40.0406 16.6667 39.6672 16.256C39.2939 15.836 38.6919 15.626 37.8612 15.626H36.0272C35.9339 15.626 35.8546 15.598 35.7892 15.542C35.7332 15.4767 35.7052 15.3973 35.7052 15.304V14.828C35.7052 14.7347 35.7332 14.66 35.7892 14.604C35.8546 14.5387 35.9339 14.506 36.0272 14.506H37.9312C38.7339 14.506 39.3966 14.632 39.9192 14.884C40.4512 15.136 40.8479 15.5187 41.1092 16.032C41.3706 16.536 41.5012 17.166 41.5012 17.922V22.178C41.5012 22.2713 41.4686 22.3507 41.4032 22.416C41.3472 22.472 41.2726 22.5 41.1792 22.5H40.5492ZM43.8961 22.5C43.8028 22.5 43.7234 22.472 43.6581 22.416C43.6021 22.3507 43.5741 22.2713 43.5741 22.178V14.828C43.5741 14.7347 43.6021 14.66 43.6581 14.604C43.7234 14.5387 43.8028 14.506 43.8961 14.506H44.5541C44.6568 14.506 44.7361 14.5387 44.7921 14.604C44.8481 14.66 44.8761 14.7347 44.8761 14.828V22.178C44.8761 22.2713 44.8481 22.3507 44.7921 22.416C44.7361 22.472 44.6568 22.5 44.5541 22.5H43.8961ZM50.4911 22.64C49.2404 22.64 48.3397 22.3413 47.7891 21.744C47.2384 21.1373 46.9631 20.2927 46.9631 19.21V14.828C46.9631 14.7347 46.9911 14.66 47.0471 14.604C47.1124 14.5387 47.1917 14.506 47.2851 14.506H47.8591C47.9617 14.506 48.0411 14.5387 48.0971 14.604C48.1531 14.66 48.1811 14.7347 48.1811 14.828V19.14C48.1811 19.896 48.3724 20.4793 48.7551 20.89C49.1377 21.2913 49.7164 21.492 50.4911 21.492C51.2657 21.492 51.8304 21.3053 52.1851 20.932C52.5491 20.5587 52.7404 19.9987 52.7591 19.252C52.7684 19.1587 52.7684 19.0187 52.7591 18.832C52.7591 18.636 52.7591 18.44 52.7591 18.244C52.7591 18.048 52.7591 17.9033 52.7591 17.81C52.7404 17.0353 52.5724 16.4707 52.2551 16.116C51.9471 15.7613 51.5411 15.584 51.0371 15.584C50.8784 15.584 50.6964 15.612 50.4911 15.668C50.2857 15.724 50.1131 15.7987 49.9731 15.892C49.8891 15.9387 49.8004 15.9433 49.7071 15.906C49.6137 15.8593 49.5671 15.7847 49.5671 15.682V15.248C49.5671 15.1547 49.5764 15.0753 49.5951 15.01C49.6137 14.9353 49.6651 14.87 49.7491 14.814C49.9357 14.702 50.1364 14.6133 50.3511 14.548C50.5657 14.4733 50.8504 14.436 51.2051 14.436C51.8117 14.436 52.3204 14.5527 52.7311 14.786C53.1417 15.01 53.4544 15.36 53.6691 15.836C53.8837 16.312 54.0004 16.9233 54.0191 17.67C54.0284 17.7633 54.0331 17.922 54.0331 18.146C54.0331 18.37 54.0331 18.5987 54.0331 18.832C54.0331 19.0653 54.0284 19.2287 54.0191 19.322C54.0004 20.0313 53.8697 20.638 53.6271 21.142C53.3937 21.6367 53.0204 22.01 52.5071 22.262C52.0031 22.514 51.3311 22.64 50.4911 22.64ZM59.2391 22.64C58.0724 22.64 57.2044 22.3367 56.6351 21.73C56.0658 21.1233 55.7811 20.26 55.7811 19.14V14.828C55.7811 14.7347 55.8091 14.66 55.8651 14.604C55.9304 14.5387 56.0098 14.506 56.1031 14.506H59.4771C60.3078 14.506 60.9704 14.632 61.4651 14.884C61.9598 15.136 62.3191 15.5093 62.5431 16.004C62.7764 16.4893 62.9071 17.0913 62.9351 17.81C62.9444 17.9033 62.9491 18.0527 62.9491 18.258C62.9491 18.4633 62.9491 18.6687 62.9491 18.874C62.9491 19.0793 62.9444 19.2287 62.9351 19.322C62.9164 20.0313 62.7811 20.638 62.5291 21.142C62.2771 21.6367 61.8804 22.01 61.3391 22.262C60.8071 22.514 60.1071 22.64 59.2391 22.64ZM59.2391 21.492C60.1258 21.492 60.7511 21.31 61.1151 20.946C61.4791 20.5727 61.6704 20.008 61.6891 19.252C61.6984 19.1587 61.7031 19.0187 61.7031 18.832C61.7031 18.6453 61.7031 18.4633 61.7031 18.286C61.7031 18.1087 61.6984 17.9733 61.6891 17.88C61.6704 17.1333 61.4558 16.5733 61.0451 16.2C60.6438 15.8173 60.0978 15.626 59.4071 15.626H56.9991V19.14C56.9991 19.896 57.1858 20.4793 57.5591 20.89C57.9324 21.2913 58.4924 21.492 59.2391 21.492ZM65.0032 19.252C64.9098 19.252 64.8305 19.224 64.7652 19.168C64.7092 19.1027 64.6812 19.0233 64.6812 18.93V14.828C64.6812 14.7347 64.7092 14.66 64.7652 14.604C64.8305 14.5387 64.9098 14.506 65.0032 14.506H65.6612C65.7638 14.506 65.8432 14.5387 65.8992 14.604C65.9552 14.66 65.9832 14.7347 65.9832 14.828V18.93C65.9832 19.0233 65.9552 19.1027 65.8992 19.168C65.8432 19.224 65.7638 19.252 65.6612 19.252H65.0032ZM73.7024 22.5C73.6091 22.5 73.5298 22.472 73.4644 22.416C73.4084 22.3507 73.3804 22.2713 73.3804 22.178V17.992C73.3804 17.2453 73.1938 16.6667 72.8204 16.256C72.4471 15.836 71.8451 15.626 71.0144 15.626H68.3824C68.2891 15.626 68.2098 15.598 68.1444 15.542C68.0884 15.4767 68.0604 15.3973 68.0604 15.304V14.828C68.0604 14.7347 68.0884 14.66 68.1444 14.604C68.2098 14.5387 68.2891 14.506 68.3824 14.506H71.0844C72.2978 14.506 73.1938 14.8 73.7724 15.388C74.3604 15.976 74.6544 16.83 74.6544 17.95V22.178C74.6544 22.2713 74.6218 22.3507 74.5564 22.416C74.5004 22.472 74.4258 22.5 74.3324 22.5H73.7024ZM68.3824 22.5C68.2891 22.5 68.2098 22.472 68.1444 22.416C68.0884 22.3507 68.0604 22.2713 68.0604 22.178V17.502C68.0604 17.4087 68.0884 17.334 68.1444 17.278C68.2098 17.2127 68.2891 17.18 68.3824 17.18H69.0124C69.1151 17.18 69.1944 17.2127 69.2504 17.278C69.3064 17.334 69.3344 17.4087 69.3344 17.502V22.178C69.3344 22.2713 69.3064 22.3507 69.2504 22.416C69.1944 22.472 69.1151 22.5 69.0124 22.5H68.3824Z" fill="white"/>
<g clip-path="url(#clip0_1725_98650)">
<path d="M89.9537 11.5473L91.2446 12.8382C92.4452 11.2665 94.1561 10.1625 96.0829 9.71631C98.0096 9.27008 100.032 9.50953 101.801 10.3934C103.57 11.2774 104.976 12.7504 105.776 14.5591C106.576 16.3677 106.721 18.3988 106.185 20.3026C105.65 22.2064 104.467 23.8638 102.841 24.9896C101.215 26.1154 99.2468 26.639 97.2762 26.4704C95.3057 26.3017 93.4555 25.4514 92.0443 24.0657C90.6331 22.68 89.7492 20.8457 89.5446 18.8786C89.5229 18.6682 89.5857 18.4578 89.7191 18.2938C89.8525 18.1297 90.0456 18.0253 90.256 18.0036C90.4663 17.9819 90.6767 18.0447 90.8408 18.1781C91.0049 18.3115 91.1092 18.5046 91.1309 18.7149C91.2985 20.3219 92.024 21.8192 93.1815 22.9464C94.3389 24.0737 95.8549 24.7594 97.4657 24.8844C99.0764 25.0094 100.68 24.5657 101.998 23.6306C103.315 22.6954 104.263 21.3279 104.676 19.7661C105.09 18.2042 104.942 16.5469 104.26 15.0824C103.578 13.6179 102.404 12.4389 100.942 11.7506C99.4804 11.0624 97.8236 10.9084 96.2601 11.3154C94.6966 11.7224 93.3252 12.6647 92.3847 13.9783L93.8276 15.4212C93.8648 15.4583 93.8902 15.5057 93.9005 15.5573C93.9108 15.6089 93.9055 15.6624 93.8854 15.711C93.8652 15.7596 93.8311 15.8011 93.7873 15.8303C93.7436 15.8594 93.6921 15.875 93.6395 15.8749H89.7656C89.6952 15.8749 89.6276 15.8469 89.5778 15.7971C89.528 15.7473 89.5 15.6797 89.5 15.6092V11.7354C89.4999 11.6828 89.5154 11.6313 89.5446 11.5876C89.5738 11.5438 89.6153 11.5097 89.6639 11.4895C89.7125 11.4694 89.766 11.4641 89.8176 11.4744C89.8692 11.4847 89.9165 11.5101 89.9537 11.5473ZM97.7344 13.7499C97.9457 13.7499 98.1484 13.8338 98.2979 13.9833C98.4473 14.1327 98.5312 14.3354 98.5312 14.5467V17.7257L100.686 18.5885C100.876 18.6713 101.026 18.8247 101.105 19.0164C101.183 19.208 101.184 19.4227 101.107 19.615C101.03 19.8073 100.882 19.9621 100.692 20.0466C100.503 20.1311 100.289 20.1386 100.094 20.0675L97.4379 19.005C97.2903 18.9457 97.1638 18.8436 97.0746 18.7118C96.9854 18.58 96.9377 18.4246 96.9375 18.2655V14.5467C96.9375 14.3354 97.0215 14.1327 97.1709 13.9833C97.3203 13.8338 97.523 13.7499 97.7344 13.7499Z" fill="white"/>
</g>
<defs>
<clipPath id="clip0_1725_98650">
<rect width="17" height="17" fill="white" transform="translate(89.5 9.5)"/>
</clipPath>
</defs>
</svg>
