<svg width="100" height="26" viewBox="0 0 100 26" fill="none" xmlns="http://www.w3.org/2000/svg">
<path d="M8.68513 18.488C8.59713 18.488 8.52913 18.468 8.48112 18.428C8.44113 18.388 8.40913 18.34 8.38513 18.284L5.37313 10.616C5.34913 10.552 5.32913 10.508 5.31313 10.484C5.30513 10.452 5.30113 10.42 5.30113 10.388C5.30113 10.324 5.32513 10.268 5.37313 10.22C5.42913 10.172 5.48913 10.148 5.55313 10.148H6.11713C6.20513 10.148 6.27313 10.172 6.32113 10.22C6.36913 10.268 6.41313 10.34 6.45312 10.436L7.73713 13.688C8.32113 13.616 8.74513 13.404 9.00913 13.052C9.28113 12.692 9.41713 12.216 9.41713 11.624V10.424C9.41713 10.344 9.44113 10.28 9.48913 10.232C9.54513 10.176 9.61313 10.148 9.69313 10.148H10.1971C10.2771 10.148 10.3411 10.176 10.3891 10.232C10.4451 10.28 10.4731 10.344 10.4731 10.424V11.696C10.4731 12.248 10.3771 12.728 10.1851 13.136C10.0011 13.536 9.73313 13.864 9.38113 14.12C9.02913 14.376 8.60513 14.552 8.10913 14.648L9.45313 18.02C9.49313 18.132 9.51313 18.208 9.51313 18.248C9.51313 18.312 9.48913 18.368 9.44113 18.416C9.39313 18.464 9.33713 18.488 9.27313 18.488H8.68513ZM11.8417 17C11.7617 17 11.6937 16.976 11.6377 16.928C11.5897 16.872 11.5657 16.804 11.5657 16.724V16.316C11.5657 16.236 11.5897 16.172 11.6377 16.124C11.6937 16.068 11.7617 16.04 11.8417 16.04H15.2857V13.136C15.2857 12.496 15.1257 12 14.8057 11.648C14.4857 11.288 13.9697 11.108 13.2577 11.108H11.9617C11.8817 11.108 11.8137 11.084 11.7577 11.036C11.7097 10.98 11.6857 10.912 11.6857 10.832V10.424C11.6857 10.344 11.7097 10.28 11.7577 10.232C11.8137 10.176 11.8817 10.148 11.9617 10.148H13.3177C14.0057 10.148 14.5777 10.26 15.0337 10.484C15.4897 10.708 15.8297 11.04 16.0537 11.48C16.2857 11.912 16.4017 12.452 16.4017 13.1V16.04H16.8457C16.9257 16.04 16.9897 16.068 17.0377 16.124C17.0937 16.172 17.1217 16.236 17.1217 16.316V16.724C17.1217 16.804 17.0937 16.872 17.0377 16.928C16.9897 16.976 16.9257 17 16.8457 17H11.8417ZM18.6688 17C18.5888 17 18.5208 16.976 18.4648 16.928C18.4168 16.872 18.3928 16.804 18.3928 16.724V10.424C18.3928 10.344 18.4168 10.28 18.4648 10.232C18.5208 10.176 18.5888 10.148 18.6688 10.148H19.2327C19.3208 10.148 19.3888 10.176 19.4368 10.232C19.4848 10.28 19.5088 10.344 19.5088 10.424V16.724C19.5088 16.804 19.4848 16.872 19.4368 16.928C19.3888 16.976 19.3208 17 19.2327 17H18.6688ZM21.6336 19.292C21.5536 19.292 21.4856 19.264 21.4296 19.208C21.3816 19.16 21.3576 19.096 21.3576 19.016V12.716C21.3576 12.636 21.3816 12.572 21.4296 12.524C21.4856 12.468 21.5536 12.44 21.6336 12.44H22.1616C22.2496 12.44 22.3176 12.468 22.3656 12.524C22.4136 12.572 22.4376 12.636 22.4376 12.716V19.016C22.4376 19.096 22.4136 19.16 22.3656 19.208C22.3176 19.264 22.2496 19.292 22.1616 19.292H21.6336ZM23.9376 17.108C23.8656 17.132 23.7976 17.12 23.7336 17.072C23.6776 17.032 23.6496 16.972 23.6496 16.892V16.34C23.6496 16.268 23.6696 16.204 23.7096 16.148C23.7576 16.092 23.8256 16.048 23.9136 16.016L24.3696 15.836C24.6896 15.708 24.9776 15.548 25.2336 15.356C25.4976 15.156 25.7016 14.888 25.8456 14.552C25.9976 14.216 26.0736 13.776 26.0736 13.232C26.0736 12.712 26.0096 12.3 25.8816 11.996C25.7536 11.684 25.5416 11.464 25.2456 11.336C24.9576 11.2 24.5656 11.132 24.0696 11.132H21.6336C21.5536 11.132 21.4856 11.108 21.4296 11.06C21.3816 11.004 21.3576 10.936 21.3576 10.856V10.424C21.3576 10.344 21.3816 10.28 21.4296 10.232C21.4856 10.176 21.5536 10.148 21.6336 10.148H24.2256C24.9616 10.148 25.5416 10.252 25.9656 10.46C26.3976 10.668 26.7056 11.004 26.8896 11.468C27.0816 11.924 27.1776 12.524 27.1776 13.268C27.1776 13.828 27.1016 14.312 26.9496 14.72C26.7976 15.128 26.5896 15.476 26.3256 15.764C26.0696 16.052 25.7776 16.292 25.4496 16.484C25.1296 16.668 24.7936 16.82 24.4416 16.94L23.9376 17.108ZM31.8693 11.132H28.9533C28.8653 11.132 28.7973 11.108 28.7493 11.06C28.7013 11.004 28.6773 10.936 28.6773 10.856V10.424C28.6773 10.344 28.7013 10.28 28.7493 10.232C28.7973 10.176 28.8653 10.148 28.9533 10.148H32.0013C32.4973 10.148 32.9373 10.264 33.3213 10.496C33.7133 10.728 34.0173 11.064 34.2333 11.504C34.4573 11.936 34.5693 12.46 34.5693 13.076V16.724C34.5693 16.804 34.5413 16.872 34.4853 16.928C34.4373 16.976 34.3733 17 34.2933 17H31.1973C31.1173 17 31.0493 16.976 30.9933 16.928C30.9453 16.872 30.9213 16.804 30.9213 16.724V16.316C30.9213 16.236 30.9453 16.172 30.9933 16.124C31.0493 16.068 31.1173 16.04 31.1973 16.04H33.4773V13.148C33.4773 12.74 33.4053 12.384 33.2613 12.08C33.1253 11.776 32.9333 11.544 32.6853 11.384C32.4453 11.216 32.1733 11.132 31.8693 11.132ZM28.8333 17C28.7613 17 28.7013 16.972 28.6533 16.916C28.6053 16.86 28.5853 16.792 28.5933 16.712L29.6133 10.832C29.6293 10.752 29.6653 10.692 29.7213 10.652C29.7773 10.604 29.8453 10.588 29.9253 10.604L30.4053 10.628C30.4853 10.636 30.5493 10.672 30.5973 10.736C30.6453 10.792 30.6573 10.86 30.6333 10.94L29.6853 16.712C29.6773 16.792 29.6413 16.86 29.5773 16.916C29.5213 16.972 29.4533 17 29.3733 17H28.8333ZM44.1233 17C44.0433 17 43.9753 16.976 43.9193 16.928C43.8713 16.872 43.8473 16.804 43.8473 16.724V13.136C43.8473 12.496 43.6873 12 43.3673 11.648C43.0473 11.288 42.5313 11.108 41.8193 11.108H39.5633C39.4833 11.108 39.4153 11.084 39.3593 11.036C39.3113 10.98 39.2873 10.912 39.2873 10.832V10.424C39.2873 10.344 39.3113 10.28 39.3593 10.232C39.4153 10.176 39.4833 10.148 39.5633 10.148H41.8793C42.9193 10.148 43.6873 10.4 44.1833 10.904C44.6873 11.408 44.9393 12.14 44.9393 13.1V16.724C44.9393 16.804 44.9113 16.872 44.8553 16.928C44.8073 16.976 44.7433 17 44.6633 17H44.1233ZM39.5633 17C39.4833 17 39.4153 16.976 39.3593 16.928C39.3113 16.872 39.2873 16.804 39.2873 16.724V12.716C39.2873 12.636 39.3113 12.572 39.3593 12.524C39.4153 12.468 39.4833 12.44 39.5633 12.44H40.1033C40.1913 12.44 40.2593 12.468 40.3073 12.524C40.3553 12.572 40.3793 12.636 40.3793 12.716V16.724C40.3793 16.804 40.3553 16.872 40.3073 16.928C40.2593 16.976 40.1913 17 40.1033 17H39.5633ZM46.609 17C46.529 17 46.461 16.976 46.405 16.928C46.357 16.872 46.333 16.804 46.333 16.724V16.316C46.333 16.236 46.357 16.172 46.405 16.124C46.461 16.068 46.529 16.04 46.609 16.04H49.993V16.772C49.993 16.852 49.965 16.912 49.909 16.952C49.861 16.984 49.797 17 49.717 17H46.609ZM49.261 17C49.181 17 49.117 16.976 49.069 16.928C49.029 16.872 49.001 16.804 48.985 16.724L48.757 13.016C48.741 12.624 48.709 12.284 48.661 11.996C48.621 11.708 48.525 11.484 48.373 11.324C48.229 11.164 47.985 11.084 47.641 11.084H47.149C47.069 11.084 47.001 11.06 46.945 11.012C46.897 10.956 46.873 10.888 46.873 10.808V10.4C46.873 10.32 46.897 10.256 46.945 10.208C47.001 10.152 47.069 10.124 47.149 10.124H47.653C48.109 10.124 48.477 10.192 48.757 10.328C49.037 10.456 49.253 10.648 49.405 10.904C49.557 11.16 49.669 11.464 49.741 11.816C49.813 12.16 49.861 12.548 49.885 12.98L50.101 16.724C50.117 16.804 50.097 16.872 50.041 16.928C49.985 16.976 49.917 17 49.837 17H49.261ZM51.7957 14.216C51.7157 14.216 51.6477 14.192 51.5917 14.144C51.5437 14.088 51.5197 14.02 51.5197 13.94V10.424C51.5197 10.344 51.5437 10.28 51.5917 10.232C51.6477 10.176 51.7157 10.148 51.7957 10.148H52.3597C52.4477 10.148 52.5157 10.176 52.5637 10.232C52.6117 10.28 52.6357 10.344 52.6357 10.424V13.94C52.6357 14.02 52.6117 14.088 52.5637 14.144C52.5157 14.192 52.4477 14.216 52.3597 14.216H51.7957ZM54.3562 17.66C54.2762 17.692 54.2002 17.684 54.1282 17.636C54.0562 17.596 54.0202 17.536 54.0202 17.456V17.048C54.0202 16.976 54.0362 16.908 54.0682 16.844C54.1002 16.78 54.1522 16.74 54.2242 16.724L56.7562 15.884C57.2122 15.732 57.5642 15.536 57.8122 15.296C58.0602 15.056 58.2322 14.776 58.3282 14.456C58.4322 14.136 58.4842 13.788 58.4842 13.412V10.424C58.4842 10.344 58.5082 10.28 58.5562 10.232C58.6122 10.176 58.6802 10.148 58.7602 10.148H59.3002C59.3802 10.148 59.4442 10.176 59.4922 10.232C59.5482 10.28 59.5762 10.344 59.5762 10.424V13.748C59.5762 14.212 59.4682 14.652 59.2522 15.068C59.0442 15.476 58.7482 15.836 58.3642 16.148C57.9802 16.452 57.5242 16.684 56.9962 16.844L54.3562 17.66ZM55.9282 16.712L54.2362 10.628C54.2202 10.564 54.2042 10.516 54.1882 10.484C54.1802 10.452 54.1762 10.42 54.1762 10.388C54.1762 10.324 54.2002 10.268 54.2482 10.22C54.2962 10.172 54.3522 10.148 54.4162 10.148H55.0042C55.1562 10.148 55.2482 10.208 55.2802 10.328L56.9482 16.436L55.9282 16.712ZM64.3177 17.12C63.2457 17.12 62.4737 16.864 62.0017 16.352C61.5297 15.832 61.2937 15.108 61.2937 14.18V10.424C61.2937 10.344 61.3177 10.28 61.3657 10.232C61.4217 10.176 61.4897 10.148 61.5697 10.148H62.0617C62.1497 10.148 62.2177 10.176 62.2657 10.232C62.3137 10.28 62.3377 10.344 62.3377 10.424V14.12C62.3377 14.768 62.5017 15.268 62.8297 15.62C63.1577 15.964 63.6537 16.136 64.3177 16.136C64.9817 16.136 65.4657 15.976 65.7697 15.656C66.0817 15.336 66.2457 14.856 66.2617 14.216C66.2697 14.136 66.2697 14.016 66.2617 13.856C66.2617 13.688 66.2617 13.52 66.2617 13.352C66.2617 13.184 66.2617 13.06 66.2617 12.98C66.2457 12.316 66.1017 11.832 65.8297 11.528C65.5657 11.224 65.2177 11.072 64.7857 11.072C64.6497 11.072 64.4937 11.096 64.3177 11.144C64.1417 11.192 63.9937 11.256 63.8737 11.336C63.8017 11.376 63.7257 11.38 63.6457 11.348C63.5657 11.308 63.5257 11.244 63.5257 11.156V10.784C63.5257 10.704 63.5337 10.636 63.5497 10.58C63.5657 10.516 63.6097 10.46 63.6817 10.412C63.8417 10.316 64.0137 10.24 64.1977 10.184C64.3817 10.12 64.6257 10.088 64.9297 10.088C65.4497 10.088 65.8857 10.188 66.2377 10.388C66.5897 10.58 66.8577 10.88 67.0417 11.288C67.2257 11.696 67.3257 12.22 67.3417 12.86C67.3497 12.94 67.3537 13.076 67.3537 13.268C67.3537 13.46 67.3537 13.656 67.3537 13.856C67.3537 14.056 67.3497 14.196 67.3417 14.276C67.3257 14.884 67.2137 15.404 67.0057 15.836C66.8057 16.26 66.4857 16.58 66.0457 16.796C65.6137 17.012 65.0377 17.12 64.3177 17.12Z" fill="#1E2775"/>
<g clip-path="url(#clip0_1532_38967)">
<path d="M80.3335 16.3367V17.1667C80.3335 17.8297 80.5969 18.4656 81.0657 18.9344C81.5346 19.4033 82.1705 19.6667 82.8335 19.6667H91.1668C91.8299 19.6667 92.4658 19.4033 92.9346 18.9344C93.4034 18.4656 93.6668 17.8297 93.6668 17.1667V16.3333M87.0002 15.9167V6.75M87.0002 6.75L89.9168 9.66667M87.0002 6.75L84.0835 9.66667" stroke="#1E2775" stroke-width="1.335" stroke-linecap="round" stroke-linejoin="round"/>
</g>
<defs>
<clipPath id="clip0_1532_38967">
<rect width="15" height="15" fill="white" transform="translate(79.5 5.5)"/>
</clipPath>
</defs>
</svg>
