<svg width="21" height="19" viewBox="0 0 21 19" fill="none" xmlns="http://www.w3.org/2000/svg">
<path d="M14.4717 4.67334C14.4717 6.59287 11.9018 10.0136 10.7732 11.4233C10.5025 11.7608 9.99981 11.7608 9.73262 11.4233C8.6041 10.0136 6.03418 6.59287 6.03418 4.67334C6.03418 2.34248 7.92207 0.45459 10.2529 0.45459C12.5838 0.45459 14.4717 2.34248 14.4717 4.67334ZM14.7529 7.4999C14.876 7.25732 14.9885 7.01475 15.0904 6.77568C15.108 6.7335 15.1256 6.68779 15.1432 6.64561L19.2213 5.01436C19.7768 4.79287 20.3779 5.20068 20.3779 5.79834V15.3187C20.3779 15.6632 20.167 15.9726 19.8471 16.1026L14.7529 18.1382V7.4999ZM4.96543 5.3167C5.0498 5.8124 5.21855 6.31162 5.41543 6.77568C5.51738 7.01475 5.62988 7.25732 5.75293 7.4999V16.3382L1.28457 18.1276C0.729102 18.3491 0.12793 17.9413 0.12793 17.3437V7.82334C0.12793 7.47881 0.338867 7.16943 0.658789 7.03936L4.96895 5.3167H4.96543ZM11.6521 12.1265C12.1408 11.5147 12.9072 10.5198 13.6279 9.41943V18.1839L6.87793 16.2538V9.41943C7.59863 10.5198 8.36504 11.5147 8.85371 12.1265C9.57441 13.0265 10.9314 13.0265 11.6521 12.1265ZM10.2529 5.79834C10.6259 5.79834 10.9836 5.65018 11.2473 5.38646C11.511 5.12274 11.6592 4.76505 11.6592 4.39209C11.6592 4.01913 11.511 3.66144 11.2473 3.39772C10.9836 3.134 10.6259 2.98584 10.2529 2.98584C9.87997 2.98584 9.52228 3.134 9.25856 3.39772C8.99484 3.66144 8.84668 4.01913 8.84668 4.39209C8.84668 4.76505 8.99484 5.12274 9.25856 5.38646C9.52228 5.65018 9.87997 5.79834 10.2529 5.79834Z" fill="white"/>
</svg>
