<svg width="62" height="32" viewBox="0 0 62 32" fill="none" xmlns="http://www.w3.org/2000/svg">
<path d="M53.8096 1.16L45.8496 18.36L39.5496 31.83C37.5296 26.7633 35.353 21.91 33.0197 17.27C32.853 16.93 32.8229 16.44 32.9296 15.8L40.0696 0.500001C40.2229 0.166668 40.483 1.34117e-06 40.8496 1.34117e-06H53.3697C53.4555 -0.000175692 53.5404 0.0171754 53.619 0.0509562C53.6977 0.0847369 53.7684 0.134212 53.8267 0.19625C53.885 0.258288 53.9296 0.331538 53.9577 0.411365C53.9857 0.491192 53.9966 0.575856 53.9897 0.660001C53.983 0.826668 53.9229 0.993334 53.8096 1.16Z" fill="white"/>
<path d="M11.2896 0.330078L19.3095 18.0201L14.1696 31.4401C14.0229 31.8134 13.7495 32.0001 13.3495 32.0001H0.619543C0.538023 31.9999 0.457762 31.9803 0.385412 31.9427C0.313062 31.9051 0.250782 31.8508 0.203771 31.7842C0.15676 31.7176 0.126315 31.6407 0.115148 31.5599C0.103982 31.4792 0.112389 31.3969 0.139562 31.3201L11.2896 0.330078Z" fill="white"/>
<path d="M32.9294 15.7998C32.8228 16.4398 32.8529 16.9298 33.0195 17.2698C35.3529 21.9098 37.5294 26.7632 39.5494 31.8298L26.1095 31.9698C25.7762 31.9698 25.5395 31.8198 25.3995 31.5198L19.3094 18.0198L11.2896 0.329822L24.4795 0.0998221C24.8195 0.0931555 25.0628 0.243154 25.2095 0.549821C27.6695 5.55649 30.0328 10.5665 32.2994 15.5798C32.3594 15.7198 32.5694 15.7932 32.9294 15.7998Z" fill="#787C9E"/>
<path d="M53.8096 1.16016C54.2896 1.32682 54.5929 1.60682 54.7196 2.00016C56.7263 8.30682 59.0896 14.7902 61.8096 21.4502L61.8896 31.9002L51.7396 31.9502C51.393 31.9502 51.153 31.7868 51.0197 31.4602L45.8496 18.3602L53.8096 1.16016Z" fill="#787C9E"/>
</svg>
