<svg xmlns="http://www.w3.org/2000/svg" width="120.225" height="27.863" viewBox="0 0 120.225 27.863">
  <g id="Melta_Logo" transform="translate(-1753.5 -28.994)">
    <g id="Group_79" data-name="Group 79" transform="translate(1754 29.494)">
      <path id="Path_1912" data-name="Path 1912" d="M14325.043-18821.2l9.635-26.758,6.508,13.469-2.381,6.262-2.672,7.027Z" transform="translate(-14325.043 18848.064)" fill="#fff"/>
      <path id="Path_1912_-_Outline" data-name="Path 1912 - Outline" d="M14336.133-18820.7h-11.09a.5.5,0,0,1-.409-.213.5.5,0,0,1-.062-.457l9.635-26.758a.5.5,0,0,1,.444-.33h.026a.5.5,0,0,1,.45.283l6.508,13.469a.5.5,0,0,1,.018.395l-5.053,13.289A.5.5,0,0,1,14336.133-18820.7Zm-10.378-1h10.033l4.854-12.766-5.9-12.2Z" transform="translate(-14325.043 18848.064)" fill="#fff"/>
      <path id="Path_1914" data-name="Path 1914" d="M14341.186-18821.2l-9.635-26.758-6.508,13.469,2.379,6.262,2.674,7.027Z" transform="translate(-14285.938 18848.064)" fill="#357ef9"/>
      <path id="Path_1914_-_Outline" data-name="Path 1914 - Outline" d="M14341.186-18820.7h-11.09a.5.5,0,0,1-.468-.322l-2.674-7.027-2.379-6.262a.5.5,0,0,1,.018-.395l6.508-13.469a.5.5,0,0,1,.477-.283.5.5,0,0,1,.444.33l9.635,26.758a.5.5,0,0,1-.062.457A.5.5,0,0,1,14341.186-18820.7Zm-10.745-1h10.033l-8.99-24.969-5.9,12.2,2.3,6.061Z" transform="translate(-14285.938 18848.064)" fill="#357ef9"/>
      <path id="Path_1913" data-name="Path 1913" d="M14325.043-18821.164l12.5-26.863h11.037l-12.447,26.863Z" transform="translate(-14302.956 18848.027)" fill="#fff"/>
      <path id="Path_1913_-_Outline" data-name="Path 1913 - Outline" d="M14336.133-18820.664h-11.09a.5.5,0,0,1-.422-.23.5.5,0,0,1-.031-.48l12.5-26.863a.5.5,0,0,1,.453-.289h11.037a.5.5,0,0,1,.421.23.5.5,0,0,1,.033.48l-12.447,26.863A.5.5,0,0,1,14336.133-18820.664Zm-10.306-1h9.986l11.983-25.863h-9.936Z" transform="translate(-14302.956 18848.027)" fill="#fff"/>
      <path id="Path_1915" data-name="Path 1915" d="M14348.58-18821.164l-12.5-26.863h-11.035l12.447,26.863Z" transform="translate(-14315.41 18848.027)" fill="#357ef9"/>
      <path id="Path_1915_-_Outline" data-name="Path 1915 - Outline" d="M14348.58-18820.664h-11.09a.5.5,0,0,1-.454-.289l-12.447-26.863a.5.5,0,0,1,.033-.48.5.5,0,0,1,.421-.23h11.035a.5.5,0,0,1,.453.289l12.5,26.863a.5.5,0,0,1-.031.48A.5.5,0,0,1,14348.58-18820.664Zm-10.771-1h9.986l-12.036-25.863h-9.934Z" transform="translate(-14315.41 18848.027)" fill="#357ef9"/>
    </g>
    <g id="logo" transform="translate(1805.376 33.345)">
      <g id="Group_28" data-name="Group 28" transform="translate(0)">
        <path id="Path_4317" data-name="Path 4317" d="M6.1-3.25V-7.3h8.125v-3.15H6.1v-3.8h9.2V-17.5H2.075V0h13.55V-3.25ZM20.35,0H33.175V-3.3H24.4V-17.5H20.35Zm18.6,0H43V-14.2h5.6v-3.3H33.35v3.3h5.6ZM64.475,0h4.25L60.9-17.5h-4L49.1,0h4.15L54.8-3.75h8.125ZM56.1-6.825l2.775-6.7,2.775,6.7Z" transform="translate(-0.376 23.504)" fill="#fff"/>
      </g>
    </g>
  </g>
</svg>
