<svg width="152" height="45" viewBox="0 0 152 45" fill="none" xmlns="http://www.w3.org/2000/svg">
<g filter="url(#filter0_d_1460_101097)">
<path d="M68.0801 35.9195L68 25.4695L68.26 16.5595C68.2733 16.1995 68.4567 16.0195 68.8101 16.0195L82.9501 16.0295C83.3767 16.0295 83.5867 16.2429 83.5801 16.6695L83.54 19.0195C83.5334 19.5062 83.2867 19.7495 82.8 19.7495L73.3401 19.7695C73.0334 19.7695 72.88 19.9229 72.88 20.2295L72.8401 23.5295C72.8388 23.5921 72.8499 23.6543 72.8729 23.7125C72.8959 23.7706 72.9303 23.8236 72.9741 23.8684C73.0179 23.9131 73.0701 23.9486 73.1278 23.9728C73.1855 23.9971 73.2475 24.0095 73.3101 24.0095L81.2201 24.0295C81.3706 24.0294 81.5195 24.0597 81.6581 24.1184C81.7966 24.1772 81.9219 24.2633 82.0265 24.3716C82.131 24.4799 82.2127 24.6081 82.2666 24.7486C82.3205 24.8892 82.3455 25.0391 82.3401 25.1895L82.28 26.9095C82.2748 27.0705 82.2073 27.2231 82.0916 27.3351C81.9758 27.447 81.8211 27.5096 81.66 27.5095L73.6001 27.5195C73.1401 27.5195 72.9067 27.7529 72.9 28.2195L72.87 31.6795C72.87 32.0795 73.0667 32.2795 73.4601 32.2795H83.3C83.6667 32.2795 83.8567 32.4629 83.87 32.8295L83.9701 35.3195C83.9834 35.7395 83.7801 35.9495 83.3601 35.9495L68.0801 35.9195Z" fill="white"/>
<path d="M94.51 32.29L103.72 32.33C103.84 32.33 103.956 32.3771 104.042 32.4612C104.128 32.5453 104.177 32.6597 104.18 32.78L104.26 35.54C104.261 35.6012 104.25 35.6621 104.228 35.7191C104.205 35.7761 104.172 35.828 104.129 35.8718C104.086 35.9155 104.035 35.9503 103.978 35.9741C103.922 35.9978 103.861 36.01 103.8 36.01L89.8201 36.02C89.6981 36.02 89.581 35.9715 89.4948 35.8853C89.4085 35.799 89.3601 35.682 89.3601 35.56L89.3301 16.46C89.3301 16.3996 89.342 16.3398 89.3651 16.284C89.3882 16.2282 89.422 16.1774 89.4647 16.1347C89.5074 16.092 89.5582 16.0581 89.614 16.035C89.6698 16.0119 89.7296 16 89.79 16L93.5901 16.03C93.7121 16.03 93.829 16.0785 93.9153 16.1647C94.0015 16.251 94.05 16.368 94.05 16.49V31.83C94.05 31.952 94.0985 32.069 94.1848 32.1553C94.2711 32.2415 94.388 32.29 94.51 32.29Z" fill="white"/>
<path d="M115.55 20.507V36.007C115.55 36.1077 115.51 36.2044 115.439 36.2757C115.368 36.3469 115.271 36.387 115.17 36.387H111.23C111.13 36.387 111.033 36.3469 110.962 36.2757C110.89 36.2044 110.85 36.1077 110.85 36.007L110.86 20.517C110.86 20.4162 110.82 20.3195 110.749 20.2482C110.678 20.177 110.581 20.137 110.48 20.137L104.83 20.117C104.736 20.1148 104.646 20.0778 104.578 20.0131C104.51 19.9485 104.468 19.8607 104.46 19.767L104.25 16.817C104.246 16.7646 104.253 16.7119 104.27 16.6623C104.287 16.6127 104.315 16.5672 104.35 16.5286C104.386 16.4901 104.429 16.4594 104.477 16.4385C104.526 16.4175 104.578 16.4068 104.63 16.407L121.67 16.377C121.771 16.377 121.868 16.417 121.939 16.4883C122.01 16.5595 122.05 16.6562 122.05 16.757L122.04 19.757C122.04 19.8577 122 19.9544 121.929 20.0257C121.858 20.0969 121.761 20.137 121.66 20.137L115.93 20.127C115.829 20.127 115.733 20.167 115.662 20.2383C115.59 20.3095 115.55 20.4062 115.55 20.507Z" fill="white"/>
<path d="M128.89 32.7364L127.61 35.9764C127.497 36.2497 127.293 36.3864 127 36.3864L123.08 36.3764C122.76 36.3764 122.667 36.2297 122.8 35.9364L130.91 17.9764C131.172 17.3942 131.597 16.8999 132.133 16.5528C132.669 16.2058 133.293 16.0206 133.932 16.0195C134.57 16.0185 135.196 16.2016 135.733 16.5469C136.27 16.8922 136.696 17.3851 136.96 17.9664L145.09 35.9064C145.23 36.2197 145.13 36.3764 144.79 36.3764L141.01 36.3864C140.822 36.3893 140.637 36.3344 140.48 36.229C140.323 36.1237 140.201 35.9729 140.13 35.7964L138.83 32.6464C138.69 32.3064 138.433 32.1364 138.06 32.1364H129.79C129.596 32.1366 129.408 32.1937 129.247 32.3005C129.087 32.4073 128.963 32.559 128.89 32.7364ZM130.87 28.2164C130.85 28.2639 130.842 28.3155 130.847 28.3667C130.852 28.418 130.87 28.4671 130.899 28.5098C130.928 28.5524 130.967 28.5873 131.012 28.6111C131.058 28.635 131.109 28.6471 131.16 28.6464H136.64C136.691 28.6471 136.742 28.635 136.788 28.6111C136.834 28.5873 136.872 28.5524 136.901 28.5098C136.93 28.4671 136.948 28.418 136.953 28.3667C136.958 28.3155 136.95 28.2639 136.93 28.2164L134.19 21.5464C134.168 21.4875 134.128 21.4368 134.076 21.4009C134.024 21.3651 133.963 21.346 133.9 21.346C133.837 21.346 133.776 21.3651 133.724 21.4009C133.672 21.4368 133.632 21.4875 133.61 21.5464L130.87 28.2164Z" fill="white"/>
<path d="M59.6992 5.16L51.7393 22.36L45.4392 35.83C43.4192 30.7633 41.2427 25.91 38.9093 21.27C38.7427 20.93 38.7126 20.44 38.8192 19.8L45.9593 4.5C46.1126 4.16667 46.3726 4 46.7393 4H59.2593C59.3451 3.99982 59.43 4.01718 59.5087 4.05096C59.5874 4.08474 59.6581 4.13421 59.7163 4.19625C59.7746 4.25829 59.8193 4.33154 59.8473 4.41136C59.8754 4.49119 59.8862 4.57586 59.8793 4.66C59.8726 4.82667 59.8126 4.99333 59.6992 5.16Z" fill="white"/>
<path d="M17.1792 4.33008L25.1991 22.0201L20.0592 35.4401C19.9126 35.8134 19.6392 36.0001 19.2392 36.0001H6.50919C6.42767 35.9999 6.34741 35.9803 6.27506 35.9427C6.20271 35.9051 6.14043 35.8508 6.09342 35.7842C6.04641 35.7176 6.01596 35.6407 6.0048 35.5599C5.99363 35.4792 6.00204 35.3969 6.02921 35.3201L17.1792 4.33008Z" fill="white"/>
<path d="M38.8191 19.7998C38.7124 20.4398 38.7425 20.9298 38.9092 21.2698C41.2425 25.9098 43.4191 30.7632 45.4391 35.8298L31.9991 35.9698C31.6658 35.9698 31.4292 35.8198 31.2892 35.5198L25.1991 22.0198L17.1792 4.32982L30.3691 4.09982C30.7091 4.09316 30.9525 4.24315 31.0991 4.54982C33.5591 9.55649 35.9224 14.5665 38.1891 19.5798C38.2491 19.7198 38.4591 19.7932 38.8191 19.7998Z" fill="#1E2775"/>
<path d="M59.6992 5.16016C60.1792 5.32682 60.4826 5.60682 60.6093 6.00016C62.6159 12.3068 64.9792 18.7902 67.6992 25.4502L67.7793 35.9002L57.6293 35.9502C57.2826 35.9502 57.0426 35.7868 56.9093 35.4602L51.7393 22.3602L59.6992 5.16016Z" fill="#1E2775"/>
</g>
<defs>
<filter id="filter0_d_1460_101097" x="0" y="0" width="151.151" height="44.3867" filterUnits="userSpaceOnUse" color-interpolation-filters="sRGB">
<feFlood flood-opacity="0" result="BackgroundImageFix"/>
<feColorMatrix in="SourceAlpha" type="matrix" values="0 0 0 0 0 0 0 0 0 0 0 0 0 0 0 0 0 0 127 0" result="hardAlpha"/>
<feOffset dy="2"/>
<feGaussianBlur stdDeviation="3"/>
<feComposite in2="hardAlpha" operator="out"/>
<feColorMatrix type="matrix" values="0 0 0 0 0.117647 0 0 0 0 0.152941 0 0 0 0 0.458824 0 0 0 0.5 0"/>
<feBlend mode="normal" in2="BackgroundImageFix" result="effect1_dropShadow_1460_101097"/>
<feBlend mode="normal" in="SourceGraphic" in2="effect1_dropShadow_1460_101097" result="shape"/>
</filter>
</defs>
</svg>
