<svg width="186" height="147" viewBox="0 0 186 147" fill="none" xmlns="http://www.w3.org/2000/svg">
<path d="M168 125.5L180 134.5C180.669 139.682 173.723 143.428 168 146.5L168 125.5Z" fill="url(#paint0_linear_12182_43)"/>
<g filter="url(#filter0_d_12182_43)">
<path d="M180 134.5L179.104 103.142C179.039 100.851 177.892 98.7262 176.013 97.4139L59.8001 16.2571C58.6264 15.4375 57.2361 14.9842 55.8048 14.9547L9.50001 14L180 134.5Z" fill="url(#paint1_linear_12182_43)"/>
</g>
<path d="M63.826 44.9767C63.7049 44.8941 63.6308 44.7814 63.6038 44.6387C63.5769 44.4961 63.6047 44.3642 63.6874 44.243L70.1713 34.7379C70.2539 34.6167 70.3666 34.5427 70.5093 34.5157C70.6519 34.4888 70.7839 34.5166 70.905 34.5993L72.4135 35.6283C72.5346 35.7109 72.6087 35.8236 72.6357 35.9662C72.6626 36.1089 72.6348 36.2408 72.5521 36.362L66.0682 45.8671C65.9855 45.9882 65.8729 46.0623 65.7302 46.0893C65.5876 46.1162 65.4556 46.0884 65.3345 46.0057L63.826 44.9767ZM69.67 48.9632C69.5367 48.8723 69.4566 48.7555 69.4297 48.6128C69.4027 48.4702 69.4305 48.3383 69.5132 48.2171L70.2323 47.163C70.3149 47.0418 70.4276 46.9678 70.5702 46.9408C70.7129 46.9139 70.8509 46.9458 70.9842 47.0368L76.4546 50.7684L75.4008 52.3132C75.3181 52.4344 75.2096 52.5024 75.0752 52.5172C74.9491 52.5199 74.8254 52.48 74.7043 52.3973L69.67 48.9632ZM73.4684 51.5543C73.3473 51.4717 73.2793 51.3631 73.2644 51.2287C73.2496 51.0943 73.2714 50.9583 73.3298 50.8206L76.8574 45.0246C77.1969 44.4749 77.4481 43.9894 77.6113 43.5681C77.7948 43.1429 77.8436 42.759 77.7578 42.4164C77.6923 42.0699 77.4294 41.7396 76.969 41.4255L76.133 40.8553C76.0118 40.7726 75.9377 40.66 75.9108 40.5173C75.8838 40.3746 75.9117 40.2427 75.9943 40.1215L76.701 39.0856C76.7836 38.9645 76.8963 38.8904 77.039 38.8634C77.1816 38.8365 77.3135 38.8643 77.4347 38.947L78.3071 39.5421C79.0461 40.0462 79.5919 40.5605 79.9443 41.085C80.3171 41.6056 80.5208 42.1529 80.5553 42.7268C80.602 43.3091 80.5019 43.9243 80.255 44.5726C80.0285 45.217 79.6937 45.9029 79.2507 46.6305L75.7106 52.4447C75.6401 52.5741 75.5335 52.6523 75.3908 52.6792C75.2481 52.7062 75.1102 52.6742 74.9769 52.5833L73.4684 51.5543ZM85.5972 57.1915C86.3037 57.6912 87.0065 57.9753 87.7055 58.0438C88.4249 58.1084 89.0974 57.9813 89.7232 57.6625C90.3612 57.352 90.9033 56.8696 91.3496 56.2153L94.6225 51.4174C94.7134 51.2841 94.82 51.2059 94.9423 51.1828C95.085 51.1558 95.223 51.1878 95.3563 51.2787L96.6284 52.1465C96.7617 52.2375 96.8358 52.3501 96.8506 52.4845C96.8776 52.6272 96.8497 52.7591 96.7671 52.8803L93.4073 57.8055C92.8701 58.593 92.2492 59.2169 91.5446 59.6773C90.8521 60.1459 90.1167 60.4431 89.3384 60.5691C88.56 60.6951 87.7671 60.6602 86.9597 60.4645C86.1726 60.2649 85.4076 59.9028 84.6647 59.3783L83.1199 58.3245C82.2354 57.7211 81.5839 57.0104 81.1655 56.1924C80.7553 55.3622 80.5815 54.4979 80.6439 53.5995C80.7267 52.6973 81.0492 51.8343 81.6112 51.0104L85.5536 45.231C85.6363 45.1098 85.7489 45.0358 85.8916 45.0088C86.0343 44.9818 86.1662 45.0097 86.2873 45.0923L87.5777 45.9726C87.6989 46.0552 87.7729 46.1679 87.7999 46.3105C87.8351 46.4411 87.8073 46.573 87.7163 46.7063L84.3806 51.6745C83.678 52.7043 83.4093 53.6839 83.5743 54.6132C83.7597 55.5386 84.2644 56.2823 85.0883 56.8443L85.5972 57.1915ZM82.9939 52.9655L84.1163 51.2811C84.8515 51.7649 85.4975 52.0281 86.0544 52.0706C86.6195 52.101 87.1214 51.964 87.5599 51.6595C88.0067 51.3429 88.416 50.9119 88.788 50.3667L90.1393 48.3857C90.2302 48.2525 90.3409 48.1682 90.4715 48.133C90.6142 48.106 90.7521 48.138 90.8854 48.2289L92.1576 49.0967C92.2788 49.1794 92.3528 49.2921 92.3798 49.4347C92.4067 49.5774 92.3748 49.7154 92.2838 49.8486L90.8953 51.8841C90.2837 52.7807 89.5689 53.4383 88.7508 53.8567C87.941 54.263 87.0487 54.4 86.0737 54.2675C85.0988 54.1351 84.0722 53.7011 82.9939 52.9655ZM98.0968 68.3546C97.8303 68.1728 97.7879 67.9486 97.9698 67.682L102.086 61.6482C102.59 60.9091 103.063 60.3975 103.506 60.1134C103.956 59.8172 104.333 59.7724 104.636 59.979L106.98 61.5783C106.677 61.3716 106.264 61.4445 105.739 61.7969C105.235 62.1455 104.743 62.6711 104.264 63.3739L100.26 69.2441C100.177 69.3653 100.062 69.4292 99.916 69.4357C99.7694 69.4423 99.6356 69.4043 99.5144 69.3216L98.0968 68.3546ZM99.2818 56.7794C99.1607 56.6968 99.0866 56.5841 99.0596 56.4415C99.0327 56.2988 99.0605 56.1669 99.1432 56.0457L99.8622 54.9916C99.9449 54.8705 100.058 54.7964 100.2 54.7694C100.343 54.7425 100.475 54.7703 100.596 54.853L108.538 60.2707C108.671 60.3616 108.745 60.4743 108.76 60.6087C108.787 60.7514 108.759 60.8833 108.677 61.0044L107.958 62.0585C107.875 62.1797 107.762 62.2538 107.62 62.2807C107.489 62.3159 107.357 62.2881 107.224 62.1972L99.2818 56.7794ZM105.742 73.5695C105.62 73.4869 105.546 73.3742 105.519 73.2316C105.493 73.0889 105.52 72.957 105.603 72.8358L112.087 63.3307C112.17 63.2096 112.282 63.1355 112.425 63.1085C112.568 63.0816 112.699 63.1094 112.821 63.1921L116.71 65.8451C117.788 66.5807 118.571 67.3457 119.059 68.1401C119.559 68.9428 119.758 69.7971 119.654 70.7032C119.563 71.6175 119.162 72.5957 118.451 73.6377L114.745 79.0718C114.662 79.1929 114.549 79.267 114.407 79.294C114.264 79.3209 114.132 79.2931 114.011 79.2104L112.575 78.231C112.454 78.1484 112.376 78.0418 112.341 77.9112C112.314 77.7685 112.346 77.6306 112.437 77.4973L116.131 72.0814C116.693 71.2575 116.921 70.4809 116.815 69.7516C116.717 69.0102 116.214 68.3295 115.305 67.7096L113.378 66.3955L107.911 74.4103C107.828 74.5315 107.716 74.6055 107.573 74.6325C107.43 74.6594 107.299 74.6316 107.177 74.5489L105.742 73.5695ZM124.824 74.203C124.703 74.1204 124.629 74.0077 124.602 73.8651C124.575 73.7224 124.603 73.5905 124.685 73.4693L125.404 72.4152C125.487 72.294 125.6 72.22 125.742 72.193C125.885 72.1661 126.017 72.1939 126.138 72.2766L130.609 75.3264C131.675 76.0537 132.448 76.8206 132.928 77.6271C133.428 78.4298 133.632 79.2883 133.541 80.2026C133.458 81.1048 133.078 82.0527 132.4 83.0462L128.644 88.553C128.561 88.6742 128.448 88.7482 128.306 88.7752C128.163 88.8021 128.031 88.7743 127.91 88.6916L126.474 87.7122C126.341 87.6213 126.257 87.5106 126.221 87.38C126.207 87.2456 126.245 87.1118 126.335 86.9785L130.03 81.5626C130.592 80.7387 130.814 79.958 130.696 79.2204C130.598 78.479 130.094 77.7983 129.186 77.1784L124.824 74.203ZM127.518 74.4697L128.136 74.8912C128.403 75.073 128.547 75.2515 128.57 75.4267C128.604 75.6101 128.56 75.7663 128.437 75.8951C128.03 76.2569 127.658 76.6069 127.321 76.945C127.004 77.2793 126.695 77.6279 126.395 77.9908C126.106 78.362 125.8 78.7839 125.478 79.2564L122.246 84.1891C122.164 84.3102 122.051 84.3843 121.908 84.4112C121.778 84.4465 121.646 84.4186 121.513 84.3277L118.363 82.1524C118.242 82.0697 118.167 81.957 118.14 81.8144C118.114 81.6717 118.141 81.5398 118.224 81.4186L118.893 80.4372C118.976 80.3161 119.089 80.242 119.231 80.215C119.374 80.1881 119.506 80.2159 119.627 80.2986L121.051 81.2962L123.369 77.8976C123.675 77.4493 123.966 77.0354 124.243 76.656C124.531 76.2848 124.842 75.9199 125.176 75.5614C125.521 75.2112 125.922 74.8453 126.377 74.4636C126.525 74.3513 126.686 74.2839 126.861 74.2613C127.045 74.2267 127.264 74.2961 127.518 74.4697ZM139.425 96.5463C139.291 96.4554 139.207 96.3447 139.172 96.2141C139.157 96.0797 139.195 95.9459 139.286 95.8126L142.98 90.3967C143.542 89.5728 143.764 88.7921 143.646 88.0545C143.548 87.3131 143.045 86.6324 142.136 86.0126L138.392 83.4587C138.271 83.376 138.197 83.2634 138.17 83.1207C138.143 82.978 138.171 82.8461 138.254 82.7249L138.973 81.6708C139.055 81.5497 139.168 81.4756 139.311 81.4487C139.453 81.4217 139.585 81.4496 139.706 81.5322L143.541 84.1481C145.153 85.2473 146.102 86.4453 146.389 87.742C146.685 89.0266 146.316 90.4261 145.283 91.9406L141.576 97.3747C141.493 97.4959 141.381 97.5699 141.238 97.5969C141.107 97.6321 140.975 97.6043 140.842 97.5134L139.425 96.5463ZM132.627 91.9097C132.506 91.827 132.432 91.7144 132.405 91.5717C132.378 91.429 132.406 91.2971 132.489 91.1759L136.394 85.4511C136.477 85.3299 136.589 85.2559 136.732 85.2289C136.875 85.2019 137.007 85.2298 137.128 85.3124L138.563 86.2918C138.685 86.3745 138.759 86.4872 138.786 86.6298C138.813 86.7725 138.785 86.9044 138.702 87.0256L134.797 92.7504C134.714 92.8716 134.602 92.9457 134.459 92.9726C134.316 92.9996 134.184 92.9717 134.063 92.8891L132.627 91.9097Z" fill="white"/>
<path d="M26.5 26L9.5 14C3.40071 16.5315 1.88585 19.9081 0.5 26L26.5 26Z" fill="url(#paint2_linear_12182_43)"/>
<defs>
<filter id="filter0_d_12182_43" x="3.4919" y="11.8525" width="182.516" height="132.516" filterUnits="userSpaceOnUse" color-interpolation-filters="sRGB">
<feFlood flood-opacity="0" result="BackgroundImageFix"/>
<feColorMatrix in="SourceAlpha" type="matrix" values="0 0 0 0 0 0 0 0 0 0 0 0 0 0 0 0 0 0 127 0" result="hardAlpha"/>
<feOffset dy="3.86063"/>
<feGaussianBlur stdDeviation="3.00405"/>
<feComposite in2="hardAlpha" operator="out"/>
<feColorMatrix type="matrix" values="0 0 0 0 0.00392157 0 0 0 0 0.458824 0 0 0 0 0.568627 0 0 0 0.2 0"/>
<feBlend mode="normal" in2="BackgroundImageFix" result="effect1_dropShadow_12182_43"/>
<feBlend mode="normal" in="SourceGraphic" in2="effect1_dropShadow_12182_43" result="shape"/>
</filter>
<linearGradient id="paint0_linear_12182_43" x1="171.631" y1="133.316" x2="173.57" y2="143.751" gradientUnits="userSpaceOnUse">
<stop stop-color="#D81D6B"/>
<stop offset="0.995192" stop-color="#FF006B"/>
</linearGradient>
<linearGradient id="paint1_linear_12182_43" x1="170.382" y1="126.408" x2="31.1044" y2="22.9443" gradientUnits="userSpaceOnUse">
<stop stop-color="#D81D6B"/>
<stop offset="0.085" stop-color="#FF006B"/>
<stop offset="1" stop-color="#D81D6B"/>
</linearGradient>
<linearGradient id="paint2_linear_12182_43" x1="15.3334" y1="23.5479" x2="4.59437" y2="25.6101" gradientUnits="userSpaceOnUse">
<stop stop-color="#BF0654"/>
<stop offset="1" stop-color="#FF006B"/>
</linearGradient>
</defs>
</svg>
