<svg width="17" height="13" viewBox="0 0 17 13" fill="none" xmlns="http://www.w3.org/2000/svg">
<path d="M6.49987 10.5H10.4999C10.7547 10.5003 10.9999 10.5979 11.1852 10.7728C11.3706 10.9478 11.4821 11.187 11.497 11.4414C11.512 11.6958 11.4292 11.9464 11.2656 12.1418C11.102 12.3373 10.87 12.4629 10.6169 12.493L10.4999 12.5H6.49987C6.24499 12.4997 5.99984 12.4021 5.8145 12.2272C5.62916 12.0522 5.51763 11.813 5.5027 11.5586C5.48776 11.3042 5.57054 11.0536 5.73413 10.8582C5.89772 10.6627 6.12977 10.5371 6.38287 10.507L6.49987 10.5ZM4.49987 5.5H12.4999C12.7547 5.50028 12.9999 5.59788 13.1852 5.77285C13.3706 5.94782 13.4821 6.18695 13.497 6.44139C13.512 6.69584 13.4292 6.94638 13.2656 7.14183C13.102 7.33729 12.87 7.4629 12.6169 7.493L12.4999 7.5H4.49987C4.24499 7.49972 3.99984 7.40212 3.8145 7.22715C3.62916 7.05218 3.51763 6.81305 3.5027 6.55861C3.48776 6.30416 3.57054 6.05362 3.73413 5.85817C3.89772 5.66271 4.12977 5.5371 4.38287 5.507L4.49987 5.5ZM1.49987 0.5H15.4999C15.7547 0.500283 15.9999 0.597879 16.1852 0.772848C16.3706 0.947817 16.4821 1.18695 16.497 1.44139C16.512 1.69584 16.4292 1.94638 16.2656 2.14183C16.102 2.33729 15.87 2.4629 15.6169 2.493L15.4999 2.5H1.49987C1.24499 2.49972 0.999836 2.40212 0.8145 2.22715C0.629164 2.05218 0.517634 1.81305 0.502697 1.55861C0.487759 1.30416 0.570543 1.05362 0.734133 0.858168C0.897724 0.662715 1.12977 0.537104 1.38287 0.507L1.49987 0.5Z" fill="#1E2775"/>
</svg>
