<svg width="12" height="10" viewBox="0 0 12 10" fill="none" xmlns="http://www.w3.org/2000/svg">
<path d="M11.5 1.25C11.5 0.973857 11.2761 0.75 11 0.75C10.7239 0.75 10.5 0.973857 10.5 1.25H11.5ZM0.646446 5.39645C0.451184 5.59171 0.451184 5.90829 0.646446 6.10355L3.82843 9.28553C4.02369 9.4808 4.34027 9.4808 4.53553 9.28553C4.7308 9.09027 4.7308 8.77369 4.53553 8.57843L1.70711 5.75L4.53553 2.92157C4.7308 2.72631 4.7308 2.40973 4.53553 2.21447C4.34027 2.0192 4.02369 2.0192 3.82843 2.21447L0.646446 5.39645ZM11 1.25H10.5V2.75H11H11.5V1.25H11ZM8 5.75V5.25L1 5.25V5.75V6.25L8 6.25V5.75ZM11 2.75H10.5C10.5 4.13071 9.38071 5.25 8 5.25V5.75V6.25C9.933 6.25 11.5 4.683 11.5 2.75H11Z" fill="#9398C2"/>
</svg>
