<svg width="678" height="590" viewBox="0 0 678 590" fill="none" xmlns="http://www.w3.org/2000/svg">
<path d="M196.587 589.295C196.254 589.295 195.97 589.195 195.737 588.995C195.537 588.761 195.437 588.478 195.437 588.145V561.895C195.437 561.561 195.537 561.295 195.737 561.095C195.97 560.861 196.254 560.745 196.587 560.745H206.137C209.004 560.745 211.37 561.211 213.237 562.145C215.104 563.045 216.487 564.395 217.387 566.195C218.32 567.995 218.787 570.245 218.787 572.945V588.145C218.787 588.478 218.687 588.761 218.487 588.995C218.287 589.195 218.004 589.295 217.637 589.295H196.587ZM199.737 585.295H214.337V573.195C214.337 570.528 213.67 568.461 212.337 566.995C211.004 565.495 208.854 564.745 205.887 564.745H199.737V585.295ZM226.999 577.695C226.665 577.695 226.382 577.595 226.149 577.395C225.949 577.161 225.849 576.878 225.849 576.545V561.895C225.849 561.561 225.949 561.295 226.149 561.095C226.382 560.861 226.665 560.745 226.999 560.745H229.349C229.715 560.745 229.999 560.861 230.199 561.095C230.399 561.295 230.499 561.561 230.499 561.895V576.545C230.499 576.878 230.399 577.161 230.199 577.395C229.999 577.595 229.715 577.695 229.349 577.695H226.999ZM252.118 585.545C254.284 585.578 256.101 585.178 257.568 584.345C259.068 583.511 260.201 582.328 260.968 580.795C261.768 579.228 262.168 577.445 262.168 575.445V561.895C262.168 561.561 262.268 561.295 262.468 561.095C262.701 560.861 262.984 560.745 263.318 560.745H265.368C265.734 560.745 266.018 560.861 266.218 561.095C266.418 561.295 266.518 561.561 266.518 561.895V575.795C266.518 577.928 266.184 579.861 265.518 581.595C264.851 583.295 263.901 584.761 262.668 585.995C261.434 587.195 259.968 588.111 258.268 588.745C256.601 589.378 254.751 589.661 252.718 589.595H248.968C246.801 589.595 244.851 589.095 243.118 588.095C241.384 587.095 240.018 585.695 239.018 583.895C238.018 582.095 237.518 580.011 237.518 577.645V561.895C237.518 561.561 237.618 561.295 237.818 561.095C238.051 560.861 238.334 560.745 238.668 560.745H240.768C241.101 560.745 241.368 560.861 241.568 561.095C241.801 561.295 241.918 561.561 241.918 561.895L242.068 576.645C242.068 579.511 242.868 581.711 244.468 583.245C246.068 584.778 248.101 585.545 250.568 585.545H252.118ZM241.018 579.695L240.918 576.045C243.384 576.011 245.268 575.645 246.568 574.945C247.868 574.211 248.768 573.245 249.268 572.045C249.801 570.845 250.068 569.528 250.068 568.095V561.895C250.068 561.561 250.168 561.295 250.368 561.095C250.568 560.861 250.851 560.745 251.218 560.745H253.268C253.601 560.745 253.868 560.861 254.068 561.095C254.301 561.295 254.418 561.561 254.418 561.895V568.295C254.418 570.461 253.934 572.411 252.968 574.145C252.001 575.878 250.518 577.245 248.518 578.245C246.551 579.245 244.051 579.728 241.018 579.695ZM289.663 589.295C289.33 589.295 289.047 589.195 288.813 588.995C288.613 588.761 288.513 588.478 288.513 588.145V573.195C288.513 570.528 287.847 568.461 286.513 566.995C285.18 565.495 283.03 564.745 280.063 564.745H273.513C273.18 564.745 272.897 564.645 272.663 564.445C272.463 564.211 272.363 563.928 272.363 563.595V561.895C272.363 561.561 272.463 561.295 272.663 561.095C272.897 560.861 273.18 560.745 273.513 560.745H280.313C283.18 560.745 285.547 561.195 287.413 562.095C289.313 562.995 290.73 564.361 291.663 566.195C292.597 567.995 293.063 570.245 293.063 572.945V588.145C293.063 588.478 292.947 588.761 292.713 588.995C292.513 589.195 292.247 589.295 291.913 589.295H289.663ZM302.466 564.745C302.133 564.745 301.85 564.645 301.616 564.445C301.416 564.211 301.316 563.928 301.316 563.595V561.895C301.316 561.561 301.416 561.295 301.616 561.095C301.85 560.861 302.133 560.745 302.466 560.745H313.316C316.183 560.745 318.55 561.211 320.416 562.145C322.316 563.045 323.733 564.411 324.666 566.245C325.6 568.045 326.066 570.278 326.066 572.945V588.145C326.066 588.478 325.95 588.761 325.716 588.995C325.516 589.195 325.25 589.295 324.916 589.295H322.666C322.3 589.295 322.016 589.195 321.816 588.995C321.616 588.761 321.516 588.478 321.516 588.145V573.195C321.516 570.528 320.833 568.461 319.466 566.995C318.133 565.495 315.983 564.745 313.016 564.745H302.466ZM306.966 562.295H308.216C308.716 562.295 309.083 562.428 309.316 562.695C309.583 562.928 309.7 563.228 309.666 563.595C309.4 564.995 309.166 566.261 308.966 567.395C308.8 568.528 308.683 569.661 308.616 570.795C308.55 571.895 308.516 573.145 308.516 574.545L308.616 588.145C308.616 588.478 308.516 588.761 308.316 588.995C308.116 589.195 307.85 589.295 307.516 589.295L300.416 589.195C300.083 589.195 299.8 589.095 299.566 588.895C299.366 588.695 299.266 588.411 299.266 588.045V586.445C299.266 586.111 299.366 585.845 299.566 585.645C299.8 585.411 300.083 585.295 300.416 585.295L304.266 585.345V574.745C304.266 573.378 304.283 572.128 304.316 570.995C304.35 569.828 304.45 568.661 304.616 567.495C304.783 566.328 305.05 565.011 305.416 563.545C305.516 563.178 305.666 562.878 305.866 562.645C306.1 562.411 306.466 562.295 306.966 562.295ZM365.18 589.295C364.813 589.295 364.53 589.195 364.33 588.995C364.13 588.795 363.947 588.628 363.78 588.495L345.43 562.695C345.197 562.328 345.08 562.011 345.08 561.745C345.08 561.478 345.18 561.245 345.38 561.045C345.613 560.845 345.863 560.745 346.13 560.745H348.43C348.83 560.745 349.13 560.845 349.33 561.045C349.563 561.245 349.747 561.428 349.88 561.595L368.28 587.345C368.413 587.578 368.497 587.761 368.53 587.895C368.597 588.028 368.63 588.161 368.63 588.295C368.63 588.561 368.53 588.795 368.33 588.995C368.13 589.195 367.88 589.295 367.58 589.295H365.18ZM345.68 589.295C345.347 589.295 345.063 589.195 344.83 588.995C344.63 588.761 344.53 588.478 344.53 588.145V580.645C344.53 579.111 344.68 577.661 344.98 576.295C345.28 574.895 345.863 573.578 346.73 572.345C347.63 571.078 348.963 569.895 350.73 568.795L353.03 572.145C351.83 572.911 350.93 573.795 350.33 574.795C349.73 575.761 349.33 576.778 349.13 577.845C348.93 578.878 348.83 579.878 348.83 580.845V588.145C348.83 588.478 348.713 588.761 348.48 588.995C348.28 589.195 348.013 589.295 347.68 589.295H345.68ZM361.18 580.145L359.13 576.695C360.763 575.928 361.913 575.128 362.58 574.295C363.28 573.461 363.697 572.595 363.83 571.695C363.963 570.761 364.03 569.795 364.03 568.795V561.895C364.03 561.561 364.13 561.295 364.33 561.095C364.563 560.861 364.847 560.745 365.18 560.745H367.28C367.613 560.745 367.88 560.861 368.08 561.095C368.313 561.295 368.43 561.561 368.43 561.895V569.045C368.43 570.445 368.263 571.795 367.93 573.095C367.597 574.395 366.913 575.628 365.88 576.795C364.88 577.961 363.313 579.078 361.18 580.145ZM375.225 589.295C374.891 589.295 374.608 589.195 374.375 588.995C374.175 588.761 374.075 588.478 374.075 588.145V586.395C374.075 586.061 374.175 585.795 374.375 585.595C374.608 585.361 374.891 585.245 375.225 585.245H388.775L373.125 562.695C373.025 562.495 372.941 562.328 372.875 562.195C372.808 562.028 372.775 561.878 372.775 561.745C372.775 561.478 372.875 561.245 373.075 561.045C373.308 560.845 373.558 560.745 373.825 560.745H376.225C376.558 560.745 376.825 560.845 377.025 561.045C377.258 561.211 377.441 561.395 377.575 561.595L393.875 584.945C394.041 585.178 394.175 585.428 394.275 585.695C394.408 585.928 394.475 586.195 394.475 586.495V588.145C394.475 588.478 394.358 588.761 394.125 588.995C393.925 589.195 393.658 589.295 393.325 589.295H375.225ZM387.875 577.895L385.675 574.645C387.408 574.011 388.658 572.978 389.425 571.545C390.225 570.078 390.625 568.295 390.625 566.195V561.895C390.625 561.561 390.725 561.295 390.925 561.095C391.158 560.861 391.441 560.745 391.775 560.745H393.825C394.191 560.745 394.475 560.861 394.675 561.095C394.875 561.295 394.975 561.561 394.975 561.895V566.795C394.975 569.495 394.375 571.795 393.175 573.695C391.975 575.595 390.208 576.995 387.875 577.895ZM414.285 564.845H402.135C401.768 564.845 401.485 564.745 401.285 564.545C401.085 564.311 400.985 564.028 400.985 563.695V561.895C400.985 561.561 401.085 561.295 401.285 561.095C401.485 560.861 401.768 560.745 402.135 560.745H414.835C416.901 560.745 418.735 561.228 420.335 562.195C421.968 563.161 423.235 564.561 424.135 566.395C425.068 568.195 425.535 570.378 425.535 572.945V588.145C425.535 588.478 425.418 588.761 425.185 588.995C424.985 589.195 424.718 589.295 424.385 589.295H411.485C411.151 589.295 410.868 589.195 410.635 588.995C410.435 588.761 410.335 588.478 410.335 588.145V586.445C410.335 586.111 410.435 585.845 410.635 585.645C410.868 585.411 411.151 585.295 411.485 585.295H420.985V573.245C420.985 571.545 420.685 570.061 420.085 568.795C419.518 567.528 418.718 566.561 417.685 565.895C416.685 565.195 415.551 564.845 414.285 564.845ZM401.635 589.295C401.335 589.295 401.085 589.178 400.885 588.945C400.685 588.711 400.601 588.428 400.635 588.095L404.885 563.595C404.951 563.261 405.101 563.011 405.335 562.845C405.568 562.645 405.851 562.578 406.185 562.645L408.185 562.745C408.518 562.778 408.785 562.928 408.985 563.195C409.185 563.428 409.235 563.711 409.135 564.045L405.185 588.095C405.151 588.428 405.001 588.711 404.735 588.945C404.501 589.178 404.218 589.295 403.885 589.295H401.635ZM432.487 589.295C432.154 589.295 431.87 589.195 431.637 588.995C431.437 588.761 431.337 588.478 431.337 588.145V586.445C431.337 586.111 431.437 585.845 431.637 585.645C431.87 585.411 432.154 585.295 432.487 585.295H446.587V588.345C446.587 588.678 446.47 588.928 446.237 589.095C446.037 589.228 445.77 589.295 445.437 589.295H432.487ZM443.537 589.295C443.204 589.295 442.937 589.195 442.737 588.995C442.57 588.761 442.454 588.478 442.387 588.145L441.437 572.695C441.37 571.061 441.237 569.645 441.037 568.445C440.87 567.245 440.47 566.311 439.837 565.645C439.237 564.978 438.22 564.645 436.787 564.645H434.737C434.404 564.645 434.12 564.545 433.887 564.345C433.687 564.111 433.587 563.828 433.587 563.495V561.795C433.587 561.461 433.687 561.195 433.887 560.995C434.12 560.761 434.404 560.645 434.737 560.645H436.837C438.737 560.645 440.27 560.928 441.437 561.495C442.604 562.028 443.504 562.828 444.137 563.895C444.77 564.961 445.237 566.228 445.537 567.695C445.837 569.128 446.037 570.745 446.137 572.545L447.037 588.145C447.104 588.478 447.02 588.761 446.787 588.995C446.554 589.195 446.27 589.295 445.937 589.295H443.537ZM485.004 589.295C484.638 589.295 484.354 589.195 484.154 588.995C483.954 588.795 483.771 588.628 483.604 588.495L465.254 562.695C465.021 562.328 464.904 562.011 464.904 561.745C464.904 561.478 465.004 561.245 465.204 561.045C465.438 560.845 465.688 560.745 465.954 560.745H468.254C468.654 560.745 468.954 560.845 469.154 561.045C469.388 561.245 469.571 561.428 469.704 561.595L488.104 587.345C488.238 587.578 488.321 587.761 488.354 587.895C488.421 588.028 488.454 588.161 488.454 588.295C488.454 588.561 488.354 588.795 488.154 588.995C487.954 589.195 487.704 589.295 487.404 589.295H485.004ZM465.504 589.295C465.171 589.295 464.888 589.195 464.654 588.995C464.454 588.761 464.354 588.478 464.354 588.145V580.645C464.354 579.111 464.504 577.661 464.804 576.295C465.104 574.895 465.688 573.578 466.554 572.345C467.454 571.078 468.788 569.895 470.554 568.795L472.854 572.145C471.654 572.911 470.754 573.795 470.154 574.795C469.554 575.761 469.154 576.778 468.954 577.845C468.754 578.878 468.654 579.878 468.654 580.845V588.145C468.654 588.478 468.538 588.761 468.304 588.995C468.104 589.195 467.838 589.295 467.504 589.295H465.504ZM481.004 580.145L478.954 576.695C480.588 575.928 481.738 575.128 482.404 574.295C483.104 573.461 483.521 572.595 483.654 571.695C483.788 570.761 483.854 569.795 483.854 568.795V561.895C483.854 561.561 483.954 561.295 484.154 561.095C484.388 560.861 484.671 560.745 485.004 560.745H487.104C487.438 560.745 487.704 560.861 487.904 561.095C488.138 561.295 488.254 561.561 488.254 561.895V569.045C488.254 570.445 488.088 571.795 487.754 573.095C487.421 574.395 486.738 575.628 485.704 576.795C484.704 577.961 483.138 579.078 481.004 580.145ZM501.099 589.745C500.799 589.845 500.515 589.795 500.249 589.595C499.982 589.428 499.849 589.178 499.849 588.845V586.545C499.849 586.245 499.932 585.978 500.099 585.745C500.299 585.511 500.582 585.328 500.949 585.195L502.899 584.445C504.199 583.911 505.382 583.245 506.449 582.445C507.549 581.611 508.399 580.495 508.999 579.095C509.632 577.695 509.949 575.861 509.949 573.595C509.949 571.428 509.682 569.711 509.149 568.445C508.649 567.145 507.782 566.228 506.549 565.695C505.349 565.128 503.699 564.845 501.599 564.845H500.099C499.765 564.845 499.482 564.745 499.249 564.545C499.049 564.311 498.949 564.028 498.949 563.695V561.895C498.949 561.561 499.049 561.295 499.249 561.095C499.482 560.861 499.765 560.745 500.099 560.745H502.299C505.332 560.745 507.749 561.178 509.549 562.045C511.349 562.911 512.632 564.311 513.399 566.245C514.199 568.145 514.599 570.645 514.599 573.745C514.599 576.078 514.282 578.095 513.649 579.795C513.015 581.495 512.149 582.945 511.049 584.145C509.982 585.345 508.765 586.345 507.399 587.145C506.032 587.911 504.615 588.545 503.149 589.045L501.099 589.745ZM501.199 564.845L495.249 564.795C494.915 564.795 494.632 564.695 494.399 564.495C494.199 564.295 494.099 564.028 494.099 563.695V554.945C494.099 554.611 494.199 554.345 494.399 554.145C494.632 553.911 494.915 553.795 495.249 553.795H497.349C497.682 553.795 497.949 553.911 498.149 554.145C498.382 554.345 498.499 554.611 498.499 554.945V560.745H501.299L501.199 564.845Z" fill="#9398C2"/>
<path opacity="0.6" d="M178.682 136.06C178.682 162.36 156.683 183.68 129.545 183.68C102.407 183.68 80.407 162.36 80.407 136.06C80.407 109.759 102.407 88.4387 129.545 88.4387C156.683 88.4387 178.682 109.759 178.682 136.06Z" fill="#666B99"/>
<path fill-rule="evenodd" clip-rule="evenodd" d="M189.693 118.01C191.072 117.021 191.799 115.155 191.533 113.292L186.296 76.7605C186.12 75.5335 185.53 74.4405 184.657 73.727C183.784 73.0137 182.702 72.7398 181.655 72.967L151.958 79.4086C150.403 79.7459 149.168 81.1287 148.814 82.9288C148.46 84.7288 149.054 86.6028 150.327 87.6992L163.445 98.9989L140.845 136.687L120.209 119.793C119.13 118.91 117.796 118.564 116.499 118.83C115.202 119.097 114.049 119.954 113.294 121.214L81.3052 174.559C79.7328 177.181 80.2784 180.795 82.5237 182.632C84.7691 184.468 87.864 183.831 89.4365 181.208L118.577 132.614L139.213 149.508C140.291 150.391 141.625 150.737 142.922 150.47C144.219 150.204 145.372 149.346 146.127 148.087L171.436 105.882L185.259 117.789C186.561 118.911 188.315 118.998 189.693 118.01Z" fill="#9398C2"/>
<path d="M69.6382 505.771C117.722 494.806 235.284 482.725 284.791 477.852C403.679 466.15 527.468 456.353 646.165 451.777C646.525 451.774 646.874 451.887 647.138 452.093C647.403 452.296 647.559 452.579 647.579 452.878C647.599 453.18 647.477 453.474 647.243 453.702C647.009 453.931 646.677 454.075 646.318 454.103C498.49 462.291 157.324 492.333 70.9637 510.528C69.1806 510.901 67.8788 506.172 69.6382 505.771Z" fill="#9398C2"/>
<path d="M483.076 324.249C482.327 322.837 485.713 324.429 486.968 321.496C489.954 314.5 489.991 312.306 486.107 309.884C481.483 307.399 476.503 305.406 471.282 303.955C469.977 303.622 472.797 302.544 476.004 299.291C476.818 298.47 476.564 298.786 484.313 302.007C493.768 305.94 494.358 305.505 495.5 308.035C496.985 310.957 499.721 313.314 503.179 314.647C510.192 317.625 517.013 320.46 522.61 315.508C523.308 314.89 523.261 314.96 527.173 316.679C545.082 324.548 544.591 323.012 545.015 324.661C545.506 326.408 546.486 328.035 547.872 329.407C549.259 330.782 551.011 331.863 552.995 332.566C558.741 335.132 561.639 336.936 567.45 335.282C584.4 330.454 594.465 310.511 586.735 304.164C580.115 298.732 576.521 294.983 567.372 296.657C565.955 296.917 567.09 296.925 549.228 286.513C547.374 285.432 547.347 285.161 547.635 284.28C547.927 283.368 547.954 282.411 547.713 281.488C547.472 280.565 546.971 279.704 546.249 278.975C536.279 268.007 527.265 268.402 524.044 268.569C523.736 268.599 523.42 268.569 523.125 268.481C522.83 268.393 522.566 268.25 522.349 268.064C507.772 254.08 404.98 194.631 380.01 180.617C377.528 179.222 379.081 178.75 378.423 176.825C376.05 169.86 363.358 160.411 355.71 157.957C325.458 148.254 288.602 180.687 291.782 207.384C293.531 222.065 302.494 227.609 318.641 232.94C321.5 233.864 324.592 234.179 327.634 233.854C330.813 233.118 333.866 232.044 336.716 230.659C339.709 229.007 338.126 233.214 432.653 278.733C434.165 279.461 433.541 279.399 433.487 280.827C433.202 286.4 434.68 291.934 437.775 296.88C438.491 298.009 437.436 297.445 432.995 297.335C421.276 297.024 420.249 299.785 420.208 309.395C420.208 311.403 421.598 312.306 424.009 313.43C427.541 315.081 427.676 315.161 427.473 315.739C427.093 316.818 331.102 541.818 330.953 545.339C330.841 548.015 334.245 550.054 337.394 550.525C338.123 550.635 341.042 544.628 346.276 533.668C358.632 507.798 390.295 444.631 395.946 432.638C443.562 331.566 436.684 345.276 443.487 331.343C444.467 329.339 444.44 331.03 445.006 338.935C445.274 342.659 460.749 526.183 461.644 534.933C462.451 542.773 462.841 542.756 464.129 542.838C465.567 543.14 467.072 543.145 468.512 542.857C469.957 542.569 471.292 541.993 472.411 541.183C474.174 539.405 473.597 538.775 472.811 520.291C472.363 509.797 464.922 336.953 464.983 336.947C464.983 329.607 543.55 492.57 569.945 541.497C571.016 543.473 572.46 542.536 576.169 541.019C577.514 540.24 578.484 539.088 578.901 537.767C579.318 536.446 579.159 535.046 578.45 533.815C567.565 509.439 483.076 324.249 483.076 324.249ZM585.305 305.897C588.617 308.865 587.603 316.742 581.237 324.144C576.762 329.344 568.517 335.533 561.504 333.226C557.436 331.891 555.795 328.145 558.473 321.087C562.321 310.92 578.542 299.828 585.301 305.895L585.305 305.897ZM572.596 298.557C574.938 298.831 577.104 299.757 578.735 301.186C579.03 301.406 579.993 302.224 578.196 302.23C568.06 303.215 555.161 315.875 554.466 325.861C554.198 329.616 555.144 330.166 553.771 329.762C544.242 326.981 546.916 315.553 554.54 307.289C557.13 304.537 560.253 302.162 563.782 300.265C566.422 298.924 569.511 298.326 572.592 298.557H572.596ZM563.104 297.182C565.019 298.218 561.304 297.241 554.13 303.958C540.469 316.739 547.605 322.769 542.604 320.945C540.54 320.192 536.597 318.323 527.966 314.59C514.067 308.58 514.206 308.642 514.406 307.346C515.562 302.148 518.128 297.239 521.908 292.992C525.146 289.082 529.244 285.717 533.984 283.077C535.292 282.318 536.079 281.776 537.763 282.75C540.289 284.221 546.398 288.151 563.08 297.182H563.104ZM534.451 272.646C539.709 275.554 544.35 279.704 542.326 278.919C536.987 276.847 530.604 281.513 525.8 285.243C518.966 290.539 514.054 297.326 511.62 304.83C511.023 306.349 510.796 307.953 510.948 309.545C511.101 311.137 511.63 312.69 512.508 314.11C512.881 314.593 513.735 315.804 511.83 315.321C507.823 314.333 504.084 312.713 500.812 310.547C497.514 308.263 496.799 303.385 496.849 299.938C497.09 282.772 521.257 265.356 534.434 272.646H534.451ZM324.214 230.469C323.831 230.935 323.156 230.85 322.519 230.65C311.362 227.144 297.819 222.804 295.738 209.244C292.687 189.301 309.857 167.426 334.045 160.967C340.56 158.872 347.75 158.721 354.385 160.541C361.124 163.341 367.063 167.313 371.799 172.189C368.962 171.287 365.894 170.995 362.883 171.342C336.753 173.974 307.542 216.819 323.014 229.306C323.556 229.744 324.359 230.289 324.214 230.469ZM323.827 219.312C323.449 219.178 323.142 218.935 322.963 218.627C322.784 218.319 322.745 217.967 322.854 217.638C328.302 191.06 354.954 174.425 361.894 174.634C363.151 174.564 363.053 174.476 373.643 180.651C416.557 205.662 477.964 239.868 519.966 268.93C521.569 270.04 510.528 270.167 500.039 283.103C490.398 294.994 495.226 304.065 493.046 303.108C410.12 266.762 332.062 222.841 323.827 219.312ZM425.358 300.339C427.392 298.509 437.684 300.056 438.918 300.169C439.477 300.192 440.023 300.322 440.511 300.545C441.003 300.771 441.423 301.087 441.745 301.468C444.654 304.39 448.657 306.414 453.112 307.213C457.566 308.012 462.214 307.541 466.309 305.875C466.99 305.482 467.824 305.313 468.645 305.403C473.465 306.637 478.099 308.323 482.462 310.429C496.043 317.526 459.644 315.084 434.64 306.499C432.029 305.593 423.429 302.055 425.358 300.33V300.339ZM476.435 321.439C447.457 321.516 422.825 312.148 422.985 309.514C423.212 305.77 423.114 303.198 424.476 304.254C434.487 312.001 473.14 318.495 484.967 316.369C485.591 316.256 485.713 316.42 485.645 316.795C485.384 318.029 485.018 319.246 484.554 320.437C483.696 321.775 481.95 321.417 476.435 321.431V321.439Z" fill="#9398C2"/>
<path d="M562.903 327.983C565.019 332.218 573.948 327.966 578.813 321.261C581.026 318.212 583.203 314.909 582.494 311.865C581.647 308.195 576.589 308.607 573.283 310.677C567.185 314.491 560.825 322.585 562.903 327.983Z" fill="#9398C2"/>
<path d="M146.917 315.334C146.917 320.916 152.25 325.442 158.829 325.442C152.25 325.442 146.917 329.967 146.917 335.549C146.917 329.967 141.583 325.442 135.004 325.442C141.583 325.442 146.917 320.916 146.917 315.334Z" stroke="#9398C2" stroke-width="2" stroke-linecap="round" stroke-linejoin="round"/>
<path d="M557.886 158.886C557.886 164.501 563.219 169.053 569.798 169.053C563.219 169.053 557.886 173.605 557.886 179.22C557.886 173.605 552.553 169.053 545.974 169.053C552.553 169.053 557.886 164.501 557.886 158.886Z" stroke="#9398C2" stroke-width="2" stroke-linecap="round" stroke-linejoin="round"/>
<path d="M386.152 64.6283C386.152 70.2641 391.486 74.8328 398.064 74.8328C391.486 74.8328 386.152 79.4015 386.152 85.0372C386.152 79.4015 380.819 74.8328 374.24 74.8328C380.819 74.8328 386.152 70.2641 386.152 64.6283Z" stroke="#9398C2" stroke-width="2" stroke-linecap="round" stroke-linejoin="round"/>
</svg>
