<svg width="678" height="599" viewBox="0 0 678 599" fill="none" xmlns="http://www.w3.org/2000/svg">
<path d="M184 598C183.667 598 183.383 597.9 183.15 597.7C182.95 597.467 182.85 597.183 182.85 596.85V570.6C182.85 570.267 182.95 570 183.15 569.8C183.383 569.567 183.667 569.45 184 569.45H193.55C196.417 569.45 198.783 569.917 200.65 570.85C202.517 571.75 203.9 573.1 204.8 574.9C205.733 576.7 206.2 578.95 206.2 581.65V596.85C206.2 597.183 206.1 597.467 205.9 597.7C205.7 597.9 205.417 598 205.05 598H184ZM187.15 594H201.75V581.9C201.75 579.233 201.083 577.167 199.75 575.7C198.417 574.2 196.267 573.45 193.3 573.45H187.15V594ZM214.412 586.4C214.078 586.4 213.795 586.3 213.562 586.1C213.362 585.867 213.262 585.583 213.262 585.25V570.6C213.262 570.267 213.362 570 213.562 569.8C213.795 569.567 214.078 569.45 214.412 569.45H216.762C217.128 569.45 217.412 569.567 217.612 569.8C217.812 570 217.912 570.267 217.912 570.6V585.25C217.912 585.583 217.812 585.867 217.612 586.1C217.412 586.3 217.128 586.4 216.762 586.4H214.412ZM239.53 594.25C241.697 594.283 243.514 593.883 244.98 593.05C246.48 592.217 247.614 591.033 248.38 589.5C249.18 587.933 249.58 586.15 249.58 584.15V570.6C249.58 570.267 249.68 570 249.88 569.8C250.114 569.567 250.397 569.45 250.73 569.45H252.78C253.147 569.45 253.43 569.567 253.63 569.8C253.83 570 253.93 570.267 253.93 570.6V584.5C253.93 586.633 253.597 588.567 252.93 590.3C252.264 592 251.314 593.467 250.08 594.7C248.847 595.9 247.38 596.817 245.68 597.45C244.014 598.083 242.164 598.367 240.13 598.3H236.38C234.214 598.3 232.264 597.8 230.53 596.8C228.797 595.8 227.43 594.4 226.43 592.6C225.43 590.8 224.93 588.717 224.93 586.35V570.6C224.93 570.267 225.03 570 225.23 569.8C225.464 569.567 225.747 569.45 226.08 569.45H228.18C228.514 569.45 228.78 569.567 228.98 569.8C229.214 570 229.33 570.267 229.33 570.6L229.48 585.35C229.48 588.217 230.28 590.417 231.88 591.95C233.48 593.483 235.514 594.25 237.98 594.25H239.53ZM228.43 588.4L228.33 584.75C230.797 584.717 232.68 584.35 233.98 583.65C235.28 582.917 236.18 581.95 236.68 580.75C237.214 579.55 237.48 578.233 237.48 576.8V570.6C237.48 570.267 237.58 570 237.78 569.8C237.98 569.567 238.264 569.45 238.63 569.45H240.68C241.014 569.45 241.28 569.567 241.48 569.8C241.714 570 241.83 570.267 241.83 570.6V577C241.83 579.167 241.347 581.117 240.38 582.85C239.414 584.583 237.93 585.95 235.93 586.95C233.964 587.95 231.464 588.433 228.43 588.4ZM277.076 598C276.743 598 276.46 597.9 276.226 597.7C276.026 597.467 275.926 597.183 275.926 596.85V581.9C275.926 579.233 275.26 577.167 273.926 575.7C272.593 574.2 270.443 573.45 267.476 573.45H260.926C260.593 573.45 260.31 573.35 260.076 573.15C259.876 572.917 259.776 572.633 259.776 572.3V570.6C259.776 570.267 259.876 570 260.076 569.8C260.31 569.567 260.593 569.45 260.926 569.45H267.726C270.593 569.45 272.96 569.9 274.826 570.8C276.726 571.7 278.143 573.067 279.076 574.9C280.01 576.7 280.476 578.95 280.476 581.65V596.85C280.476 597.183 280.36 597.467 280.126 597.7C279.926 597.9 279.66 598 279.326 598H277.076ZM289.879 573.45C289.546 573.45 289.263 573.35 289.029 573.15C288.829 572.917 288.729 572.633 288.729 572.3V570.6C288.729 570.267 288.829 570 289.029 569.8C289.263 569.567 289.546 569.45 289.879 569.45H300.729C303.596 569.45 305.963 569.917 307.829 570.85C309.729 571.75 311.146 573.117 312.079 574.95C313.013 576.75 313.479 578.983 313.479 581.65V596.85C313.479 597.183 313.363 597.467 313.129 597.7C312.929 597.9 312.663 598 312.329 598H310.079C309.713 598 309.429 597.9 309.229 597.7C309.029 597.467 308.929 597.183 308.929 596.85V581.9C308.929 579.233 308.246 577.167 306.879 575.7C305.546 574.2 303.396 573.45 300.429 573.45H289.879ZM294.379 571H295.629C296.129 571 296.496 571.133 296.729 571.4C296.996 571.633 297.113 571.933 297.079 572.3C296.813 573.7 296.579 574.967 296.379 576.1C296.213 577.233 296.096 578.367 296.029 579.5C295.963 580.6 295.929 581.85 295.929 583.25L296.029 596.85C296.029 597.183 295.929 597.467 295.729 597.7C295.529 597.9 295.263 598 294.929 598L287.829 597.9C287.496 597.9 287.213 597.8 286.979 597.6C286.779 597.4 286.679 597.117 286.679 596.75V595.15C286.679 594.817 286.779 594.55 286.979 594.35C287.213 594.117 287.496 594 287.829 594L291.679 594.05V583.45C291.679 582.083 291.696 580.833 291.729 579.7C291.763 578.533 291.863 577.367 292.029 576.2C292.196 575.033 292.463 573.717 292.829 572.25C292.929 571.883 293.079 571.583 293.279 571.35C293.513 571.117 293.879 571 294.379 571ZM352.593 598C352.226 598 351.943 597.9 351.743 597.7C351.543 597.5 351.36 597.333 351.193 597.2L332.843 571.4C332.61 571.033 332.493 570.717 332.493 570.45C332.493 570.183 332.593 569.95 332.793 569.75C333.026 569.55 333.276 569.45 333.543 569.45H335.843C336.243 569.45 336.543 569.55 336.743 569.75C336.976 569.95 337.16 570.133 337.293 570.3L355.693 596.05C355.826 596.283 355.91 596.467 355.943 596.6C356.01 596.733 356.043 596.867 356.043 597C356.043 597.267 355.943 597.5 355.743 597.7C355.543 597.9 355.293 598 354.993 598H352.593ZM333.093 598C332.76 598 332.476 597.9 332.243 597.7C332.043 597.467 331.943 597.183 331.943 596.85V589.35C331.943 587.817 332.093 586.367 332.393 585C332.693 583.6 333.276 582.283 334.143 581.05C335.043 579.783 336.376 578.6 338.143 577.5L340.443 580.85C339.243 581.617 338.343 582.5 337.743 583.5C337.143 584.467 336.743 585.483 336.543 586.55C336.343 587.583 336.243 588.583 336.243 589.55V596.85C336.243 597.183 336.126 597.467 335.893 597.7C335.693 597.9 335.426 598 335.093 598H333.093ZM348.593 588.85L346.543 585.4C348.176 584.633 349.326 583.833 349.993 583C350.693 582.167 351.11 581.3 351.243 580.4C351.376 579.467 351.443 578.5 351.443 577.5V570.6C351.443 570.267 351.543 570 351.743 569.8C351.976 569.567 352.26 569.45 352.593 569.45H354.693C355.026 569.45 355.293 569.567 355.493 569.8C355.726 570 355.843 570.267 355.843 570.6V577.75C355.843 579.15 355.676 580.5 355.343 581.8C355.01 583.1 354.326 584.333 353.293 585.5C352.293 586.667 350.726 587.783 348.593 588.85ZM362.638 598C362.304 598 362.021 597.9 361.788 597.7C361.588 597.467 361.488 597.183 361.488 596.85V595.1C361.488 594.767 361.588 594.5 361.788 594.3C362.021 594.067 362.304 593.95 362.638 593.95H376.188L360.538 571.4C360.438 571.2 360.354 571.033 360.288 570.9C360.221 570.733 360.188 570.583 360.188 570.45C360.188 570.183 360.288 569.95 360.488 569.75C360.721 569.55 360.971 569.45 361.238 569.45H363.638C363.971 569.45 364.238 569.55 364.438 569.75C364.671 569.917 364.854 570.1 364.988 570.3L381.288 593.65C381.454 593.883 381.588 594.133 381.688 594.4C381.821 594.633 381.888 594.9 381.888 595.2V596.85C381.888 597.183 381.771 597.467 381.538 597.7C381.338 597.9 381.071 598 380.738 598H362.638ZM375.288 586.6L373.088 583.35C374.821 582.717 376.071 581.683 376.838 580.25C377.638 578.783 378.038 577 378.038 574.9V570.6C378.038 570.267 378.138 570 378.338 569.8C378.571 569.567 378.854 569.45 379.188 569.45H381.238C381.604 569.45 381.888 569.567 382.088 569.8C382.288 570 382.388 570.267 382.388 570.6V575.5C382.388 578.2 381.788 580.5 380.588 582.4C379.388 584.3 377.621 585.7 375.288 586.6ZM401.698 573.55H389.548C389.181 573.55 388.898 573.45 388.698 573.25C388.498 573.017 388.398 572.733 388.398 572.4V570.6C388.398 570.267 388.498 570 388.698 569.8C388.898 569.567 389.181 569.45 389.548 569.45H402.248C404.314 569.45 406.148 569.933 407.748 570.9C409.381 571.867 410.648 573.267 411.548 575.1C412.481 576.9 412.948 579.083 412.948 581.65V596.85C412.948 597.183 412.831 597.467 412.598 597.7C412.398 597.9 412.131 598 411.798 598H398.898C398.564 598 398.281 597.9 398.048 597.7C397.848 597.467 397.748 597.183 397.748 596.85V595.15C397.748 594.817 397.848 594.55 398.048 594.35C398.281 594.117 398.564 594 398.898 594H408.398V581.95C408.398 580.25 408.098 578.767 407.498 577.5C406.931 576.233 406.131 575.267 405.098 574.6C404.098 573.9 402.964 573.55 401.698 573.55ZM389.048 598C388.748 598 388.498 597.883 388.298 597.65C388.098 597.417 388.014 597.133 388.048 596.8L392.298 572.3C392.364 571.967 392.514 571.717 392.748 571.55C392.981 571.35 393.264 571.283 393.598 571.35L395.598 571.45C395.931 571.483 396.198 571.633 396.398 571.9C396.598 572.133 396.648 572.417 396.548 572.75L392.598 596.8C392.564 597.133 392.414 597.417 392.148 597.65C391.914 597.883 391.631 598 391.298 598H389.048ZM419.9 598C419.567 598 419.283 597.9 419.05 597.7C418.85 597.467 418.75 597.183 418.75 596.85V595.15C418.75 594.817 418.85 594.55 419.05 594.35C419.283 594.117 419.567 594 419.9 594H434V597.05C434 597.383 433.883 597.633 433.65 597.8C433.45 597.933 433.183 598 432.85 598H419.9ZM430.95 598C430.617 598 430.35 597.9 430.15 597.7C429.983 597.467 429.867 597.183 429.8 596.85L428.85 581.4C428.783 579.767 428.65 578.35 428.45 577.15C428.283 575.95 427.883 575.017 427.25 574.35C426.65 573.683 425.633 573.35 424.2 573.35H422.15C421.817 573.35 421.533 573.25 421.3 573.05C421.1 572.817 421 572.533 421 572.2V570.5C421 570.167 421.1 569.9 421.3 569.7C421.533 569.467 421.817 569.35 422.15 569.35H424.25C426.15 569.35 427.683 569.633 428.85 570.2C430.017 570.733 430.917 571.533 431.55 572.6C432.183 573.667 432.65 574.933 432.95 576.4C433.25 577.833 433.45 579.45 433.55 581.25L434.45 596.85C434.517 597.183 434.433 597.467 434.2 597.7C433.967 597.9 433.683 598 433.35 598H430.95ZM472.417 598C472.051 598 471.767 597.9 471.567 597.7C471.367 597.5 471.184 597.333 471.017 597.2L452.667 571.4C452.434 571.033 452.317 570.717 452.317 570.45C452.317 570.183 452.417 569.95 452.617 569.75C452.851 569.55 453.101 569.45 453.367 569.45H455.667C456.067 569.45 456.367 569.55 456.567 569.75C456.801 569.95 456.984 570.133 457.117 570.3L475.517 596.05C475.651 596.283 475.734 596.467 475.767 596.6C475.834 596.733 475.867 596.867 475.867 597C475.867 597.267 475.767 597.5 475.567 597.7C475.367 597.9 475.117 598 474.817 598H472.417ZM452.917 598C452.584 598 452.301 597.9 452.067 597.7C451.867 597.467 451.767 597.183 451.767 596.85V589.35C451.767 587.817 451.917 586.367 452.217 585C452.517 583.6 453.101 582.283 453.967 581.05C454.867 579.783 456.201 578.6 457.967 577.5L460.267 580.85C459.067 581.617 458.167 582.5 457.567 583.5C456.967 584.467 456.567 585.483 456.367 586.55C456.167 587.583 456.067 588.583 456.067 589.55V596.85C456.067 597.183 455.951 597.467 455.717 597.7C455.517 597.9 455.251 598 454.917 598H452.917ZM468.417 588.85L466.367 585.4C468.001 584.633 469.151 583.833 469.817 583C470.517 582.167 470.934 581.3 471.067 580.4C471.201 579.467 471.267 578.5 471.267 577.5V570.6C471.267 570.267 471.367 570 471.567 569.8C471.801 569.567 472.084 569.45 472.417 569.45H474.517C474.851 569.45 475.117 569.567 475.317 569.8C475.551 570 475.667 570.267 475.667 570.6V577.75C475.667 579.15 475.501 580.5 475.167 581.8C474.834 583.1 474.151 584.333 473.117 585.5C472.117 586.667 470.551 587.783 468.417 588.85ZM488.512 598.45C488.212 598.55 487.928 598.5 487.662 598.3C487.395 598.133 487.262 597.883 487.262 597.55V595.25C487.262 594.95 487.345 594.683 487.512 594.45C487.712 594.217 487.995 594.033 488.362 593.9L490.312 593.15C491.612 592.617 492.795 591.95 493.862 591.15C494.962 590.317 495.812 589.2 496.412 587.8C497.045 586.4 497.362 584.567 497.362 582.3C497.362 580.133 497.095 578.417 496.562 577.15C496.062 575.85 495.195 574.933 493.962 574.4C492.762 573.833 491.112 573.55 489.012 573.55H487.512C487.178 573.55 486.895 573.45 486.662 573.25C486.462 573.017 486.362 572.733 486.362 572.4V570.6C486.362 570.267 486.462 570 486.662 569.8C486.895 569.567 487.178 569.45 487.512 569.45H489.712C492.745 569.45 495.162 569.883 496.962 570.75C498.762 571.617 500.045 573.017 500.812 574.95C501.612 576.85 502.012 579.35 502.012 582.45C502.012 584.783 501.695 586.8 501.062 588.5C500.428 590.2 499.562 591.65 498.462 592.85C497.395 594.05 496.178 595.05 494.812 595.85C493.445 596.617 492.028 597.25 490.562 597.75L488.512 598.45ZM488.612 573.55L482.662 573.5C482.328 573.5 482.045 573.4 481.812 573.2C481.612 573 481.512 572.733 481.512 572.4V563.65C481.512 563.317 481.612 563.05 481.812 562.85C482.045 562.617 482.328 562.5 482.662 562.5H484.762C485.095 562.5 485.362 562.617 485.562 562.85C485.795 563.05 485.912 563.317 485.912 563.65V569.45H488.712L488.612 573.55Z" fill="#9398C2"/>
<path d="M178.682 136.06C178.682 162.36 156.683 183.68 129.545 183.68C102.407 183.68 80.407 162.36 80.407 136.06C80.407 109.759 102.407 88.4387 129.545 88.4387C156.683 88.4387 178.682 109.759 178.682 136.06Z" fill="#666B99"/>
<path fill-rule="evenodd" clip-rule="evenodd" d="M189.693 118.01C191.072 117.021 191.799 115.155 191.533 113.292L186.296 76.7605C186.12 75.5335 185.53 74.4405 184.657 73.727C183.784 73.0137 182.702 72.7398 181.655 72.967L151.958 79.4086C150.403 79.7459 149.168 81.1287 148.814 82.9288C148.46 84.7288 149.054 86.6028 150.327 87.6992L163.445 98.9989L140.845 136.687L120.209 119.793C119.13 118.91 117.796 118.564 116.499 118.83C115.202 119.097 114.049 119.954 113.294 121.214L81.3052 174.559C79.7328 177.181 80.2784 180.795 82.5237 182.632C84.7691 184.468 87.864 183.831 89.4365 181.208L118.577 132.614L139.213 149.508C140.291 150.391 141.625 150.737 142.922 150.47C144.219 150.204 145.372 149.346 146.127 148.087L171.436 105.882L185.259 117.789C186.561 118.911 188.315 118.998 189.693 118.01Z" fill="#9398C2"/>
<path d="M69.6382 505.771C117.722 494.806 235.284 482.725 284.791 477.852C403.679 466.15 527.468 456.353 646.165 451.777C646.525 451.774 646.874 451.887 647.138 452.093C647.403 452.296 647.559 452.579 647.579 452.878C647.599 453.18 647.477 453.474 647.243 453.702C647.009 453.931 646.677 454.075 646.318 454.103C498.49 462.291 157.324 492.333 70.9637 510.528C69.1806 510.901 67.8788 506.172 69.6382 505.771Z" fill="#9398C2"/>
<path d="M483.076 324.249C482.327 322.837 485.713 324.429 486.968 321.496C489.954 314.5 489.991 312.306 486.107 309.884C481.483 307.399 476.503 305.406 471.282 303.955C469.977 303.622 472.797 302.544 476.004 299.291C476.818 298.47 476.564 298.786 484.313 302.007C493.768 305.94 494.358 305.505 495.5 308.035C496.985 310.957 499.721 313.314 503.179 314.647C510.192 317.625 517.013 320.46 522.61 315.508C523.308 314.89 523.261 314.96 527.173 316.679C545.082 324.548 544.591 323.012 545.015 324.661C545.506 326.408 546.486 328.035 547.872 329.407C549.259 330.782 551.011 331.863 552.995 332.566C558.741 335.132 561.639 336.936 567.45 335.282C584.4 330.454 594.465 310.511 586.735 304.164C580.115 298.732 576.521 294.983 567.372 296.657C565.955 296.917 567.09 296.925 549.228 286.513C547.374 285.432 547.347 285.161 547.635 284.28C547.927 283.368 547.954 282.411 547.713 281.488C547.472 280.565 546.971 279.704 546.249 278.975C536.279 268.007 527.265 268.402 524.044 268.569C523.736 268.599 523.42 268.569 523.125 268.481C522.83 268.393 522.566 268.25 522.349 268.064C507.772 254.08 404.98 194.631 380.01 180.617C377.528 179.222 379.081 178.75 378.423 176.825C376.05 169.86 363.358 160.411 355.71 157.957C325.458 148.254 288.602 180.687 291.782 207.384C293.531 222.065 302.494 227.609 318.641 232.94C321.5 233.864 324.592 234.179 327.634 233.854C330.813 233.118 333.866 232.044 336.716 230.659C339.709 229.007 338.126 233.214 432.653 278.733C434.165 279.461 433.541 279.399 433.487 280.827C433.202 286.4 434.68 291.934 437.775 296.88C438.491 298.009 437.436 297.445 432.995 297.335C421.276 297.024 420.249 299.785 420.208 309.395C420.208 311.403 421.598 312.306 424.009 313.43C427.541 315.081 427.676 315.161 427.473 315.739C427.093 316.818 331.102 541.818 330.953 545.339C330.841 548.015 334.245 550.054 337.394 550.525C338.123 550.635 341.042 544.628 346.276 533.668C358.632 507.798 390.295 444.631 395.946 432.638C443.562 331.566 436.684 345.276 443.487 331.343C444.467 329.339 444.44 331.03 445.006 338.935C445.274 342.659 460.749 526.183 461.644 534.933C462.451 542.773 462.841 542.756 464.129 542.838C465.567 543.14 467.072 543.145 468.512 542.857C469.957 542.569 471.292 541.993 472.411 541.183C474.174 539.405 473.597 538.775 472.811 520.291C472.363 509.797 464.922 336.953 464.983 336.947C464.983 329.607 543.55 492.57 569.945 541.497C571.016 543.473 572.46 542.536 576.169 541.019C577.514 540.24 578.484 539.088 578.901 537.767C579.318 536.446 579.159 535.046 578.45 533.815C567.565 509.439 483.076 324.249 483.076 324.249ZM585.305 305.897C588.617 308.865 587.603 316.742 581.237 324.144C576.762 329.344 568.517 335.533 561.504 333.226C557.436 331.891 555.795 328.145 558.473 321.087C562.321 310.92 578.542 299.828 585.301 305.895L585.305 305.897ZM572.596 298.557C574.938 298.831 577.104 299.757 578.735 301.186C579.03 301.406 579.993 302.224 578.196 302.23C568.06 303.215 555.161 315.875 554.466 325.861C554.198 329.616 555.144 330.166 553.771 329.762C544.242 326.981 546.916 315.553 554.54 307.289C557.13 304.537 560.253 302.162 563.782 300.265C566.422 298.924 569.511 298.326 572.592 298.557H572.596ZM563.104 297.182C565.019 298.218 561.304 297.241 554.13 303.958C540.469 316.739 547.605 322.769 542.604 320.945C540.54 320.192 536.597 318.323 527.966 314.59C514.067 308.58 514.206 308.642 514.406 307.346C515.562 302.148 518.128 297.239 521.908 292.992C525.146 289.082 529.244 285.717 533.984 283.077C535.292 282.318 536.079 281.776 537.763 282.75C540.289 284.221 546.398 288.151 563.08 297.182H563.104ZM534.451 272.646C539.709 275.554 544.35 279.704 542.326 278.919C536.987 276.847 530.604 281.513 525.8 285.243C518.966 290.539 514.054 297.326 511.62 304.83C511.023 306.349 510.796 307.953 510.948 309.545C511.101 311.137 511.63 312.69 512.508 314.11C512.881 314.593 513.735 315.804 511.83 315.321C507.823 314.333 504.084 312.713 500.812 310.547C497.514 308.263 496.799 303.385 496.849 299.938C497.09 282.772 521.257 265.356 534.434 272.646H534.451ZM324.214 230.469C323.831 230.935 323.156 230.85 322.519 230.65C311.362 227.144 297.819 222.804 295.738 209.244C292.687 189.301 309.857 167.426 334.045 160.967C340.56 158.872 347.75 158.721 354.385 160.541C361.124 163.341 367.063 167.313 371.799 172.189C368.962 171.287 365.894 170.995 362.883 171.342C336.753 173.974 307.542 216.819 323.014 229.306C323.556 229.744 324.359 230.289 324.214 230.469ZM323.827 219.312C323.449 219.178 323.142 218.935 322.963 218.627C322.784 218.319 322.745 217.967 322.854 217.638C328.302 191.06 354.954 174.425 361.894 174.634C363.151 174.564 363.053 174.476 373.643 180.651C416.557 205.662 477.964 239.868 519.966 268.93C521.569 270.04 510.528 270.167 500.039 283.103C490.398 294.994 495.226 304.065 493.046 303.108C410.12 266.762 332.062 222.841 323.827 219.312ZM425.358 300.339C427.392 298.509 437.684 300.056 438.918 300.169C439.477 300.192 440.023 300.322 440.511 300.545C441.003 300.771 441.423 301.087 441.745 301.468C444.654 304.39 448.657 306.414 453.112 307.213C457.566 308.012 462.214 307.541 466.309 305.875C466.99 305.482 467.824 305.313 468.645 305.403C473.465 306.637 478.099 308.323 482.462 310.429C496.043 317.526 459.644 315.084 434.64 306.499C432.029 305.593 423.429 302.055 425.358 300.33V300.339ZM476.435 321.439C447.457 321.516 422.825 312.148 422.985 309.514C423.212 305.77 423.114 303.198 424.476 304.254C434.487 312.001 473.14 318.495 484.967 316.369C485.591 316.256 485.713 316.42 485.645 316.795C485.384 318.029 485.018 319.246 484.554 320.437C483.696 321.775 481.95 321.417 476.435 321.431V321.439Z" fill="#9398C2"/>
<path d="M562.903 327.983C565.019 332.218 573.948 327.966 578.813 321.261C581.026 318.212 583.203 314.909 582.494 311.865C581.647 308.195 576.589 308.607 573.283 310.677C567.185 314.491 560.825 322.585 562.903 327.983Z" fill="#9398C2"/>
<path d="M146.917 315.334C146.917 320.916 152.25 325.442 158.829 325.442C152.25 325.442 146.917 329.967 146.917 335.549C146.917 329.967 141.583 325.442 135.004 325.442C141.583 325.442 146.917 320.916 146.917 315.334Z" stroke="#9398C2" stroke-width="2" stroke-linecap="round" stroke-linejoin="round"/>
<path d="M557.886 158.886C557.886 164.501 563.219 169.053 569.798 169.053C563.219 169.053 557.886 173.605 557.886 179.22C557.886 173.605 552.553 169.053 545.974 169.053C552.553 169.053 557.886 164.501 557.886 158.886Z" stroke="#9398C2" stroke-width="2" stroke-linecap="round" stroke-linejoin="round"/>
<path d="M386.152 64.6283C386.152 70.2641 391.486 74.8328 398.064 74.8328C391.486 74.8328 386.152 79.4015 386.152 85.0372C386.152 79.4015 380.819 74.8328 374.24 74.8328C380.819 74.8328 386.152 70.2641 386.152 64.6283Z" stroke="#9398C2" stroke-width="2" stroke-linecap="round" stroke-linejoin="round"/>
</svg>
