<svg width="18" height="89" viewBox="0 0 18 89" fill="none" xmlns="http://www.w3.org/2000/svg">
<path d="M17 0.297112C17 0.13302 16.867 0 16.7029 0V0C16.3182 0 15.9971 0.293751 15.963 0.676955L15 11.5L14.6581 14.0905C13.9631 19.3576 11.4163 24.2055 7.47362 27.7665V27.7665C-2.21403 36.5162 -2.38376 51.6675 7.10545 60.6321L7.55365 61.0555C11.4488 64.7353 13.933 69.6626 14.5753 74.9824L15 78.5L15.9575 88.3253C15.9948 88.7081 16.3166 89 16.7011 89V89C16.8662 89 17 88.8662 17 88.7011V0.297112Z" fill="#1E2775"/>
<path d="M11.5002 48.0833L7.9585 44.5417L11.5002 41" stroke="white" stroke-width="2" stroke-linecap="round" stroke-linejoin="round"/>
</svg>
