<svg width="7" height="8" viewBox="0 0 7 8" fill="none" xmlns="http://www.w3.org/2000/svg">
<path d="M5.23707 0.910069C5.18677 0.859349 5.12691 0.819091 5.06097 0.791618C4.99503 0.764145 4.9243 0.75 4.85286 0.75C4.78142 0.75 4.71069 0.764145 4.64475 0.791618C4.5788 0.819091 4.51895 0.859349 4.46865 0.910069L1.76293 3.61579C1.71221 3.66609 1.67195 3.72595 1.64448 3.79189C1.617 3.85783 1.60286 3.92856 1.60286 4C1.60286 4.07144 1.617 4.14217 1.64448 4.20811C1.67195 4.27405 1.71221 4.33391 1.76293 4.38421L4.46865 7.08993C4.51895 7.14065 4.5788 7.18091 4.64475 7.20838C4.71069 7.23586 4.78142 7.25 4.85286 7.25C4.9243 7.25 4.99503 7.23586 5.06097 7.20838C5.12691 7.18091 5.18677 7.14065 5.23707 7.08993C5.28779 7.03962 5.32805 6.97977 5.35552 6.91383C5.383 6.84789 5.39714 6.77716 5.39714 6.70572C5.39714 6.63428 5.383 6.56355 5.35552 6.49761C5.32805 6.43166 5.28779 6.37181 5.23707 6.32151L2.91015 4L5.23707 1.67849C5.28779 1.62819 5.32805 1.56834 5.35552 1.50239C5.383 1.43645 5.39714 1.36572 5.39714 1.29428C5.39714 1.22284 5.383 1.15211 5.35552 1.08617C5.32805 1.02023 5.28779 0.960376 5.23707 0.910069Z" fill="#9398C2"/>
</svg>
