<svg width="21" height="21" viewBox="0 0 21 21" fill="none" xmlns="http://www.w3.org/2000/svg">
<path d="M13.126 5.45068V8.87381L14.3235 9.62693C14.3667 9.63623 14.4115 9.63623 14.4547 9.62693L19.6035 6.15568C19.5997 5.98721 19.5381 5.82517 19.4289 5.69679C19.3198 5.5684 19.1698 5.4815 19.0041 5.45068H13.126Z" fill="#1E2775"/>
<path d="M13.1255 10.1508L14.2173 10.9008C14.2684 10.9321 14.3271 10.9486 14.387 10.9486C14.4469 10.9486 14.5056 10.9321 14.5567 10.9008C14.3692 11.0139 19.6023 7.53955 19.6023 7.53955V13.8308C19.616 13.9583 19.6016 14.0872 19.5602 14.2086C19.5188 14.3299 19.4514 14.4407 19.3627 14.5333C19.274 14.6259 19.1662 14.698 19.0467 14.7445C18.9272 14.791 18.799 14.8109 18.6711 14.8027H13.1248L13.1255 10.1508ZM7.47297 8.57268C7.29156 8.57187 7.11331 8.62012 6.95708 8.71232C6.80085 8.80452 6.67245 8.93723 6.58547 9.09643C6.34801 9.51852 6.23409 9.9989 6.25672 10.4827C6.23204 10.9654 6.34612 11.4452 6.58547 11.8652C6.67204 12.0179 6.79726 12.1451 6.94857 12.234C7.09987 12.323 7.27193 12.3705 7.44744 12.3719C7.62295 12.3733 7.79573 12.3285 7.94843 12.242C8.10113 12.1554 8.22836 12.0302 8.31734 11.8789C8.55454 11.461 8.6663 10.9837 8.63922 10.5039C8.6663 10.0092 8.55827 9.51636 8.32672 9.0783C8.24374 8.92444 8.12043 8.79607 7.97002 8.70699C7.81961 8.61791 7.64778 8.57148 7.47297 8.57268Z" fill="#1E2775"/>
<path d="M2.29443 3.71211V17.104L12.4819 19.2402V1.74023L2.29443 3.71211ZM9.11193 12.6721C8.9214 12.9408 8.66801 13.1588 8.37386 13.3071C8.07972 13.4553 7.75377 13.5294 7.42443 13.5227C7.1034 13.5284 6.78574 13.4565 6.49846 13.3131C6.21119 13.1697 5.96281 12.959 5.77443 12.699C5.32772 12.0752 5.10424 11.3191 5.14006 10.5527C5.10215 9.74877 5.32967 8.95465 5.78756 8.29273C5.98066 8.01906 6.23805 7.79704 6.53711 7.6462C6.83616 7.49537 7.1677 7.42035 7.50256 7.42773C7.82123 7.42156 8.13656 7.49359 8.42094 7.63752C8.70532 7.78146 8.95009 7.99291 9.13381 8.25336C9.57606 8.89065 9.79574 9.65603 9.75881 10.4309C9.79792 11.229 9.57034 12.0175 9.11193 12.6721Z" fill="#1E2775"/>
</svg>
