<svg width="24" height="24" viewBox="0 0 24 24" fill="none" xmlns="http://www.w3.org/2000/svg">
<path d="M16.5 18H18.75C19.1478 18 19.5294 17.842 19.8107 17.5607C20.092 17.2794 20.25 16.8978 20.25 16.5V9C20.25 8.60218 20.092 8.22064 19.8107 7.93934C19.5294 7.65804 19.1478 7.5 18.75 7.5H5.25C4.85218 7.5 4.47064 7.65804 4.18934 7.93934C3.90804 8.22064 3.75 8.60218 3.75 9V16.5C3.75 16.8978 3.90804 17.2794 4.18934 17.5607C4.47064 17.842 4.85218 18 5.25 18H7.5M7.5 7.5V3.75H16.5V7.5M6.75 12.75H17.25M7.5 12.75V20.25H16.5V12.75" stroke="white" stroke-width="1.5" stroke-linecap="round" stroke-linejoin="round"/>
</svg>
