<svg width="120" height="36" viewBox="0 0 120 36" fill="none" xmlns="http://www.w3.org/2000/svg">
<rect y="0.5" width="120" height="35" rx="7" fill="#1E2775"/>
<path d="M40.72 22.5C40.6267 22.5 40.5473 22.472 40.482 22.416C40.426 22.3507 40.398 22.2713 40.398 22.178V17.992C40.398 17.2453 40.2113 16.6667 39.838 16.256C39.4647 15.836 38.8627 15.626 38.032 15.626H35.4C35.3067 15.626 35.2273 15.598 35.162 15.542C35.106 15.4767 35.078 15.3973 35.078 15.304V14.828C35.078 14.7347 35.106 14.66 35.162 14.604C35.2273 14.5387 35.3067 14.506 35.4 14.506H38.102C39.3153 14.506 40.2113 14.8 40.79 15.388C41.378 15.976 41.672 16.83 41.672 17.95V22.178C41.672 22.2713 41.6393 22.3507 41.574 22.416C41.518 22.472 41.4433 22.5 41.35 22.5H40.72ZM35.4 22.5C35.3067 22.5 35.2273 22.472 35.162 22.416C35.106 22.3507 35.078 22.2713 35.078 22.178V17.502C35.078 17.4087 35.106 17.334 35.162 17.278C35.2273 17.2127 35.3067 17.18 35.4 17.18H36.03C36.1327 17.18 36.212 17.2127 36.268 17.278C36.324 17.334 36.352 17.4087 36.352 17.502V22.178C36.352 22.2713 36.324 22.3507 36.268 22.416C36.212 22.472 36.1327 22.5 36.03 22.5H35.4ZM47.12 22.64C45.9533 22.64 45.0853 22.3367 44.516 21.73C43.9466 21.1233 43.662 20.26 43.662 19.14V14.828C43.662 14.7347 43.69 14.66 43.746 14.604C43.8113 14.5387 43.8906 14.506 43.984 14.506H47.358C48.1886 14.506 48.8513 14.632 49.346 14.884C49.8406 15.136 50.2 15.5093 50.424 16.004C50.6573 16.4893 50.788 17.0913 50.816 17.81C50.8253 17.9033 50.83 18.0527 50.83 18.258C50.83 18.4633 50.83 18.6687 50.83 18.874C50.83 19.0793 50.8253 19.2287 50.816 19.322C50.7973 20.0313 50.662 20.638 50.41 21.142C50.158 21.6367 49.7613 22.01 49.22 22.262C48.688 22.514 47.988 22.64 47.12 22.64ZM47.12 21.492C48.0066 21.492 48.632 21.31 48.996 20.946C49.36 20.5727 49.5513 20.008 49.57 19.252C49.5793 19.1587 49.584 19.0187 49.584 18.832C49.584 18.6453 49.584 18.4633 49.584 18.286C49.584 18.1087 49.5793 17.9733 49.57 17.88C49.5513 17.1333 49.3366 16.5733 48.926 16.2C48.5246 15.8173 47.9786 15.626 47.288 15.626H44.88V19.14C44.88 19.896 45.0666 20.4793 45.44 20.89C45.8133 21.2913 46.3733 21.492 47.12 21.492ZM53.794 15.654V16.746C53.8034 17.082 53.8454 17.362 53.92 17.586C53.9947 17.81 54.1394 17.95 54.354 18.006L54.872 18.146C54.9467 18.1647 55.0027 18.216 55.04 18.3C55.0867 18.3747 55.11 18.468 55.11 18.58V18.93C55.11 19.0327 55.0587 19.1073 54.956 19.154C54.8534 19.2007 54.7414 19.2147 54.62 19.196L54.074 19.084C53.7754 19.0093 53.5187 18.8787 53.304 18.692C53.0894 18.496 52.926 18.2347 52.814 17.908C52.7114 17.572 52.66 17.1707 52.66 16.704V14.828C52.66 14.7347 52.688 14.66 52.744 14.604C52.8 14.5387 52.8794 14.506 52.982 14.506H55.572C56.272 14.506 56.8554 14.646 57.322 14.926C57.7887 15.1967 58.1434 15.5933 58.386 16.116C58.6287 16.6293 58.7594 17.25 58.778 17.978C58.7874 18.118 58.792 18.2953 58.792 18.51C58.792 18.7153 58.7874 18.888 58.778 19.028C58.7594 19.7467 58.6287 20.3673 58.386 20.89C58.1434 21.4127 57.7887 21.814 57.322 22.094C56.8554 22.3647 56.272 22.5 55.572 22.5H53.15C53.0567 22.5 52.9774 22.472 52.912 22.416C52.856 22.3507 52.828 22.2713 52.828 22.178V21.674C52.828 21.5807 52.856 21.506 52.912 21.45C52.9774 21.3847 53.0567 21.352 53.15 21.352H55.502C56.146 21.352 56.6407 21.1467 56.986 20.736C57.3407 20.316 57.5367 19.7327 57.574 18.986C57.5834 18.846 57.588 18.6873 57.588 18.51C57.588 18.3233 57.5834 18.16 57.574 18.02C57.5554 17.2733 57.364 16.6947 57 16.284C56.6454 15.864 56.146 15.654 55.502 15.654H53.794ZM64.036 22.5C63.8307 22.5 63.728 22.3973 63.728 22.192V17.194C63.728 16.6433 63.7933 16.214 63.924 15.906C64.0547 15.598 64.218 15.444 64.414 15.444H65.786C65.5527 15.444 65.3613 15.6213 65.212 15.976C65.072 16.3307 65.002 16.7693 65.002 17.292V22.192C65.002 22.2853 64.9693 22.36 64.904 22.416C64.8387 22.472 64.7593 22.5 64.666 22.5H64.036ZM60.256 15.626C60.1627 15.626 60.0833 15.598 60.018 15.542C59.962 15.4767 59.934 15.3973 59.934 15.304V14.828C59.934 14.7347 59.962 14.66 60.018 14.604C60.0833 14.5387 60.1627 14.506 60.256 14.506H66.262C66.3553 14.506 66.43 14.5387 66.486 14.604C66.5513 14.66 66.584 14.7347 66.584 14.828V15.304C66.584 15.3973 66.5513 15.4767 66.486 15.542C66.43 15.598 66.3553 15.626 66.262 15.626H60.256ZM73.929 22.5C73.8357 22.5 73.7563 22.472 73.691 22.416C73.635 22.3507 73.607 22.2713 73.607 22.178V17.992C73.607 17.2453 73.4203 16.6667 73.047 16.256C72.6737 15.836 72.0717 15.626 71.241 15.626H68.609C68.5157 15.626 68.4363 15.598 68.371 15.542C68.315 15.4767 68.287 15.3973 68.287 15.304V14.828C68.287 14.7347 68.315 14.66 68.371 14.604C68.4363 14.5387 68.5157 14.506 68.609 14.506H71.311C72.5243 14.506 73.4203 14.8 73.999 15.388C74.587 15.976 74.881 16.83 74.881 17.95V22.178C74.881 22.2713 74.8483 22.3507 74.783 22.416C74.727 22.472 74.6523 22.5 74.559 22.5H73.929ZM68.609 22.5C68.5157 22.5 68.4363 22.472 68.371 22.416C68.315 22.3507 68.287 22.2713 68.287 22.178V17.502C68.287 17.4087 68.315 17.334 68.371 17.278C68.4363 17.2127 68.5157 17.18 68.609 17.18H69.239C69.3417 17.18 69.421 17.2127 69.477 17.278C69.533 17.334 69.561 17.4087 69.561 17.502V22.178C69.561 22.2713 69.533 22.3507 69.477 22.416C69.421 22.472 69.3417 22.5 69.239 22.5H68.609Z" fill="white"/>
<path d="M102.5 24H104.75C105.148 24 105.529 23.842 105.811 23.5607C106.092 23.2794 106.25 22.8978 106.25 22.5V15C106.25 14.6022 106.092 14.2206 105.811 13.9393C105.529 13.658 105.148 13.5 104.75 13.5H91.25C90.8522 13.5 90.4706 13.658 90.1893 13.9393C89.908 14.2206 89.75 14.6022 89.75 15V22.5C89.75 22.8978 89.908 23.2794 90.1893 23.5607C90.4706 23.842 90.8522 24 91.25 24H93.5M93.5 13.5V9.75H102.5V13.5M92.75 18.75H103.25M93.5 18.75V26.25H102.5V18.75" stroke="white" stroke-width="1.5" stroke-linecap="round" stroke-linejoin="round"/>
</svg>
