<svg width="16" height="16" viewBox="0 0 16 16" fill="none" xmlns="http://www.w3.org/2000/svg">
<g clip-path="url(#clip0_4781_163452)">
<path d="M5.0119 2C4.21974 2 3.4807 2.58371 3.5023 3.41C3.5248 4.28171 3.71834 4.94514 4.0118 5.47314C4.30526 5.99943 4.68514 6.36457 5.03801 6.656C5.16043 6.75714 5.28646 6.85314 5.40078 6.94143L5.53311 7.04429C5.68524 7.16257 5.80946 7.26543 5.91118 7.36914C6.10382 7.56286 6.20014 7.74286 6.20014 8C6.20014 8.25714 6.10382 8.43714 5.91299 8.63086C5.81126 8.73371 5.68704 8.83743 5.53491 8.95657L5.40168 9.05857C5.27943 9.15153 5.15879 9.2464 5.03981 9.34314C4.68604 9.63457 4.30616 10.0006 4.0136 10.526C3.71834 11.054 3.5248 11.7174 3.5005 12.5883C3.478 13.4154 4.21884 14 5.0119 14H10.9873C11.7804 14 12.5212 13.4154 12.4987 12.5883C12.4744 11.7174 12.2809 11.054 11.9874 10.5269C11.6939 10.0006 11.3141 9.63543 10.9612 9.344C10.8388 9.24286 10.7137 9.14686 10.5993 9.05857L10.467 8.95571C10.3337 8.85534 10.2074 8.74682 10.0889 8.63086C9.89719 8.43714 9.80087 8.25714 9.80087 8C9.80087 7.74286 9.89809 7.56286 10.0889 7.36914C10.1915 7.26543 10.3158 7.16257 10.467 7.04343L10.6002 6.94143C10.7146 6.854 10.8406 6.75714 10.963 6.656C11.3168 6.36457 11.6966 5.99943 11.9892 5.47314C12.2836 4.94514 12.4771 4.28171 12.4996 3.41C12.5194 2.58371 11.7795 2 10.9882 2H5.0119ZM4.40158 3.38857C4.39438 3.11429 4.64823 2.85714 5.0128 2.85714H10.9882C11.3519 2.85714 11.6057 3.11429 11.5985 3.38857C11.5787 4.14629 11.4131 4.676 11.1934 5.07114C10.9729 5.46714 10.683 5.75257 10.3734 6.008C10.2627 6.09886 10.1564 6.18114 10.0466 6.26514L9.89629 6.38086C9.73237 6.50533 9.57721 6.6399 9.43179 6.78371C9.13023 7.08886 8.90069 7.46857 8.90069 8C8.90069 8.52971 9.12933 8.91029 9.43089 9.21714C9.57492 9.36286 9.73785 9.49571 9.89539 9.61914L10.0457 9.73486C10.1546 9.81886 10.2618 9.90114 10.3716 9.992C10.6812 10.2474 10.9702 10.532 11.1907 10.9289C11.4113 11.3231 11.5778 11.8529 11.5976 12.6106C11.6048 12.8849 11.351 13.1429 10.9864 13.1429H5.0119C4.64733 13.1429 4.39348 12.8849 4.40068 12.6106C4.42139 11.8529 4.58792 11.3231 4.80756 10.9289C5.02901 10.5329 5.31797 10.2474 5.62853 9.992C5.73925 9.90114 5.84547 9.81971 5.95439 9.73486L6.10562 9.61914C6.26316 9.49571 6.42609 9.36371 6.57012 9.21629C6.87168 8.91029 7.10122 8.53057 7.10122 7.99914C7.10122 7.46943 6.87078 7.08971 6.57012 6.78286C6.42439 6.63931 6.26892 6.50502 6.10472 6.38086C6.05475 6.34213 6.00464 6.30356 5.95439 6.26514C5.84547 6.18114 5.73835 6.09886 5.62763 6.008C5.31797 5.75257 5.02811 5.46714 4.80846 5.07114C4.58792 4.67686 4.42229 4.14629 4.40338 3.38857H4.40158ZM6.21635 10.64L6.30186 10.5714H9.69735L9.78196 10.64C10.0484 10.8594 10.2474 11.0643 10.3959 11.3309C10.5129 11.5417 10.6263 11.8409 10.6749 12.2857H5.32247C5.37108 11.8409 5.4845 11.5426 5.60152 11.3309C5.75005 11.0651 5.94899 10.8594 6.21635 10.6409V10.64Z" fill="#FF9900" stroke="#FF9900" stroke-width="0.666667"/>
</g>
<defs>
<clipPath id="clip0_4781_163452">
<rect width="16" height="16" fill="white"/>
</clipPath>
</defs>
</svg>
