<svg width="28" height="18" viewBox="0 0 28 18" fill="none" xmlns="http://www.w3.org/2000/svg">
<path d="M2 3H15" stroke="#787C9E" stroke-width="2.5" stroke-linecap="round"/>
<path d="M2 9H10" stroke="#787C9E" stroke-width="2.5" stroke-linecap="round"/>
<path d="M2 15H15" stroke="#787C9E" stroke-width="2.5" stroke-linecap="round"/>
<path d="M22.3327 4.03638C22.3202 3.68308 22.1679 3.34922 21.9093 3.10818C21.6508 2.8671 21.3084 2.73855 20.9552 2.7508C20.6019 2.76305 20.2679 2.9151 20.0267 3.17351L15.36 8.17084C15.1281 8.41779 14.9993 8.74405 15 9.08284C14.9981 9.42224 15.1271 9.74933 15.36 9.99617L20.0253 14.9922C20.2687 15.2414 20.6 15.3856 20.9483 15.3937C21.2966 15.4018 21.6342 15.2733 21.8889 15.0356C22.1437 14.798 22.2953 14.47 22.3113 14.122C22.3273 13.774 22.2065 13.4336 21.9747 13.1735L19.4013 10.4162H25.6667C26.0203 10.4162 26.3594 10.2757 26.6095 10.0256C26.8595 9.7756 27 9.43646 27 9.08284C27 8.72922 26.8595 8.39008 26.6095 8.14003C26.3594 7.88998 26.0203 7.74951 25.6667 7.74951H19.4013L21.976 4.99218C22.2169 4.73347 22.3452 4.38967 22.3327 4.03638Z" fill="#787C9E"/>
</svg>
