<svg width="76" height="26" viewBox="0 0 76 26" fill="none" xmlns="http://www.w3.org/2000/svg">
<path d="M14.9319 17C14.8519 17 14.7839 16.976 14.7279 16.928C14.6799 16.872 14.6559 16.804 14.6559 16.724V13.136C14.6559 12.496 14.4959 12 14.1759 11.648C13.8559 11.288 13.3399 11.108 12.6279 11.108H10.3719C10.2919 11.108 10.2239 11.084 10.1679 11.036C10.1199 10.98 10.0959 10.912 10.0959 10.832V10.424C10.0959 10.344 10.1199 10.28 10.1679 10.232C10.2239 10.176 10.2919 10.148 10.3719 10.148H12.6879C13.7279 10.148 14.4959 10.4 14.9919 10.904C15.4959 11.408 15.7479 12.14 15.7479 13.1V16.724C15.7479 16.804 15.7199 16.872 15.6639 16.928C15.6159 16.976 15.5519 17 15.4719 17H14.9319ZM10.3719 17C10.2919 17 10.2239 16.976 10.1679 16.928C10.1199 16.872 10.0959 16.804 10.0959 16.724V12.716C10.0959 12.636 10.1199 12.572 10.1679 12.524C10.2239 12.468 10.2919 12.44 10.3719 12.44H10.9119C10.9999 12.44 11.0679 12.468 11.1159 12.524C11.1639 12.572 11.1879 12.636 11.1879 12.716V16.724C11.1879 16.804 11.1639 16.872 11.1159 16.928C11.0679 16.976 10.9999 17 10.9119 17H10.3719ZM17.4176 17C17.3376 17 17.2696 16.976 17.2136 16.928C17.1656 16.872 17.1416 16.804 17.1416 16.724V16.316C17.1416 16.236 17.1656 16.172 17.2136 16.124C17.2696 16.068 17.3376 16.04 17.4176 16.04H20.8016V16.772C20.8016 16.852 20.7736 16.912 20.7176 16.952C20.6696 16.984 20.6056 17 20.5256 17H17.4176ZM20.0696 17C19.9896 17 19.9256 16.976 19.8776 16.928C19.8376 16.872 19.8096 16.804 19.7936 16.724L19.5656 13.016C19.5496 12.624 19.5176 12.284 19.4696 11.996C19.4296 11.708 19.3336 11.484 19.1816 11.324C19.0376 11.164 18.7936 11.084 18.4496 11.084H17.9576C17.8776 11.084 17.8096 11.06 17.7536 11.012C17.7056 10.956 17.6816 10.888 17.6816 10.808V10.4C17.6816 10.32 17.7056 10.256 17.7536 10.208C17.8096 10.152 17.8776 10.124 17.9576 10.124H18.4616C18.9176 10.124 19.2856 10.192 19.5656 10.328C19.8456 10.456 20.0616 10.648 20.2136 10.904C20.3656 11.16 20.4776 11.464 20.5496 11.816C20.6216 12.16 20.6696 12.548 20.6936 12.98L20.9096 16.724C20.9256 16.804 20.9056 16.872 20.8496 16.928C20.7936 16.976 20.7256 17 20.6456 17H20.0696ZM25.3763 17.12C24.3043 17.12 23.5323 16.864 23.0603 16.352C22.5883 15.832 22.3523 15.108 22.3523 14.18V10.424C22.3523 10.344 22.3763 10.28 22.4243 10.232C22.4803 10.176 22.5483 10.148 22.6283 10.148H23.1203C23.2083 10.148 23.2763 10.176 23.3243 10.232C23.3723 10.28 23.3963 10.344 23.3963 10.424V14.12C23.3963 14.768 23.5603 15.268 23.8883 15.62C24.2163 15.964 24.7123 16.136 25.3763 16.136C26.0403 16.136 26.5243 15.976 26.8283 15.656C27.1403 15.336 27.3043 14.856 27.3203 14.216C27.3283 14.136 27.3283 14.016 27.3203 13.856C27.3203 13.688 27.3203 13.52 27.3203 13.352C27.3203 13.184 27.3203 13.06 27.3203 12.98C27.3043 12.316 27.1603 11.832 26.8883 11.528C26.6243 11.224 26.2763 11.072 25.8443 11.072C25.7083 11.072 25.5523 11.096 25.3763 11.144C25.2003 11.192 25.0523 11.256 24.9323 11.336C24.8603 11.376 24.7843 11.38 24.7043 11.348C24.6243 11.308 24.5843 11.244 24.5843 11.156V10.784C24.5843 10.704 24.5923 10.636 24.6083 10.58C24.6243 10.516 24.6683 10.46 24.7403 10.412C24.9003 10.316 25.0723 10.24 25.2563 10.184C25.4403 10.12 25.6843 10.088 25.9883 10.088C26.5083 10.088 26.9443 10.188 27.2963 10.388C27.6483 10.58 27.9163 10.88 28.1003 11.288C28.2843 11.696 28.3843 12.22 28.4003 12.86C28.4083 12.94 28.4123 13.076 28.4123 13.268C28.4123 13.46 28.4123 13.656 28.4123 13.856C28.4123 14.056 28.4083 14.196 28.4003 14.276C28.3843 14.884 28.2723 15.404 28.0643 15.836C27.8643 16.26 27.5443 16.58 27.1043 16.796C26.6723 17.012 26.0963 17.12 25.3763 17.12ZM30.2586 19.292C30.1786 19.292 30.1106 19.264 30.0546 19.208C30.0066 19.16 29.9826 19.096 29.9826 19.016V12.716C29.9826 12.636 30.0066 12.572 30.0546 12.524C30.1106 12.468 30.1786 12.44 30.2586 12.44H30.7866C30.8746 12.44 30.9426 12.468 30.9906 12.524C31.0386 12.572 31.0626 12.636 31.0626 12.716V19.016C31.0626 19.096 31.0386 19.16 30.9906 19.208C30.9426 19.264 30.8746 19.292 30.7866 19.292H30.2586ZM32.5626 17.108C32.4906 17.132 32.4226 17.12 32.3586 17.072C32.3026 17.032 32.2746 16.972 32.2746 16.892V16.34C32.2746 16.268 32.2946 16.204 32.3346 16.148C32.3826 16.092 32.4506 16.048 32.5386 16.016L32.9946 15.836C33.3146 15.708 33.6026 15.548 33.8586 15.356C34.1226 15.156 34.3266 14.888 34.4706 14.552C34.6226 14.216 34.6986 13.776 34.6986 13.232C34.6986 12.712 34.6346 12.3 34.5066 11.996C34.3786 11.684 34.1666 11.464 33.8706 11.336C33.5826 11.2 33.1906 11.132 32.6946 11.132H30.2586C30.1786 11.132 30.1106 11.108 30.0546 11.06C30.0066 11.004 29.9826 10.936 29.9826 10.856V10.424C29.9826 10.344 30.0066 10.28 30.0546 10.232C30.1106 10.176 30.1786 10.148 30.2586 10.148H32.8506C33.5866 10.148 34.1666 10.252 34.5906 10.46C35.0226 10.668 35.3306 11.004 35.5146 11.468C35.7066 11.924 35.8026 12.524 35.8026 13.268C35.8026 13.828 35.7266 14.312 35.5746 14.72C35.4226 15.128 35.2146 15.476 34.9506 15.764C34.6946 16.052 34.4026 16.292 34.0746 16.484C33.7546 16.668 33.4186 16.82 33.0666 16.94L32.5626 17.108ZM42.3303 17C42.2503 17 42.1823 16.976 42.1263 16.928C42.0783 16.872 42.0543 16.804 42.0543 16.724V13.136C42.0543 12.496 41.8943 12 41.5743 11.648C41.2543 11.288 40.7383 11.108 40.0263 11.108H37.7703C37.6903 11.108 37.6223 11.084 37.5663 11.036C37.5183 10.98 37.4943 10.912 37.4943 10.832V10.424C37.4943 10.344 37.5183 10.28 37.5663 10.232C37.6223 10.176 37.6903 10.148 37.7703 10.148H40.0863C41.1263 10.148 41.8943 10.4 42.3903 10.904C42.8943 11.408 43.1463 12.14 43.1463 13.1V16.724C43.1463 16.804 43.1183 16.872 43.0623 16.928C43.0143 16.976 42.9503 17 42.8703 17H42.3303ZM37.7703 17C37.6903 17 37.6223 16.976 37.5663 16.928C37.5183 16.872 37.4943 16.804 37.4943 16.724V12.716C37.4943 12.636 37.5183 12.572 37.5663 12.524C37.6223 12.468 37.6903 12.44 37.7703 12.44H38.3103C38.3983 12.44 38.4663 12.468 38.5143 12.524C38.5623 12.572 38.5863 12.636 38.5863 12.716V16.724C38.5863 16.804 38.5623 16.872 38.5143 16.928C38.4663 16.976 38.3983 17 38.3103 17H37.7703Z" fill="#1E2775"/>
<g clip-path="url(#clip0_1547_18019)">
<path d="M58.202 12.8475C58.1183 12.8433 58.0346 12.8555 57.9556 12.8836C57.8766 12.9117 57.804 12.9551 57.7418 13.0113C57.6796 13.0675 57.6291 13.1354 57.5931 13.2111C57.5571 13.2868 57.5364 13.3688 57.5322 13.4525C57.5279 13.5362 57.5402 13.62 57.5683 13.6989C57.5964 13.7779 57.6398 13.8505 57.696 13.9127C57.7521 13.9749 57.82 14.0255 57.8957 14.0614C57.9714 14.0974 58.0535 14.1181 58.1372 14.1223L60.2016 14.2264L56.6132 17.4677C56.4878 17.581 56.4125 17.7395 56.4039 17.9084C56.3953 18.0772 56.8295 18.4833 56.9428 18.6088C57.0561 18.7343 57.4287 19.2212 57.5975 19.2298C57.7664 19.2384 57.9317 19.1796 58.0571 19.0662L61.6456 15.8249L61.5398 17.8893C61.5355 17.973 61.5478 18.0567 61.5759 18.1357C61.604 18.2147 61.6474 18.2873 61.7035 18.3495C61.7597 18.4117 61.8276 18.4622 61.9033 18.4982C61.979 18.5342 62.0611 18.5549 62.1448 18.5591C62.2285 18.5634 62.3122 18.5511 62.3912 18.523C62.4701 18.4949 62.5428 18.4515 62.605 18.3953C62.6672 18.3391 62.7177 18.2713 62.7537 18.1956C62.7896 18.1199 62.8103 18.0378 62.8146 17.9541L62.7836 13.9412C62.7879 13.8574 62.7757 13.7737 62.7477 13.6947C62.7196 13.6157 62.6762 13.543 62.62 13.4807C62.5638 13.4185 62.4959 13.368 62.4202 13.3321C62.3444 13.2961 62.2623 13.2755 62.1786 13.2714L58.202 12.8475Z" fill="#1E2775"/>
<path d="M67.4225 13.7912C67.5062 13.7954 67.59 13.7831 67.6689 13.755C67.7479 13.7269 67.8205 13.6836 67.8827 13.6274C67.9449 13.5712 67.9955 13.5033 68.0314 13.4276C68.0674 13.3519 68.0881 13.2698 68.0923 13.1861C68.0966 13.1024 68.0843 13.0187 68.0562 12.9397C68.0281 12.8608 67.9847 12.7881 67.9286 12.7259C67.8724 12.6637 67.8045 12.6132 67.7288 12.5772C67.6531 12.5413 67.571 12.5206 67.4873 12.5163L65.4229 12.4123L69.0113 9.17099C69.1368 9.05767 69.2121 8.89915 69.2206 8.73031C69.2292 8.56147 68.795 8.15533 68.6817 8.02987C68.5684 7.90441 68.1958 7.41742 68.027 7.40884C67.8582 7.40026 67.6928 7.4591 67.5674 7.57242L63.9789 10.8137L64.0848 8.74937C64.089 8.66566 64.0767 8.58194 64.0486 8.50298C64.0205 8.42401 63.9772 8.35136 63.921 8.28916C63.8648 8.22696 63.7969 8.17644 63.7212 8.14047C63.6455 8.10451 63.5634 8.08381 63.4797 8.07955C63.396 8.0753 63.3123 8.08757 63.2333 8.11568C63.1544 8.14378 63.0817 8.18716 63.0195 8.24334C62.9573 8.29952 62.9068 8.36741 62.8708 8.44311C62.8349 8.51882 62.8142 8.60087 62.8099 8.68458L62.8409 12.6975C62.8366 12.7812 62.8488 12.865 62.8768 12.944C62.9049 13.023 62.9483 13.0957 63.0045 13.1579C63.0607 13.2202 63.1286 13.2707 63.2044 13.3066C63.2801 13.3425 63.3622 13.3632 63.446 13.3673L67.4225 13.7912Z" fill="#1E2775"/>
</g>
<defs>
<clipPath id="clip0_1547_18019">
<rect width="18" height="18" fill="white" transform="translate(54 4)"/>
</clipPath>
</defs>
</svg>
