<svg width="24" height="24" viewBox="0 0 24 24" fill="none" xmlns="http://www.w3.org/2000/svg">
<g id="pepicons-pencil:text-bubble">
<g id="Group">
<path id="Vector" fill-rule="evenodd" clip-rule="evenodd" d="M22.2002 14.5226C22.2002 15.3182 21.8841 16.0813 21.3215 16.6439C20.7589 17.2065 19.9958 17.5226 19.2002 17.5226H18.9014C18.533 19.0082 18.0122 19.8002 17.1554 19.8002C16.4318 19.8002 15.3326 19.0562 13.6274 17.5226H4.80019C4.00455 17.5226 3.24148 17.2065 2.67887 16.6439C2.11626 16.0813 1.80019 15.3182 1.80019 14.5226V7.2002C1.80019 6.40455 2.11626 5.64148 2.67887 5.07888C3.24148 4.51627 4.00455 4.2002 4.80019 4.2002H19.2002C19.9958 4.2002 20.7589 4.51627 21.3215 5.07888C21.8841 5.64148 22.2002 6.40455 22.2002 7.2002V14.5226ZM21.0002 14.5226V7.2002C21.0002 6.72281 20.8106 6.26497 20.473 5.9274C20.1354 5.58984 19.6776 5.4002 19.2002 5.4002H4.80019C4.32281 5.4002 3.86497 5.58984 3.5274 5.9274C3.18984 6.26497 3.00019 6.72281 3.00019 7.2002V14.5226C3.00019 15 3.18984 15.4578 3.5274 15.7954C3.86497 16.133 4.32281 16.3226 4.80019 16.3226H14.0918L14.2634 16.4786C15.7994 17.8778 16.8482 18.6002 17.1554 18.6002C17.2658 18.6002 17.5754 18.0446 17.8358 16.8002L17.9354 16.3226H19.2002C19.6776 16.3226 20.1354 16.133 20.473 15.7954C20.8106 15.4578 21.0002 15 21.0002 14.5226Z" fill="#1E2775"/>
<path id="Vector_2" d="M15.5998 12.0006C14.9371 12.0006 14.3998 11.4633 14.3998 10.8006C14.3998 10.1378 14.9371 9.60059 15.5998 9.60059C16.2625 9.60059 16.7998 10.1378 16.7998 10.8006C16.7998 11.4633 16.2625 12.0006 15.5998 12.0006Z" fill="#1E2775"/>
<path id="Vector_3" d="M12.0002 12.0006C11.3375 12.0006 10.8002 11.4633 10.8002 10.8006C10.8002 10.1378 11.3375 9.60059 12.0002 9.60059C12.6629 9.60059 13.2002 10.1378 13.2002 10.8006C13.2002 11.4633 12.6629 12.0006 12.0002 12.0006Z" fill="#1E2775"/>
<path id="Vector_4" d="M8.40059 12.0006C7.73784 12.0006 7.20059 11.4633 7.20059 10.8006C7.20059 10.1378 7.73784 9.60059 8.40059 9.60059C9.06333 9.60059 9.60059 10.1378 9.60059 10.8006C9.60059 11.4633 9.06333 12.0006 8.40059 12.0006Z" fill="#1E2775"/>
</g>
</g>
</svg>
