<svg width="358" height="358" xmlns="http://www.w3.org/2000/svg">

 <g>
  <title>Layer 1</title>
  <g data-name="Layer 2" id="Layer_2">
   <g data-name="Layer 1" id="Layer_1-2">
    <g id="svg_1">
     <circle id="svg_2" fill="#242b2e" r="161.699" cy="178.941" cx="179.018" class="cls-1"/>
     <g id="svg_3">
      <path id="svg_4" fill="#4f5b5d" d="m188.439,327.043a5.965,5.965 0 0 0 -1.741,-4.466a5.674,5.674 0 0 0 -4.024,-1.552a5.594,5.594 0 0 0 -3.954,1.549a5.716,5.716 0 0 0 -1.8,4.459l0,9.253a5.714,5.714 0 0 0 1.737,4.378q4.142,0.014 8.247,-0.181a6.049,6.049 0 0 0 1.531,-4.207l0.004,-9.233zm-2.9,9.07q-0.085,3.18 -2.867,3.209q-2.8,-0.029 -2.852,-3.209l0,-8.893q0.055,-3.15 2.852,-3.209q2.782,0.057 2.867,3.209l0,8.893z" class="cls-2"/>
      <path id="svg_5" fill="#4f5b5d" d="m172.852,274.514l0,-9.233a5.961,5.961 0 0 0 -1.741,-4.466a5.674,5.674 0 0 0 -4.024,-1.552a5.594,5.594 0 0 0 -3.954,1.549a5.719,5.719 0 0 0 -1.8,4.459l0,9.253a5.764,5.764 0 0 0 5.75,6.022a5.776,5.776 0 0 0 4.024,-1.58a5.944,5.944 0 0 0 1.745,-4.452zm-2.9,-0.163q-0.084,3.18 -2.867,3.209q-2.8,-0.027 -2.852,-3.209l0,-8.892q0.057,-3.151 2.852,-3.209q2.783,0.057 2.867,3.209l0,8.892z" class="cls-2"/>
      <path id="svg_6" fill="#4f5b5d" d="m204.025,274.514l0,-9.233a5.96,5.96 0 0 0 -1.74,-4.466a5.674,5.674 0 0 0 -4.024,-1.552a5.594,5.594 0 0 0 -3.954,1.549a5.716,5.716 0 0 0 -1.8,4.459l0,9.253a5.764,5.764 0 0 0 5.75,6.022a5.776,5.776 0 0 0 4.024,-1.58a5.943,5.943 0 0 0 1.744,-4.452zm-2.9,-0.163q-0.085,3.18 -2.867,3.209q-2.8,-0.027 -2.852,-3.209l0,-8.892q0.055,-3.151 2.852,-3.209q2.783,0.057 2.867,3.209l0,8.892z" class="cls-2"/>
      <polygon id="svg_7" fill="#4f5b5d" points="168.687 125.97 168.687 105.033 165.789 105.033 162.904 107.188 162.904 110.381 165.789 108.199 165.789 125.97 168.687 125.97" class="cls-2"/>
      <path id="svg_8" fill="#4f5b5d" d="m209.894,31.922a5.694,5.694 0 0 0 3.954,1.578a5.78,5.78 0 0 0 4.024,-1.579a5.946,5.946 0 0 0 1.74,-4.453l0,-5.051c-0.961,-0.248 -1.928,-0.484 -2.9,-0.715l0,5.6q-0.084,3.18 -2.866,3.209q-2.8,-0.027 -2.852,-3.209l0,-6.858c-0.963,-0.194 -1.927,-0.384 -2.9,-0.561l0,7.6a5.692,5.692 0 0 0 1.8,4.439z" class="cls-2"/>
      <polygon id="svg_9" fill="#4f5b5d" points="199.861 311.255 199.861 290.317 196.963 290.317 194.078 292.472 194.078 295.666 196.963 293.483 196.963 311.255 199.861 311.255" class="cls-2"/>
      <polygon id="svg_10" fill="#4f5b5d" points="168.687 197.675 165.789 197.675 162.904 199.831 162.904 203.024 165.789 200.841 165.789 218.613 168.687 218.613 168.687 197.675" class="cls-2"/>
      <path id="svg_11" fill="#4f5b5d" d="m161.337,181.882a5.763,5.763 0 0 0 5.75,6.022a5.78,5.78 0 0 0 4.024,-1.579a5.945,5.945 0 0 0 1.741,-4.452l0,-9.234a5.963,5.963 0 0 0 -1.741,-4.466a5.673,5.673 0 0 0 -4.024,-1.551a5.59,5.59 0 0 0 -3.954,1.549a5.719,5.719 0 0 0 -1.8,4.459l0.004,9.252zm2.9,-9.065q0.057,-3.151 2.852,-3.209q2.783,0.057 2.867,3.209l0,8.893q-0.084,3.18 -2.867,3.209q-2.8,-0.029 -2.852,-3.209l0,-8.893z" class="cls-2"/>
      <polygon id="svg_12" fill="#4f5b5d" points="168.687 249.493 168.687 228.555 165.789 228.555 162.904 230.711 162.904 233.904 165.789 231.721 165.789 249.493 168.687 249.493" class="cls-2"/>
      <path id="svg_13" fill="#4f5b5d" d="m161.337,151a5.763,5.763 0 0 0 5.75,6.021a5.776,5.776 0 0 0 4.024,-1.579a5.944,5.944 0 0 0 1.741,-4.452l0,-9.234a5.96,5.96 0 0 0 -1.741,-4.465a5.669,5.669 0 0 0 -4.024,-1.552a5.59,5.59 0 0 0 -3.954,1.549a5.719,5.719 0 0 0 -1.8,4.459l0.004,9.253zm2.9,-9.066q0.057,-3.15 2.852,-3.209q2.783,0.057 2.867,3.209l0,8.893q-0.084,3.18 -2.867,3.209q-2.8,-0.029 -2.852,-3.209l0,-8.893z" class="cls-2"/>
      <path id="svg_14" fill="#4f5b5d" d="m231.035,33.328l0,-7.506q-1.443,-0.489 -2.9,-0.953l0,8.459l2.9,0z" class="cls-2"/>
      <path id="svg_15" fill="#4f5b5d" d="m172.852,58.349l0,-9.233a5.961,5.961 0 0 0 -1.741,-4.466a5.674,5.674 0 0 0 -4.024,-1.552a5.594,5.594 0 0 0 -3.954,1.549a5.719,5.719 0 0 0 -1.8,4.459l0,9.253a5.763,5.763 0 0 0 5.75,6.021a5.771,5.771 0 0 0 4.024,-1.579a5.944,5.944 0 0 0 1.745,-4.452zm-2.9,-0.163q-0.084,3.18 -2.867,3.209q-2.8,-0.027 -2.852,-3.209l0,-8.892q0.057,-3.151 2.852,-3.209q2.783,0.057 2.867,3.209l0,8.892z" class="cls-2"/>
      <polygon id="svg_16" fill="#4f5b5d" points="168.687 74.152 165.789 74.152 162.904 76.307 162.904 79.501 165.789 77.318 165.789 95.089 168.687 95.089 168.687 74.152" class="cls-2"/>
      <polygon id="svg_17" fill="#4f5b5d" points="168.687 311.255 168.687 290.317 165.789 290.317 162.904 292.472 162.904 295.666 165.789 293.483 165.789 311.255 168.687 311.255" class="cls-2"/>
      <path id="svg_18" fill="#4f5b5d" d="m223.685,212.763a5.763,5.763 0 0 0 5.75,6.022a5.78,5.78 0 0 0 4.024,-1.579a5.945,5.945 0 0 0 1.74,-4.452l0,-9.234a5.962,5.962 0 0 0 -1.74,-4.466a5.673,5.673 0 0 0 -4.024,-1.551a5.592,5.592 0 0 0 -3.954,1.548a5.714,5.714 0 0 0 -1.8,4.459l0.004,9.253zm2.9,-9.065q0.056,-3.151 2.852,-3.209q2.782,0.057 2.866,3.209l0,8.892q-0.084,3.182 -2.866,3.209q-2.8,-0.027 -2.852,-3.209l0,-8.892z" class="cls-2"/>
      <polygon id="svg_19" fill="#4f5b5d" points="231.035 259.436 228.137 259.436 225.252 261.591 225.252 264.785 228.137 262.602 228.137 280.374 231.035 280.374 231.035 259.436" class="cls-2"/>
      <polygon id="svg_20" fill="#4f5b5d" points="231.035 311.255 231.035 290.317 228.137 290.317 225.252 292.472 225.252 295.666 228.137 293.483 228.137 311.255 231.035 311.255" class="cls-2"/>
      <path id="svg_21" fill="#4f5b5d" d="m223.685,243.643a5.763,5.763 0 0 0 5.75,6.022a5.78,5.78 0 0 0 4.024,-1.579a5.946,5.946 0 0 0 1.74,-4.453l0,-9.233a5.96,5.96 0 0 0 -1.74,-4.466a5.674,5.674 0 0 0 -4.024,-1.552a5.593,5.593 0 0 0 -3.954,1.549a5.714,5.714 0 0 0 -1.8,4.459l0.004,9.253zm2.9,-9.065q0.056,-3.151 2.852,-3.209q2.782,0.057 2.866,3.209l0,8.892q-0.084,3.18 -2.866,3.209q-2.8,-0.027 -2.852,-3.209l0,-8.892z" class="cls-2"/>
      <polygon id="svg_22" fill="#4f5b5d" points="231.035 135.914 228.137 135.914 225.252 138.069 225.252 141.262 228.137 139.08 228.137 156.851 231.035 156.851 231.035 135.914" class="cls-2"/>
      <path id="svg_23" fill="#4f5b5d" d="m246.622,33.328l0,-1.318c-0.959,-0.441 -1.928,-0.865 -2.9,-1.288l0,2.606l2.9,0z" class="cls-2"/>
      <polygon id="svg_24" fill="#4f5b5d" points="231.035 187.732 231.035 166.795 228.137 166.795 225.252 168.95 225.252 172.143 228.137 169.961 228.137 187.732 231.035 187.732" class="cls-2"/>
      <polygon id="svg_25" fill="#4f5b5d" points="147.317 110.381 150.203 108.199 150.203 125.97 153.101 125.97 153.101 105.033 150.203 105.033 147.317 107.188 147.317 110.381" class="cls-2"/>
      <polygon id="svg_26" fill="#4f5b5d" points="246.622 95.089 246.622 74.152 243.724 74.152 240.838 76.307 240.838 79.501 243.724 77.318 243.724 95.089 246.622 95.089" class="cls-2"/>
      <path id="svg_27" fill="#4f5b5d" d="m250.786,49.116a5.96,5.96 0 0 0 -1.74,-4.466a5.675,5.675 0 0 0 -4.024,-1.552a5.591,5.591 0 0 0 -3.954,1.549a5.712,5.712 0 0 0 -1.8,4.459l0,9.253a5.763,5.763 0 0 0 5.75,6.021a5.773,5.773 0 0 0 4.024,-1.579a5.943,5.943 0 0 0 1.74,-4.452l0.004,-9.233zm-2.9,9.07q-0.084,3.18 -2.866,3.209q-2.8,-0.027 -2.852,-3.209l0,-8.892q0.056,-3.151 2.852,-3.209q2.783,0.057 2.866,3.209l0,8.892z" class="cls-2"/>
      <polygon id="svg_28" fill="#4f5b5d" points="246.622 187.732 246.622 166.795 243.724 166.795 240.838 168.95 240.838 172.143 243.724 169.961 243.724 187.732 246.622 187.732" class="cls-2"/>
      <path id="svg_29" fill="#4f5b5d" d="m250.786,203.52a5.962,5.962 0 0 0 -1.74,-4.466a5.674,5.674 0 0 0 -4.024,-1.551a5.59,5.59 0 0 0 -3.954,1.548a5.714,5.714 0 0 0 -1.8,4.459l0,9.253a5.763,5.763 0 0 0 5.75,6.022a5.782,5.782 0 0 0 4.024,-1.579a5.945,5.945 0 0 0 1.74,-4.452l0.004,-9.234zm-2.9,9.07q-0.084,3.182 -2.866,3.209q-2.8,-0.027 -2.852,-3.209l0,-8.89q0.056,-3.151 2.852,-3.209q2.783,0.057 2.866,3.209l0,8.89z" class="cls-2"/>
      <path id="svg_30" fill="#4f5b5d" d="m250.786,141.758a5.96,5.96 0 0 0 -1.74,-4.465a5.671,5.671 0 0 0 -4.024,-1.552a5.587,5.587 0 0 0 -3.954,1.549a5.712,5.712 0 0 0 -1.8,4.459l0,9.251a5.763,5.763 0 0 0 5.75,6.021a5.777,5.777 0 0 0 4.024,-1.579a5.943,5.943 0 0 0 1.74,-4.452l0.004,-9.232zm-2.9,9.071q-0.084,3.18 -2.866,3.209q-2.8,-0.029 -2.852,-3.209l0,-8.893q0.056,-3.15 2.852,-3.209q2.783,0.057 2.866,3.209l0,8.893z" class="cls-2"/>
      <path id="svg_31" fill="#4f5b5d" d="m204.025,80a5.96,5.96 0 0 0 -1.74,-4.466a5.674,5.674 0 0 0 -4.024,-1.552a5.594,5.594 0 0 0 -3.954,1.549a5.716,5.716 0 0 0 -1.8,4.459l0,9.25a5.763,5.763 0 0 0 5.75,6.021a5.776,5.776 0 0 0 4.024,-1.579a5.943,5.943 0 0 0 1.74,-4.452l0.004,-9.23zm-2.9,9.07q-0.085,3.18 -2.867,3.209q-2.8,-0.028 -2.852,-3.209l0,-8.896q0.055,-3.15 2.852,-3.209q2.783,0.059 2.867,3.209l0,8.896z" class="cls-2"/>
      <path id="svg_32" fill="#4f5b5d" d="m179.183,17.215c-0.231,0 -0.461,0.006 -0.692,0.007l0,0.517l0.692,-0.524z" class="cls-2"/>
      <polygon id="svg_33" fill="#4f5b5d" points="153.101 311.255 153.101 290.317 150.203 290.317 147.317 292.472 147.317 295.666 150.203 293.483 150.203 311.255 153.101 311.255" class="cls-2"/>
      <path id="svg_34" fill="#4f5b5d" d="m181.376,33.328l2.9,0l0,-16.012q-1.451,-0.048 -2.9,-0.069l0,16.081z" class="cls-2"/>
      <path id="svg_35" fill="#4f5b5d" d="m147.547,31.922a5.692,5.692 0 0 0 3.953,1.578a5.782,5.782 0 0 0 4.024,-1.579a5.946,5.946 0 0 0 1.74,-4.453l0,-8.788c-0.968,0.132 -1.934,0.267 -2.9,0.416l0,8.209q-0.084,3.18 -2.866,3.209q-2.8,-0.027 -2.852,-3.209l0,-7.219q-1.453,0.278 -2.9,0.584l0,6.808a5.692,5.692 0 0 0 1.801,4.444z" class="cls-2"/>
      <path id="svg_36" fill="#4f5b5d" d="m199.861,33.328l0,-14.736c-0.967,-0.127 -1.933,-0.236 -2.9,-0.345l0,15.081l2.9,0z" class="cls-2"/>
      <polygon id="svg_37" fill="#4f5b5d" points="199.861 64.209 199.861 43.271 196.963 43.271 194.078 45.426 194.078 48.62 196.963 46.437 196.963 64.209 199.861 64.209" class="cls-2"/>
      <polygon id="svg_38" fill="#4f5b5d" points="184.274 64.209 184.274 43.271 181.376 43.271 178.491 45.426 178.491 48.62 181.376 46.437 181.376 64.209 184.274 64.209" class="cls-2"/>
      <path id="svg_39" fill="#4f5b5d" d="m157.265,141.758a5.96,5.96 0 0 0 -1.74,-4.465a5.671,5.671 0 0 0 -4.024,-1.552a5.587,5.587 0 0 0 -3.954,1.549a5.712,5.712 0 0 0 -1.8,4.459l0,9.251a5.763,5.763 0 0 0 5.75,6.021a5.777,5.777 0 0 0 4.024,-1.579a5.943,5.943 0 0 0 1.74,-4.452l0.004,-9.232zm-2.9,9.071q-0.084,3.18 -2.866,3.209q-2.8,-0.029 -2.852,-3.209l0,-8.893q0.055,-3.15 2.852,-3.209q2.782,0.057 2.866,3.209l0,8.893z" class="cls-2"/>
      <path id="svg_40" fill="#4f5b5d" d="m157.265,172.639a5.962,5.962 0 0 0 -1.74,-4.466a5.674,5.674 0 0 0 -4.024,-1.551a5.587,5.587 0 0 0 -3.954,1.549a5.712,5.712 0 0 0 -1.8,4.459l0,9.252a5.763,5.763 0 0 0 5.75,6.022a5.782,5.782 0 0 0 4.024,-1.579a5.945,5.945 0 0 0 1.74,-4.452l0.004,-9.234zm-2.9,9.071q-0.084,3.18 -2.866,3.209q-2.8,-0.029 -2.852,-3.209l0,-8.893q0.055,-3.151 2.852,-3.209q2.782,0.057 2.866,3.209l0,8.893z" class="cls-2"/>
      <polygon id="svg_41" fill="#4f5b5d" points="153.101 95.089 153.101 74.152 150.203 74.152 147.317 76.307 147.317 79.501 150.203 77.318 150.203 95.089 153.101 95.089" class="cls-2"/>
      <path id="svg_42" fill="#4f5b5d" d="m157.265,243.633l0,-9.233a5.96,5.96 0 0 0 -1.74,-4.466a5.675,5.675 0 0 0 -4.024,-1.552a5.591,5.591 0 0 0 -3.954,1.549a5.714,5.714 0 0 0 -1.8,4.459l0,9.253a5.763,5.763 0 0 0 5.75,6.022a5.782,5.782 0 0 0 4.024,-1.579a5.946,5.946 0 0 0 1.744,-4.453zm-2.9,-0.163q-0.084,3.18 -2.866,3.209q-2.8,-0.027 -2.852,-3.209l0,-8.892q0.055,-3.151 2.852,-3.209q2.782,0.057 2.866,3.209l0,8.892z" class="cls-2"/>
      <polygon id="svg_43" fill="#4f5b5d" points="153.101 259.436 150.203 259.436 147.317 261.591 147.317 264.785 150.203 262.602 150.203 280.374 153.101 280.374 153.101 259.436" class="cls-2"/>
      <path id="svg_44" fill="#4f5b5d" d="m223.685,120.121a5.763,5.763 0 0 0 5.75,6.021a5.776,5.776 0 0 0 4.024,-1.579a5.943,5.943 0 0 0 1.74,-4.452l0,-9.233a5.96,5.96 0 0 0 -1.74,-4.466a5.674,5.674 0 0 0 -4.024,-1.552a5.593,5.593 0 0 0 -3.954,1.549a5.712,5.712 0 0 0 -1.8,4.459l0.004,9.253zm2.9,-9.066q0.056,-3.15 2.852,-3.209q2.782,0.057 2.866,3.209l0,8.893q-0.084,3.18 -2.866,3.209q-2.8,-0.028 -2.852,-3.209l0,-8.893z" class="cls-2"/>
      <path id="svg_45" fill="#4f5b5d" d="m157.265,203.52a5.962,5.962 0 0 0 -1.74,-4.466a5.674,5.674 0 0 0 -4.025,-1.554a5.59,5.59 0 0 0 -3.954,1.548a5.714,5.714 0 0 0 -1.8,4.459l0,9.253a5.763,5.763 0 0 0 5.75,6.022a5.782,5.782 0 0 0 4.024,-1.579a5.945,5.945 0 0 0 1.74,-4.452l0.005,-9.231zm-2.9,9.07q-0.084,3.182 -2.866,3.209q-2.8,-0.027 -2.852,-3.209l0,-8.89q0.055,-3.151 2.852,-3.209q2.782,0.057 2.866,3.209l0,8.89z" class="cls-2"/>
      <path id="svg_46" fill="#4f5b5d" d="m176.924,151a5.763,5.763 0 0 0 5.75,6.021a5.776,5.776 0 0 0 4.024,-1.579a5.948,5.948 0 0 0 1.741,-4.452l0,-9.234a5.964,5.964 0 0 0 -1.741,-4.465a5.669,5.669 0 0 0 -4.024,-1.552a5.59,5.59 0 0 0 -3.954,1.549a5.716,5.716 0 0 0 -1.8,4.459l0.004,9.253zm2.9,-9.066q0.055,-3.15 2.852,-3.209q2.782,0.057 2.867,3.209l0,8.893q-0.085,3.18 -2.867,3.209q-2.8,-0.029 -2.852,-3.209l0,-8.893z" class="cls-2"/>
      <polygon id="svg_47" fill="#4f5b5d" points="184.274 187.732 184.274 166.795 181.376 166.795 178.491 168.95 178.491 172.143 181.376 169.961 181.376 187.732 184.274 187.732" class="cls-2"/>
      <polygon id="svg_48" fill="#4f5b5d" points="184.274 280.374 184.274 259.436 181.376 259.436 178.491 261.591 178.491 264.785 181.376 262.602 181.376 280.374 184.274 280.374" class="cls-2"/>
      <path id="svg_49" fill="#4f5b5d" d="m176.924,212.763a5.763,5.763 0 0 0 5.75,6.022a5.78,5.78 0 0 0 4.024,-1.579a5.949,5.949 0 0 0 1.741,-4.452l0,-9.234a5.966,5.966 0 0 0 -1.741,-4.466a5.673,5.673 0 0 0 -4.024,-1.551a5.593,5.593 0 0 0 -3.954,1.548a5.717,5.717 0 0 0 -1.8,4.459l0.004,9.253zm2.9,-9.065q0.055,-3.151 2.852,-3.209q2.782,0.057 2.867,3.209l0,8.892q-0.085,3.182 -2.867,3.209q-2.8,-0.027 -2.852,-3.209l0,-8.892z" class="cls-2"/>
      <path id="svg_50" fill="#4f5b5d" d="m176.924,89.24a5.763,5.763 0 0 0 5.75,6.021a5.776,5.776 0 0 0 4.024,-1.579a5.948,5.948 0 0 0 1.741,-4.452l0,-9.23a5.965,5.965 0 0 0 -1.741,-4.466a5.674,5.674 0 0 0 -4.024,-1.552a5.594,5.594 0 0 0 -3.954,1.549a5.716,5.716 0 0 0 -1.8,4.459l0.004,9.25zm2.9,-9.066q0.055,-3.15 2.852,-3.209q2.782,0.059 2.867,3.209l0,8.893q-0.085,3.18 -2.867,3.209q-2.8,-0.028 -2.852,-3.209l0,-8.893z" class="cls-2"/>
      <polygon id="svg_51" fill="#4f5b5d" points="184.274 125.97 184.274 105.033 181.376 105.033 178.491 107.188 178.491 110.381 181.376 108.199 181.376 125.97 184.274 125.97" class="cls-2"/>
      <polygon id="svg_52" fill="#4f5b5d" points="184.274 228.555 181.376 228.555 178.491 230.711 178.491 233.904 181.376 231.721 181.376 249.493 184.274 249.493 184.274 228.555" class="cls-2"/>
      <path id="svg_53" fill="#4f5b5d" d="m204.025,110.878a5.96,5.96 0 0 0 -1.74,-4.466a5.674,5.674 0 0 0 -4.024,-1.552a5.594,5.594 0 0 0 -3.954,1.549a5.716,5.716 0 0 0 -1.8,4.459l0,9.253a5.763,5.763 0 0 0 5.75,6.021a5.776,5.776 0 0 0 4.024,-1.579a5.943,5.943 0 0 0 1.74,-4.452l0.004,-9.233zm-2.9,9.07q-0.085,3.18 -2.867,3.209q-2.8,-0.028 -2.852,-3.209l0,-8.893q0.055,-3.15 2.852,-3.209q2.783,0.057 2.867,3.209l0,8.893z" class="cls-2"/>
      <polygon id="svg_54" fill="#4f5b5d" points="194.078 203.024 196.963 200.841 196.963 218.613 199.861 218.613 199.861 197.675 196.963 197.675 194.078 199.831 194.078 203.024" class="cls-2"/>
      <polygon id="svg_55" fill="#4f5b5d" points="194.078 233.904 196.963 231.721 196.963 249.493 199.861 249.493 199.861 228.555 196.963 228.555 194.078 230.711 194.078 233.904" class="cls-2"/>
      <polygon id="svg_56" fill="#4f5b5d" points="194.078 172.143 196.963 169.961 196.963 187.732 199.861 187.732 199.861 166.795 196.963 166.795 194.078 168.95 194.078 172.143" class="cls-2"/>
      <path id="svg_57" fill="#4f5b5d" d="m176.924,305.4a5.763,5.763 0 0 0 5.75,6.021a5.776,5.776 0 0 0 4.024,-1.579a5.948,5.948 0 0 0 1.741,-4.452l0,-9.233a5.965,5.965 0 0 0 -1.739,-4.457a5.674,5.674 0 0 0 -4.024,-1.552a5.594,5.594 0 0 0 -3.954,1.549a5.716,5.716 0 0 0 -1.8,4.459l0.002,9.244zm2.9,-9.066q0.055,-3.15 2.852,-3.209q2.782,0.058 2.867,3.209l0,8.893q-0.085,3.18 -2.867,3.209q-2.8,-0.028 -2.852,-3.209l0,-8.893z" class="cls-2"/>
      <polygon id="svg_58" fill="#4f5b5d" points="199.861 156.851 199.861 135.914 196.963 135.914 194.078 138.069 194.078 141.262 196.963 139.08 196.963 156.851 199.861 156.851" class="cls-2"/>
      <polygon id="svg_59" fill="#4f5b5d" points="240.838 110.381 243.724 108.199 243.724 125.97 246.622 125.97 246.622 105.033 243.724 105.033 240.838 107.188 240.838 110.381" class="cls-2"/>
      <path id="svg_60" fill="#4f5b5d" d="m286.032,243.643a5.763,5.763 0 0 0 5.75,6.022a5.78,5.78 0 0 0 4.024,-1.579a5.946,5.946 0 0 0 1.74,-4.453l0,-9.233a5.96,5.96 0 0 0 -1.74,-4.466a5.674,5.674 0 0 0 -4.024,-1.552a5.594,5.594 0 0 0 -3.954,1.549a5.714,5.714 0 0 0 -1.8,4.459l0.004,9.253zm2.9,-9.065q0.055,-3.151 2.852,-3.209q2.783,0.057 2.867,3.209l0,8.892q-0.086,3.18 -2.867,3.209q-2.8,-0.027 -2.852,-3.209l0,-8.892z" class="cls-2"/>
      <polygon id="svg_61" fill="#4f5b5d" points="293.382 218.613 293.382 197.675 290.484 197.675 287.599 199.831 287.599 203.024 290.484 200.841 290.484 218.613 293.382 218.613" class="cls-2"/>
      <path id="svg_62" fill="#4f5b5d" d="m291.782,95.261a5.776,5.776 0 0 0 4.024,-1.579a5.943,5.943 0 0 0 1.74,-4.452l0,-9.23a5.96,5.96 0 0 0 -1.74,-4.466a5.674,5.674 0 0 0 -4.024,-1.552a5.594,5.594 0 0 0 -3.954,1.549a5.712,5.712 0 0 0 -1.8,4.459l0,9.25a5.763,5.763 0 0 0 5.75,6.021l0.004,0zm-2.852,-15.087q0.055,-3.15 2.852,-3.209q2.783,0.059 2.867,3.209l0,8.893q-0.086,3.18 -2.867,3.209q-2.8,-0.028 -2.852,-3.209l0,-8.893z" class="cls-2"/>
      <path id="svg_63" fill="#4f5b5d" d="m313.133,110.878a5.96,5.96 0 0 0 -1.74,-4.466a5.674,5.674 0 0 0 -4.024,-1.552a5.593,5.593 0 0 0 -3.954,1.549a5.712,5.712 0 0 0 -1.8,4.459l0,9.253a5.763,5.763 0 0 0 5.75,6.021a5.776,5.776 0 0 0 4.024,-1.579a5.943,5.943 0 0 0 1.74,-4.452l0.004,-9.233zm-2.9,9.07q-0.084,3.18 -2.866,3.209q-2.8,-0.028 -2.852,-3.209l0,-8.893q0.055,-3.15 2.852,-3.209q2.782,0.057 2.866,3.209l0,8.893z" class="cls-2"/>
      <path id="svg_64" fill="#4f5b5d" d="m286.032,181.882a5.763,5.763 0 0 0 5.75,6.022a5.78,5.78 0 0 0 4.024,-1.579a5.945,5.945 0 0 0 1.74,-4.452l0,-9.234a5.962,5.962 0 0 0 -1.74,-4.466a5.673,5.673 0 0 0 -4.024,-1.551a5.59,5.59 0 0 0 -3.954,1.549a5.712,5.712 0 0 0 -1.8,4.459l0.004,9.252zm2.9,-9.065q0.055,-3.151 2.852,-3.209q2.783,0.057 2.867,3.209l0,8.893q-0.086,3.18 -2.867,3.209q-2.8,-0.029 -2.852,-3.209l0,-8.893z" class="cls-2"/>
      <path id="svg_65" fill="#4f5b5d" d="m286.032,151a5.763,5.763 0 0 0 5.75,6.021a5.776,5.776 0 0 0 4.024,-1.579a5.943,5.943 0 0 0 1.74,-4.452l0,-9.234a5.96,5.96 0 0 0 -1.74,-4.465a5.669,5.669 0 0 0 -4.024,-1.552a5.59,5.59 0 0 0 -3.954,1.549a5.712,5.712 0 0 0 -1.8,4.459l0.004,9.253zm2.9,-9.066q0.055,-3.15 2.852,-3.209q2.783,0.057 2.867,3.209l0,8.893q-0.086,3.18 -2.867,3.209q-2.8,-0.029 -2.852,-3.209l0,-8.893z" class="cls-2"/>
      <path id="svg_66" fill="#4f5b5d" d="m286.032,274.524a5.764,5.764 0 0 0 5.75,6.022a5.776,5.776 0 0 0 4.024,-1.58a5.943,5.943 0 0 0 1.74,-4.452l0,-9.233a5.96,5.96 0 0 0 -1.74,-4.466a5.674,5.674 0 0 0 -4.024,-1.552a5.594,5.594 0 0 0 -3.954,1.549a5.712,5.712 0 0 0 -1.8,4.459l0.004,9.253zm2.9,-9.065q0.055,-3.151 2.852,-3.209q2.783,0.057 2.867,3.209l0,8.892q-0.086,3.18 -2.867,3.209q-2.8,-0.027 -2.852,-3.209l0,-8.892z" class="cls-2"/>
      <path id="svg_67" fill="#4f5b5d" d="m292.966,64.209q-1.229,-1.221 -2.482,-2.417l0,2.417l2.482,0z" class="cls-2"/>
      <path id="svg_68" fill="#4f5b5d" d="m281.96,141.758a5.964,5.964 0 0 0 -1.741,-4.465a5.669,5.669 0 0 0 -4.024,-1.552a5.59,5.59 0 0 0 -3.954,1.549a5.716,5.716 0 0 0 -1.8,4.459l0,9.251a5.763,5.763 0 0 0 5.75,6.021a5.776,5.776 0 0 0 4.024,-1.579a5.948,5.948 0 0 0 1.741,-4.452l0.004,-9.232zm-2.9,9.071q-0.086,3.18 -2.867,3.209q-2.8,-0.029 -2.852,-3.209l0,-8.893q0.055,-3.15 2.852,-3.209q2.783,0.057 2.867,3.209l0,8.893z" class="cls-2"/>
      <path id="svg_69" fill="#4f5b5d" d="m281.96,212.754l0,-9.234a5.966,5.966 0 0 0 -1.741,-4.466a5.673,5.673 0 0 0 -4.019,-1.554a5.593,5.593 0 0 0 -3.954,1.548a5.717,5.717 0 0 0 -1.8,4.459l0,9.253a5.763,5.763 0 0 0 5.75,6.022a5.78,5.78 0 0 0 4.024,-1.579a5.949,5.949 0 0 0 1.74,-4.449zm-2.9,-0.164q-0.086,3.182 -2.867,3.209q-2.8,-0.027 -2.852,-3.209l0,-8.89q0.055,-3.151 2.852,-3.209q2.783,0.057 2.867,3.209l0,8.89z" class="cls-2"/>
      <path id="svg_70" fill="#4f5b5d" d="m281.96,110.878a5.965,5.965 0 0 0 -1.741,-4.466a5.674,5.674 0 0 0 -4.024,-1.552a5.594,5.594 0 0 0 -3.954,1.549a5.716,5.716 0 0 0 -1.8,4.459l0,9.253a5.763,5.763 0 0 0 5.75,6.021a5.776,5.776 0 0 0 4.024,-1.579a5.948,5.948 0 0 0 1.741,-4.452l0.004,-9.233zm-2.9,9.07q-0.086,3.18 -2.867,3.209q-2.8,-0.028 -2.852,-3.209l0,-8.893q0.055,-3.15 2.852,-3.209q2.783,0.057 2.867,3.209l0,8.893z" class="cls-2"/>
      <polygon id="svg_71" fill="#4f5b5d" points="277.795 280.374 277.795 259.436 274.897 259.436 272.012 261.591 272.012 264.785 274.897 262.602 274.897 280.374 277.795 280.374" class="cls-2"/>
      <polygon id="svg_72" fill="#4f5b5d" points="277.795 228.555 274.897 228.555 272.012 230.711 272.012 233.904 274.897 231.721 274.897 249.493 277.795 249.493 277.795 228.555" class="cls-2"/>
      <path id="svg_73" fill="#4f5b5d" d="m281.96,172.639a5.966,5.966 0 0 0 -1.741,-4.466a5.673,5.673 0 0 0 -4.024,-1.551a5.59,5.59 0 0 0 -3.954,1.549a5.716,5.716 0 0 0 -1.8,4.459l0,9.252a5.763,5.763 0 0 0 5.75,6.022a5.78,5.78 0 0 0 4.024,-1.579a5.949,5.949 0 0 0 1.741,-4.452l0.004,-9.234zm-2.9,9.071q-0.086,3.18 -2.867,3.209q-2.8,-0.029 -2.852,-3.209l0,-8.893q0.055,-3.151 2.852,-3.209q2.783,0.057 2.867,3.209l0,8.893z" class="cls-2"/>
      <polygon id="svg_74" fill="#4f5b5d" points="340.143 187.732 340.143 166.795 337.245 166.795 334.359 168.95 334.359 172.143 337.245 169.961 337.245 187.732 340.143 187.732" class="cls-2"/>
      <path id="svg_75" fill="#4f5b5d" d="m332.793,141.749l0,9.251a5.763,5.763 0 0 0 5.75,6.021a6.69,6.69 0 0 0 0.7,-0.067c-0.135,-0.983 -0.276,-1.964 -0.429,-2.942c-0.092,0.007 -0.177,0.023 -0.275,0.024q-2.8,-0.029 -2.852,-3.209l0,-8.893a4.343,4.343 0 0 1 0.35,-1.743q-0.417,-1.685 -0.872,-3.356a5.856,5.856 0 0 0 -0.58,0.453a5.712,5.712 0 0 0 -1.792,4.461z" class="cls-2"/>
      <path id="svg_76" fill="#4f5b5d" d="m286.032,120.121a5.763,5.763 0 0 0 5.75,6.021a5.776,5.776 0 0 0 4.024,-1.579a5.943,5.943 0 0 0 1.74,-4.452l0,-9.233a5.96,5.96 0 0 0 -1.74,-4.466a5.674,5.674 0 0 0 -4.024,-1.552a5.594,5.594 0 0 0 -3.954,1.549a5.712,5.712 0 0 0 -1.8,4.459l0.004,9.253zm2.9,-9.066q0.055,-3.15 2.852,-3.209q2.783,0.057 2.867,3.209l0,8.893q-0.086,3.18 -2.867,3.209q-2.8,-0.028 -2.852,-3.209l0,-8.893z" class="cls-2"/>
      <polygon id="svg_77" fill="#4f5b5d" points="324.556 156.851 324.556 135.914 321.658 135.914 318.773 138.069 318.773 141.262 321.658 139.08 321.658 156.851 324.556 156.851" class="cls-2"/>
      <path id="svg_78" fill="#4f5b5d" d="m161.337,27.478a5.764,5.764 0 0 0 5.75,6.022a5.78,5.78 0 0 0 4.024,-1.579a5.946,5.946 0 0 0 1.741,-4.453l0,-9.233a8.635,8.635 0 0 0 -0.085,-0.894q-1.464,0.055 -2.922,0.135a5.491,5.491 0 0 1 0.109,0.937l0,8.892q-0.084,3.18 -2.867,3.209q-2.8,-0.027 -2.852,-3.209l0,-8.892c0,-0.188 0.023,-0.357 0.041,-0.528q-1.47,0.133 -2.935,0.3c0,0.016 0,0.029 0,0.044l-0.004,9.249z" class="cls-2"/>
      <path id="svg_79" fill="#4f5b5d" d="m83.4,58.359a5.763,5.763 0 0 0 5.75,6.021a5.771,5.771 0 0 0 4.027,-1.58a5.948,5.948 0 0 0 1.741,-4.452l0,-9.232a5.965,5.965 0 0 0 -1.741,-4.466a5.567,5.567 0 0 0 -2.268,-1.284q-3.8,2.468 -7.452,5.137c-0.016,0.2 -0.052,0.39 -0.054,0.6l-0.003,9.256zm2.9,-9.065q0.055,-3.151 2.852,-3.209q2.782,0.057 2.867,3.209l0,8.892q-0.086,3.18 -2.867,3.209q-2.8,-0.027 -2.852,-3.209l0,-8.892z" class="cls-2"/>
      <path id="svg_80" fill="#4f5b5d" d="m328.72,172.639a5.962,5.962 0 0 0 -1.74,-4.466a5.673,5.673 0 0 0 -4.024,-1.551a5.588,5.588 0 0 0 -3.956,1.549a5.712,5.712 0 0 0 -1.8,4.459l0,9.252a5.763,5.763 0 0 0 5.75,6.022a5.78,5.78 0 0 0 4.024,-1.579a5.945,5.945 0 0 0 1.74,-4.452l0.006,-9.234zm-2.9,9.071q-0.084,3.18 -2.866,3.209q-2.8,-0.029 -2.852,-3.209l0,-8.893q0.056,-3.151 2.852,-3.209q2.782,0.057 2.866,3.209l0,8.893z" class="cls-2"/>
      <polygon id="svg_81" fill="#4f5b5d" points="308.969 166.795 306.071 166.795 303.186 168.95 303.186 172.143 306.071 169.961 306.071 187.732 308.969 187.732 308.969 166.795" class="cls-2"/>
      <polygon id="svg_82" fill="#4f5b5d" points="308.969 197.675 306.071 197.675 303.186 199.831 303.186 203.024 306.071 200.841 306.071 218.613 308.969 218.613 308.969 197.675" class="cls-2"/>
      <path id="svg_83" fill="#4f5b5d" d="m313.133,150.992l0,-9.234a5.96,5.96 0 0 0 -1.74,-4.465a5.669,5.669 0 0 0 -4.024,-1.552a5.588,5.588 0 0 0 -3.954,1.549a5.712,5.712 0 0 0 -1.8,4.459l0,9.251a5.763,5.763 0 0 0 5.75,6.021a5.776,5.776 0 0 0 4.024,-1.579a5.943,5.943 0 0 0 1.744,-4.45zm-2.9,-0.163q-0.084,3.18 -2.866,3.209q-2.8,-0.029 -2.852,-3.209l0,-8.893q0.055,-3.15 2.852,-3.209q2.782,0.057 2.866,3.209l0,8.893z" class="cls-2"/>
      <path id="svg_84" fill="#4f5b5d" d="m318.773,107.188l0,3.193l2.885,-2.182l0,17.771l2.9,0l0,-17.492q-0.841,-1.734 -1.722,-3.445l-1.176,0l-2.887,2.155z" class="cls-2"/>
      <path id="svg_85" fill="#4f5b5d" d="m301.619,89.24a5.763,5.763 0 0 0 5.75,6.021a5.776,5.776 0 0 0 4.024,-1.579a5.943,5.943 0 0 0 1.74,-4.452l0,-0.6q-1.416,-2.1 -2.9,-4.165l0,4.6q-0.084,3.18 -2.866,3.209q-2.8,-0.028 -2.852,-3.209l0,-8.891a3.627,3.627 0 0 1 0.7,-2.321c-0.61,-0.762 -1.232,-1.516 -1.856,-2.267a5.731,5.731 0 0 0 -1.744,4.4l0.004,9.254z" class="cls-2"/>
      <polygon id="svg_86" fill="#4f5b5d" points="308.969 249.493 308.969 228.555 306.071 228.555 303.186 230.711 303.186 233.904 306.071 231.721 306.071 249.493 308.969 249.493" class="cls-2"/>
      <path id="svg_87" fill="#4f5b5d" d="m260.608,290.144a5.594,5.594 0 0 0 -3.954,1.549a5.719,5.719 0 0 0 -1.8,4.459l0,9.248a5.763,5.763 0 0 0 5.75,6.021a5.776,5.776 0 0 0 4.024,-1.579a5.944,5.944 0 0 0 1.741,-4.452l0,-9.233a5.961,5.961 0 0 0 -1.741,-4.466a5.674,5.674 0 0 0 -4.02,-1.547zm2.867,15.088q-0.084,3.18 -2.867,3.209q-2.8,-0.028 -2.852,-3.209l0,-8.893q0.057,-3.15 2.852,-3.209q2.783,0.058 2.867,3.209l0,8.893z" class="cls-2"/>
      <polygon id="svg_88" fill="#4f5b5d" points="246.622 259.436 243.724 259.436 240.838 261.591 240.838 264.785 243.724 262.602 243.724 280.374 246.622 280.374 246.622 259.436" class="cls-2"/>
      <path id="svg_89" fill="#4f5b5d" d="m213.848,64.38a5.771,5.771 0 0 0 4.024,-1.579a5.943,5.943 0 0 0 1.74,-4.452l0,-9.233a5.96,5.96 0 0 0 -1.74,-4.466a5.674,5.674 0 0 0 -4.024,-1.552a5.593,5.593 0 0 0 -3.954,1.549a5.712,5.712 0 0 0 -1.8,4.459l0,9.253a5.763,5.763 0 0 0 5.75,6.021l0.004,0zm-2.848,-15.086q0.055,-3.151 2.852,-3.209q2.782,0.057 2.866,3.209l0,8.892q-0.084,3.18 -2.866,3.209q-2.8,-0.027 -2.852,-3.209l0,-8.892z" class="cls-2"/>
      <path id="svg_90" fill="#4f5b5d" d="m219.612,274.514l0,-9.233a5.96,5.96 0 0 0 -1.74,-4.466a5.674,5.674 0 0 0 -4.024,-1.552a5.593,5.593 0 0 0 -3.954,1.549a5.712,5.712 0 0 0 -1.8,4.459l0,9.253a5.764,5.764 0 0 0 5.75,6.022a5.776,5.776 0 0 0 4.024,-1.58a5.943,5.943 0 0 0 1.744,-4.452zm-2.9,-0.163q-0.084,3.18 -2.866,3.209q-2.8,-0.027 -2.852,-3.209l0,-8.892q0.055,-3.151 2.852,-3.209q2.782,0.057 2.866,3.209l0,8.892z" class="cls-2"/>
      <path id="svg_91" fill="#4f5b5d" d="m208.1,120.121a5.763,5.763 0 0 0 5.75,6.021a5.776,5.776 0 0 0 4.024,-1.579a5.943,5.943 0 0 0 1.74,-4.452l0,-9.233a5.96,5.96 0 0 0 -1.74,-4.466a5.674,5.674 0 0 0 -4.024,-1.552a5.593,5.593 0 0 0 -3.954,1.549a5.712,5.712 0 0 0 -1.8,4.459l0.004,9.253zm2.9,-9.066q0.055,-3.15 2.852,-3.209q2.782,0.057 2.866,3.209l0,8.893q-0.084,3.18 -2.866,3.209q-2.8,-0.028 -2.852,-3.209l0,-8.893z" class="cls-2"/>
      <polygon id="svg_92" fill="#4f5b5d" points="215.448 311.255 215.448 290.317 212.55 290.317 209.665 292.472 209.665 295.666 212.55 293.483 212.55 311.255 215.448 311.255" class="cls-2"/>
      <path id="svg_93" fill="#4f5b5d" d="m250.786,243.633l0,-9.233a5.96,5.96 0 0 0 -1.74,-4.466a5.675,5.675 0 0 0 -4.024,-1.552a5.591,5.591 0 0 0 -3.954,1.549a5.714,5.714 0 0 0 -1.8,4.459l0,9.253a5.763,5.763 0 0 0 5.75,6.022a5.782,5.782 0 0 0 4.024,-1.579a5.946,5.946 0 0 0 1.744,-4.453zm-2.9,-0.163q-0.084,3.18 -2.866,3.209q-2.8,-0.027 -2.852,-3.209l0,-8.892q0.056,-3.151 2.852,-3.209q2.783,0.057 2.866,3.209l0,8.892z" class="cls-2"/>
      <path id="svg_94" fill="#4f5b5d" d="m208.1,89.24a5.763,5.763 0 0 0 5.75,6.021a5.776,5.776 0 0 0 4.024,-1.579a5.943,5.943 0 0 0 1.74,-4.452l0,-9.23a5.96,5.96 0 0 0 -1.74,-4.466a5.674,5.674 0 0 0 -4.024,-1.552a5.593,5.593 0 0 0 -3.954,1.549a5.712,5.712 0 0 0 -1.8,4.459l0.004,9.25zm2.9,-9.066q0.055,-3.15 2.852,-3.209q2.782,0.059 2.866,3.209l0,8.893q-0.084,3.18 -2.866,3.209q-2.8,-0.028 -2.852,-3.209l0,-8.893z" class="cls-2"/>
      <polygon id="svg_95" fill="#4f5b5d" points="215.448 249.493 215.448 228.555 212.55 228.555 209.665 230.711 209.665 233.904 212.55 231.721 212.55 249.493 215.448 249.493" class="cls-2"/>
      <path id="svg_96" fill="#4f5b5d" d="m233.459,322.577a5.674,5.674 0 0 0 -4.024,-1.552a5.593,5.593 0 0 0 -3.954,1.549a5.712,5.712 0 0 0 -1.8,4.459l0,7.341c0.969,-0.28 1.936,-0.564 2.9,-0.86l0,-6.294q0.056,-3.15 2.852,-3.209q2.782,0.057 2.866,3.209l0,4.409q1.457,-0.51 2.9,-1.048l0,-3.538a5.96,5.96 0 0 0 -1.74,-4.466z" class="cls-2"/>
      <polygon id="svg_97" fill="#4f5b5d" points="231.035 64.209 231.035 43.271 228.137 43.271 225.252 45.426 225.252 48.62 228.137 46.437 228.137 64.209 231.035 64.209" class="cls-2"/>
      <path id="svg_98" fill="#4f5b5d" d="m208.1,181.882a5.763,5.763 0 0 0 5.75,6.022a5.78,5.78 0 0 0 4.024,-1.579a5.945,5.945 0 0 0 1.74,-4.452l0,-9.234a5.962,5.962 0 0 0 -1.74,-4.466a5.673,5.673 0 0 0 -4.024,-1.551a5.588,5.588 0 0 0 -3.954,1.549a5.712,5.712 0 0 0 -1.8,4.459l0.004,9.252zm2.9,-9.065q0.055,-3.151 2.852,-3.209q2.782,0.057 2.866,3.209l0,8.893q-0.084,3.18 -2.866,3.209q-2.8,-0.029 -2.852,-3.209l0,-8.893z" class="cls-2"/>
      <path id="svg_99" fill="#4f5b5d" d="m208.1,212.763a5.763,5.763 0 0 0 5.75,6.022a5.78,5.78 0 0 0 4.024,-1.579a5.945,5.945 0 0 0 1.74,-4.452l0,-9.234a5.962,5.962 0 0 0 -1.74,-4.466a5.673,5.673 0 0 0 -4.024,-1.551a5.592,5.592 0 0 0 -3.954,1.548a5.714,5.714 0 0 0 -1.8,4.459l0.004,9.253zm2.9,-9.063q0.055,-3.151 2.852,-3.209q2.782,0.057 2.866,3.209l0,8.892q-0.084,3.182 -2.866,3.209q-2.8,-0.027 -2.852,-3.209l0,-8.892z" class="cls-2"/>
      <path id="svg_100" fill="#4f5b5d" d="m208.1,151a5.763,5.763 0 0 0 5.75,6.021a5.776,5.776 0 0 0 4.024,-1.579a5.943,5.943 0 0 0 1.74,-4.452l0,-9.234a5.96,5.96 0 0 0 -1.74,-4.465a5.669,5.669 0 0 0 -4.024,-1.552a5.588,5.588 0 0 0 -3.954,1.549a5.712,5.712 0 0 0 -1.8,4.459l0.004,9.253zm2.9,-9.066q0.055,-3.15 2.852,-3.209q2.782,0.057 2.866,3.209l0,8.893q-0.084,3.18 -2.866,3.209q-2.8,-0.029 -2.852,-3.209l0,-8.893z" class="cls-2"/>
      <polygon id="svg_101" fill="#4f5b5d" points="225.252 79.501 228.137 77.318 228.137 95.089 231.035 95.089 231.035 74.152 228.137 74.152 225.252 76.307 225.252 79.501" class="cls-2"/>
      <polygon id="svg_102" fill="#4f5b5d" points="246.622 311.255 246.622 290.317 243.724 290.317 240.838 292.472 240.838 295.666 243.724 293.483 243.724 311.255 246.622 311.255" class="cls-2"/>
      <path id="svg_103" fill="#4f5b5d" d="m266.373,265.281a5.961,5.961 0 0 0 -1.741,-4.466a5.674,5.674 0 0 0 -4.024,-1.552a5.594,5.594 0 0 0 -3.954,1.549a5.719,5.719 0 0 0 -1.8,4.459l0,9.253a5.764,5.764 0 0 0 5.75,6.022a5.776,5.776 0 0 0 4.024,-1.58a5.944,5.944 0 0 0 1.741,-4.452l0.004,-9.233zm-2.9,9.07q-0.084,3.18 -2.867,3.209q-2.8,-0.027 -2.852,-3.209l0,-8.892q0.057,-3.151 2.852,-3.209q2.783,0.057 2.867,3.209l0,8.892z" class="cls-2"/>
      <polygon id="svg_104" fill="#4f5b5d" points="262.208 218.613 262.208 197.675 259.31 197.675 256.425 199.831 256.425 203.024 259.31 200.841 259.31 218.613 262.208 218.613" class="cls-2"/>
      <polygon id="svg_105" fill="#4f5b5d" points="256.425 233.904 259.31 231.721 259.31 249.493 262.208 249.493 262.208 228.555 259.31 228.555 256.425 230.711 256.425 233.904" class="cls-2"/>
      <path id="svg_106" fill="#4f5b5d" d="m273.374,47.589c-0.451,-0.325 -0.907,-0.643 -1.362,-0.964l0,1.995l1.362,-1.031z" class="cls-2"/>
      <path id="svg_107" fill="#4f5b5d" d="m274.9,64.209l2.9,0l0,-13.321q-1.435,-1.108 -2.9,-2.185l0,15.506z" class="cls-2"/>
      <polygon id="svg_108" fill="#4f5b5d" points="277.795 95.089 277.795 74.152 274.897 74.152 272.012 76.307 272.012 79.501 274.897 77.318 274.897 95.089 277.795 95.089" class="cls-2"/>
      <path id="svg_109" fill="#4f5b5d" d="m266.373,49.116a5.961,5.961 0 0 0 -1.741,-4.466a5.674,5.674 0 0 0 -4.024,-1.552a5.594,5.594 0 0 0 -3.954,1.549a5.719,5.719 0 0 0 -1.8,4.459l0,9.253a5.763,5.763 0 0 0 5.75,6.021a5.771,5.771 0 0 0 4.024,-1.579a5.944,5.944 0 0 0 1.741,-4.452l0.004,-9.233zm-2.9,9.07q-0.084,3.18 -2.867,3.209q-2.8,-0.027 -2.852,-3.209l0,-8.892q0.057,-3.151 2.852,-3.209q2.783,0.057 2.867,3.209l0,8.892z" class="cls-2"/>
      <path id="svg_110" fill="#4f5b5d" d="m266.373,172.639a5.963,5.963 0 0 0 -1.741,-4.466a5.673,5.673 0 0 0 -4.024,-1.551a5.59,5.59 0 0 0 -3.954,1.549a5.719,5.719 0 0 0 -1.8,4.459l0,9.252a5.763,5.763 0 0 0 5.75,6.022a5.78,5.78 0 0 0 4.024,-1.579a5.945,5.945 0 0 0 1.741,-4.452l0.004,-9.234zm-2.9,9.071q-0.084,3.18 -2.867,3.209q-2.8,-0.029 -2.852,-3.209l0,-8.893q0.057,-3.151 2.852,-3.209q2.783,0.057 2.867,3.209l0,8.893z" class="cls-2"/>
      <polygon id="svg_111" fill="#4f5b5d" points="262.208 95.089 262.208 74.152 259.31 74.152 256.425 76.307 256.425 79.501 259.31 77.318 259.31 95.089 262.208 95.089" class="cls-2"/>
      <path id="svg_112" fill="#4f5b5d" d="m266.373,110.878a5.961,5.961 0 0 0 -1.741,-4.466a5.674,5.674 0 0 0 -4.024,-1.552a5.594,5.594 0 0 0 -3.954,1.549a5.719,5.719 0 0 0 -1.8,4.459l0,9.253a5.763,5.763 0 0 0 5.75,6.021a5.776,5.776 0 0 0 4.024,-1.579a5.944,5.944 0 0 0 1.741,-4.452l0.004,-9.233zm-2.9,9.07q-0.084,3.18 -2.867,3.209q-2.8,-0.028 -2.852,-3.209l0,-8.893q0.057,-3.15 2.852,-3.209q2.783,0.057 2.867,3.209l0,8.893z" class="cls-2"/>
      <polygon id="svg_113" fill="#4f5b5d" points="262.208 156.851 262.208 135.914 259.31 135.914 256.425 138.069 256.425 141.262 259.31 139.08 259.31 156.851 262.208 156.851" class="cls-2"/>
      <path id="svg_114" fill="#4f5b5d" d="m322.956,197.5a5.592,5.592 0 0 0 -3.956,1.551a5.714,5.714 0 0 0 -1.8,4.459l0,9.253a5.763,5.763 0 0 0 5.75,6.022a5.78,5.78 0 0 0 4.024,-1.579a5.945,5.945 0 0 0 1.74,-4.452l0,-9.234a5.962,5.962 0 0 0 -1.74,-4.466a5.673,5.673 0 0 0 -4.018,-1.554zm2.866,15.087q-0.084,3.182 -2.866,3.209q-2.8,-0.027 -2.852,-3.209l0,-8.887q0.056,-3.151 2.852,-3.209q2.782,0.057 2.866,3.209l0,8.887z" class="cls-2"/>
      <polygon id="svg_115" fill="#4f5b5d" points="100.557 110.381 103.442 108.199 103.442 125.97 106.34 125.97 106.34 105.033 103.442 105.033 100.557 107.188 100.557 110.381" class="cls-2"/>
      <path id="svg_116" fill="#4f5b5d" d="m110.5,49.116a5.96,5.96 0 0 0 -1.74,-4.466a5.674,5.674 0 0 0 -4.02,-1.55a5.594,5.594 0 0 0 -3.954,1.549a5.716,5.716 0 0 0 -1.8,4.459l0,9.253a5.763,5.763 0 0 0 5.75,6.021a5.771,5.771 0 0 0 4.024,-1.579a5.943,5.943 0 0 0 1.74,-4.452l0,-9.235zm-2.9,9.07q-0.085,3.18 -2.867,3.209q-2.8,-0.027 -2.852,-3.209l0,-8.892q0.055,-3.151 2.852,-3.209q2.783,0.057 2.867,3.209l0,8.892z" class="cls-2"/>
      <polygon id="svg_117" fill="#4f5b5d" points="106.34 95.089 106.34 74.152 103.442 74.152 100.557 76.307 100.557 79.501 103.442 77.318 103.442 95.089 106.34 95.089" class="cls-2"/>
      <path id="svg_118" fill="#4f5b5d" d="m73.566,64.38a5.771,5.771 0 0 0 4.024,-1.58a5.944,5.944 0 0 0 1.741,-4.452l0,-6.71q-1.463,1.145 -2.9,2.321l0,4.227q-0.084,3.18 -2.867,3.209a2.587,2.587 0 0 1 -2.8,-2.566q-1.217,1.095 -2.414,2.211a4.959,4.959 0 0 0 1.262,1.76a5.69,5.69 0 0 0 3.954,1.58z" class="cls-2"/>
      <polygon id="svg_119" fill="#4f5b5d" points="106.34 187.732 106.34 166.795 103.442 166.795 100.557 168.95 100.557 172.143 103.442 169.961 103.442 187.732 106.34 187.732" class="cls-2"/>
      <path id="svg_120" fill="#4f5b5d" d="m110.5,141.758a5.96,5.96 0 0 0 -1.74,-4.465a5.669,5.669 0 0 0 -4.024,-1.552a5.59,5.59 0 0 0 -3.954,1.549a5.716,5.716 0 0 0 -1.8,4.459l0,9.251a5.763,5.763 0 0 0 5.75,6.021a5.776,5.776 0 0 0 4.024,-1.579a5.943,5.943 0 0 0 1.74,-4.452l0.004,-9.232zm-2.9,9.071q-0.085,3.18 -2.867,3.209q-2.8,-0.029 -2.852,-3.209l0,-8.893q0.055,-3.15 2.852,-3.209q2.783,0.057 2.867,3.209l0,8.893z" class="cls-2"/>
      <path id="svg_121" fill="#4f5b5d" d="m110.5,203.52a5.962,5.962 0 0 0 -1.74,-4.466a5.673,5.673 0 0 0 -4.024,-1.551a5.593,5.593 0 0 0 -3.954,1.548a5.717,5.717 0 0 0 -1.8,4.459l0,9.253a5.763,5.763 0 0 0 5.75,6.022a5.78,5.78 0 0 0 4.024,-1.579a5.945,5.945 0 0 0 1.74,-4.452l0.004,-9.234zm-2.9,9.07q-0.085,3.182 -2.867,3.209q-2.8,-0.027 -2.852,-3.209l0,-8.89q0.055,-3.151 2.852,-3.209q2.783,0.057 2.867,3.209l0,8.89z" class="cls-2"/>
      <path id="svg_122" fill="#4f5b5d" d="m63.744,172.639a5.962,5.962 0 0 0 -1.744,-4.466a5.676,5.676 0 0 0 -4.024,-1.551a5.591,5.591 0 0 0 -3.955,1.549a5.715,5.715 0 0 0 -1.8,4.459l0,9.252a5.761,5.761 0 0 0 5.75,6.022a5.784,5.784 0 0 0 4.029,-1.579a5.945,5.945 0 0 0 1.74,-4.452l0.004,-9.234zm-2.9,9.071q-0.084,3.18 -2.866,3.209q-2.8,-0.029 -2.852,-3.209l0,-8.893q0.055,-3.151 2.852,-3.209q2.783,0.057 2.866,3.209l0,8.893z" class="cls-2"/>
      <polygon id="svg_123" fill="#4f5b5d" points="75.166 135.914 72.268 135.914 69.383 138.069 69.383 141.262 72.268 139.08 72.268 156.851 75.166 156.851 75.166 135.914" class="cls-2"/>
      <path id="svg_124" fill="#4f5b5d" d="m52.23,89.24a5.761,5.761 0 0 0 5.75,6.021a5.779,5.779 0 0 0 4.02,-1.579a5.943,5.943 0 0 0 1.74,-4.452l0,-9.23a5.96,5.96 0 0 0 -1.74,-4.469a5.906,5.906 0 0 0 -6.49,-1q-1.557,1.837 -3.059,3.726a7.493,7.493 0 0 0 -0.225,1.727l0.004,9.256zm2.9,-9.066q0.055,-3.15 2.852,-3.209q2.783,0.059 2.866,3.209l0,8.893q-0.084,3.18 -2.866,3.209q-2.8,-0.028 -2.852,-3.209l0,-8.893z" class="cls-2"/>
      <path id="svg_125" fill="#4f5b5d" d="m63.744,203.52a5.962,5.962 0 0 0 -1.744,-4.466a5.676,5.676 0 0 0 -4.02,-1.554a5.594,5.594 0 0 0 -3.955,1.548a5.717,5.717 0 0 0 -1.8,4.459l0,9.253a5.761,5.761 0 0 0 5.75,6.022a5.784,5.784 0 0 0 4.025,-1.576a5.945,5.945 0 0 0 1.74,-4.452l0.004,-9.234zm-2.9,9.07q-0.084,3.182 -2.866,3.209q-2.8,-0.027 -2.852,-3.209l0,-8.89q0.055,-3.151 2.852,-3.209q2.783,0.057 2.866,3.209l0,8.89z" class="cls-2"/>
      <polygon id="svg_126" fill="#4f5b5d" points="59.579 280.374 59.579 259.436 56.681 259.436 53.796 261.591 53.796 264.785 56.681 262.602 56.681 280.374 59.579 280.374" class="cls-2"/>
      <path id="svg_127" fill="#4f5b5d" d="m63.744,243.633l0,-9.233a5.96,5.96 0 0 0 -1.744,-4.466a5.677,5.677 0 0 0 -4.024,-1.552a5.6,5.6 0 0 0 -3.955,1.549a5.717,5.717 0 0 0 -1.8,4.459l0,9.253a5.761,5.761 0 0 0 5.75,6.022a5.784,5.784 0 0 0 4.029,-1.579a5.946,5.946 0 0 0 1.744,-4.453zm-2.9,-0.163q-0.084,3.18 -2.866,3.209q-2.8,-0.027 -2.852,-3.209l0,-8.892q0.055,-3.151 2.852,-3.209q2.783,0.057 2.866,3.209l0,8.892z" class="cls-2"/>
      <path id="svg_128" fill="#4f5b5d" d="m63.744,141.758a5.96,5.96 0 0 0 -1.744,-4.465a5.673,5.673 0 0 0 -4.024,-1.552a5.591,5.591 0 0 0 -3.955,1.549a5.715,5.715 0 0 0 -1.8,4.459l0,9.251a5.761,5.761 0 0 0 5.75,6.021a5.779,5.779 0 0 0 4.029,-1.577a5.943,5.943 0 0 0 1.74,-4.452l0.004,-9.234zm-2.9,9.071q-0.084,3.18 -2.866,3.209q-2.8,-0.029 -2.852,-3.209l0,-8.893q0.055,-3.15 2.852,-3.209q2.783,0.057 2.866,3.209l0,8.893z" class="cls-2"/>
      <path id="svg_129" fill="#4f5b5d" d="m89.153,95.261a5.776,5.776 0 0 0 4.024,-1.579a5.948,5.948 0 0 0 1.741,-4.452l0,-9.23a5.965,5.965 0 0 0 -1.741,-4.466a5.674,5.674 0 0 0 -4.024,-1.552a5.594,5.594 0 0 0 -3.953,1.546a5.716,5.716 0 0 0 -1.8,4.459l0,9.253a5.763,5.763 0 0 0 5.75,6.021l0.003,0zm-2.853,-15.087q0.055,-3.15 2.852,-3.209q2.782,0.059 2.867,3.209l0,8.893q-0.086,3.18 -2.867,3.209q-2.8,-0.028 -2.852,-3.209l0,-8.893z" class="cls-2"/>
      <path id="svg_130" fill="#4f5b5d" d="m83.4,120.121a5.763,5.763 0 0 0 5.75,6.021a5.776,5.776 0 0 0 4.024,-1.579a5.948,5.948 0 0 0 1.741,-4.452l0,-9.233a5.965,5.965 0 0 0 -1.741,-4.466a5.674,5.674 0 0 0 -4.024,-1.552a5.594,5.594 0 0 0 -3.954,1.549a5.716,5.716 0 0 0 -1.8,4.459l0.004,9.253zm2.9,-9.066q0.055,-3.15 2.852,-3.209q2.782,0.057 2.867,3.209l0,8.893q-0.086,3.18 -2.867,3.209q-2.8,-0.028 -2.852,-3.209l0,-8.893z" class="cls-2"/>
      <polygon id="svg_131" fill="#4f5b5d" points="90.753 187.732 90.753 166.795 87.855 166.795 84.97 168.95 84.97 172.143 87.855 169.961 87.855 187.732 90.753 187.732" class="cls-2"/>
      <path id="svg_132" fill="#4f5b5d" d="m110.5,234.4a5.96,5.96 0 0 0 -1.74,-4.466a5.674,5.674 0 0 0 -4.024,-1.552a5.594,5.594 0 0 0 -3.954,1.549a5.717,5.717 0 0 0 -1.8,4.459l0,9.253a5.763,5.763 0 0 0 5.75,6.022a5.78,5.78 0 0 0 4.024,-1.579a5.946,5.946 0 0 0 1.74,-4.453l0.004,-9.233zm-2.9,9.07q-0.085,3.18 -2.867,3.209q-2.8,-0.027 -2.852,-3.209l0,-8.892q0.055,-3.151 2.852,-3.209q2.783,0.057 2.867,3.209l0,8.892z" class="cls-2"/>
      <polygon id="svg_133" fill="#4f5b5d" points="75.166 105.033 72.268 105.033 69.383 107.188 69.383 110.381 72.268 108.199 72.268 125.97 75.166 125.97 75.166 105.033" class="cls-2"/>
      <polygon id="svg_134" fill="#4f5b5d" points="90.753 135.914 87.855 135.914 84.97 138.069 84.97 141.262 87.855 139.08 87.855 156.851 90.753 156.851 90.753 135.914" class="cls-2"/>
      <path id="svg_135" fill="#4f5b5d" d="m79.331,89.23l0,-9.23a5.961,5.961 0 0 0 -1.741,-4.466a5.674,5.674 0 0 0 -4.024,-1.552a5.594,5.594 0 0 0 -3.954,1.549a5.719,5.719 0 0 0 -1.8,4.459l0,9.25a5.763,5.763 0 0 0 5.75,6.021a5.776,5.776 0 0 0 4.024,-1.579a5.944,5.944 0 0 0 1.745,-4.452zm-2.9,-0.163q-0.084,3.18 -2.867,3.209q-2.8,-0.028 -2.852,-3.209l0,-8.893q0.057,-3.15 2.852,-3.209q2.782,0.059 2.867,3.209l0,8.893z" class="cls-2"/>
      <path id="svg_136" fill="#4f5b5d" d="m83.4,212.763a5.763,5.763 0 0 0 5.75,6.022a5.78,5.78 0 0 0 4.024,-1.579a5.949,5.949 0 0 0 1.741,-4.452l0,-9.234a5.966,5.966 0 0 0 -1.741,-4.466a5.673,5.673 0 0 0 -4.024,-1.551a5.593,5.593 0 0 0 -3.954,1.548a5.717,5.717 0 0 0 -1.8,4.459l0.004,9.253zm2.9,-9.065q0.055,-3.151 2.852,-3.209q2.782,0.057 2.867,3.209l0,8.892q-0.086,3.182 -2.867,3.209q-2.8,-0.027 -2.852,-3.209l0,-8.892z" class="cls-2"/>
      <path id="svg_137" fill="#4f5b5d" d="m110.5,274.514l0,-9.233a5.96,5.96 0 0 0 -1.74,-4.466a5.674,5.674 0 0 0 -4.024,-1.552a5.594,5.594 0 0 0 -3.954,1.549a5.716,5.716 0 0 0 -1.8,4.459l0,9.253a5.764,5.764 0 0 0 5.75,6.022a5.776,5.776 0 0 0 4.024,-1.58a5.943,5.943 0 0 0 1.744,-4.452zm-2.9,-0.163q-0.085,3.18 -2.867,3.209q-2.8,-0.027 -2.852,-3.209l0,-8.892q0.055,-3.151 2.852,-3.209q2.783,0.057 2.867,3.209l0,8.892z" class="cls-2"/>
      <polygon id="svg_138" fill="#4f5b5d" points="90.753 228.555 87.855 228.555 84.97 230.711 84.97 233.904 87.855 231.721 87.855 249.493 90.753 249.493 90.753 228.555" class="cls-2"/>
      <polygon id="svg_139" fill="#4f5b5d" points="90.753 311.255 90.753 290.317 87.855 290.317 84.97 292.472 84.97 295.666 87.855 293.483 87.855 311.255 90.753 311.255" class="cls-2"/>
      <polygon id="svg_140" fill="#4f5b5d" points="90.753 259.436 87.855 259.436 84.97 261.591 84.97 264.785 87.855 262.602 87.855 280.374 90.753 280.374 90.753 259.436" class="cls-2"/>
      <path id="svg_141" fill="#4f5b5d" d="m63.744,110.878a5.96,5.96 0 0 0 -1.744,-4.466a5.677,5.677 0 0 0 -4.024,-1.552a5.6,5.6 0 0 0 -3.955,1.549a5.715,5.715 0 0 0 -1.8,4.459l0,9.253a5.761,5.761 0 0 0 5.75,6.021a5.779,5.779 0 0 0 4.029,-1.579a5.943,5.943 0 0 0 1.74,-4.452l0.004,-9.233zm-2.9,9.07q-0.084,3.18 -2.866,3.209q-2.8,-0.028 -2.852,-3.209l0,-8.893q0.055,-3.15 2.852,-3.209q2.783,0.057 2.866,3.209l0,8.893z" class="cls-2"/>
      <path id="svg_142" fill="#4f5b5d" d="m157.265,327.043a5.96,5.96 0 0 0 -1.74,-4.466a5.675,5.675 0 0 0 -4.024,-1.552a5.591,5.591 0 0 0 -3.954,1.549a5.712,5.712 0 0 0 -1.8,4.459l0,9.253a8.164,8.164 0 0 0 0.082,0.909c1.042,0.218 2.092,0.42 3.143,0.618a4.472,4.472 0 0 1 -0.327,-1.7l0,-8.893q0.055,-3.15 2.852,-3.209q2.782,0.057 2.866,3.209l0,8.893a3.48,3.48 0 0 1 -0.871,2.492c1.06,0.17 2.119,0.325 3.178,0.473a7.07,7.07 0 0 0 0.591,-2.8l0.004,-9.235z" class="cls-2"/>
      <path id="svg_143" fill="#4f5b5d" d="m172.852,336.276l0,-9.233a5.961,5.961 0 0 0 -1.741,-4.466a5.674,5.674 0 0 0 -4.024,-1.552a5.594,5.594 0 0 0 -3.954,1.549a5.719,5.719 0 0 0 -1.8,4.459l0,9.253a6.223,6.223 0 0 0 0.973,3.493q4.525,0.474 9.023,0.691a6.056,6.056 0 0 0 1.523,-4.194zm-2.9,-0.163q-0.084,3.18 -2.867,3.209q-2.8,-0.029 -2.852,-3.209l0,-8.893q0.057,-3.15 2.852,-3.209q2.783,0.057 2.867,3.209l0,8.893z" class="cls-2"/>
      <path id="svg_144" fill="#4f5b5d" d="m196.963,321.2l-2.885,2.155l0,3.194l2.885,-2.183l0,15.308c0.968,-0.108 1.934,-0.221 2.9,-0.346l0,-18.128l-2.9,0z" class="cls-2"/>
      <path id="svg_145" fill="#4f5b5d" d="m121.927,330.249l0,-9.049l-2.9,0l-2.885,2.155l0,3.194l2.885,-2.183l0,4.768c0.962,0.38 1.93,0.75 2.9,1.115z" class="cls-2"/>
      <path id="svg_146" fill="#4f5b5d" d="m134.616,321.2l-2.885,2.155l0,3.194l2.885,-2.183l0,10.067q1.441,0.411 2.9,0.794l0,-14.027l-2.9,0z" class="cls-2"/>
      <path id="svg_147" fill="#4f5b5d" d="m211,336.113l0,-8.893q0.055,-3.15 2.852,-3.209q2.782,0.057 2.866,3.209l0,8.893c0,0.037 -0.007,0.067 -0.008,0.1q1.457,-0.351 2.906,-0.726l0,-8.448a5.96,5.96 0 0 0 -1.74,-4.466a5.674,5.674 0 0 0 -4.024,-1.552a5.593,5.593 0 0 0 -3.954,1.549a5.712,5.712 0 0 0 -1.8,4.459l0,9.253a7.468,7.468 0 0 0 0.223,1.709c0.956,-0.176 1.91,-0.355 2.861,-0.548a5.069,5.069 0 0 1 -0.182,-1.33z" class="cls-2"/>
      <path id="svg_148" fill="#4f5b5d" d="m288.93,296.339q0.055,-3.15 2.852,-3.209a3.3,3.3 0 0 1 1.408,0.32c0.711,-0.708 1.42,-1.419 2.119,-2.141a5.686,5.686 0 0 0 -3.527,-1.165a5.594,5.594 0 0 0 -3.954,1.549a5.712,5.712 0 0 0 -1.8,4.459l0,4.011q1.464,-1.291 2.9,-2.618l0.002,-1.206z" class="cls-2"/>
      <path id="svg_149" fill="#4f5b5d" d="m338.143,207.674c0.6,-3.34 1.086,-6.673 1.477,-10l-2.375,0l-2.886,2.156l0,3.193l2.886,-2.183l0,11.408c0.318,-1.515 0.621,-3.039 0.898,-4.574z" class="cls-2"/>
      <path id="svg_150" fill="#4f5b5d" d="m326.98,229.934a5.674,5.674 0 0 0 -4.024,-1.552a5.593,5.593 0 0 0 -3.956,1.549a5.714,5.714 0 0 0 -1.8,4.459l0,9.253a5.763,5.763 0 0 0 5.75,6.022a6.287,6.287 0 0 0 1.632,-0.25q2.2,-4.56 4.132,-9.292l0,-5.723a5.96,5.96 0 0 0 -1.734,-4.466zm-1.158,13.536q-0.084,3.18 -2.866,3.209q-2.8,-0.027 -2.852,-3.209l0,-8.892q0.056,-3.151 2.852,-3.209q2.782,0.057 2.866,3.209l0,8.892z" class="cls-2"/>
      <path id="svg_151" fill="#4f5b5d" d="m306.071,259.436l-2.885,2.155l0,3.194l2.885,-2.183l0,16.398q1.476,-1.87 2.9,-3.789l0,-15.775l-2.9,0z" class="cls-2"/>
      <path id="svg_152" fill="#4f5b5d" d="m104.74,321.025a5.761,5.761 0 0 0 -2.2,0.421q3.806,2.041 7.742,3.889a5.3,5.3 0 0 0 -1.516,-2.758a5.674,5.674 0 0 0 -4.026,-1.552z" class="cls-2"/>
      <path id="svg_153" fill="#4f5b5d" d="m243.724,321.2l-2.886,2.155l0,3.194l2.886,-2.183l0,2.778c0.971,-0.425 1.936,-0.864 2.9,-1.308l0,-4.636l-2.9,0z" class="cls-2"/>
      <path id="svg_154" fill="#4f5b5d" d="m26.806,231.369q2.783,0.057 2.866,3.209l0,6.388q1.13,2.71 2.358,5.372a7.16,7.16 0 0 0 0.54,-2.7l0,-9.238a5.96,5.96 0 0 0 -1.74,-4.466a5.674,5.674 0 0 0 -4.024,-1.552a5.892,5.892 0 0 0 -1.684,0.26q0.457,1.411 0.943,2.813a3.953,3.953 0 0 1 0.741,-0.086z" class="cls-2"/>
      <polygon id="svg_155" fill="#4f5b5d" points="43.993 156.851 43.993 135.914 41.095 135.914 38.21 138.069 38.21 141.262 41.095 139.08 41.095 156.851 43.993 156.851" class="cls-2"/>
      <polygon id="svg_156" fill="#4f5b5d" points="38.21 172.143 41.095 169.961 41.095 187.732 43.993 187.732 43.993 166.795 41.095 166.795 38.21 168.95 38.21 172.143" class="cls-2"/>
      <path id="svg_157" fill="#4f5b5d" d="m46.417,248.086a5.946,5.946 0 0 0 1.74,-4.453l0,-9.233a5.96,5.96 0 0 0 -1.74,-4.466a5.674,5.674 0 0 0 -4.024,-1.552a5.593,5.593 0 0 0 -3.954,1.549a5.714,5.714 0 0 0 -1.8,4.459l0,9.253a5.763,5.763 0 0 0 5.75,6.022a5.78,5.78 0 0 0 4.028,-1.579zm-6.876,-4.616l0,-8.892q0.056,-3.151 2.852,-3.209q2.782,0.057 2.866,3.209l0,8.892q-0.084,3.18 -2.866,3.209q-2.793,-0.027 -2.852,-3.209z" class="cls-2"/>
      <path id="svg_158" fill="#4f5b5d" d="m32.57,181.873l0,-9.234a5.962,5.962 0 0 0 -1.74,-4.466a5.673,5.673 0 0 0 -4.024,-1.551a5.588,5.588 0 0 0 -3.954,1.549a5.712,5.712 0 0 0 -1.8,4.459l0,9.252a5.763,5.763 0 0 0 5.75,6.022a5.78,5.78 0 0 0 4.024,-1.579a5.945,5.945 0 0 0 1.744,-4.452zm-2.9,-0.163q-0.084,3.18 -2.866,3.209q-2.8,-0.029 -2.852,-3.209l0,-8.893q0.055,-3.151 2.852,-3.209q2.783,0.057 2.866,3.209l0,8.893z" class="cls-2"/>
      <polygon id="svg_159" fill="#4f5b5d" points="38.21 203.024 41.095 200.841 41.095 218.613 43.993 218.613 43.993 197.675 41.095 197.675 38.21 199.831 38.21 203.024" class="cls-2"/>
      <polygon id="svg_160" fill="#4f5b5d" points="28.406 156.851 28.406 135.914 25.508 135.914 22.623 138.069 22.623 141.262 25.508 139.08 25.508 156.851 28.406 156.851" class="cls-2"/>
      <path id="svg_161" fill="#4f5b5d" d="m30.83,124.563a5.943,5.943 0 0 0 1.74,-4.452l0,-9.233c0,-0.166 -0.033,-0.309 -0.044,-0.468q-1.5,3.2 -2.854,6.487l0,3.051c-0.051,1.945 -0.868,3 -2.433,3.172c-0.36,0.982 -0.715,1.968 -1.057,2.961a6.048,6.048 0 0 0 0.624,0.061a5.776,5.776 0 0 0 4.024,-1.579z" class="cls-2"/>
      <path id="svg_162" fill="#4f5b5d" d="m46.417,260.815a5.674,5.674 0 0 0 -4.024,-1.552a5.584,5.584 0 0 0 -3.166,0.935q0.734,1.262 1.492,2.51a3.093,3.093 0 0 1 1.674,-0.458q2.782,0.057 2.866,3.209l0,4.321c0.947,1.393 1.909,2.775 2.9,4.138l0,-8.637a5.96,5.96 0 0 0 -1.742,-4.466z" class="cls-2"/>
      <polygon id="svg_163" fill="#4f5b5d" points="28.406 218.613 28.406 197.675 25.508 197.675 22.623 199.831 22.623 203.024 25.508 200.841 25.508 218.613 28.406 218.613" class="cls-2"/>
      <path id="svg_164" fill="#4f5b5d" d="m43.993,95.089l0,-5.175q-1.485,2.25 -2.9,4.555l0,0.62l2.9,0z" class="cls-2"/>
      <path id="svg_165" fill="#4f5b5d" d="m75.166,302.913l0,-12.6l-2.9,0l-2.885,2.155l0,3.194l2.885,-2.183l0,6.938q1.434,1.266 2.9,2.496z" class="cls-2"/>
      <path id="svg_166" fill="#4f5b5d" d="m48.157,110.878a5.96,5.96 0 0 0 -1.74,-4.466a5.674,5.674 0 0 0 -4.024,-1.552a5.593,5.593 0 0 0 -3.954,1.549a5.712,5.712 0 0 0 -1.8,4.459l0,9.253a5.763,5.763 0 0 0 5.75,6.021a5.776,5.776 0 0 0 4.024,-1.579a5.943,5.943 0 0 0 1.74,-4.452l0.004,-9.233zm-2.9,9.07q-0.084,3.18 -2.866,3.209q-2.8,-0.028 -2.852,-3.209l0,-8.893q0.056,-3.15 2.852,-3.209q2.782,0.057 2.866,3.209l0,8.893z" class="cls-2"/>
      <path id="svg_167" fill="#4f5b5d" d="m280.219,291.7a5.674,5.674 0 0 0 -4.024,-1.552a5.594,5.594 0 0 0 -3.954,1.549a5.716,5.716 0 0 0 -1.8,4.459l0,9.244a5.7,5.7 0 0 0 1.8,4.444a6.194,6.194 0 0 0 0.8,0.629q1.423,-1.017 2.824,-2.065c-1.641,-0.14 -2.49,-1.193 -2.525,-3.181l0,-8.893q0.055,-3.15 2.852,-3.209q2.783,0.058 2.867,3.209l0,8.893a6.089,6.089 0 0 1 -0.073,0.789q1.5,-1.179 2.971,-2.393l0,-7.466a5.965,5.965 0 0 0 -1.738,-4.457z" class="cls-2"/>
      <path id="svg_168" fill="#4f5b5d" d="m114.577,274.524a5.764,5.764 0 0 0 5.75,6.022a5.776,5.776 0 0 0 4.024,-1.58a5.943,5.943 0 0 0 1.74,-4.452l0,-9.233a5.96,5.96 0 0 0 -1.74,-4.466a5.674,5.674 0 0 0 -4.024,-1.552a5.593,5.593 0 0 0 -3.954,1.549a5.712,5.712 0 0 0 -1.8,4.459l0.004,9.253zm2.9,-9.065q0.056,-3.151 2.852,-3.209q2.782,0.057 2.866,3.209l0,8.892q-0.084,3.18 -2.866,3.209q-2.8,-0.027 -2.852,-3.209l0,-8.892z" class="cls-2"/>
      <path id="svg_169" fill="#4f5b5d" d="m141.678,234.4a5.96,5.96 0 0 0 -1.74,-4.466a5.674,5.674 0 0 0 -4.024,-1.552a5.593,5.593 0 0 0 -3.954,1.549a5.714,5.714 0 0 0 -1.8,4.459l0,9.253a5.763,5.763 0 0 0 5.75,6.022a5.78,5.78 0 0 0 4.024,-1.579a5.946,5.946 0 0 0 1.74,-4.453l0.004,-9.233zm-2.9,9.07q-0.084,3.18 -2.866,3.209q-2.8,-0.027 -2.852,-3.209l0,-8.892q0.055,-3.151 2.852,-3.209q2.783,0.057 2.866,3.209l0,8.892z" class="cls-2"/>
      <path id="svg_170" fill="#4f5b5d" d="m114.577,305.4a5.763,5.763 0 0 0 5.75,6.021a5.776,5.776 0 0 0 4.024,-1.579a5.943,5.943 0 0 0 1.74,-4.452l0,-9.233a5.96,5.96 0 0 0 -1.74,-4.466a5.674,5.674 0 0 0 -4.024,-1.552a5.593,5.593 0 0 0 -3.954,1.549a5.712,5.712 0 0 0 -1.8,4.459l0.004,9.253zm2.9,-9.066q0.056,-3.15 2.852,-3.209q2.782,0.058 2.866,3.209l0,8.893q-0.084,3.18 -2.866,3.209q-2.8,-0.028 -2.852,-3.209l0,-8.893z" class="cls-2"/>
      <path id="svg_171" fill="#4f5b5d" d="m141.678,172.639a5.962,5.962 0 0 0 -1.74,-4.466a5.673,5.673 0 0 0 -4.024,-1.551a5.588,5.588 0 0 0 -3.954,1.549a5.712,5.712 0 0 0 -1.8,4.459l0,9.252a5.763,5.763 0 0 0 5.75,6.022a5.78,5.78 0 0 0 4.024,-1.579a5.945,5.945 0 0 0 1.74,-4.452l0.004,-9.234zm-2.9,9.071q-0.084,3.18 -2.866,3.209q-2.8,-0.029 -2.852,-3.209l0,-8.893q0.055,-3.151 2.852,-3.209q2.783,0.057 2.866,3.209l0,8.893z" class="cls-2"/>
      <path id="svg_172" fill="#4f5b5d" d="m141.678,203.52a5.962,5.962 0 0 0 -1.74,-4.466a5.673,5.673 0 0 0 -4.024,-1.551a5.592,5.592 0 0 0 -3.954,1.548a5.714,5.714 0 0 0 -1.8,4.459l0,9.253a5.763,5.763 0 0 0 5.75,6.022a5.78,5.78 0 0 0 4.024,-1.579a5.945,5.945 0 0 0 1.74,-4.452l0.004,-9.234zm-2.9,9.07q-0.084,3.182 -2.866,3.209q-2.8,-0.027 -2.852,-3.209l0,-8.89q0.055,-3.151 2.852,-3.209q2.783,0.057 2.866,3.209l0,8.89z" class="cls-2"/>
      <polygon id="svg_173" fill="#4f5b5d" points="137.514 64.209 137.514 43.271 134.616 43.271 131.731 45.426 131.731 48.62 134.616 46.437 134.616 64.209 137.514 64.209" class="cls-2"/>
      <polygon id="svg_174" fill="#4f5b5d" points="137.514 125.97 137.514 105.033 134.616 105.033 131.731 107.188 131.731 110.381 134.616 108.199 134.616 125.97 137.514 125.97" class="cls-2"/>
      <path id="svg_175" fill="#4f5b5d" d="m141.678,80a5.96,5.96 0 0 0 -1.74,-4.466a5.674,5.674 0 0 0 -4.024,-1.552a5.593,5.593 0 0 0 -3.954,1.549a5.712,5.712 0 0 0 -1.8,4.459l0,9.25a5.763,5.763 0 0 0 5.75,6.021a5.776,5.776 0 0 0 4.024,-1.579a5.943,5.943 0 0 0 1.74,-4.452l0.004,-9.23zm-2.9,9.07q-0.084,3.18 -2.866,3.209q-2.8,-0.028 -2.852,-3.209l0,-8.896q0.055,-3.15 2.852,-3.209q2.783,0.059 2.866,3.209l0,8.896z" class="cls-2"/>
      <path id="svg_176" fill="#4f5b5d" d="m157.265,49.116a5.96,5.96 0 0 0 -1.74,-4.466a5.675,5.675 0 0 0 -4.025,-1.55a5.591,5.591 0 0 0 -3.954,1.549a5.712,5.712 0 0 0 -1.8,4.459l0,9.253a5.763,5.763 0 0 0 5.75,6.021a5.773,5.773 0 0 0 4.024,-1.579a5.943,5.943 0 0 0 1.74,-4.452l0.005,-9.235zm-2.9,9.07q-0.084,3.18 -2.866,3.209q-2.8,-0.027 -2.852,-3.209l0,-8.892q0.055,-3.151 2.852,-3.209q2.782,0.057 2.866,3.209l0,8.892z" class="cls-2"/>
      <polygon id="svg_177" fill="#4f5b5d" points="121.927 249.493 121.927 228.555 119.029 228.555 116.144 230.711 116.144 233.904 119.029 231.721 119.029 249.493 121.927 249.493" class="cls-2"/>
      <path id="svg_178" fill="#4f5b5d" d="m120.327,64.38a5.771,5.771 0 0 0 4.024,-1.579a5.943,5.943 0 0 0 1.74,-4.452l0,-9.233a5.96,5.96 0 0 0 -1.74,-4.466a5.674,5.674 0 0 0 -4.024,-1.552a5.593,5.593 0 0 0 -3.954,1.549a5.712,5.712 0 0 0 -1.8,4.459l0,9.253a5.763,5.763 0 0 0 5.75,6.021l0.004,0zm-2.852,-15.086q0.056,-3.151 2.852,-3.209q2.782,0.057 2.866,3.209l0,8.892q-0.084,3.18 -2.866,3.209q-2.8,-0.027 -2.852,-3.209l0,-8.892z" class="cls-2"/>
      <path id="svg_179" fill="#4f5b5d" d="m141.678,274.514l0,-9.233a5.96,5.96 0 0 0 -1.74,-4.466a5.674,5.674 0 0 0 -4.024,-1.552a5.593,5.593 0 0 0 -3.954,1.549a5.712,5.712 0 0 0 -1.8,4.459l0,9.253a5.764,5.764 0 0 0 5.75,6.022a5.776,5.776 0 0 0 4.024,-1.58a5.943,5.943 0 0 0 1.744,-4.452zm-2.9,-0.163q-0.084,3.18 -2.866,3.209q-2.8,-0.027 -2.852,-3.209l0,-8.892q0.055,-3.151 2.852,-3.209q2.783,0.057 2.866,3.209l0,8.892z" class="cls-2"/>
      <path id="svg_180" fill="#4f5b5d" d="m114.577,89.24a5.763,5.763 0 0 0 5.75,6.021a5.776,5.776 0 0 0 4.024,-1.579a5.943,5.943 0 0 0 1.74,-4.452l0,-9.23a5.96,5.96 0 0 0 -1.74,-4.466a5.674,5.674 0 0 0 -4.024,-1.552a5.593,5.593 0 0 0 -3.954,1.549a5.712,5.712 0 0 0 -1.8,4.459l0.004,9.25zm2.9,-9.066q0.056,-3.15 2.852,-3.209q2.782,0.059 2.866,3.209l0,8.893q-0.084,3.18 -2.866,3.209q-2.8,-0.028 -2.852,-3.209l0,-8.893z" class="cls-2"/>
      <polygon id="svg_181" fill="#4f5b5d" points="137.514 311.255 137.514 290.317 134.616 290.317 131.731 292.472 131.731 295.666 134.616 293.483 134.616 311.255 137.514 311.255" class="cls-2"/>
      <path id="svg_182" fill="#4f5b5d" d="m114.577,120.121a5.763,5.763 0 0 0 5.75,6.021a5.776,5.776 0 0 0 4.024,-1.579a5.943,5.943 0 0 0 1.74,-4.452l0,-9.233a5.96,5.96 0 0 0 -1.74,-4.466a5.674,5.674 0 0 0 -4.024,-1.552a5.593,5.593 0 0 0 -3.954,1.549a5.712,5.712 0 0 0 -1.8,4.459l0.004,9.253zm2.9,-9.066q0.056,-3.15 2.852,-3.209q2.782,0.057 2.866,3.209l0,8.893q-0.084,3.18 -2.866,3.209q-2.8,-0.028 -2.852,-3.209l0,-8.893z" class="cls-2"/>
      <polygon id="svg_183" fill="#4f5b5d" points="121.927 197.675 119.029 197.675 116.144 199.831 116.144 203.024 119.029 200.841 119.029 218.613 121.927 218.613 121.927 197.675" class="cls-2"/>
      <polygon id="svg_184" fill="#4f5b5d" points="121.927 166.795 119.029 166.795 116.144 168.95 116.144 172.143 119.029 169.961 119.029 187.732 121.927 187.732 121.927 166.795" class="cls-2"/>
      <path id="svg_185" fill="#4f5b5d" d="m137.514,33.328l0,-10.7q-1.454,0.387 -2.9,0.8l0,9.9l2.9,0z" class="cls-2"/>
      <polygon id="svg_186" fill="#4f5b5d" points="121.927 135.914 119.029 135.914 116.144 138.069 116.144 141.262 119.029 139.08 119.029 156.851 121.927 156.851 121.927 135.914" class="cls-2"/>
      <polygon id="svg_187" fill="#4f5b5d" points="131.731 141.262 134.616 139.08 134.616 156.851 137.514 156.851 137.514 135.914 134.616 135.914 131.731 138.069 131.731 141.262" class="cls-2"/>
      <polygon id="svg_188" fill="#4f5b5d" points="75.166 249.493 75.166 228.555 72.268 228.555 69.383 230.711 69.383 233.904 72.268 231.721 72.268 249.493 75.166 249.493" class="cls-2"/>
      <polygon id="svg_189" fill="#4f5b5d" points="106.34 311.255 106.34 290.317 103.442 290.317 100.557 292.472 100.557 295.666 103.442 293.483 103.442 311.255 106.34 311.255" class="cls-2"/>
      <polygon id="svg_190" fill="#4f5b5d" points="75.166 166.795 72.268 166.795 69.383 168.95 69.383 172.143 72.268 169.961 72.268 187.732 75.166 187.732 75.166 166.795" class="cls-2"/>
      <path id="svg_191" fill="#4f5b5d" d="m120.327,33.5a5.78,5.78 0 0 0 4.024,-1.579a5.946,5.946 0 0 0 1.74,-4.453l0,-1.337q-1.453,0.505 -2.9,1.038l0,0.136q-0.084,3.18 -2.866,3.209a2.538,2.538 0 0 1 -2.434,-1.29c-0.9,0.367 -1.788,0.747 -2.677,1.13a4.936,4.936 0 0 0 1.157,1.568a5.694,5.694 0 0 0 3.956,1.578z" class="cls-2"/>
      <polygon id="svg_192" fill="#4f5b5d" points="75.166 197.675 72.268 197.675 69.383 199.831 69.383 203.024 72.268 200.841 72.268 218.613 75.166 218.613 75.166 197.675" class="cls-2"/>
      <polygon id="svg_193" fill="#4f5b5d" points="75.166 280.374 75.166 259.436 72.268 259.436 69.383 261.591 69.383 264.785 72.268 262.602 72.268 280.374 75.166 280.374" class="cls-2"/>
     </g>
     <g id="svg_194">
      <path id="svg_195" fill="#19393b" d="m73.121,408.229l0,25.115l-10.848,0l0,-25.533c0,-4.848 0.523,-10.255 -5.721,-10.255l-4.709,0l0,-8.441l8.3,0c12.036,0 12.978,7.885 12.978,19.114z" class="cls-3"/>
      <path id="svg_196" fill="#19393b" d="m92.413,389.115l0,24.591l-10.848,0l0,-24.591l10.848,0z" class="cls-3"/>
      <path id="svg_197" fill="#19393b" d="m128.483,406.207l0,10.115c0,11.965 -3.732,17.022 -13.533,17.022l-13.6,0l0,-8.476l12.313,0c3.488,0 4.779,-2.267 4.779,-9.034l0,-9.871c0,-7.012 -1.361,-8.826 -4.884,-8.826l-3.418,0l0,16.395l-8.86,0l0,-24.417l13.67,0c9.801,0 13.533,5.127 13.533,17.092z" class="cls-3"/>
      <path id="svg_198" fill="#19393b" d="m162.912,389.115s0.175,18 0,28.428c-0.244,9.907 -4.709,15.8 -15.557,15.8l-9.555,0l-3.069,-44.229l28.181,0.001zm-9.383,7.569l-8.65,0l2.127,29.16l1.294,0c3.941,0 5.232,-3.941 5.232,-11.964l-0.003,-17.196z" class="cls-3"/>
      <path id="svg_199" fill="#19393b" d="m209.131,444.193l-10.813,0l0,-46.637l-11.686,0l0,-8.441l22.5,0l-0.001,55.078z" class="cls-3"/>
      <path id="svg_200" fill="#19393b" d="m238.154,408.229l0,25.115l-10.848,0l0,-25.533c0,-4.848 0.523,-10.255 -5.72,-10.255l-4.709,0l0,-8.441l8.3,0c12.035,0 12.977,7.885 12.977,19.114z" class="cls-3"/>
      <path id="svg_201" fill="#19393b" d="m273.073,389.115l0,22.045c0,11.755 -0.174,16.29 -14.511,20.127c-8.2,2.232 -12.767,3.174 -12.767,3.174l-1.778,-7.709l5.581,-1.605l-4.116,-36.032l9.731,0l3.419,33.9c2.825,-0.837 4.6,-0.837 4.6,-7.778l0,-26.122l9.841,0z" class="cls-3"/>
      <path id="svg_202" fill="#19393b" d="m295.154,424.206l4.6,0l0,-19.22c0,-4.953 -0.7,-7.325 -4.779,-7.43l-1.6,0l-4.57,35.788l-9.7,0l5.2,-35.09l-3.838,0l0,-9.139l16.395,0c9.8,0 12.557,4.465 12.453,18.87l0,25.359l-14.161,0l0,-9.138z" class="cls-3"/>
     </g>
     <g id="svg_203">
      <path id="svg_204" fill="#158e7f" d="m171.209,265l-41.989,-56.734c-0.192,-0.02 -47.486,27.221 -47.31,26.857l44.077,-80.578a0.4,0.4 0 0 1 0.685,-0.055l30.274,31.41a0.4,0.4 0 0 0 0.715,-0.32l-10.6,-45.067l32.4,-76.627l31.471,76.614l0,0.028l-10.6,45.051a0.4,0.4 0 0 0 0.715,0.32l30.273,-31.411a0.4,0.4 0 0 1 0.686,0.055l44.076,80.578a0.4,0.4 0 0 1 -0.577,0.507l-46.223,-27.417c-0.191,0.02 -42.5,56.785 -42.5,56.785l-7.782,11.56l-7.791,-11.556z" class="cls-4"/>
      <path id="svg_205" fill="#3ab5a4" d="m178.688,65.022l-31.632,74.815l10.6,45.068a0.4,0.4 0 0 1 -0.715,0.319l-30.274,-31.41a0.4,0.4 0 0 0 -0.685,0.054l-44.072,80.578c-0.176,0.365 47.118,-26.876 47.31,-26.856l41.989,56.732l7.479,11.1l0,-210.4z" class="cls-5"/>
     </g>
     <circle id="svg_206" stroke-width="8.403px" stroke="#242b2e" stroke-miterlimit="10" fill="none" r="174.852" cy="179.053" cx="179.053" class="cls-6"/>
     <circle id="svg_207" stroke="#010101" stroke-miterlimit="10" fill="none" r="162.058" cy="178.948" cx="179.349" class="cls-7"/>
    </g>
   </g>
  </g>
 </g>
</svg>