<svg width="16" height="16" viewBox="0 0 16 16" fill="none" xmlns="http://www.w3.org/2000/svg">
<path d="M14.4425 14.946L11.1853 11.6887M11.1853 11.6887C11.7425 11.1315 12.1844 10.4701 12.486 9.74212C12.7875 9.01414 12.9427 8.23391 12.9427 7.44596C12.9427 6.658 12.7875 5.87777 12.486 5.1498C12.1844 4.42182 11.7425 3.76037 11.1853 3.20321C10.6281 2.64604 9.96667 2.20407 9.2387 1.90254C8.51073 1.601 7.73049 1.4458 6.94254 1.4458C6.15459 1.4458 5.37435 1.601 4.64638 1.90254C3.91841 2.20407 3.25695 2.64604 2.69979 3.20321C1.57454 4.32845 0.942383 5.85462 0.942383 7.44596C0.942383 9.0373 1.57454 10.5635 2.69979 11.6887C3.82503 12.814 5.3512 13.4461 6.94254 13.4461C8.53388 13.4461 10.06 12.814 11.1853 11.6887Z" stroke="#CCCFE6" stroke-width="1.5" stroke-linecap="round" stroke-linejoin="round"/>
</svg>
