<svg width="20" height="21" viewBox="0 0 20 21" fill="none" xmlns="http://www.w3.org/2000/svg">
<path d="M19.0002 19.5002L14.6572 15.1572M14.6572 15.1572C15.4001 14.4143 15.9894 13.5324 16.3914 12.5618C16.7935 11.5911 17.0004 10.5508 17.0004 9.50021C17.0004 8.4496 16.7935 7.40929 16.3914 6.43866C15.9894 5.46803 15.4001 4.58609 14.6572 3.84321C13.9143 3.10032 13.0324 2.51103 12.0618 2.10898C11.0911 1.70693 10.0508 1.5 9.00021 1.5C7.9496 1.5 6.90929 1.70693 5.93866 2.10898C4.96803 2.51103 4.08609 3.10032 3.34321 3.84321C1.84288 5.34354 1 7.37842 1 9.50021C1 11.622 1.84288 13.6569 3.34321 15.1572C4.84354 16.6575 6.87842 17.5004 9.00021 17.5004C11.122 17.5004 13.1569 16.6575 14.6572 15.1572Z" stroke="#1E2775" stroke-width="2" stroke-linecap="round" stroke-linejoin="round"/>
</svg>
