<svg width="30" height="28" viewBox="0 0 30 28" fill="none" xmlns="http://www.w3.org/2000/svg">
<path d="M25 23.9999L20.1745 19.1745M20.1745 19.1745C20.9999 18.349 21.6547 17.3691 22.1014 16.2907C22.5481 15.2122 22.778 14.0563 22.778 12.889C22.778 11.7217 22.5481 10.5658 22.1014 9.48732C21.6547 8.40886 20.9999 7.42894 20.1745 6.60353C19.3491 5.77811 18.3692 5.12335 17.2907 4.67663C16.2122 4.22992 15.0563 4 13.889 4C12.7217 4 11.5658 4.22992 10.4873 4.67663C9.40887 5.12335 8.42895 5.77811 7.60353 6.60353C5.93652 8.27053 5 10.5315 5 12.889C5 15.2465 5.93652 17.5074 7.60353 19.1745C9.27055 20.8415 11.5315 21.778 13.889 21.778C16.2465 21.778 18.5075 20.8415 20.1745 19.1745Z" stroke="white" stroke-width="2.14286" stroke-linecap="round" stroke-linejoin="round"/>
</svg>
