<svg width="151" height="162" viewBox="0 0 151 162" fill="none" xmlns="http://www.w3.org/2000/svg">
<path d="M131.5 137L143.152 149.937C142.568 155.13 137.79 159.879 131.5 161.5L131.5 137Z" fill="url(#paint0_linear_11406_79722)"/>
<g filter="url(#filter0_d_11406_79722)">
<path d="M143.145 150.052L145.645 106.012C145.755 104.074 145.082 102.172 143.777 100.735L58.9459 7.33576C57.6698 5.93074 55.8929 5.08314 53.9979 4.97553L9.45413 2.44616L143.145 150.052Z" fill="url(#paint1_linear_11406_79722)"/>
</g>
<path d="M19.1718 13.1759L9.47188 2.43841C3.92383 3.29397 2.42429 8.42667 0.0471198 13.1758L19.1718 13.1759Z" fill="url(#paint2_linear_11406_79722)"/>
<path d="M58.0083 43.7903C57.8967 43.6665 57.8396 43.516 57.837 43.3389C57.8455 43.1741 57.9178 43.0304 58.054 42.9076L59.5581 41.5518C59.6943 41.429 59.8448 41.3719 60.0095 41.3804C60.1855 41.4014 60.3292 41.4737 60.4408 41.5975L64.6925 46.314L68.2206 43.1337C68.9262 42.4976 69.3029 41.8327 69.3507 41.1389C69.422 40.4463 69.1173 39.7225 68.4366 38.9673L66.3275 36.6276C66.2159 36.5038 66.1588 36.3534 66.1562 36.1762C66.1771 36.0003 66.2494 35.8565 66.3732 35.7449L67.8959 34.3723C68.0321 34.2496 68.1825 34.1925 68.3473 34.201C68.5232 34.2219 68.667 34.2943 68.7786 34.4181L70.9714 36.8506C71.9757 37.9648 72.6629 39.0507 73.0329 40.1083C73.4264 41.1672 73.4669 42.2078 73.1543 43.2301C72.8541 44.2412 72.1469 45.2489 71.0327 46.2533L67.5046 49.4337L68.0905 50.0836C68.2132 50.2197 68.2703 50.3702 68.2618 50.535C68.2533 50.6998 68.1809 50.8435 68.0447 50.9663L66.5406 52.3221C66.4045 52.4449 66.254 52.502 66.0892 52.4934C65.9245 52.4849 65.7807 52.4125 65.6579 52.2764L58.0083 43.7903ZM69.2939 56.3099C69.1712 56.1737 69.1141 56.0233 69.1226 55.8585C69.1312 55.6937 69.2035 55.55 69.3397 55.4272L79.0142 46.7062C79.1503 46.5835 79.3008 46.5264 79.4656 46.5349C79.6304 46.5435 79.7741 46.6158 79.8969 46.752L81.8721 48.9432C81.9948 49.0793 82.0519 49.2298 82.0434 49.3946C82.0348 49.5593 81.9625 49.7031 81.8263 49.8259L72.1518 58.5468C72.0157 58.6696 71.8652 58.7267 71.7004 58.7181C71.5356 58.7096 71.3919 58.6372 71.2691 58.5011L69.2939 56.3099ZM80.0744 68.2691C79.9517 68.1329 79.889 67.9763 79.8864 67.7991C79.8949 67.6343 79.9611 67.4962 80.0849 67.3846L85.5999 62.4131C86.3179 61.7659 86.7064 61.1016 86.7653 60.4202C86.8366 59.7276 86.5263 58.9976 85.8344 58.23L83.3236 55.4447C83.212 55.3209 83.1549 55.1704 83.1523 54.9933C83.1608 54.8285 83.2332 54.6847 83.3693 54.562L84.8734 53.2061C85.0096 53.0834 85.1601 53.0263 85.3248 53.0348C85.5008 53.0557 85.6445 53.1281 85.7561 53.2519L88.3674 56.1487C89.3717 57.2628 90.0657 58.3314 90.4493 59.3543C90.8329 60.3773 90.8635 61.382 90.5409 62.3683C90.2419 63.3559 89.5415 64.3463 88.4397 65.3394L82.8319 70.3946C82.6957 70.5173 82.5397 70.5683 82.3637 70.5473C82.199 70.5388 82.0552 70.4664 81.9325 70.3303L80.0744 68.2691ZM82.4999 78.0913C82.3771 77.9551 82.32 77.8047 82.3285 77.6399C82.3371 77.4751 82.4094 77.3314 82.5456 77.2086L91.5887 69.0568C91.7125 68.9452 91.8568 68.8937 92.0216 68.9022C92.1987 68.8996 92.3487 68.9664 92.4714 69.1025L94.2792 71.108C94.402 71.2442 94.4529 71.4002 94.432 71.5761C94.4235 71.7409 94.3573 71.8791 94.2335 71.9907L85.1904 80.1425C85.0542 80.2653 84.9037 80.3224 84.7389 80.3138C84.5742 80.3053 84.4304 80.233 84.3077 80.0968L82.4999 78.0913ZM89.7908 79.4959C89.6533 79.418 89.59 79.2731 89.601 79.0612C89.6231 78.8618 89.6961 78.7062 89.8199 78.5947L91.6025 76.9877C91.7263 76.8761 91.8829 76.8134 92.0725 76.7997C92.262 76.7859 92.4429 76.8248 92.6152 76.9163L93.3922 77.2929C93.8532 77.5056 94.3235 77.6539 94.803 77.7378C95.306 77.8228 95.8275 77.7791 96.3675 77.6064C96.9075 77.4338 97.487 77.0685 98.1059 76.5106C98.6382 76.0307 99.0095 75.5838 99.2198 75.1699C99.4301 74.756 99.4756 74.3335 99.3563 73.9025C99.237 73.4714 98.9431 72.996 98.4744 72.476L94.1055 67.6295C93.9939 67.5057 93.9368 67.3553 93.9342 67.1781C93.9427 67.0133 94.0151 66.8696 94.1513 66.7468L95.7854 65.2738C95.9091 65.1622 96.0534 65.1107 96.2182 65.1192C96.3941 65.1401 96.5379 65.2125 96.6495 65.3363L101.571 70.7956C102.575 71.9097 103.193 72.9567 103.426 73.9364C103.671 74.905 103.574 75.8558 103.136 76.789C102.711 77.711 101.991 78.6296 100.976 79.5446C100.134 80.3035 99.2621 80.8424 98.3605 81.1615C97.47 81.493 96.5708 81.6529 95.6627 81.6412C94.767 81.6184 93.896 81.4612 93.0497 81.1695C92.2145 80.8902 91.4312 80.5191 90.7 80.0564L89.7908 79.4959ZM98.1666 88.3393C98.055 88.2156 97.9979 88.0651 97.9952 87.8879C98.0038 87.7232 98.0761 87.5794 98.2123 87.4566L99.7164 86.1008C99.8526 85.978 100.003 85.9209 100.168 85.9295C100.344 85.9504 100.488 86.0228 100.599 86.1466L104.851 90.8631L108.379 87.6827C109.085 87.0466 109.461 86.3817 109.509 85.6879C109.58 84.9954 109.276 84.2715 108.595 83.5164L106.486 81.1767C106.374 81.0529 106.317 80.9024 106.314 80.7253C106.335 80.5493 106.408 80.4056 106.532 80.294L108.054 78.9214C108.19 78.7986 108.341 78.7415 108.506 78.7501C108.682 78.771 108.825 78.8433 108.937 78.9671L111.13 81.3997C112.134 82.5138 112.821 83.5997 113.191 84.6574C113.585 85.7163 113.625 86.7568 113.313 87.7791C113.012 88.7902 112.305 89.798 111.191 90.8023L107.663 93.9827L108.249 94.6326C108.372 94.7688 108.429 94.9193 108.42 95.084C108.412 95.2488 108.339 95.3926 108.203 95.5153L106.699 96.8712C106.563 96.9939 106.412 97.051 106.248 97.0425C106.083 97.0339 105.939 96.9616 105.816 96.8254L98.1666 88.3393Z" fill="white"/>
<defs>
<filter id="filter0_d_11406_79722" x="3.446" y="0.298693" width="148.219" height="159.622" filterUnits="userSpaceOnUse" color-interpolation-filters="sRGB">
<feFlood flood-opacity="0" result="BackgroundImageFix"/>
<feColorMatrix in="SourceAlpha" type="matrix" values="0 0 0 0 0 0 0 0 0 0 0 0 0 0 0 0 0 0 127 0" result="hardAlpha"/>
<feOffset dy="3.86063"/>
<feGaussianBlur stdDeviation="3.00405"/>
<feComposite in2="hardAlpha" operator="out"/>
<feColorMatrix type="matrix" values="0 0 0 0 0.00392157 0 0 0 0 0.458824 0 0 0 0 0.568627 0 0 0 0.2 0"/>
<feBlend mode="normal" in2="BackgroundImageFix" result="effect1_dropShadow_11406_79722"/>
<feBlend mode="normal" in="SourceGraphic" in2="effect1_dropShadow_11406_79722" result="shape"/>
</filter>
<linearGradient id="paint0_linear_11406_79722" x1="134.079" y1="149.035" x2="133.477" y2="159.632" gradientUnits="userSpaceOnUse">
<stop stop-color="#101440"/>
<stop offset="1" stop-color="#4752B6"/>
</linearGradient>
<linearGradient id="paint1_linear_11406_79722" x1="134.81" y1="139.849" x2="24.1718" y2="6.19941" gradientUnits="userSpaceOnUse">
<stop stop-color="#1E2775"/>
<stop offset="0.085" stop-color="#4752B6"/>
<stop offset="1" stop-color="#1E2775"/>
</linearGradient>
<linearGradient id="paint2_linear_11406_79722" x1="10.9893" y1="11.5593" x2="1.70551" y2="11.0884" gradientUnits="userSpaceOnUse">
<stop stop-color="#101440"/>
<stop offset="1" stop-color="#4752B6"/>
</linearGradient>
</defs>
</svg>
