<svg width="20" height="18" viewBox="0 0 20 18" fill="none" xmlns="http://www.w3.org/2000/svg">
<path d="M19.139 6.77481C19.0583 6.52593 18.9061 6.30631 18.7015 6.1433C18.4968 5.98028 18.2487 5.88108 17.9881 5.85803L13.0383 5.43132L11.0981 0.817431C10.9971 0.575333 10.8267 0.368534 10.6084 0.223075C10.3901 0.077616 10.1336 0 9.87127 0C9.60894 0 9.35248 0.077616 9.13417 0.223075C8.91586 0.368534 8.74547 0.575333 8.64445 0.817431L6.71006 5.43132L1.75446 5.86053C1.49279 5.88252 1.24344 5.98128 1.03768 6.14441C0.831908 6.30755 0.678887 6.52781 0.597801 6.77757C0.516714 7.02732 0.511172 7.29546 0.581869 7.54836C0.652566 7.80125 0.796355 8.02765 0.995205 8.19915L4.75482 11.4845L3.62802 16.3635C3.56844 16.6188 3.58544 16.886 3.6769 17.1317C3.76836 17.3774 3.93022 17.5907 4.14224 17.7449C4.35427 17.8991 4.60705 17.9874 4.86898 17.9988C5.13091 18.0101 5.39037 17.944 5.61492 17.8086L9.86543 15.225L14.1251 17.8086C14.3497 17.944 14.6091 18.0101 14.8711 17.9988C15.133 17.9874 15.3858 17.8991 15.5978 17.7449C15.8098 17.5907 15.9717 17.3774 16.0631 17.1317C16.1546 16.886 16.1716 16.6188 16.112 16.3635L14.986 11.4795L18.7448 8.19915C18.9437 8.02705 19.0872 7.80002 19.1573 7.54659C19.2274 7.29315 19.2211 7.02464 19.139 6.77481ZM17.8706 7.19153L14.1118 10.4719C13.9288 10.631 13.7927 10.837 13.7181 11.0677C13.6435 11.2985 13.6333 11.5451 13.6884 11.7812L14.8177 16.6685L10.5613 14.0848C10.3537 13.9584 10.1152 13.8915 9.8721 13.8915C9.62896 13.8915 9.39051 13.9584 9.18285 14.0848L4.93234 16.6685L6.05414 11.7846C6.10928 11.5485 6.09899 11.3018 6.02439 11.0711C5.94979 10.8404 5.8137 10.6344 5.63076 10.4753L1.87031 7.19653C1.87 7.19404 1.87 7.19152 1.87031 7.18903L6.82424 6.76064C7.0661 6.73932 7.29755 6.65237 7.49363 6.50917C7.68971 6.36597 7.84296 6.17195 7.93687 5.94804L9.87127 1.33999L11.8048 5.94804C11.8987 6.17195 12.052 6.36597 12.2481 6.50917C12.4441 6.65237 12.6756 6.73932 12.9175 6.76064L17.8722 7.18903V7.19486L17.8706 7.19153Z" fill="#1E2775"/>
</svg>
