<svg width="8" height="9" viewBox="0 0 8 9" fill="none" xmlns="http://www.w3.org/2000/svg">
<path d="M7.84195 7.37821C7.94606 7.48232 8.00455 7.62353 8.00455 7.77076C8.00455 7.918 7.94606 8.0592 7.84195 8.16331C7.73784 8.26742 7.59664 8.32591 7.44941 8.32591C7.30218 8.32591 7.16098 8.26742 7.05687 8.16331L4.12481 5.23027L1.19182 8.16239C1.08771 8.2665 0.946511 8.32499 0.79928 8.32499C0.652048 8.32499 0.510846 8.2665 0.406737 8.16239C0.302628 8.05828 0.244141 7.91707 0.244141 7.76984C0.244141 7.6226 0.302628 7.4814 0.406737 7.37729L3.33972 4.44517L0.407661 1.51213C0.303552 1.40802 0.245064 1.26681 0.245064 1.11958C0.245064 0.972342 0.303552 0.831137 0.407661 0.727026C0.511769 0.622915 0.652971 0.564427 0.800203 0.564427C0.947435 0.564427 1.08864 0.622915 1.19275 0.727026L4.12481 3.66007L7.05779 0.726564C7.1619 0.622454 7.3031 0.563965 7.45033 0.563965C7.59756 0.563965 7.73877 0.622454 7.84288 0.726564C7.94698 0.830675 8.00547 0.97188 8.00547 1.11911C8.00547 1.26635 7.94698 1.40755 7.84288 1.51166L4.90989 4.44517L7.84195 7.37821Z" fill="#FF2E00"/>
</svg>
