<svg width="140" height="90" viewBox="0 0 161 141" fill="none" xmlns="http://www.w3.org/2000/svg">
<g opacity="0.41">
<path d="M1.15597 91.3378C0.869797 88.6648 0.80327 85.9676 0.965894 83.2847C1.72938 70.6798 7.43108 58.5292 16.2754 49.7001C19.4308 46.5502 23.0571 43.686 25.011 39.6455C28.3019 32.8412 27.6475 25.2563 31.8155 18.489C35.9881 11.714 42.2903 6.26871 49.5539 3.25829C71.2107 -5.71664 102.712 5.35424 101.289 32.6418C101.284 32.7398 101.28 32.8817 101.277 33.0617C101.19 38.7191 105.757 43.2291 111.275 43.0702C131.641 42.484 149.951 57.5788 154.712 77.6774C157.773 90.603 154.543 105.12 145.659 114.85C139.027 122.113 129.857 126.397 120.622 129.496C102.107 135.709 82.4036 137.851 62.9443 136.883C44.7294 135.977 25.3479 131.669 12.9159 118.046C6.28391 110.779 2.21514 101.224 1.15597 91.3378Z" fill="#E1E2FE"/>
</g>
<path opacity="0.32" d="M6.86791 36.8185C4.81997 42.722 4.261 49.172 5.58698 55.2742C7.36951 63.4791 13.5101 70.6916 12.4633 79.4425C11.835 84.6937 11.9469 89.507 11.8205 94.6662C11.5608 105.26 18.9573 114.03 27.6345 118.42C34.6819 121.985 42.6952 122.925 50.4304 122.244C57.3922 121.631 64.2478 119.802 70.8654 117.535C77.2426 115.35 83.4328 112.635 90.3092 112.838C96.0278 113.007 101.331 115.135 106.758 116.612C119.715 120.138 135.044 119.637 146.057 111.994C158.129 103.617 163.005 87.7203 158.787 73.8285C156.524 66.3775 153.503 59.9191 154.596 51.9802C155.133 48.075 155.935 44.1001 155.195 40.228C154.514 36.6646 152.561 33.4579 150.246 30.6662C144.003 23.1384 135.116 18.3385 125.877 15.5144C115.396 12.3106 103.759 10.5641 92.8608 12.2229C71.6901 15.445 67.0831 12.3113 44.9525 9.16701C30.1274 7.06048 16.2114 18.8567 9.45511 31.0263C8.43114 32.8703 7.56346 34.8131 6.86791 36.8185Z" fill="#E1E2FE"/>
<g opacity="0.83">
<path opacity="0.81" d="M17.1115 53.8676C20.1609 49.8413 24.8745 47.1067 27.184 42.4801C29.949 36.9411 29.3664 30.4038 31.8357 24.7451C35.4845 16.3835 42.0933 9.28116 50.3689 5.38092C54.3574 3.50125 58.7345 2.35781 63.0042 2.68577C69.5866 3.19091 75.2644 7.11229 79.7045 11.7956C86.3126 18.7655 90.9851 28.6644 98.9156 34.2491C103.292 37.3307 108.435 34.0614 113.072 33.0243C118.316 31.8516 123.764 32.1267 128.773 33.5538C137.999 36.182 145.944 42.7953 149.917 51.5163C154.159 60.8269 153.556 73.6989 145.594 81.7037C141.91 85.407 136.915 87.882 134.181 92.3177C130.751 97.8845 130.349 105.409 129.391 111.598C128.333 118.434 125.413 125.093 121.026 130.619C120.976 130.681 120.926 130.744 120.876 130.806C113.253 140.29 100.242 143.488 89.2747 138.733C89.2747 138.733 65.9392 128.616 65.9385 128.615C42.2602 118.349 24.2842 101.807 15.6543 77.832C13.7869 72.6439 13.1082 61.5836 15.4878 56.5191C15.9373 55.5634 16.4899 54.6888 17.1115 53.8676Z" fill="#E1E2FE"/>
</g>
<path opacity="0.58" d="M5.48666 124.438C5.41345 124.78 5.07658 124.999 4.73409 124.926C4.39159 124.852 4.17335 124.515 4.24657 124.172C4.31978 123.83 4.65665 123.611 4.99914 123.685C5.34164 123.758 5.55988 124.095 5.48666 124.438Z" fill="#3E479B"/>
<path d="M62.9372 128.836H60.6291C59.6291 128.836 58.8153 128.022 58.8153 127.022V124.423C58.8153 123.96 58.5221 123.54 58.0863 123.38C57.8142 123.281 57.541 123.167 57.2753 123.044C56.8469 122.846 56.339 122.933 56.0112 123.26L54.1752 125.098C53.8327 125.441 53.3772 125.63 52.8929 125.63C52.4085 125.63 51.953 125.441 51.6102 125.098L49.9783 123.464C49.6358 123.122 49.4472 122.666 49.4472 122.181C49.4472 121.696 49.6358 121.241 49.9783 120.898L51.8143 119.06C52.1421 118.732 52.229 118.224 52.0305 117.795C51.908 117.531 51.795 117.258 51.6943 116.983C51.5345 116.547 51.1156 116.254 50.6524 116.254H48.0557C47.0557 116.254 46.2422 115.439 46.2422 114.439V112.129C46.2422 111.128 47.056 110.314 48.0557 110.314H50.6524C51.1156 110.314 51.5342 110.021 51.694 109.585C51.7953 109.309 51.9083 109.035 52.0301 108.773C52.2287 108.344 52.1417 107.836 51.814 107.508L49.978 105.67C49.6355 105.327 49.4468 104.871 49.4468 104.387C49.4468 103.902 49.6355 103.446 49.978 103.103L51.6098 101.47C52.317 100.762 53.4677 100.762 54.1749 101.47L56.0109 103.307C56.3386 103.635 56.8462 103.723 57.2749 103.523C57.5375 103.401 57.8103 103.289 58.0863 103.187C58.5224 103.027 58.8153 102.608 58.8153 102.144V99.5458C58.8153 98.545 59.6287 97.731 60.6291 97.731H62.9372C63.9372 97.731 64.7507 98.5454 64.7507 99.5458V102.144C64.7507 102.608 65.0436 103.027 65.48 103.187C65.756 103.289 66.0288 103.401 66.291 103.523C66.7198 103.722 67.2274 103.635 67.5551 103.307L69.3911 101.47C70.0983 100.762 71.2486 100.762 71.9558 101.47L73.588 103.103C73.9305 103.446 74.1192 103.902 74.1192 104.387C74.1192 104.871 73.9305 105.327 73.588 105.67L71.752 107.508C71.4243 107.836 71.3373 108.344 71.5359 108.773C71.658 109.035 71.771 109.309 71.872 109.585C72.0322 110.021 72.4507 110.314 72.9139 110.314H75.5103C76.5103 110.314 77.3238 111.128 77.3238 112.129V114.439C77.3238 115.44 76.51 116.254 75.5103 116.254H72.9139C72.4507 116.254 72.0322 116.547 71.872 116.983C71.7713 117.257 71.6583 117.531 71.5359 117.795C71.3373 118.224 71.4243 118.732 71.752 119.06L73.588 120.898C73.9305 121.241 74.1192 121.697 74.1192 122.181C74.1192 122.666 73.9305 123.122 73.588 123.464L71.9558 125.098C71.6133 125.441 71.1578 125.63 70.6735 125.63C70.1891 125.63 69.7336 125.441 69.3911 125.098L67.5551 123.26C67.2274 122.932 66.7191 122.846 66.291 123.044C66.0242 123.168 65.7511 123.281 65.4797 123.381C65.0439 123.54 64.7507 123.96 64.7507 124.423V127.022C64.7507 128.022 63.9372 128.836 62.9372 128.836ZM56.7983 122.234C57.0599 122.234 57.3239 122.29 57.5713 122.404C57.8198 122.52 58.0747 122.625 58.3288 122.718C59.0409 122.98 59.5196 123.665 59.5196 124.423V127.021C59.5196 127.633 60.0177 128.131 60.6295 128.131H62.9375C63.5493 128.131 64.0471 127.633 64.0471 127.021V124.423C64.0471 123.665 64.5254 122.98 65.2375 122.719C65.4913 122.626 65.7462 122.52 65.9954 122.404C66.6909 122.083 67.5181 122.226 68.0532 122.762L69.8892 124.599C70.3084 125.019 71.0392 125.019 71.4584 124.599L73.0906 122.966C73.3001 122.756 73.4155 122.477 73.4155 122.181C73.4155 121.884 73.3001 121.605 73.0906 121.396L71.2546 119.558C70.7189 119.022 70.5752 118.195 70.8973 117.499C71.0117 117.252 71.1173 116.997 71.2113 116.741C71.4728 116.028 72.1571 115.549 72.9143 115.549H75.5106C76.1224 115.549 76.6201 115.051 76.6201 114.438V112.129C76.6201 111.516 76.1224 111.018 75.5106 111.018H72.9143C72.1571 111.018 71.4728 110.54 71.2113 109.827C71.117 109.569 71.0114 109.314 70.8977 109.069C70.5756 108.373 70.7192 107.545 71.2546 107.009L73.0906 105.171C73.3001 104.961 73.4155 104.683 73.4155 104.387C73.4155 104.09 73.3001 103.811 73.0906 103.601L71.4584 101.968C71.0258 101.535 70.3218 101.535 69.8892 101.968L68.0532 103.805C67.5178 104.342 66.6906 104.485 65.995 104.163C65.7504 104.049 65.4952 103.943 65.2375 103.848C64.5254 103.587 64.0471 102.902 64.0471 102.144V99.5458C64.0471 98.9336 63.5493 98.4355 62.9375 98.4355H60.6295C60.0177 98.4355 59.5196 98.9336 59.5196 99.5458V102.144C59.5196 102.902 59.0413 103.587 58.3292 103.848C58.0715 103.943 57.8163 104.049 57.5713 104.163C56.8758 104.485 56.0489 104.342 55.5135 103.805L53.6775 101.968C53.2449 101.535 52.5405 101.535 52.1079 101.968L50.476 103.601C50.2666 103.811 50.1512 104.09 50.1512 104.387C50.1512 104.683 50.2666 104.962 50.476 105.171L52.3121 107.009C52.8475 107.545 52.9911 108.373 52.669 109.068C52.5553 109.314 52.4497 109.569 52.355 109.827C52.0942 110.54 51.4095 111.018 50.6524 111.018H48.0557C47.4439 111.018 46.9462 111.516 46.9462 112.129V114.438C46.9462 115.051 47.4439 115.549 48.0557 115.549H50.6524C51.4095 115.549 52.0938 116.027 52.355 116.74C52.449 116.997 52.5546 117.252 52.669 117.499C52.9914 118.195 52.8478 119.022 52.3121 119.558L50.476 121.396C50.2666 121.605 50.1512 121.884 50.1512 122.181C50.1512 122.477 50.2666 122.756 50.476 122.966L52.1079 124.599C52.5271 125.019 53.2579 125.019 53.6775 124.599L55.5135 122.762C55.8585 122.417 56.3242 122.234 56.7983 122.234ZM61.7833 121.463C57.2767 121.463 53.6103 117.794 53.6103 113.284C53.6103 108.774 57.2767 105.105 61.7833 105.105C66.29 105.105 69.9564 108.774 69.9564 113.284C69.9561 117.794 66.2896 121.463 61.7833 121.463ZM61.7833 105.809C57.6649 105.809 54.3143 109.162 54.3143 113.284C54.3143 117.405 57.6649 120.758 61.7833 120.758C65.9017 120.758 69.2524 117.405 69.2524 113.284C69.2521 109.162 65.9017 105.809 61.7833 105.809Z" fill="white"/>
<g opacity="0.81">
<path d="M48.3299 52.101H43.1235C42.9292 52.101 42.7715 51.9432 42.7715 51.7487C42.7715 51.5543 42.9292 51.3965 43.1235 51.3965H48.3299C48.5242 51.3965 48.6819 51.5543 48.6819 51.7487C48.6819 51.9432 48.5242 52.101 48.3299 52.101Z" fill="white"/>
<path d="M48.3299 60.6869H43.1235C42.9292 60.6869 42.7715 60.5291 42.7715 60.3347C42.7715 60.1402 42.9292 59.9824 43.1235 59.9824H48.3299C48.5242 59.9824 48.6819 60.1402 48.6819 60.3347C48.6819 60.5291 48.5242 60.6869 48.3299 60.6869Z" fill="white"/>
<path d="M52.0935 69.3566H20.2765C19.7503 69.3566 19.3223 68.9283 19.3223 68.4016V41.7548C19.3223 41.2282 19.7503 40.7998 20.2765 40.7998H52.0935C52.6197 40.7998 53.0477 41.2282 53.0477 41.7548V68.4016C53.0477 68.9283 52.6197 69.3566 52.0935 69.3566ZM20.2765 41.5043C20.1386 41.5043 20.0263 41.6167 20.0263 41.7548V68.4016C20.0263 68.5397 20.1386 68.6521 20.2765 68.6521H52.0935C52.2314 68.6521 52.3437 68.5397 52.3437 68.4016V41.7548C52.3437 41.6167 52.2314 41.5043 52.0935 41.5043H20.2765Z" fill="white"/>
<path opacity="0.66" d="M52.0935 69.3566H20.2765C19.7503 69.3566 19.3223 68.9283 19.3223 68.4016V41.7548C19.3223 41.2282 19.7503 40.7998 20.2765 40.7998H52.0935C52.6197 40.7998 53.0477 41.2282 53.0477 41.7548V68.4016C53.0477 68.9283 52.6197 69.3566 52.0935 69.3566ZM20.2765 41.5043C20.1386 41.5043 20.0263 41.6167 20.0263 41.7548V68.4016C20.0263 68.5397 20.1386 68.6521 20.2765 68.6521H52.0935C52.2314 68.6521 52.3437 68.5397 52.3437 68.4016V41.7548C52.3437 41.6167 52.2314 41.5043 52.0935 41.5043H20.2765Z" fill="white"/>
<path d="M48.3312 47.934H23.5219C23.3276 47.934 23.1699 47.7762 23.1699 47.5818C23.1699 47.3873 23.3276 47.2295 23.5219 47.2295H48.3312C48.5255 47.2295 48.6832 47.3873 48.6832 47.5818C48.6832 47.7762 48.5255 47.934 48.3312 47.934Z" fill="white"/>
<path d="M48.3312 56.2675H23.5219C23.3276 56.2675 23.1699 56.1097 23.1699 55.9152C23.1699 55.7208 23.3276 55.563 23.5219 55.563H48.3312C48.5255 55.563 48.6832 55.7208 48.6832 55.9152C48.6832 56.1097 48.5255 56.2675 48.3312 56.2675Z" fill="white"/>
<path d="M36.8976 52.101H23.5219C23.3276 52.101 23.1699 51.9432 23.1699 51.7487C23.1699 51.5543 23.3276 51.3965 23.5219 51.3965H36.8976C37.0919 51.3965 37.2496 51.5543 37.2496 51.7487C37.2496 51.9432 37.0919 52.101 36.8976 52.101Z" fill="white"/>
<path d="M36.8976 60.6865H23.5219C23.3276 60.6865 23.1699 60.5286 23.1699 60.3342C23.1699 60.1397 23.3276 59.9819 23.5219 59.9819H36.8976C37.0919 59.9819 37.2496 60.1397 37.2496 60.3342C37.2496 60.5286 37.0919 60.6865 36.8976 60.6865Z" fill="white"/>
<path d="M32.5423 64.664H23.5219C23.3276 64.664 23.1699 64.5062 23.1699 64.3117C23.1699 64.1173 23.3276 63.9595 23.5219 63.9595H32.5426C32.7369 63.9595 32.8946 64.1173 32.8946 64.3117C32.8943 64.5062 32.7369 64.664 32.5423 64.664Z" fill="white"/>
</g>
<path d="M15.8818 69.4736H18.6756H29.9005H31.8055C32.5173 69.4736 33.1512 70.0552 33.3853 70.9232L33.913 72.8807C34.1467 73.7487 34.7806 74.3303 35.4927 74.3303H58.2886C59.2122 74.3303 59.9609 75.2969 59.9609 76.4889V105.357C59.9609 106.55 59.2122 107.516 58.2886 107.516H58.1753H18.6752H15.8814C14.8951 107.516 14.0957 106.55 14.0957 105.357V78.7821V74.3306V71.6326C14.0961 70.4399 14.8954 69.4736 15.8818 69.4736Z" fill="#F28393"/>
<path opacity="0.12" d="M32.1498 74.6341L31.5866 72.6766C31.337 71.8086 30.6601 71.2271 29.9002 71.2271H15.8814C14.8951 71.2271 14.0957 72.1937 14.0957 73.3857V76.0833V80.5352V107.111C14.0957 108.303 14.8951 109.269 15.8814 109.269H58.1745C59.1609 109.269 59.9602 108.303 59.9602 107.111V78.2423C59.9602 77.0503 59.1609 76.0837 58.1745 76.0837H33.8362C33.0762 76.0837 32.3993 75.5021 32.1498 74.6341Z" fill="white"/>
<path opacity="0.12" d="M31.1131 76.6238L30.5823 74.7787C30.3468 73.9607 29.709 73.4126 28.9927 73.4126H15.779C14.8493 73.4126 14.0957 74.3235 14.0957 75.4473V77.9902V82.1864V107.235C14.0957 108.359 14.8493 109.27 15.779 109.27H55.643C56.5726 109.27 57.3262 108.359 57.3262 107.235V80.0249C57.3262 78.9012 56.5726 77.9902 55.643 77.9902H32.7024C31.9865 77.9902 31.3483 77.4418 31.1131 76.6238Z" fill="white"/>
<path d="M17.3482 81.8647C17.1744 81.8647 17.0332 81.7073 17.0332 81.5125V76.6227C17.0332 75.9605 17.5147 75.4219 18.1068 75.4219H24.6695C24.8434 75.4219 24.9845 75.5793 24.9845 75.7741C24.9845 75.9689 24.8434 76.1264 24.6695 76.1264H18.1072C17.8625 76.1264 17.6633 76.349 17.6633 76.6227V81.5125C17.6633 81.7073 17.5221 81.8647 17.3482 81.8647Z" fill="white"/>
<path d="M107.236 95.9376H50.9015C41.5467 95.9376 33.9629 88.3481 33.9629 78.9864C33.9629 69.6246 41.5467 62.0352 50.9015 62.0352H107.236C116.59 62.0352 124.174 69.6246 124.174 78.9864C124.175 88.3481 116.591 95.9376 107.236 95.9376Z" fill="#C5D9FF"/>
<path d="M79.0704 88.4667C92.2271 88.4667 102.893 77.7931 102.893 64.6267C102.893 51.4602 92.2271 40.7866 79.0704 40.7866C65.9137 40.7866 55.248 51.4602 55.248 64.6267C55.248 77.7931 65.9137 88.4667 79.0704 88.4667Z" fill="#599AF2"/>
<path d="M107.236 90.9439H50.9015C41.5467 90.9439 33.9629 83.3545 33.9629 73.9927C33.9629 64.6309 41.5467 57.0415 50.9015 57.0415H107.236C116.59 57.0415 124.174 64.6309 124.174 73.9927C124.175 83.3545 116.591 90.9439 107.236 90.9439Z" fill="#599AF2"/>
<path d="M88.499 81.5268C100.582 76.3168 106.157 62.2907 100.951 50.1986C95.7448 38.1065 81.7291 32.5274 69.646 37.7374C57.5629 42.9474 51.988 56.9735 57.1941 69.0656C62.4002 81.1577 76.4159 86.7368 88.499 81.5268Z" fill="#599AF2"/>
<g opacity="0.35">
<path d="M107.236 90.9439H50.9015C41.5467 90.9439 33.9629 83.3545 33.9629 73.9927C33.9629 64.6309 41.5467 57.0415 50.9015 57.0415H107.236C116.59 57.0415 124.174 64.6309 124.174 73.9927C124.175 83.3545 116.591 90.9439 107.236 90.9439Z" fill="#ECF1F7"/>
<path d="M88.499 81.5268C100.582 76.3168 106.157 62.2907 100.951 50.1986C95.7448 38.1065 81.7291 32.5274 69.646 37.7374C57.5629 42.9474 51.988 56.9735 57.1941 69.0656C62.4002 81.1577 76.4159 86.7368 88.499 81.5268Z" fill="#ECF1F7"/>
</g>
</svg>
