<svg width="24" height="25" viewBox="0 0 24 25" fill="none" xmlns="http://www.w3.org/2000/svg">
<g id="Warning Sign" clip-path="url(#clip0_1757_99924)">
<path id="Vector" d="M11.9996 14.7133C12.2294 14.7133 12.4499 14.622 12.6124 14.4595C12.7749 14.297 12.8662 14.0765 12.8662 13.8467V9.83334C12.8662 9.60349 12.7749 9.38305 12.6124 9.22052C12.4499 9.05798 12.2294 8.96667 11.9996 8.96667C11.7697 8.96667 11.5493 9.05798 11.3868 9.22052C11.2242 9.38305 11.1329 9.60349 11.1329 9.83334V13.8333C11.1311 13.9483 11.1523 14.0624 11.195 14.1691C11.2378 14.2758 11.3013 14.3729 11.382 14.4548C11.4626 14.5367 11.5588 14.6017 11.6648 14.6461C11.7708 14.6905 11.8846 14.7134 11.9996 14.7133Z" fill="#FFAC2F"/>
<path id="Vector_2" d="M11.9667 17.6801C12.519 17.6801 12.9667 17.2323 12.9667 16.6801C12.9667 16.1278 12.519 15.6801 11.9667 15.6801C11.4144 15.6801 10.9667 16.1278 10.9667 16.6801C10.9667 17.2323 11.4144 17.6801 11.9667 17.6801Z" fill="#FFAC2F"/>
<path id="Vector_3" d="M20.2205 17.5266L13.7271 5.56661C13.5552 5.25075 13.3013 4.98708 12.9922 4.80337C12.683 4.61966 12.3301 4.52271 11.9705 4.52271C11.6108 4.52271 11.2579 4.61966 10.9487 4.80337C10.6396 4.98708 10.3857 5.25075 10.2138 5.56661L3.71379 17.5266C3.54365 17.832 3.45653 18.1766 3.46111 18.5262C3.46568 18.8757 3.56179 19.2179 3.73985 19.5187C3.91792 19.8196 4.17171 20.0685 4.47595 20.2406C4.78018 20.4128 5.12422 20.5022 5.47378 20.4999H18.4605C18.8071 20.5003 19.148 20.4104 19.4495 20.2393C19.751 20.0682 20.0029 19.8216 20.1803 19.5238C20.3578 19.226 20.4548 18.8871 20.4619 18.5405C20.4689 18.1939 20.3857 17.8514 20.2205 17.5466V17.5266ZM19.0338 18.8199C18.9748 18.9195 18.8909 19.0019 18.7904 19.0592C18.6898 19.1165 18.5761 19.1466 18.4605 19.1466H5.47378C5.3579 19.1469 5.24394 19.117 5.14313 19.0599C5.04233 19.0027 4.95816 18.9203 4.89894 18.8207C4.83971 18.7211 4.80748 18.6077 4.8054 18.4919C4.80333 18.376 4.83149 18.2616 4.88712 18.1599L11.3805 6.19994C11.4376 6.09411 11.5223 6.0057 11.6255 5.94408C11.7288 5.88246 11.8469 5.84992 11.9671 5.84992C12.0874 5.84992 12.2054 5.88246 12.3087 5.94408C12.412 6.0057 12.4967 6.09411 12.5538 6.19994L19.0471 18.1599C19.1024 18.2616 19.1302 18.376 19.1279 18.4917C19.1255 18.6074 19.0931 18.7206 19.0338 18.8199Z" fill="#FFAC2F"/>
</g>
<defs>
<clipPath id="clip0_1757_99924">
<rect width="24" height="24" fill="white" transform="translate(0 0.5)"/>
</clipPath>
</defs>
</svg>
