<svg xmlns="http://www.w3.org/2000/svg" width="62.318" height="46.817" viewBox="0 0 62.318 46.817"><defs><style>.a{fill:#30333d;}.a,.b{stroke:#30333d;}.a,.b,.c{stroke-width:0.1px;}.b{fill:rgba(48,51,61,0.7);}.c{fill:#2fb67c;stroke:#2fb67c;}</style></defs><g transform="translate(0.056 0.06)"><g transform="translate(0 0)"><path class="a" d="M0,97.041a3.916,3.916,0,0,0,1.516-.4,1.509,1.509,0,0,0,.7-.81,4.23,4.23,0,0,0,.159-1.479V84h8.057a4.561,4.561,0,0,1,3.357,1.209A5.162,5.162,0,0,1,15.015,89V99.2H11.181V88.807q0-1.941-1.812-1.941H6.23v6.973a7.025,7.025,0,0,1-.625,3.22,4.008,4.008,0,0,1-1.908,1.8A10.072,10.072,0,0,1,.3,99.647Z" transform="translate(0 -52.943)"/><path class="a" d="M46.112,87.109,45.79,84h3.834l.311,3.109V99.2H46.112Z" transform="translate(-28.86 -52.943)"/><path class="a" d="M67.341,89.986a7.647,7.647,0,0,1,.2-1.823,3.7,3.7,0,0,1,.544-1.29H61.27V84H73.741v2.877H71.678a7.868,7.868,0,0,0-.5,3.113V99.2H67.341Z" transform="translate(-38.616 -52.943)"/><path class="a" d="M99.458,87.109,99.14,84h3.834l.318,3.113V99.2H99.458Z" transform="translate(-62.484 -52.943)"/><path class="a" d="M125.83,97.185q-3.087,2.093-9,2.278l-1.479-12.571L115,84h8.175a5.42,5.42,0,0,1,4.045,1.479,5.742,5.742,0,0,1,1.516,4.067l.03.88Q128.913,95.092,125.83,97.185Zm-2.7-1.915a3.431,3.431,0,0,0,1.479-1.849,8.874,8.874,0,0,0,.37-3.1v-.776a3.084,3.084,0,0,0-.558-1.941,1.819,1.819,0,0,0-1.52-.717h-3.671l.943,9.169A6.459,6.459,0,0,0,123.134,95.27Z" transform="translate(-72.48 -52.943)"/><path class="a" d="M157.329,87.109,157,84h3.845l.318,3.113v4.156l-.026,1.675-3.808.666Z" transform="translate(-98.951 -52.943)"/><path class="b" d="M90.72,34.691V28.46a.983.983,0,0,1,.5-.85l13.739-7.72v8.463L92.169,35.537a.972.972,0,0,1-1.449-.847Z" transform="translate(-57.178 -12.537)"/><path class="c" d="M90.72.974V7.2a.983.983,0,0,0,.5.85l13.739,7.72V7.311L92.169.127A.972.972,0,0,0,90.72.974Z" transform="translate(-57.178 -0.002)"/><path class="b" d="M57.165.982v6.23a.976.976,0,0,1-.5.847L42.93,15.779V7.319L55.715.131a.976.976,0,0,1,1.449.85Z" transform="translate(-27.057 -0.006)"/><path class="c" d="M57.165,34.567v-6.23a.976.976,0,0,0-.5-.847L42.93,19.77v8.46l12.785,7.188a.976.976,0,0,0,1.449-.85Z" transform="translate(-27.057 -12.461)"/></g></g></svg>