<svg width="47" height="35" viewBox="0 0 47 35" fill="none" xmlns="http://www.w3.org/2000/svg">
<path d="M35.8508 11.9117L30.1214 8.66923L25.4601 6.04599C25.3577 5.98806 25.2723 5.90426 25.2126 5.80297C25.1528 5.70168 25.1206 5.58645 25.1194 5.46884C25.1087 4.02194 25.108 2.52762 25.1174 0.985877C25.1234 0.0860781 25.6344 -0.254603 26.4521 0.20231C29.5543 1.93377 32.6538 3.66991 35.7506 5.41072C35.778 5.42584 35.8009 5.44813 35.8167 5.47528C35.8326 5.50243 35.8409 5.53343 35.8408 5.56503L35.8508 11.9117Z" fill="#2FB67C"/>
<path d="M11.887 5.43652L17.6264 8.675L22.2136 11.2542C22.3328 11.3216 22.432 11.4194 22.501 11.5377C22.57 11.656 22.6064 11.7905 22.6064 11.9275C22.6104 13.325 22.6104 14.7551 22.6064 16.2181C22.6024 17.1179 22.2196 17.663 21.2978 17.1459C18.1942 15.4024 15.09 13.663 11.9852 11.9275C11.925 11.8941 11.895 11.8433 11.895 11.7752L11.887 5.43652Z" fill="#2FB67C"/>
<path d="M4.73461 25.5889C4.72526 27.2535 4.72793 28.9188 4.74262 30.5848C4.76868 33.5307 3.13341 34.9095 0.301746 34.9997C0.22693 35.0023 0.185513 34.9663 0.177497 34.8914L0.00114517 33.1019C-0.00687085 33.0257 0.0271962 32.983 0.103348 32.9736C0.945031 32.8674 1.69653 32.6389 1.70856 31.6369C1.74196 28.8741 1.75933 26.1112 1.76066 23.3484C1.76066 23.2789 1.7954 23.2442 1.86487 23.2442C3.69787 23.2428 5.52285 23.2428 7.33982 23.2442C8.27636 23.2442 8.96774 23.3397 9.41396 23.5307C10.1888 23.8621 10.7299 24.4185 11.0372 25.2001C11.2109 25.641 11.2991 26.3697 11.3017 27.3864C11.3044 29.7953 11.3057 32.2108 11.3057 34.6329C11.3057 34.673 11.2857 34.6931 11.2456 34.6931H8.44803C8.3799 34.6931 8.34583 34.659 8.34583 34.5908C8.34716 32.015 8.35451 29.4446 8.36787 26.8794C8.37188 25.9202 7.89693 25.4439 6.94302 25.4506C6.24029 25.4546 5.53888 25.4653 4.83882 25.4826C4.76935 25.484 4.73461 25.5194 4.73461 25.5889Z" fill="white"/>
<path d="M15.6284 23.3003C15.7146 24.3243 15.8469 25.3284 15.8509 26.3364C15.8576 29.0845 15.8576 31.8374 15.8509 34.5949C15.8495 34.6603 15.8168 34.6931 15.7527 34.6931H13.0052C12.9357 34.6931 12.901 34.6583 12.901 34.5889C12.9037 31.7766 12.903 28.9656 12.899 26.156C12.899 25.2201 12.7647 24.2783 12.6665 23.3324C12.6598 23.2722 12.6872 23.2422 12.7487 23.2422H15.5623C15.6024 23.2422 15.6244 23.2616 15.6284 23.3003Z" fill="white"/>
<path d="M24.7647 25.5648C24.575 26.2395 24.4775 27.1113 24.4721 28.1801C24.4614 30.323 24.4594 32.4619 24.4661 34.5969C24.4661 34.6219 24.4562 34.6458 24.4385 34.6635C24.4208 34.6811 24.3969 34.6911 24.3719 34.6911L21.6184 34.6931C21.5382 34.6931 21.4982 34.6537 21.4982 34.5748C21.5075 32.3557 21.5109 30.1413 21.5082 27.9316C21.5082 27.0004 21.6511 26.2155 21.937 25.5769C21.9678 25.5074 21.9451 25.4726 21.8689 25.4726H17.0573C16.9891 25.4726 16.9551 25.4386 16.9551 25.3704V23.3364C16.9564 23.2763 16.9871 23.2462 17.0473 23.2462L26.2897 23.2422C26.3485 23.2422 26.3779 23.2716 26.3779 23.3304L26.3819 25.3724C26.3819 25.4392 26.3485 25.4726 26.2817 25.4726H24.8869C24.8228 25.4726 24.7821 25.5034 24.7647 25.5648Z" fill="white"/>
<path d="M30.3517 23.2402C30.3757 23.2402 30.3891 23.2523 30.3918 23.2763C30.5441 24.5028 30.6403 25.649 30.6423 26.9436C30.6423 29.4914 30.6409 32.0392 30.6383 34.5869C30.6383 34.6577 30.6035 34.6931 30.5341 34.6931H27.7866C27.7184 34.6931 27.6844 34.6597 27.6844 34.5929C27.6803 31.8688 27.6803 29.146 27.6844 26.4246C27.6864 25.3905 27.5501 24.3685 27.4499 23.3284C27.4445 23.2696 27.4713 23.2402 27.53 23.2402H30.3517Z" fill="white"/>
<path d="M37.929 23.2305C40.1762 23.2199 41.5857 24.2933 42.1575 26.451C42.251 26.8024 42.2664 27.6287 42.2036 28.9299C42.09 31.2987 40.9644 32.9266 38.8268 33.8137C37.1047 34.5271 35.2671 34.8711 33.3138 34.8458C33.247 34.8444 33.2096 34.8104 33.2016 34.7436L31.8529 23.3267C31.8462 23.272 31.8703 23.2446 31.925 23.2446C33.9384 23.2459 35.9397 23.2412 37.929 23.2305ZM38.43 31.2285C39.3739 30.1664 39.4501 28.3869 39.2697 26.978C39.1401 25.9747 38.5683 25.4717 37.5543 25.469C36.7754 25.4677 35.9878 25.471 35.1916 25.479C35.1248 25.4804 35.0947 25.5138 35.1014 25.5792L35.7747 32.1363C35.7814 32.1965 35.8148 32.2272 35.8749 32.2285C36.9665 32.2526 37.8182 31.9192 38.43 31.2285Z" fill="white"/>
<path d="M43.4841 23.3244C43.4788 23.271 43.5035 23.2442 43.5583 23.2442L46.3398 23.2402C46.42 23.2402 46.4634 23.2803 46.4701 23.3605C46.6531 25.5395 46.6965 27.7232 46.6003 29.9116C46.5977 29.9904 46.5569 30.0365 46.4781 30.0498L43.8328 30.5027C43.758 30.5148 43.7206 30.4834 43.7206 30.4086C43.7152 28.9563 43.7132 27.5081 43.7146 26.0639C43.7146 25.1701 43.5623 24.2543 43.4841 23.3244Z" fill="white"/>
<path d="M17.6264 8.67546L11.887 5.43699C14.9317 3.72156 17.9825 2.00881 21.0393 0.298721C21.7667 -0.108092 22.6505 -0.244364 22.6545 0.883891C22.6598 2.40426 22.6612 3.91261 22.6585 5.40894C22.6579 5.54464 22.6214 5.67771 22.5528 5.79459C22.4841 5.91147 22.3858 6.00797 22.2677 6.07427L17.6264 8.67546Z" fill="#576984"/>
<path d="M30.1216 8.66895L35.851 11.9114C32.698 13.683 29.5631 15.4525 26.4462 17.22C26.1282 17.4004 25.8557 17.4585 25.6286 17.3944C25.2638 17.2928 25.0808 17.0136 25.0795 16.5567C25.0755 15.0203 25.0761 13.4899 25.0815 11.9655C25.0822 11.8183 25.1219 11.6739 25.1965 11.5471C25.2712 11.4204 25.3781 11.3158 25.5063 11.2441L30.1216 8.66895Z" fill="#576984"/>
</svg>
