<?xml version="1.0" encoding="utf-8"?>
<svg viewBox="0 0 512 512" xmlns="http://www.w3.org/2000/svg">
  <path d="M 128.824 0 L 307.164 0 L 448.176 125 L 448.176 447 C 448.176 482.899 419.075 512 383.176 512 L 128.824 512 C 92.925 512 63.824 482.899 63.824 447 L 63.824 65 C 63.824 29.101 92.925 0 128.824 0 Z" style="stroke: rgb(0, 0, 0); stroke-width: 0px; fill: rgb(234, 67, 53);"/>
  <path d="M 307.163 0 L 448.175 0 L 448.175 125 L 307.163 0 Z" style="stroke: rgb(0, 0, 0); stroke-width: 0px; fill: rgb(234, 148, 149);" transform="matrix(-1, 0, 0, -1, 755.337952, 125)"/>
  <path d="M 196.376 313.332 C 196.376 320.293 194.78 326.627 191.588 332.336 C 188.4 338.045 183.587 342.613 177.147 346.039 C 170.714 349.465 162.844 351.178 153.541 351.178 L 137.804 351.178 L 137.804 390 L 106 390 L 106 275 L 153.541 275 C 162.738 275 170.554 276.632 176.988 279.896 C 183.423 283.156 188.264 287.668 191.512 293.432 C 194.755 299.197 196.376 305.831 196.376 313.332 Z M 150.461 325.734 C 159.438 325.734 163.925 321.6 163.925 313.332 C 163.925 304.962 159.438 300.776 150.461 300.776 L 137.804 300.776 L 137.804 325.734 L 150.461 325.734 Z" style="fill: rgb(255, 255, 255); line-height: 49.9481px; white-space: pre;"/>
  <path d="M 254.452 275 C 266.459 275 276.98 277.42 286.015 282.26 C 295.046 287.099 301.997 293.868 306.862 302.571 C 311.729 311.27 314.162 321.221 314.162 332.42 C 314.162 343.512 311.702 353.407 306.781 362.107 C 301.858 370.807 294.882 377.63 285.851 382.578 C 276.818 387.526 266.352 390 254.452 390 L 209.185 390 L 209.185 275 L 254.452 275 Z M 252.023 361.779 C 261.322 361.779 268.623 359.225 273.922 354.114 C 279.226 349.004 281.879 341.771 281.879 332.42 C 281.879 322.958 279.226 315.646 273.922 310.481 C 268.623 305.315 261.322 302.733 252.023 302.733 L 240.986 302.733 L 240.986 361.779 L 252.023 361.779 Z" style="fill: rgb(255, 255, 255); line-height: 49.9481px; white-space: pre;"/>
  <path d="M 406 275 L 406 300.45 L 360.244 300.45 L 360.244 320.677 L 393.988 320.677 L 393.988 344.981 L 360.244 344.981 L 360.244 390 L 328.438 390 L 328.438 275 L 406 275 Z" style="fill: rgb(255, 255, 255); line-height: 49.9481px; white-space: pre;"/>
</svg>