<?xml version="1.0" encoding="utf-8"?>
<svg viewBox="0 0 512 512" xmlns="http://www.w3.org/2000/svg">
  <path d="M 128.824 0 L 307.164 0 L 448.176 125 L 448.176 447 C 448.176 482.899 419.075 512 383.176 512 L 128.824 512 C 92.925 512 63.824 482.899 63.824 447 L 63.824 65 C 63.824 29.101 92.925 0 128.824 0 Z" style="stroke: rgb(0, 0, 0); stroke-width: 0px; fill: rgb(253, 117, 65);"/>
  <path d="M 246.83 434 C 189.761 434 143.5 387.739 143.5 330.67 C 143.5 274.787 187.863 229.265 243.294 227.4 C 245.3 227.74 246.83 229.485 246.83 231.589 L 246.83 326.425 C 246.83 328.77 248.731 330.67 251.076 330.67 L 345.911 330.67 C 348.015 330.67 349.761 332.2 350.1 334.206 C 348.235 389.638 302.714 434 246.83 434 Z" style="stroke: rgb(0, 0, 0); stroke-width: 0px; fill: rgb(255, 255, 255);"/>
  <path d="M 272.765 205 C 327.022 206.823 370.678 250.478 372.5 304.735 C 372.162 306.741 370.416 308.27 368.314 308.27 L 273.477 308.27 C 271.132 308.27 269.23 306.368 269.23 304.023 L 269.23 209.186 C 269.23 207.085 270.759 205.339 272.765 205 Z" style="stroke: rgb(0, 0, 0); stroke-width: 0px; fill: rgb(255, 255, 255);"/>
  <path d="M 307.163 0 L 448.175 0 L 448.175 125 L 307.163 0 Z" style="stroke: rgb(0, 0, 0); stroke-width: 0px; fill: rgb(254, 186, 160);" transform="matrix(-1, 0, 0, -1, 755.337952, 125)"/>
</svg>