<svg width="22" height="22" viewBox="0 0 22 22" fill="none" xmlns="http://www.w3.org/2000/svg">
<path d="M19.4883 12H15.9895V10.25H19.4883V12ZM19.4883 13H15.9895V14.75H19.4883V13ZM19.4883 4.75H15.9895V6.5H19.4883V4.75ZM19.4883 7.5H15.9895V9.25H19.4883V7.5ZM19.4883 15.75H15.9895V17.5H19.4883V15.75ZM21.905 19.2C21.8051 19.72 21.1803 19.7325 20.7629 19.75H12.9906V22H11.4386L0 20V2.5025L11.5061 0.5H12.9906V2.49251L20.4955 2.4925C20.9179 2.51 21.3827 2.48 21.7501 2.7325C22.0075 3.1025 21.9825 3.5725 22 3.9975L21.99 17.0125C21.9775 17.74 22.0575 18.4825 21.905 19.2ZM9.16437 15.2775C8.47461 13.8775 7.77234 12.4875 7.08508 11.0875C7.76485 9.725 8.43462 8.3575 9.10189 6.99C8.53458 7.0175 7.96728 7.0525 7.40247 7.0925C6.98012 8.12 6.48778 9.12 6.1579 10.1825C5.8505 9.18 5.44314 8.215 5.07077 7.2375C4.52096 7.2675 3.97114 7.3 3.42133 7.3325C4.00113 8.6125 4.61842 9.875 5.18073 11.1625C4.51846 12.4125 3.89867 13.68 3.25639 14.9375C3.8037 14.96 4.35101 14.9825 4.89833 14.99C5.28819 13.995 5.77303 13.0375 6.11291 12.0225C6.41781 13.1125 6.93513 14.12 7.35998 15.1625C7.96228 15.205 8.56207 15.2425 9.16437 15.2775ZM20.8081 3.67984H12.9906V4.75H14.9899V6.5H12.9906V7.5H14.9899V9.25H12.9906V10.25H14.9899V12H12.9906V13H14.9899V14.75H12.9906V15.75H14.9899V17.5H12.9906V18.6561H20.8081V3.67984Z" fill="#39C44F"/>
</svg>
