<?xml version="1.0" encoding="utf-8"?>
<svg viewBox="0 0 512 512" xmlns="http://www.w3.org/2000/svg">
  <path d="M 128.824 0 L 307.164 0 L 448.176 125 L 448.176 447 C 448.176 482.899 419.075 512 383.176 512 L 128.824 512 C 92.925 512 63.824 482.899 63.824 447 L 63.824 65 C 63.824 29.101 92.925 0 128.824 0 Z" style="stroke: rgb(0, 0, 0); stroke-width: 0px; fill: rgb(255, 177, 31);"/>
  <path d="M 307.162 0 L 448.174 0 L 448.174 125 L 307.162 0 Z" style="stroke: rgb(0, 0, 0); stroke-width: 0px; fill: rgb(255, 201, 99);" transform="matrix(-1, 0, 0, -1, 755.335999, 125)"/>
  <path style="stroke: rgb(0, 0, 0); stroke-width: 0px; fill: rgb(255, 255, 255);" d="M 167.642 250 L 203.357 250 C 209.275 250 214.071 254.798 214.071 260.715 L 214.1 325 L 233.7 385 C 233.7 385 235.5 391.39 235.5 395 C 235.5 423.228 213.114 445.613 185.5 445.613 C 157.885 445.613 135.5 423.228 135.5 395 C 135.5 391.39 137.3 385 137.3 385 L 156.9 325 L 156.929 260.715 C 156.929 254.798 161.725 250 167.642 250 Z M 202.914 372.96 L 168.085 372.96 C 168.085 372.96 157.017 397.881 157 400 C 158.172 412.6 170.482 424.185 185.5 424.185 C 199.476 424.185 211.107 414.15 214 400 C 213.584 400.894 202.914 372.96 202.914 372.96 Z"/>
  <path style="stroke: rgb(0, 0, 0); stroke-width: 0px; fill: rgb(255, 255, 255);" d="M 135.1 41.668 L 197.1 41.668 L 197.073 62.5 L 228.396 62.5 C 232.32 62.5 235.5 66.499 235.5 71.429 L 235.5 95.239 C 235.5 100.17 232.32 104.168 228.396 104.168 L 197.073 104.168 L 197.073 145.834 L 228.396 145.834 C 232.32 145.834 235.5 149.832 235.5 154.764 L 235.5 178.573 C 235.5 183.504 232.32 187.5 228.396 187.5 L 197.073 187.5 L 197.073 229.168 L 142.605 229.168 C 138.681 229.168 135.5 225.17 135.5 220.239 L 135.5 196.429 C 135.5 191.499 138.681 187.5 142.605 187.5 L 173.928 187.5 L 173.928 145.834 L 142.605 145.834 C 138.681 145.834 135.5 141.838 135.5 136.904 L 135.5 113.095 C 135.5 108.165 138.681 104.168 142.605 104.168 L 173.928 104.168 L 173.928 62.5 L 142.605 62.5 C 138.681 62.5 135.5 58.504 135.5 53.573 L 135.1 41.668 Z"/>
</svg>