<svg width="134" height="26" viewBox="0 0 134 26" fill="none" xmlns="http://www.w3.org/2000/svg">
<path d="M10.72 17.5C10.6267 17.5 10.5473 17.472 10.482 17.416C10.426 17.3507 10.398 17.2713 10.398 17.178V12.992C10.398 12.2453 10.2113 11.6667 9.838 11.256C9.46467 10.836 8.86267 10.626 8.032 10.626H5.4C5.30667 10.626 5.22733 10.598 5.162 10.542C5.106 10.4767 5.078 10.3973 5.078 10.304V9.828C5.078 9.73467 5.106 9.66 5.162 9.604C5.22733 9.53867 5.30667 9.506 5.4 9.506H8.102C9.31533 9.506 10.2113 9.8 10.79 10.388C11.378 10.976 11.672 11.83 11.672 12.95V17.178C11.672 17.2713 11.6393 17.3507 11.574 17.416C11.518 17.472 11.4433 17.5 11.35 17.5H10.72ZM5.4 17.5C5.30667 17.5 5.22733 17.472 5.162 17.416C5.106 17.3507 5.078 17.2713 5.078 17.178V12.502C5.078 12.4087 5.106 12.334 5.162 12.278C5.22733 12.2127 5.30667 12.18 5.4 12.18H6.03C6.13267 12.18 6.212 12.2127 6.268 12.278C6.324 12.334 6.352 12.4087 6.352 12.502V17.178C6.352 17.2713 6.324 17.3507 6.268 17.416C6.212 17.472 6.13267 17.5 6.03 17.5H5.4ZM17.722 16.45C18.3286 16.4593 18.8373 16.3473 19.248 16.114C19.668 15.8807 19.9853 15.5493 20.2 15.12C20.424 14.6813 20.536 14.182 20.536 13.622V9.828C20.536 9.73467 20.564 9.66 20.62 9.604C20.6853 9.53867 20.7646 9.506 20.858 9.506H21.432C21.5346 9.506 21.614 9.53867 21.67 9.604C21.726 9.66 21.754 9.73467 21.754 9.828V13.72C21.754 14.3173 21.6606 14.8587 21.474 15.344C21.2873 15.82 21.0213 16.2307 20.676 16.576C20.3306 16.912 19.92 17.1687 19.444 17.346C18.9773 17.5233 18.4593 17.6027 17.89 17.584H16.84C16.2333 17.584 15.6873 17.444 15.202 17.164C14.7166 16.884 14.334 16.492 14.054 15.988C13.774 15.484 13.634 14.9007 13.634 14.238V9.828C13.634 9.73467 13.662 9.66 13.718 9.604C13.7833 9.53867 13.8626 9.506 13.956 9.506H14.544C14.6373 9.506 14.712 9.53867 14.768 9.604C14.8333 9.66 14.866 9.73467 14.866 9.828L14.908 13.958C14.908 14.7607 15.132 15.3767 15.58 15.806C16.028 16.2353 16.5973 16.45 17.288 16.45H17.722ZM14.614 14.812L14.586 13.79C15.2766 13.7807 15.804 13.678 16.168 13.482C16.532 13.2767 16.784 13.006 16.924 12.67C17.0733 12.334 17.148 11.9653 17.148 11.564V9.828C17.148 9.73467 17.176 9.66 17.232 9.604C17.288 9.53867 17.3673 9.506 17.47 9.506H18.044C18.1373 9.506 18.212 9.53867 18.268 9.604C18.3333 9.66 18.366 9.73467 18.366 9.828V11.62C18.366 12.2267 18.2306 12.7727 17.96 13.258C17.6893 13.7433 17.274 14.126 16.714 14.406C16.1633 14.686 15.4633 14.8213 14.614 14.812ZM27.2548 17.5C27.0494 17.5 26.9468 17.3973 26.9468 17.192V12.194C26.9468 11.6433 27.0121 11.214 27.1428 10.906C27.2734 10.598 27.4368 10.444 27.6328 10.444H29.0048C28.7714 10.444 28.5801 10.6213 28.4308 10.976C28.2908 11.3307 28.2208 11.7693 28.2208 12.292V17.192C28.2208 17.2853 28.1881 17.36 28.1228 17.416C28.0574 17.472 27.9781 17.5 27.8848 17.5H27.2548ZM23.4748 10.626C23.3814 10.626 23.3021 10.598 23.2368 10.542C23.1808 10.4767 23.1528 10.3973 23.1528 10.304V9.828C23.1528 9.73467 23.1808 9.66 23.2368 9.604C23.3021 9.53867 23.3814 9.506 23.4748 9.506H29.4808C29.5741 9.506 29.6488 9.53867 29.7048 9.604C29.7701 9.66 29.8028 9.73467 29.8028 9.828V10.304C29.8028 10.3973 29.7701 10.4767 29.7048 10.542C29.6488 10.598 29.5741 10.626 29.4808 10.626H23.4748ZM31.8277 17.5C31.7344 17.5 31.6551 17.472 31.5897 17.416C31.5337 17.3507 31.5057 17.2713 31.5057 17.178V9.828C31.5057 9.73467 31.5337 9.66 31.5897 9.604C31.6551 9.53867 31.7344 9.506 31.8277 9.506H34.5437C35.3557 9.506 36.0231 9.63667 36.5457 9.898C37.0777 10.15 37.4744 10.5327 37.7357 11.046C37.9971 11.55 38.1277 12.1847 38.1277 12.95V17.178C38.1277 17.2713 38.0951 17.3507 38.0297 17.416C37.9737 17.472 37.8991 17.5 37.8057 17.5H37.1757C37.0731 17.5 36.9937 17.472 36.9377 17.416C36.8817 17.3507 36.8537 17.2713 36.8537 17.178V12.992C36.8537 12.2453 36.6671 11.6667 36.2937 11.256C35.9204 10.836 35.3137 10.626 34.4737 10.626H32.7797V17.178C32.7797 17.2713 32.7517 17.3507 32.6957 17.416C32.6397 17.472 32.5604 17.5 32.4577 17.5H31.8277ZM43.9547 20.174C43.8614 20.174 43.782 20.1413 43.7167 20.076C43.6607 20.02 43.6327 19.9453 43.6327 19.852V12.502C43.6327 12.4087 43.6607 12.334 43.7167 12.278C43.782 12.2127 43.8614 12.18 43.9547 12.18H44.5707C44.6734 12.18 44.7527 12.2127 44.8087 12.278C44.8647 12.334 44.8927 12.4087 44.8927 12.502V19.852C44.8927 19.9453 44.8647 20.02 44.8087 20.076C44.7527 20.1413 44.6734 20.174 44.5707 20.174H43.9547ZM46.6427 17.626C46.5587 17.654 46.4794 17.64 46.4047 17.584C46.3394 17.5373 46.3067 17.4673 46.3067 17.374V16.73C46.3067 16.646 46.33 16.5713 46.3767 16.506C46.4327 16.4407 46.512 16.3893 46.6147 16.352L47.1467 16.142C47.52 15.9927 47.856 15.806 48.1547 15.582C48.4627 15.3487 48.7007 15.036 48.8687 14.644C49.046 14.252 49.1347 13.7387 49.1347 13.104C49.1347 12.4973 49.06 12.0167 48.9107 11.662C48.7614 11.298 48.514 11.0413 48.1687 10.892C47.8327 10.7333 47.3754 10.654 46.7967 10.654H43.9547C43.8614 10.654 43.782 10.626 43.7167 10.57C43.6607 10.5047 43.6327 10.4253 43.6327 10.332V9.828C43.6327 9.73467 43.6607 9.66 43.7167 9.604C43.782 9.53867 43.8614 9.506 43.9547 9.506H46.9787C47.8374 9.506 48.514 9.62733 49.0087 9.87C49.5127 10.1127 49.872 10.5047 50.0867 11.046C50.3107 11.578 50.4227 12.278 50.4227 13.146C50.4227 13.7993 50.334 14.364 50.1567 14.84C49.9794 15.316 49.7367 15.722 49.4287 16.058C49.13 16.394 48.7894 16.674 48.4067 16.898C48.0334 17.1127 47.6414 17.29 47.2307 17.43L46.6427 17.626ZM52.7184 17.5C52.625 17.5 52.5457 17.472 52.4804 17.416C52.4244 17.3507 52.3964 17.2713 52.3964 17.178V9.828C52.3964 9.73467 52.4244 9.66 52.4804 9.604C52.5457 9.53867 52.625 9.506 52.7184 9.506H53.3764C53.479 9.506 53.5584 9.53867 53.6144 9.604C53.6704 9.66 53.6984 9.73467 53.6984 9.828V17.178C53.6984 17.2713 53.6704 17.3507 53.6144 17.416C53.5584 17.472 53.479 17.5 53.3764 17.5H52.7184ZM56.1773 17.5C56.084 17.5 56.0047 17.472 55.9393 17.416C55.8833 17.3507 55.8553 17.2713 55.8553 17.178V9.828C55.8553 9.73467 55.8833 9.66 55.9393 9.604C56.0047 9.53867 56.084 9.506 56.1773 9.506H58.8933C59.7053 9.506 60.3727 9.63667 60.8953 9.898C61.4273 10.15 61.824 10.5327 62.0853 11.046C62.3467 11.55 62.4773 12.1847 62.4773 12.95V17.178C62.4773 17.2713 62.4447 17.3507 62.3793 17.416C62.3233 17.472 62.2487 17.5 62.1553 17.5H61.5253C61.4227 17.5 61.3433 17.472 61.2873 17.416C61.2313 17.3507 61.2033 17.2713 61.2033 17.178V12.992C61.2033 12.2453 61.0167 11.6667 60.6433 11.256C60.27 10.836 59.6633 10.626 58.8233 10.626H57.1293V17.178C57.1293 17.2713 57.1013 17.3507 57.0453 17.416C56.9893 17.472 56.91 17.5 56.8073 17.5H56.1773ZM68.5423 10.626C68.449 10.626 68.3696 10.598 68.3043 10.542C68.2483 10.4767 68.2203 10.3973 68.2203 10.304V9.828C68.2203 9.73467 68.2483 9.66 68.3043 9.604C68.3696 9.53867 68.449 9.506 68.5423 9.506H71.5803C72.383 9.506 73.0456 9.63667 73.5683 9.898C74.1003 10.15 74.497 10.5327 74.7583 11.046C75.0196 11.55 75.1503 12.1753 75.1503 12.922V17.178C75.1503 17.2713 75.1176 17.3507 75.0523 17.416C74.9963 17.472 74.9216 17.5 74.8283 17.5H74.1983C74.0956 17.5 74.0163 17.472 73.9603 17.416C73.9043 17.3507 73.8763 17.2713 73.8763 17.178V12.992C73.8763 12.2453 73.685 11.6667 73.3023 11.256C72.929 10.836 72.327 10.626 71.4963 10.626H68.5423ZM69.8023 9.94H70.1523C70.2923 9.94 70.395 9.97733 70.4603 10.052C70.535 10.1173 70.5676 10.2013 70.5583 10.304C70.4836 10.696 70.4183 11.0507 70.3623 11.368C70.3156 11.6853 70.283 12.0027 70.2643 12.32C70.2456 12.628 70.2363 12.978 70.2363 13.37L70.2643 17.178C70.2643 17.2713 70.2363 17.3507 70.1803 17.416C70.1243 17.472 70.0496 17.5 69.9563 17.5L67.9683 17.472C67.875 17.472 67.7956 17.444 67.7303 17.388C67.6743 17.332 67.6463 17.2527 67.6463 17.15V16.702C67.6463 16.6087 67.6743 16.534 67.7303 16.478C67.7956 16.4127 67.875 16.38 67.9683 16.38L69.0463 16.394V13.426C69.0463 13.0433 69.051 12.6933 69.0603 12.376C69.0696 12.0493 69.0976 11.7227 69.1443 11.396C69.191 11.0693 69.2656 10.7007 69.3683 10.29C69.3963 10.1873 69.4383 10.1033 69.4943 10.038C69.5596 9.97267 69.6623 9.94 69.8023 9.94ZM77.4485 14.252C77.3552 14.252 77.2758 14.224 77.2105 14.168C77.1545 14.1027 77.1265 14.0233 77.1265 13.93V9.828C77.1265 9.73467 77.1545 9.66 77.2105 9.604C77.2758 9.53867 77.3552 9.506 77.4485 9.506H78.1065C78.2092 9.506 78.2885 9.53867 78.3445 9.604C78.4005 9.66 78.4285 9.73467 78.4285 9.828V13.93C78.4285 14.0233 78.4005 14.1027 78.3445 14.168C78.2885 14.224 78.2092 14.252 78.1065 14.252H77.4485ZM80.3797 17.5C80.2864 17.5 80.2071 17.472 80.1417 17.416C80.0857 17.3507 80.0577 17.2713 80.0577 17.178V16.702C80.0577 16.6087 80.0857 16.534 80.1417 16.478C80.2071 16.4127 80.2864 16.38 80.3797 16.38H84.3277V17.234C84.3277 17.3273 84.2951 17.3973 84.2297 17.444C84.1737 17.4813 84.0991 17.5 84.0057 17.5H80.3797ZM83.4737 17.5C83.3804 17.5 83.3057 17.472 83.2497 17.416C83.2031 17.3507 83.1704 17.2713 83.1517 17.178L82.8857 12.852C82.8671 12.3947 82.8297 11.998 82.7737 11.662C82.7271 11.326 82.6151 11.0647 82.4377 10.878C82.2697 10.6913 81.9851 10.598 81.5837 10.598H81.0097C80.9164 10.598 80.8371 10.57 80.7717 10.514C80.7157 10.4487 80.6877 10.3693 80.6877 10.276V9.8C80.6877 9.70667 80.7157 9.632 80.7717 9.576C80.8371 9.51067 80.9164 9.478 81.0097 9.478H81.5977C82.1297 9.478 82.5591 9.55733 82.8857 9.716C83.2124 9.86533 83.4644 10.0893 83.6417 10.388C83.8191 10.6867 83.9497 11.0413 84.0337 11.452C84.1177 11.8533 84.1737 12.306 84.2017 12.81L84.4537 17.178C84.4724 17.2713 84.4491 17.3507 84.3837 17.416C84.3184 17.472 84.2391 17.5 84.1457 17.5H83.4737ZM86.1929 17.5C86.0996 17.5 86.0202 17.472 85.9549 17.416C85.8989 17.3507 85.8709 17.2713 85.8709 17.178V16.702C85.8709 16.6087 85.8989 16.534 85.9549 16.478C86.0202 16.4127 86.0996 16.38 86.1929 16.38H90.2109V12.992C90.2109 12.2453 90.0242 11.6667 89.6509 11.256C89.2776 10.836 88.6756 10.626 87.8449 10.626H86.3329C86.2396 10.626 86.1602 10.598 86.0949 10.542C86.0389 10.4767 86.0109 10.3973 86.0109 10.304V9.828C86.0109 9.73467 86.0389 9.66 86.0949 9.604C86.1602 9.53867 86.2396 9.506 86.3329 9.506H87.9149C88.7176 9.506 89.3849 9.63667 89.9169 9.898C90.4489 10.1593 90.8456 10.5467 91.1069 11.06C91.3776 11.564 91.5129 12.194 91.5129 12.95V16.38H92.0309C92.1242 16.38 92.1989 16.4127 92.2549 16.478C92.3202 16.534 92.3529 16.6087 92.3529 16.702V17.178C92.3529 17.2713 92.3202 17.3507 92.2549 17.416C92.1989 17.472 92.1242 17.5 92.0309 17.5H86.1929ZM94.3958 10.626C94.3025 10.626 94.2231 10.598 94.1578 10.542C94.1018 10.4767 94.0738 10.3973 94.0738 10.304V9.828C94.0738 9.73467 94.1018 9.66 94.1578 9.604C94.2231 9.53867 94.3025 9.506 94.3958 9.506H97.4338C98.2365 9.506 98.8991 9.63667 99.4218 9.898C99.9538 10.15 100.35 10.5327 100.612 11.046C100.873 11.55 101.004 12.1753 101.004 12.922V17.178C101.004 17.2713 100.971 17.3507 100.906 17.416C100.85 17.472 100.775 17.5 100.682 17.5H100.052C99.9491 17.5 99.8698 17.472 99.8138 17.416C99.7578 17.3507 99.7298 17.2713 99.7298 17.178V12.992C99.7298 12.2453 99.5385 11.6667 99.1558 11.256C98.7825 10.836 98.1805 10.626 97.3498 10.626H94.3958ZM95.6558 9.94H96.0058C96.1458 9.94 96.2485 9.97733 96.3138 10.052C96.3885 10.1173 96.4211 10.2013 96.4118 10.304C96.3371 10.696 96.2718 11.0507 96.2158 11.368C96.1691 11.6853 96.1365 12.0027 96.1178 12.32C96.0991 12.628 96.0898 12.978 96.0898 13.37L96.1178 17.178C96.1178 17.2713 96.0898 17.3507 96.0338 17.416C95.9778 17.472 95.9031 17.5 95.8098 17.5L93.8218 17.472C93.7285 17.472 93.6491 17.444 93.5838 17.388C93.5278 17.332 93.4998 17.2527 93.4998 17.15V16.702C93.4998 16.6087 93.5278 16.534 93.5838 16.478C93.6491 16.4127 93.7285 16.38 93.8218 16.38L94.8998 16.394V13.426C94.8998 13.0433 94.9045 12.6933 94.9138 12.376C94.9231 12.0493 94.9511 11.7227 94.9978 11.396C95.0445 11.0693 95.1191 10.7007 95.2218 10.29C95.2498 10.1873 95.2918 10.1033 95.3478 10.038C95.4131 9.97267 95.5158 9.94 95.6558 9.94Z" fill="#1E2775"/>
<rect x="112" y="4" width="18" height="18" rx="9" fill="#1E2775"/>
<path d="M126.143 13.8571H121.857V18.1429C121.857 18.6143 121.471 19 121 19C120.529 19 120.143 18.6143 120.143 18.1429V13.8571H115.857C115.386 13.8571 115 13.4714 115 13C115 12.5286 115.386 12.1429 115.857 12.1429H120.143V7.85714C120.143 7.38571 120.529 7 121 7C121.471 7 121.857 7.38571 121.857 7.85714V12.1429H126.143C126.614 12.1429 127 12.5286 127 13C127 13.4714 126.614 13.8571 126.143 13.8571Z" fill="white"/>
</svg>
