<svg width="122" height="26" viewBox="0 0 122 26" fill="none" xmlns="http://www.w3.org/2000/svg">
<path d="M11.4895 17.5C11.3962 17.5 11.3169 17.472 11.2515 17.416C11.1955 17.3507 11.1675 17.2713 11.1675 17.178V12.992C11.1675 12.2453 10.9809 11.6667 10.6075 11.256C10.2342 10.836 9.6322 10.626 8.80153 10.626H6.16953C6.0762 10.626 5.99686 10.598 5.93153 10.542C5.87553 10.4767 5.84753 10.3973 5.84753 10.304V9.828C5.84753 9.73467 5.87553 9.66 5.93153 9.604C5.99686 9.53867 6.0762 9.506 6.16953 9.506H8.87153C10.0849 9.506 10.9809 9.8 11.5595 10.388C12.1475 10.976 12.4415 11.83 12.4415 12.95V17.178C12.4415 17.2713 12.4089 17.3507 12.3435 17.416C12.2875 17.472 12.2129 17.5 12.1195 17.5H11.4895ZM6.16953 17.5C6.0762 17.5 5.99686 17.472 5.93153 17.416C5.87553 17.3507 5.84753 17.2713 5.84753 17.178V12.502C5.84753 12.4087 5.87553 12.334 5.93153 12.278C5.99686 12.2127 6.0762 12.18 6.16953 12.18H6.79953C6.9022 12.18 6.98153 12.2127 7.03753 12.278C7.09353 12.334 7.12153 12.4087 7.12153 12.502V17.178C7.12153 17.2713 7.09353 17.3507 7.03753 17.416C6.98153 17.472 6.9022 17.5 6.79953 17.5H6.16953ZM18.4915 16.45C19.0982 16.4593 19.6068 16.3473 20.0175 16.114C20.4375 15.8807 20.7548 15.5493 20.9695 15.12C21.1935 14.6813 21.3055 14.182 21.3055 13.622V9.828C21.3055 9.73467 21.3335 9.66 21.3895 9.604C21.4548 9.53867 21.5342 9.506 21.6275 9.506H22.2015C22.3042 9.506 22.3835 9.53867 22.4395 9.604C22.4955 9.66 22.5235 9.73467 22.5235 9.828V13.72C22.5235 14.3173 22.4302 14.8587 22.2435 15.344C22.0568 15.82 21.7908 16.2307 21.4455 16.576C21.1002 16.912 20.6895 17.1687 20.2135 17.346C19.7468 17.5233 19.2288 17.6027 18.6595 17.584H17.6095C17.0028 17.584 16.4568 17.444 15.9715 17.164C15.4862 16.884 15.1035 16.492 14.8235 15.988C14.5435 15.484 14.4035 14.9007 14.4035 14.238V9.828C14.4035 9.73467 14.4315 9.66 14.4875 9.604C14.5528 9.53867 14.6322 9.506 14.7255 9.506H15.3135C15.4068 9.506 15.4815 9.53867 15.5375 9.604C15.6028 9.66 15.6355 9.73467 15.6355 9.828L15.6775 13.958C15.6775 14.7607 15.9015 15.3767 16.3495 15.806C16.7975 16.2353 17.3668 16.45 18.0575 16.45H18.4915ZM15.3835 14.812L15.3555 13.79C16.0462 13.7807 16.5735 13.678 16.9375 13.482C17.3015 13.2767 17.5535 13.006 17.6935 12.67C17.8428 12.334 17.9175 11.9653 17.9175 11.564V9.828C17.9175 9.73467 17.9455 9.66 18.0015 9.604C18.0575 9.53867 18.1368 9.506 18.2395 9.506H18.8135C18.9068 9.506 18.9815 9.53867 19.0375 9.604C19.1028 9.66 19.1355 9.73467 19.1355 9.828V11.62C19.1355 12.2267 19.0002 12.7727 18.7295 13.258C18.4588 13.7433 18.0435 14.126 17.4835 14.406C16.9328 14.686 16.2328 14.8213 15.3835 14.812ZM28.0243 17.5C27.819 17.5 27.7163 17.3973 27.7163 17.192V12.194C27.7163 11.6433 27.7816 11.214 27.9123 10.906C28.043 10.598 28.2063 10.444 28.4023 10.444H29.7743C29.541 10.444 29.3496 10.6213 29.2003 10.976C29.0603 11.3307 28.9903 11.7693 28.9903 12.292V17.192C28.9903 17.2853 28.9576 17.36 28.8923 17.416C28.827 17.472 28.7476 17.5 28.6543 17.5H28.0243ZM24.2443 10.626C24.151 10.626 24.0716 10.598 24.0063 10.542C23.9503 10.4767 23.9223 10.3973 23.9223 10.304V9.828C23.9223 9.73467 23.9503 9.66 24.0063 9.604C24.0716 9.53867 24.151 9.506 24.2443 9.506H30.2503C30.3436 9.506 30.4183 9.53867 30.4743 9.604C30.5396 9.66 30.5723 9.73467 30.5723 9.828V10.304C30.5723 10.3973 30.5396 10.4767 30.4743 10.542C30.4183 10.598 30.3436 10.626 30.2503 10.626H24.2443ZM32.5973 17.5C32.5039 17.5 32.4246 17.472 32.3593 17.416C32.3033 17.3507 32.2753 17.2713 32.2753 17.178V9.828C32.2753 9.73467 32.3033 9.66 32.3593 9.604C32.4246 9.53867 32.5039 9.506 32.5973 9.506H35.3133C36.1253 9.506 36.7926 9.63667 37.3153 9.898C37.8473 10.15 38.2439 10.5327 38.5053 11.046C38.7666 11.55 38.8973 12.1847 38.8973 12.95V17.178C38.8973 17.2713 38.8646 17.3507 38.7993 17.416C38.7433 17.472 38.6686 17.5 38.5753 17.5H37.9453C37.8426 17.5 37.7633 17.472 37.7073 17.416C37.6513 17.3507 37.6233 17.2713 37.6233 17.178V12.992C37.6233 12.2453 37.4366 11.6667 37.0633 11.256C36.6899 10.836 36.0833 10.626 35.2433 10.626H33.5493V17.178C33.5493 17.2713 33.5213 17.3507 33.4653 17.416C33.4093 17.472 33.3299 17.5 33.2273 17.5H32.5973ZM50.0442 17.5C49.9509 17.5 49.8716 17.472 49.8062 17.416C49.7502 17.3507 49.7222 17.2713 49.7222 17.178V12.992C49.7222 12.2453 49.5356 11.6667 49.1622 11.256C48.7889 10.836 48.1869 10.626 47.3562 10.626H44.7242C44.6309 10.626 44.5516 10.598 44.4862 10.542C44.4302 10.4767 44.4022 10.3973 44.4022 10.304V9.828C44.4022 9.73467 44.4302 9.66 44.4862 9.604C44.5516 9.53867 44.6309 9.506 44.7242 9.506H47.4262C48.6396 9.506 49.5356 9.8 50.1142 10.388C50.7022 10.976 50.9962 11.83 50.9962 12.95V17.178C50.9962 17.2713 50.9636 17.3507 50.8982 17.416C50.8422 17.472 50.7676 17.5 50.6742 17.5H50.0442ZM44.7242 17.5C44.6309 17.5 44.5516 17.472 44.4862 17.416C44.4302 17.3507 44.4022 17.2713 44.4022 17.178V12.502C44.4022 12.4087 44.4302 12.334 44.4862 12.278C44.5516 12.2127 44.6309 12.18 44.7242 12.18H45.3542C45.4569 12.18 45.5362 12.2127 45.5922 12.278C45.6482 12.334 45.6762 12.4087 45.6762 12.502V17.178C45.6762 17.2713 45.6482 17.3507 45.5922 17.416C45.5362 17.472 45.4569 17.5 45.3542 17.5H44.7242ZM53.2942 14.252C53.2009 14.252 53.1215 14.224 53.0562 14.168C53.0002 14.1027 52.9722 14.0233 52.9722 13.93V9.828C52.9722 9.73467 53.0002 9.66 53.0562 9.604C53.1215 9.53867 53.2009 9.506 53.2942 9.506H53.9522C54.0549 9.506 54.1342 9.53867 54.1902 9.604C54.2462 9.66 54.2742 9.73467 54.2742 9.828V13.93C54.2742 14.0233 54.2462 14.1027 54.1902 14.168C54.1342 14.224 54.0549 14.252 53.9522 14.252H53.2942ZM60.8734 17.5C60.7801 17.5 60.7008 17.472 60.6354 17.416C60.5794 17.3507 60.5514 17.2713 60.5514 17.178V12.992C60.5514 12.2453 60.3648 11.6667 59.9914 11.256C59.6181 10.836 59.0161 10.626 58.1854 10.626H56.3514C56.2581 10.626 56.1788 10.598 56.1134 10.542C56.0574 10.4767 56.0294 10.3973 56.0294 10.304V9.828C56.0294 9.73467 56.0574 9.66 56.1134 9.604C56.1788 9.53867 56.2581 9.506 56.3514 9.506H58.2554C59.0581 9.506 59.7208 9.632 60.2434 9.884C60.7754 10.136 61.1721 10.5187 61.4334 11.032C61.6948 11.536 61.8254 12.166 61.8254 12.922V17.178C61.8254 17.2713 61.7928 17.3507 61.7274 17.416C61.6714 17.472 61.5968 17.5 61.5034 17.5H60.8734ZM64.2203 17.5C64.127 17.5 64.0476 17.472 63.9823 17.416C63.9263 17.3507 63.8983 17.2713 63.8983 17.178V9.828C63.8983 9.73467 63.9263 9.66 63.9823 9.604C64.0476 9.53867 64.127 9.506 64.2203 9.506H64.8783C64.981 9.506 65.0603 9.53867 65.1163 9.604C65.1723 9.66 65.2003 9.73467 65.2003 9.828V17.178C65.2003 17.2713 65.1723 17.3507 65.1163 17.416C65.0603 17.472 64.981 17.5 64.8783 17.5H64.2203ZM71.0253 17.5C70.932 17.5 70.8573 17.472 70.8013 17.416C70.7546 17.3507 70.722 17.2713 70.7033 17.178L69.8493 12.88C69.756 12.3853 69.644 11.9747 69.5133 11.648C69.392 11.312 69.224 11.06 69.0093 10.892C68.804 10.7147 68.5193 10.626 68.1553 10.626H67.6513C67.558 10.626 67.4786 10.598 67.4133 10.542C67.3573 10.4767 67.3293 10.3973 67.3293 10.304V9.8C67.3293 9.70667 67.3573 9.632 67.4133 9.576C67.4786 9.51067 67.558 9.478 67.6513 9.478H68.1693C68.7946 9.478 69.2986 9.604 69.6813 9.856C70.064 10.0987 70.3673 10.4673 70.5913 10.962C70.8246 11.4567 71.016 12.0727 71.1653 12.81L72.0053 17.178C72.024 17.2713 72.0006 17.3507 71.9353 17.416C71.87 17.472 71.7906 17.5 71.6973 17.5H71.0253ZM69.2193 16.786C68.874 17.0193 68.5473 17.2013 68.2393 17.332C67.9406 17.4533 67.628 17.5467 67.3013 17.612C67.208 17.6213 67.1286 17.612 67.0633 17.584C66.998 17.556 66.9653 17.4953 66.9653 17.402V16.702C66.9653 16.5433 67.0633 16.4267 67.2593 16.352C67.3246 16.324 67.446 16.282 67.6233 16.226C67.8006 16.17 67.992 16.1 68.1973 16.016C68.4026 15.9227 68.58 15.8293 68.7293 15.736C68.9626 15.5867 69.1913 15.3953 69.4153 15.162C69.6393 14.9193 69.826 14.672 69.9753 14.42C70.134 14.1587 70.2133 13.93 70.2133 13.734L71.0253 13.636C71.016 14.0373 70.9273 14.4433 70.7593 14.854C70.5913 15.2647 70.372 15.638 70.1013 15.974C69.8306 16.31 69.5366 16.5807 69.2193 16.786ZM76.9403 17.64C75.6896 17.64 74.789 17.3413 74.2383 16.744C73.6876 16.1373 73.4123 15.2927 73.4123 14.21V9.828C73.4123 9.73467 73.4403 9.66 73.4963 9.604C73.5616 9.53867 73.641 9.506 73.7343 9.506H74.3083C74.411 9.506 74.4903 9.53867 74.5463 9.604C74.6023 9.66 74.6303 9.73467 74.6303 9.828V14.14C74.6303 14.896 74.8216 15.4793 75.2043 15.89C75.587 16.2913 76.1656 16.492 76.9403 16.492C77.715 16.492 78.2796 16.3053 78.6343 15.932C78.9983 15.5587 79.1896 14.9987 79.2083 14.252C79.2176 14.1587 79.2176 14.0187 79.2083 13.832C79.2083 13.636 79.2083 13.44 79.2083 13.244C79.2083 13.048 79.2083 12.9033 79.2083 12.81C79.1896 12.0353 79.0216 11.4707 78.7043 11.116C78.3963 10.7613 77.9903 10.584 77.4863 10.584C77.3276 10.584 77.1456 10.612 76.9403 10.668C76.735 10.724 76.5623 10.7987 76.4223 10.892C76.3383 10.9387 76.2496 10.9433 76.1563 10.906C76.063 10.8593 76.0163 10.7847 76.0163 10.682V10.248C76.0163 10.1547 76.0256 10.0753 76.0443 10.01C76.063 9.93533 76.1143 9.87 76.1983 9.814C76.385 9.702 76.5856 9.61333 76.8003 9.548C77.015 9.47333 77.2996 9.436 77.6543 9.436C78.261 9.436 78.7696 9.55267 79.1803 9.786C79.591 10.01 79.9036 10.36 80.1183 10.836C80.333 11.312 80.4496 11.9233 80.4683 12.67C80.4776 12.7633 80.4823 12.922 80.4823 13.146C80.4823 13.37 80.4823 13.5987 80.4823 13.832C80.4823 14.0653 80.4776 14.2287 80.4683 14.322C80.4496 15.0313 80.319 15.638 80.0763 16.142C79.843 16.6367 79.4696 17.01 78.9563 17.262C78.4523 17.514 77.7803 17.64 76.9403 17.64ZM82.6363 20.174C82.543 20.174 82.4637 20.1413 82.3983 20.076C82.3423 20.02 82.3143 19.9453 82.3143 19.852V12.502C82.3143 12.4087 82.3423 12.334 82.3983 12.278C82.4637 12.2127 82.543 12.18 82.6363 12.18H83.2523C83.355 12.18 83.4343 12.2127 83.4903 12.278C83.5463 12.334 83.5743 12.4087 83.5743 12.502V19.852C83.5743 19.9453 83.5463 20.02 83.4903 20.076C83.4343 20.1413 83.355 20.174 83.2523 20.174H82.6363ZM85.3243 17.626C85.2403 17.654 85.161 17.64 85.0863 17.584C85.021 17.5373 84.9883 17.4673 84.9883 17.374V16.73C84.9883 16.646 85.0117 16.5713 85.0583 16.506C85.1143 16.4407 85.1937 16.3893 85.2963 16.352L85.8283 16.142C86.2017 15.9927 86.5377 15.806 86.8363 15.582C87.1443 15.3487 87.3823 15.036 87.5503 14.644C87.7277 14.252 87.8163 13.7387 87.8163 13.104C87.8163 12.4973 87.7417 12.0167 87.5923 11.662C87.443 11.298 87.1957 11.0413 86.8503 10.892C86.5143 10.7333 86.057 10.654 85.4783 10.654H82.6363C82.543 10.654 82.4637 10.626 82.3983 10.57C82.3423 10.5047 82.3143 10.4253 82.3143 10.332V9.828C82.3143 9.73467 82.3423 9.66 82.3983 9.604C82.4637 9.53867 82.543 9.506 82.6363 9.506H85.6603C86.519 9.506 87.1957 9.62733 87.6903 9.87C88.1943 10.1127 88.5537 10.5047 88.7683 11.046C88.9923 11.578 89.1043 12.278 89.1043 13.146C89.1043 13.7993 89.0157 14.364 88.8383 14.84C88.661 15.316 88.4183 15.722 88.1103 16.058C87.8117 16.394 87.471 16.674 87.0883 16.898C86.715 17.1127 86.323 17.29 85.9123 17.43L85.3243 17.626Z" fill="#1E2775"/>
<rect x="100" y="4" width="18" height="18" rx="9" fill="#1E2775"/>
<path d="M114.143 13.8571H109.857V18.1429C109.857 18.6143 109.471 19 109 19C108.529 19 108.143 18.6143 108.143 18.1429V13.8571H103.857C103.386 13.8571 103 13.4714 103 13C103 12.5286 103.386 12.1429 103.857 12.1429H108.143V7.85714C108.143 7.38571 108.529 7 109 7C109.471 7 109.857 7.38571 109.857 7.85714V12.1429H114.143C114.614 12.1429 115 12.5286 115 13C115 13.4714 114.614 13.8571 114.143 13.8571Z" fill="white"/>
</svg>
