<svg width="24" height="24" viewBox="0 0 24 24" fill="none" xmlns="http://www.w3.org/2000/svg">
<g clip-path="url(#clip0_1753_82710)">
<path d="M18.5824 12.5821L7.41244 12.5821L12.2924 17.4621C12.6824 17.8521 12.6824 18.4921 12.2924 18.8821C12.1999 18.9748 12.09 19.0484 11.9691 19.0985C11.8481 19.1487 11.7184 19.1746 11.5874 19.1746C11.4565 19.1746 11.3268 19.1487 11.2058 19.0985C11.0848 19.0484 10.975 18.9748 10.8824 18.8821L4.29244 12.2921C4.19974 12.1996 4.12619 12.0897 4.07601 11.9687C4.02583 11.8478 4 11.7181 4 11.5871C4 11.4561 4.02583 11.3265 4.07601 11.2055C4.12619 11.0845 4.19974 10.9746 4.29244 10.8821L10.8824 4.29212C10.975 4.19953 11.0849 4.1261 11.2059 4.07599C11.3269 4.02589 11.4565 4.0001 11.5874 4.0001C11.7184 4.0001 11.848 4.02589 11.969 4.07599C12.09 4.1261 12.1999 4.19953 12.2924 4.29212C12.385 4.3847 12.4585 4.49461 12.5086 4.61557C12.5587 4.73654 12.5845 4.86619 12.5845 4.99712C12.5845 5.12805 12.5587 5.2577 12.5086 5.37866C12.4585 5.49962 12.385 5.60954 12.2924 5.70212L7.41244 10.5821L18.5824 10.5821C19.1324 10.5821 19.5824 11.0321 19.5824 11.5821C19.5824 12.1321 19.1324 12.5821 18.5824 12.5821Z" fill="#9398C2"/>
</g>
<defs>
<clipPath id="clip0_1753_82710">
<rect width="24" height="24" fill="white"/>
</clipPath>
</defs>
</svg>
