<svg width="130" height="32" viewBox="0 0 130 32" fill="none" xmlns="http://www.w3.org/2000/svg">
<rect width="130" height="32" rx="7" fill="#CCCFE6"/>
<g clip-path="url(#clip0_130_271)">
<path d="M17.6111 20.4489V21.5556C17.6111 22.4396 17.9623 23.2875 18.5874 23.9126C19.2125 24.5377 20.0604 24.8889 20.9444 24.8889H32.0556C32.9396 24.8889 33.7875 24.5377 34.4126 23.9126C35.0377 23.2875 35.3889 22.4396 35.3889 21.5556V20.4444M26.5 19.8889V7.66666M26.5 7.66666L30.3889 11.5556M26.5 7.66666L22.6111 11.5556" stroke="#1E2775" stroke-width="1.78" stroke-linecap="round" stroke-linejoin="round"/>
</g>
<path d="M53.5181 22.236C53.4154 22.236 53.3361 22.2127 53.2801 22.166C53.2334 22.1193 53.1961 22.0633 53.1681 21.998L49.6541 13.052C49.6261 12.9773 49.6027 12.926 49.5841 12.898C49.5747 12.8607 49.5701 12.8233 49.5701 12.786C49.5701 12.7113 49.5981 12.646 49.6541 12.59C49.7194 12.534 49.7894 12.506 49.8641 12.506H50.5221C50.6247 12.506 50.7041 12.534 50.7601 12.59C50.8161 12.646 50.8674 12.73 50.9141 12.842L52.4121 16.636C53.0934 16.552 53.5881 16.3047 53.8961 15.894C54.2134 15.474 54.3721 14.9187 54.3721 14.228V12.828C54.3721 12.7347 54.4001 12.66 54.4561 12.604C54.5214 12.5387 54.6007 12.506 54.6941 12.506H55.2821C55.3754 12.506 55.4501 12.5387 55.5061 12.604C55.5714 12.66 55.6041 12.7347 55.6041 12.828V14.312C55.6041 14.956 55.4921 15.516 55.2681 15.992C55.0534 16.4587 54.7407 16.8413 54.3301 17.14C53.9194 17.4387 53.4247 17.644 52.8461 17.756L54.4141 21.69C54.4607 21.8207 54.4841 21.9093 54.4841 21.956C54.4841 22.0307 54.4561 22.096 54.4001 22.152C54.3441 22.208 54.2787 22.236 54.2041 22.236H53.5181ZM57.2007 20.5C57.1074 20.5 57.0281 20.472 56.9627 20.416C56.9067 20.3507 56.8787 20.2713 56.8787 20.178V19.702C56.8787 19.6087 56.9067 19.534 56.9627 19.478C57.0281 19.4127 57.1074 19.38 57.2007 19.38H61.2187V15.992C61.2187 15.2453 61.0321 14.6667 60.6587 14.256C60.2854 13.836 59.6834 13.626 58.8527 13.626H57.3407C57.2474 13.626 57.1681 13.598 57.1027 13.542C57.0467 13.4767 57.0187 13.3973 57.0187 13.304V12.828C57.0187 12.7347 57.0467 12.66 57.1027 12.604C57.1681 12.5387 57.2474 12.506 57.3407 12.506H58.9227C59.7254 12.506 60.3927 12.6367 60.9247 12.898C61.4567 13.1593 61.8534 13.5467 62.1147 14.06C62.3854 14.564 62.5207 15.194 62.5207 15.95V19.38H63.0387C63.1321 19.38 63.2067 19.4127 63.2627 19.478C63.3281 19.534 63.3607 19.6087 63.3607 19.702V20.178C63.3607 20.2713 63.3281 20.3507 63.2627 20.416C63.2067 20.472 63.1321 20.5 63.0387 20.5H57.2007ZM65.1656 20.5C65.0723 20.5 64.993 20.472 64.9276 20.416C64.8716 20.3507 64.8436 20.2713 64.8436 20.178V12.828C64.8436 12.7347 64.8716 12.66 64.9276 12.604C64.993 12.5387 65.0723 12.506 65.1656 12.506H65.8236C65.9263 12.506 66.0056 12.5387 66.0616 12.604C66.1176 12.66 66.1456 12.7347 66.1456 12.828V20.178C66.1456 20.2713 66.1176 20.3507 66.0616 20.416C66.0056 20.472 65.9263 20.5 65.8236 20.5H65.1656ZM68.6246 23.174C68.5313 23.174 68.4519 23.1413 68.3866 23.076C68.3306 23.02 68.3026 22.9453 68.3026 22.852V15.502C68.3026 15.4087 68.3306 15.334 68.3866 15.278C68.4519 15.2127 68.5313 15.18 68.6246 15.18H69.2406C69.3433 15.18 69.4226 15.2127 69.4786 15.278C69.5346 15.334 69.5626 15.4087 69.5626 15.502V22.852C69.5626 22.9453 69.5346 23.02 69.4786 23.076C69.4226 23.1413 69.3433 23.174 69.2406 23.174H68.6246ZM71.3126 20.626C71.2286 20.654 71.1493 20.64 71.0746 20.584C71.0093 20.5373 70.9766 20.4673 70.9766 20.374V19.73C70.9766 19.646 70.9999 19.5713 71.0466 19.506C71.1026 19.4407 71.1819 19.3893 71.2846 19.352L71.8166 19.142C72.1899 18.9927 72.5259 18.806 72.8246 18.582C73.1326 18.3487 73.3706 18.036 73.5386 17.644C73.7159 17.252 73.8046 16.7387 73.8046 16.104C73.8046 15.4973 73.7299 15.0167 73.5806 14.662C73.4313 14.298 73.1839 14.0413 72.8386 13.892C72.5026 13.7333 72.0453 13.654 71.4666 13.654H68.6246C68.5313 13.654 68.4519 13.626 68.3866 13.57C68.3306 13.5047 68.3026 13.4253 68.3026 13.332V12.828C68.3026 12.7347 68.3306 12.66 68.3866 12.604C68.4519 12.5387 68.5313 12.506 68.6246 12.506H71.6486C72.5073 12.506 73.1839 12.6273 73.6786 12.87C74.1826 13.1127 74.5419 13.5047 74.7566 14.046C74.9806 14.578 75.0926 15.278 75.0926 16.146C75.0926 16.7993 75.0039 17.364 74.8266 17.84C74.6493 18.316 74.4066 18.722 74.0986 19.058C73.7999 19.394 73.4593 19.674 73.0766 19.898C72.7033 20.1127 72.3113 20.29 71.9006 20.43L71.3126 20.626ZM81.0579 13.626C80.9646 13.626 80.8853 13.598 80.8199 13.542C80.7639 13.4767 80.7359 13.3973 80.7359 13.304V12.828C80.7359 12.7347 80.7639 12.66 80.8199 12.604C80.8853 12.5387 80.9646 12.506 81.0579 12.506H84.0959C84.8986 12.506 85.5613 12.6367 86.0839 12.898C86.6159 13.15 87.0126 13.5327 87.2739 14.046C87.5353 14.55 87.6659 15.1753 87.6659 15.922V20.178C87.6659 20.2713 87.6333 20.3507 87.5679 20.416C87.5119 20.472 87.4373 20.5 87.3439 20.5H86.7139C86.6113 20.5 86.5319 20.472 86.4759 20.416C86.4199 20.3507 86.3919 20.2713 86.3919 20.178V15.992C86.3919 15.2453 86.2006 14.6667 85.8179 14.256C85.4446 13.836 84.8426 13.626 84.0119 13.626H81.0579ZM82.3179 12.94H82.6679C82.8079 12.94 82.9106 12.9773 82.9759 13.052C83.0506 13.1173 83.0833 13.2013 83.0739 13.304C82.9993 13.696 82.9339 14.0507 82.8779 14.368C82.8313 14.6853 82.7986 15.0027 82.7799 15.32C82.7613 15.628 82.7519 15.978 82.7519 16.37L82.7799 20.178C82.7799 20.2713 82.7519 20.3507 82.6959 20.416C82.6399 20.472 82.5653 20.5 82.4719 20.5L80.4839 20.472C80.3906 20.472 80.3113 20.444 80.2459 20.388C80.1899 20.332 80.1619 20.2527 80.1619 20.15V19.702C80.1619 19.6087 80.1899 19.534 80.2459 19.478C80.3113 19.4127 80.3906 19.38 80.4839 19.38L81.5619 19.394V16.426C81.5619 16.0433 81.5666 15.6933 81.5759 15.376C81.5853 15.0493 81.6133 14.7227 81.6599 14.396C81.7066 14.0693 81.7813 13.7007 81.8839 13.29C81.9119 13.1873 81.9539 13.1033 82.0099 13.038C82.0753 12.9727 82.1779 12.94 82.3179 12.94ZM93.9477 20.5C93.8543 20.5 93.775 20.472 93.7097 20.416C93.6537 20.3507 93.6257 20.2713 93.6257 20.178V15.992C93.6257 15.2453 93.439 14.6667 93.0657 14.256C92.6923 13.836 92.0903 13.626 91.2597 13.626H89.4257C89.3323 13.626 89.253 13.598 89.1877 13.542C89.1317 13.4767 89.1037 13.3973 89.1037 13.304V12.828C89.1037 12.7347 89.1317 12.66 89.1877 12.604C89.253 12.5387 89.3323 12.506 89.4257 12.506H91.3297C92.1323 12.506 92.795 12.632 93.3177 12.884C93.8497 13.136 94.2463 13.5187 94.5077 14.032C94.769 14.536 94.8997 15.166 94.8997 15.922V20.178C94.8997 20.2713 94.867 20.3507 94.8017 20.416C94.7457 20.472 94.671 20.5 94.5777 20.5H93.9477ZM97.1965 17.252C97.1032 17.252 97.0239 17.224 96.9585 17.168C96.9025 17.1027 96.8745 17.0233 96.8745 16.93V12.828C96.8745 12.7347 96.9025 12.66 96.9585 12.604C97.0239 12.5387 97.1032 12.506 97.1965 12.506H97.8545C97.9572 12.506 98.0365 12.5387 98.0925 12.604C98.1485 12.66 98.1765 12.7347 98.1765 12.828V16.93C98.1765 17.0233 98.1485 17.1027 98.0925 17.168C98.0365 17.224 97.9572 17.252 97.8545 17.252H97.1965ZM100.576 20.5C100.482 20.5 100.403 20.472 100.338 20.416C100.282 20.3507 100.254 20.2713 100.254 20.178V12.828C100.254 12.7347 100.282 12.66 100.338 12.604C100.403 12.5387 100.482 12.506 100.576 12.506H103.292C104.104 12.506 104.771 12.6367 105.294 12.898C105.826 13.15 106.222 13.5327 106.484 14.046C106.745 14.55 106.876 15.1847 106.876 15.95V20.178C106.876 20.2713 106.843 20.3507 106.778 20.416C106.722 20.472 106.647 20.5 106.554 20.5H105.924C105.821 20.5 105.742 20.472 105.686 20.416C105.63 20.3507 105.602 20.2713 105.602 20.178V15.992C105.602 15.2453 105.415 14.6667 105.042 14.256C104.668 13.836 104.062 13.626 103.222 13.626H101.528V20.178C101.528 20.2713 101.5 20.3507 101.444 20.416C101.388 20.472 101.308 20.5 101.206 20.5H100.576ZM108.935 20.5C108.842 20.5 108.762 20.472 108.697 20.416C108.641 20.3507 108.613 20.2713 108.613 20.178V19.702C108.613 19.6087 108.641 19.534 108.697 19.478C108.762 19.4127 108.842 19.38 108.935 19.38H112.953V15.992C112.953 15.2453 112.766 14.6667 112.393 14.256C112.02 13.836 111.418 13.626 110.587 13.626H109.075C108.982 13.626 108.902 13.598 108.837 13.542C108.781 13.4767 108.753 13.3973 108.753 13.304V12.828C108.753 12.7347 108.781 12.66 108.837 12.604C108.902 12.5387 108.982 12.506 109.075 12.506H110.657C111.46 12.506 112.127 12.6367 112.659 12.898C113.191 13.1593 113.588 13.5467 113.849 14.06C114.12 14.564 114.255 15.194 114.255 15.95V19.38H114.773C114.866 19.38 114.941 19.4127 114.997 19.478C115.062 19.534 115.095 19.6087 115.095 19.702V20.178C115.095 20.2713 115.062 20.3507 114.997 20.416C114.941 20.472 114.866 20.5 114.773 20.5H108.935Z" fill="#1E2775"/>
<defs>
<clipPath id="clip0_130_271">
<rect width="20" height="20" fill="white" transform="translate(16.5 6)"/>
</clipPath>
</defs>
</svg>
