<svg width="17" height="12" viewBox="0 0 17 12" fill="none" xmlns="http://www.w3.org/2000/svg">
<path d="M6.49999 10H10.5C10.7549 10.0003 11 10.0979 11.1854 10.2728C11.3707 10.4478 11.4822 10.687 11.4972 10.9414C11.5121 11.1958 11.4293 11.4464 11.2657 11.6418C11.1021 11.8373 10.8701 11.9629 10.617 11.993L10.5 12H6.49999C6.24511 11.9997 5.99996 11.9021 5.81462 11.7272C5.62929 11.5522 5.51776 11.313 5.50282 11.0586C5.48788 10.8042 5.57066 10.5536 5.73425 10.3582C5.89785 10.1627 6.1299 10.0371 6.38299 10.007L6.49999 10ZM4.49999 5H12.5C12.7549 5.00028 13 5.09788 13.1854 5.27285C13.3707 5.44782 13.4822 5.68695 13.4972 5.94139C13.5121 6.19584 13.4293 6.44638 13.2657 6.64183C13.1021 6.83729 12.8701 6.9629 12.617 6.993L12.5 7H4.49999C4.24511 6.99972 3.99996 6.90212 3.81462 6.72715C3.62929 6.55218 3.51776 6.31305 3.50282 6.05861C3.48788 5.80416 3.57067 5.55362 3.73426 5.35817C3.89785 5.16271 4.12989 5.0371 4.38299 5.007L4.49999 5ZM1.49999 0H15.5C15.7549 0.000282707 16 0.0978789 16.1854 0.272848C16.3707 0.447817 16.4822 0.686953 16.4972 0.941395C16.5121 1.19584 16.4293 1.44638 16.2657 1.64183C16.1021 1.83729 15.8701 1.9629 15.617 1.993L15.5 2H1.49999C1.24511 1.99972 0.999958 1.90212 0.814622 1.72715C0.629286 1.55218 0.517756 1.31305 0.502819 1.05861C0.487882 0.804163 0.570665 0.553621 0.734255 0.358168C0.897846 0.162715 1.12989 0.0371036 1.38299 0.00699997L1.49999 0Z" fill="#1E2775"/>
</svg>
