<svg width="20" height="14" viewBox="0 0 20 14" fill="none" xmlns="http://www.w3.org/2000/svg">
<g clip-path="url(#clip0_108_3)">
<path d="M2.42351 6.22562V2.42375H6.22538V6.2265H2.42351V6.22562ZM2.42351 11.5771V7.77437H6.22538V11.5771H2.42351ZM7.77413 6.22562V2.42375H11.5769V6.2265H7.77413V6.22562ZM7.77413 11.5771V7.77437H11.5769V11.5771H7.77413ZM1.41288 14C1.01038 14 0.674381 13.8652 0.404881 13.5957C0.134797 13.3257 -0.000244141 12.9894 -0.000244141 12.5869V1.41312C-0.000244141 1.01062 0.134797 0.674625 0.404881 0.405125C0.674381 0.135042 1.01038 0 1.41288 0H17.8366C18.2391 0 18.5751 0.135042 18.8446 0.405125C19.1147 0.674625 19.2498 1.01062 19.2498 1.41312V12.5869C19.2498 12.9894 19.115 13.3254 18.8455 13.5949C18.5754 13.865 18.2391 14 17.8366 14H1.41288ZM1.41288 13.125H17.8366C17.9708 13.125 18.0942 13.069 18.2068 12.957C18.3188 12.8444 18.3748 12.721 18.3748 12.5869V1.41312C18.3748 1.27896 18.3188 1.15558 18.2068 1.043C18.0942 0.931 17.9708 0.875 17.8366 0.875H1.41288C1.27871 0.875 1.15534 0.931 1.04276 1.043C0.930756 1.15558 0.874756 1.27896 0.874756 1.41312V12.5869C0.874756 12.721 0.930756 12.8444 1.04276 12.957C1.15534 13.069 1.27871 13.125 1.41288 13.125Z" fill="#1E2775"/>
<path d="M13.0242 2.42375V6.22562V6.2265H16.827V2.42375H13.0242Z" fill="#1E2775"/>
<path d="M13.0242 7.77437V11.5771H16.827V7.77437H13.0242Z" fill="#1E2775"/>
</g>
<defs>
<clipPath id="clip0_108_3">
<rect width="19.8333" height="14" fill="white"/>
</clipPath>
</defs>
</svg>
