<svg width="140" height="90" viewBox="0 0 161 141" fill="none" xmlns="http://www.w3.org/2000/svg">
<g opacity="0.41">
<path d="M1.15597 91.3378C0.869797 88.6648 0.80327 85.9676 0.965894 83.2847C1.72938 70.6798 7.43108 58.5292 16.2754 49.7001C19.4308 46.5502 23.0571 43.686 25.011 39.6455C28.3019 32.8412 27.6475 25.2563 31.8155 18.489C35.9881 11.714 42.2903 6.26871 49.5539 3.25829C71.2107 -5.71664 102.712 5.35424 101.289 32.6418C101.284 32.7398 101.28 32.8817 101.277 33.0617C101.19 38.7191 105.757 43.2291 111.275 43.0702C131.641 42.484 149.951 57.5788 154.712 77.6774C157.773 90.603 154.543 105.12 145.659 114.85C139.027 122.113 129.857 126.397 120.622 129.496C102.107 135.709 82.4036 137.851 62.9443 136.883C44.7294 135.977 25.3479 131.669 12.9159 118.046C6.28391 110.779 2.21514 101.224 1.15597 91.3378Z" fill="#E1E2FE"/>
</g>
<path opacity="0.32" d="M6.86791 36.8185C4.81997 42.722 4.261 49.172 5.58698 55.2742C7.36951 63.4791 13.5101 70.6916 12.4633 79.4425C11.835 84.6937 11.9469 89.507 11.8205 94.6662C11.5608 105.26 18.9573 114.03 27.6345 118.42C34.6819 121.985 42.6952 122.925 50.4304 122.244C57.3922 121.631 64.2478 119.802 70.8654 117.535C77.2426 115.35 83.4328 112.635 90.3092 112.838C96.0278 113.007 101.331 115.135 106.758 116.612C119.715 120.138 135.044 119.637 146.057 111.994C158.129 103.617 163.005 87.7203 158.787 73.8285C156.524 66.3775 153.503 59.9191 154.596 51.9802C155.133 48.075 155.935 44.1001 155.195 40.228C154.514 36.6646 152.561 33.4579 150.246 30.6662C144.003 23.1384 135.116 18.3385 125.877 15.5144C115.396 12.3106 103.759 10.5641 92.8608 12.2229C71.6901 15.445 67.0831 12.3113 44.9525 9.16701C30.1274 7.06048 16.2114 18.8567 9.45511 31.0263C8.43114 32.8703 7.56346 34.8131 6.86791 36.8185Z" fill="#E1E2FE"/>
<g opacity="0.83">
<path opacity="0.81" d="M17.1115 53.8676C20.1609 49.8413 24.8745 47.1067 27.184 42.4801C29.949 36.9411 29.3664 30.4038 31.8357 24.7451C35.4845 16.3835 42.0933 9.28116 50.3689 5.38092C54.3574 3.50125 58.7345 2.35781 63.0042 2.68577C69.5866 3.19091 75.2644 7.11229 79.7045 11.7956C86.3126 18.7655 90.9851 28.6644 98.9156 34.2491C103.292 37.3307 108.435 34.0614 113.072 33.0243C118.316 31.8516 123.764 32.1267 128.773 33.5538C137.999 36.182 145.944 42.7953 149.917 51.5163C154.159 60.8269 153.556 73.6989 145.594 81.7037C141.91 85.407 136.915 87.882 134.181 92.3177C130.751 97.8845 130.349 105.409 129.391 111.598C128.333 118.434 125.413 125.093 121.026 130.619C120.976 130.681 120.926 130.744 120.876 130.806C113.253 140.29 100.242 143.488 89.2747 138.733C89.2747 138.733 65.9392 128.616 65.9385 128.615C42.2602 118.349 24.2842 101.807 15.6543 77.832C13.7869 72.6439 13.1082 61.5836 15.4878 56.5191C15.9373 55.5634 16.4899 54.6888 17.1115 53.8676Z" fill="#E1E2FE"/>
</g>
<path opacity="0.58" d="M5.48666 124.438C5.41345 124.78 5.07658 124.999 4.73409 124.926C4.39159 124.852 4.17335 124.515 4.24657 124.172C4.31978 123.83 4.65665 123.611 4.99914 123.685C5.34164 123.758 5.55988 124.095 5.48666 124.438Z" fill="#3E479B"/>
<path d="M62.9372 128.836H60.6291C59.6291 128.836 58.8153 128.022 58.8153 127.022V124.423C58.8153 123.96 58.5221 123.54 58.0863 123.38C57.8142 123.281 57.541 123.167 57.2753 123.044C56.8469 122.846 56.339 122.933 56.0112 123.26L54.1752 125.098C53.8327 125.441 53.3772 125.63 52.8929 125.63C52.4085 125.63 51.953 125.441 51.6102 125.098L49.9783 123.464C49.6358 123.122 49.4472 122.666 49.4472 122.181C49.4472 121.696 49.6358 121.241 49.9783 120.898L51.8143 119.06C52.1421 118.732 52.229 118.224 52.0305 117.795C51.908 117.531 51.795 117.258 51.6943 116.983C51.5345 116.547 51.1156 116.254 50.6524 116.254H48.0557C47.0557 116.254 46.2422 115.439 46.2422 114.439V112.129C46.2422 111.128 47.056 110.314 48.0557 110.314H50.6524C51.1156 110.314 51.5342 110.021 51.694 109.585C51.7953 109.309 51.9083 109.035 52.0301 108.773C52.2287 108.344 52.1417 107.836 51.814 107.508L49.978 105.67C49.6355 105.327 49.4468 104.871 49.4468 104.387C49.4468 103.902 49.6355 103.446 49.978 103.103L51.6098 101.47C52.317 100.762 53.4677 100.762 54.1749 101.47L56.0109 103.307C56.3386 103.635 56.8462 103.723 57.2749 103.523C57.5375 103.401 57.8103 103.289 58.0863 103.187C58.5224 103.027 58.8153 102.608 58.8153 102.144V99.5458C58.8153 98.545 59.6287 97.731 60.6291 97.731H62.9372C63.9372 97.731 64.7507 98.5454 64.7507 99.5458V102.144C64.7507 102.608 65.0436 103.027 65.48 103.187C65.756 103.289 66.0288 103.401 66.291 103.523C66.7198 103.722 67.2274 103.635 67.5551 103.307L69.3911 101.47C70.0983 100.762 71.2486 100.762 71.9558 101.47L73.588 103.103C73.9305 103.446 74.1192 103.902 74.1192 104.387C74.1192 104.871 73.9305 105.327 73.588 105.67L71.752 107.508C71.4243 107.836 71.3373 108.344 71.5359 108.773C71.658 109.035 71.771 109.309 71.872 109.585C72.0322 110.021 72.4507 110.314 72.9139 110.314H75.5103C76.5103 110.314 77.3238 111.128 77.3238 112.129V114.439C77.3238 115.44 76.51 116.254 75.5103 116.254H72.9139C72.4507 116.254 72.0322 116.547 71.872 116.983C71.7713 117.257 71.6583 117.531 71.5359 117.795C71.3373 118.224 71.4243 118.732 71.752 119.06L73.588 120.898C73.9305 121.241 74.1192 121.697 74.1192 122.181C74.1192 122.666 73.9305 123.122 73.588 123.464L71.9558 125.098C71.6133 125.441 71.1578 125.63 70.6735 125.63C70.1891 125.63 69.7336 125.441 69.3911 125.098L67.5551 123.26C67.2274 122.932 66.7191 122.846 66.291 123.044C66.0242 123.168 65.7511 123.281 65.4797 123.381C65.0439 123.54 64.7507 123.96 64.7507 124.423V127.022C64.7507 128.022 63.9372 128.836 62.9372 128.836ZM56.7983 122.234C57.0599 122.234 57.3239 122.29 57.5713 122.404C57.8198 122.52 58.0747 122.625 58.3288 122.718C59.0409 122.98 59.5196 123.665 59.5196 124.423V127.021C59.5196 127.633 60.0177 128.131 60.6295 128.131H62.9375C63.5493 128.131 64.0471 127.633 64.0471 127.021V124.423C64.0471 123.665 64.5254 122.98 65.2375 122.719C65.4913 122.626 65.7462 122.52 65.9954 122.404C66.6909 122.083 67.5181 122.226 68.0532 122.762L69.8892 124.599C70.3084 125.019 71.0392 125.019 71.4584 124.599L73.0906 122.966C73.3001 122.756 73.4155 122.477 73.4155 122.181C73.4155 121.884 73.3001 121.605 73.0906 121.396L71.2546 119.558C70.7189 119.022 70.5752 118.195 70.8973 117.499C71.0117 117.252 71.1173 116.997 71.2113 116.741C71.4728 116.028 72.1571 115.549 72.9143 115.549H75.5106C76.1224 115.549 76.6201 115.051 76.6201 114.438V112.129C76.6201 111.516 76.1224 111.018 75.5106 111.018H72.9143C72.1571 111.018 71.4728 110.54 71.2113 109.827C71.117 109.569 71.0114 109.314 70.8977 109.069C70.5756 108.373 70.7192 107.545 71.2546 107.009L73.0906 105.171C73.3001 104.961 73.4155 104.683 73.4155 104.387C73.4155 104.09 73.3001 103.811 73.0906 103.601L71.4584 101.968C71.0258 101.535 70.3218 101.535 69.8892 101.968L68.0532 103.805C67.5178 104.342 66.6906 104.485 65.995 104.163C65.7504 104.049 65.4952 103.943 65.2375 103.848C64.5254 103.587 64.0471 102.902 64.0471 102.144V99.5458C64.0471 98.9336 63.5493 98.4355 62.9375 98.4355H60.6295C60.0177 98.4355 59.5196 98.9336 59.5196 99.5458V102.144C59.5196 102.902 59.0413 103.587 58.3292 103.848C58.0715 103.943 57.8163 104.049 57.5713 104.163C56.8758 104.485 56.0489 104.342 55.5135 103.805L53.6775 101.968C53.2449 101.535 52.5405 101.535 52.1079 101.968L50.476 103.601C50.2666 103.811 50.1512 104.09 50.1512 104.387C50.1512 104.683 50.2666 104.962 50.476 105.171L52.3121 107.009C52.8475 107.545 52.9911 108.373 52.669 109.068C52.5553 109.314 52.4497 109.569 52.355 109.827C52.0942 110.54 51.4095 111.018 50.6524 111.018H48.0557C47.4439 111.018 46.9462 111.516 46.9462 112.129V114.438C46.9462 115.051 47.4439 115.549 48.0557 115.549H50.6524C51.4095 115.549 52.0938 116.027 52.355 116.74C52.449 116.997 52.5546 117.252 52.669 117.499C52.9914 118.195 52.8478 119.022 52.3121 119.558L50.476 121.396C50.2666 121.605 50.1512 121.884 50.1512 122.181C50.1512 122.477 50.2666 122.756 50.476 122.966L52.1079 124.599C52.5271 125.019 53.2579 125.019 53.6775 124.599L55.5135 122.762C55.8585 122.417 56.3242 122.234 56.7983 122.234ZM61.7833 121.463C57.2767 121.463 53.6103 117.794 53.6103 113.284C53.6103 108.774 57.2767 105.105 61.7833 105.105C66.29 105.105 69.9564 108.774 69.9564 113.284C69.9561 117.794 66.2896 121.463 61.7833 121.463ZM61.7833 105.809C57.6649 105.809 54.3143 109.162 54.3143 113.284C54.3143 117.405 57.6649 120.758 61.7833 120.758C65.9017 120.758 69.2524 117.405 69.2524 113.284C69.2521 109.162 65.9017 105.809 61.7833 105.809Z" fill="white"/>
<g opacity="0.81">
<path d="M48.3299 52.101H43.1235C42.9292 52.101 42.7715 51.9432 42.7715 51.7487C42.7715 51.5543 42.9292 51.3965 43.1235 51.3965H48.3299C48.5242 51.3965 48.6819 51.5543 48.6819 51.7487C48.6819 51.9432 48.5242 52.101 48.3299 52.101Z" fill="white"/>
<path d="M48.3299 60.6869H43.1235C42.9292 60.6869 42.7715 60.5291 42.7715 60.3347C42.7715 60.1402 42.9292 59.9824 43.1235 59.9824H48.3299C48.5242 59.9824 48.6819 60.1402 48.6819 60.3347C48.6819 60.5291 48.5242 60.6869 48.3299 60.6869Z" fill="white"/>
<path d="M52.0935 69.3566H20.2765C19.7503 69.3566 19.3223 68.9283 19.3223 68.4016V41.7548C19.3223 41.2282 19.7503 40.7998 20.2765 40.7998H52.0935C52.6197 40.7998 53.0477 41.2282 53.0477 41.7548V68.4016C53.0477 68.9283 52.6197 69.3566 52.0935 69.3566ZM20.2765 41.5043C20.1386 41.5043 20.0263 41.6167 20.0263 41.7548V68.4016C20.0263 68.5397 20.1386 68.6521 20.2765 68.6521H52.0935C52.2314 68.6521 52.3437 68.5397 52.3437 68.4016V41.7548C52.3437 41.6167 52.2314 41.5043 52.0935 41.5043H20.2765Z" fill="white"/>
<path opacity="0.66" d="M52.0935 69.3566H20.2765C19.7503 69.3566 19.3223 68.9283 19.3223 68.4016V41.7548C19.3223 41.2282 19.7503 40.7998 20.2765 40.7998H52.0935C52.6197 40.7998 53.0477 41.2282 53.0477 41.7548V68.4016C53.0477 68.9283 52.6197 69.3566 52.0935 69.3566ZM20.2765 41.5043C20.1386 41.5043 20.0263 41.6167 20.0263 41.7548V68.4016C20.0263 68.5397 20.1386 68.6521 20.2765 68.6521H52.0935C52.2314 68.6521 52.3437 68.5397 52.3437 68.4016V41.7548C52.3437 41.6167 52.2314 41.5043 52.0935 41.5043H20.2765Z" fill="white"/>
<path d="M48.3312 47.934H23.5219C23.3276 47.934 23.1699 47.7762 23.1699 47.5818C23.1699 47.3873 23.3276 47.2295 23.5219 47.2295H48.3312C48.5255 47.2295 48.6832 47.3873 48.6832 47.5818C48.6832 47.7762 48.5255 47.934 48.3312 47.934Z" fill="white"/>
<path d="M48.3312 56.2675H23.5219C23.3276 56.2675 23.1699 56.1097 23.1699 55.9152C23.1699 55.7208 23.3276 55.563 23.5219 55.563H48.3312C48.5255 55.563 48.6832 55.7208 48.6832 55.9152C48.6832 56.1097 48.5255 56.2675 48.3312 56.2675Z" fill="white"/>
<path d="M36.8976 52.101H23.5219C23.3276 52.101 23.1699 51.9432 23.1699 51.7487C23.1699 51.5543 23.3276 51.3965 23.5219 51.3965H36.8976C37.0919 51.3965 37.2496 51.5543 37.2496 51.7487C37.2496 51.9432 37.0919 52.101 36.8976 52.101Z" fill="white"/>
<path d="M36.8976 60.6865H23.5219C23.3276 60.6865 23.1699 60.5286 23.1699 60.3342C23.1699 60.1397 23.3276 59.9819 23.5219 59.9819H36.8976C37.0919 59.9819 37.2496 60.1397 37.2496 60.3342C37.2496 60.5286 37.0919 60.6865 36.8976 60.6865Z" fill="white"/>
<path d="M32.5423 64.664H23.5219C23.3276 64.664 23.1699 64.5062 23.1699 64.3117C23.1699 64.1173 23.3276 63.9595 23.5219 63.9595H32.5426C32.7369 63.9595 32.8946 64.1173 32.8946 64.3117C32.8943 64.5062 32.7369 64.664 32.5423 64.664Z" fill="white"/>
</g>
<path d="M15.8818 69.4736H18.6756H29.9005H31.8055C32.5173 69.4736 33.1512 70.0552 33.3853 70.9232L33.913 72.8807C34.1467 73.7487 34.7806 74.3303 35.4927 74.3303H58.2886C59.2122 74.3303 59.9609 75.2969 59.9609 76.4889V105.357C59.9609 106.55 59.2122 107.516 58.2886 107.516H58.1753H18.6752H15.8814C14.8951 107.516 14.0957 106.55 14.0957 105.357V78.7821V74.3306V71.6326C14.0961 70.4399 14.8954 69.4736 15.8818 69.4736Z" fill="#F28393"/>
<path opacity="0.12" d="M32.1498 74.6341L31.5866 72.6766C31.337 71.8086 30.6601 71.2271 29.9002 71.2271H15.8814C14.8951 71.2271 14.0957 72.1937 14.0957 73.3857V76.0833V80.5352V107.111C14.0957 108.303 14.8951 109.269 15.8814 109.269H58.1745C59.1609 109.269 59.9602 108.303 59.9602 107.111V78.2423C59.9602 77.0503 59.1609 76.0837 58.1745 76.0837H33.8362C33.0762 76.0837 32.3993 75.5021 32.1498 74.6341Z" fill="white"/>
<path opacity="0.12" d="M31.1131 76.6238L30.5823 74.7787C30.3468 73.9607 29.709 73.4126 28.9927 73.4126H15.779C14.8493 73.4126 14.0957 74.3235 14.0957 75.4473V77.9902V82.1864V107.235C14.0957 108.359 14.8493 109.27 15.779 109.27H55.643C56.5726 109.27 57.3262 108.359 57.3262 107.235V80.0249C57.3262 78.9012 56.5726 77.9902 55.643 77.9902H32.7024C31.9865 77.9902 31.3483 77.4418 31.1131 76.6238Z" fill="white"/>
<path d="M17.3482 81.8647C17.1744 81.8647 17.0332 81.7073 17.0332 81.5125V76.6227C17.0332 75.9605 17.5147 75.4219 18.1068 75.4219H24.6695C24.8434 75.4219 24.9845 75.5793 24.9845 75.7741C24.9845 75.9689 24.8434 76.1264 24.6695 76.1264H18.1072C17.8625 76.1264 17.6633 76.349 17.6633 76.6227V81.5125C17.6633 81.7073 17.5221 81.8647 17.3482 81.8647Z" fill="white"/>
<path d="M107.236 95.9376H50.9015C41.5467 95.9376 33.9629 88.3481 33.9629 78.9864C33.9629 69.6246 41.5467 62.0352 50.9015 62.0352H107.236C116.59 62.0352 124.174 69.6246 124.174 78.9864C124.175 88.3481 116.591 95.9376 107.236 95.9376Z" fill="#C5D9FF"/>
<path d="M79.0704 88.4667C92.2271 88.4667 102.893 77.7931 102.893 64.6267C102.893 51.4602 92.2271 40.7866 79.0704 40.7866C65.9137 40.7866 55.248 51.4602 55.248 64.6267C55.248 77.7931 65.9137 88.4667 79.0704 88.4667Z" fill="#599AF2"/>
<path d="M107.236 90.9439H50.9015C41.5467 90.9439 33.9629 83.3545 33.9629 73.9927C33.9629 64.6309 41.5467 57.0415 50.9015 57.0415H107.236C116.59 57.0415 124.174 64.6309 124.174 73.9927C124.175 83.3545 116.591 90.9439 107.236 90.9439Z" fill="#599AF2"/>
<path d="M88.499 81.5268C100.582 76.3168 106.157 62.2907 100.951 50.1986C95.7448 38.1065 81.7291 32.5274 69.646 37.7374C57.5629 42.9474 51.988 56.9735 57.1941 69.0656C62.4002 81.1577 76.4159 86.7368 88.499 81.5268Z" fill="#599AF2"/>
<g opacity="0.35">
<path d="M107.236 90.9439H50.9015C41.5467 90.9439 33.9629 83.3545 33.9629 73.9927C33.9629 64.6309 41.5467 57.0415 50.9015 57.0415H107.236C116.59 57.0415 124.174 64.6309 124.174 73.9927C124.175 83.3545 116.591 90.9439 107.236 90.9439Z" fill="#ECF1F7"/>
<path d="M88.499 81.5268C100.582 76.3168 106.157 62.2907 100.951 50.1986C95.7448 38.1065 81.7291 32.5274 69.646 37.7374C57.5629 42.9474 51.988 56.9735 57.1941 69.0656C62.4002 81.1577 76.4159 86.7368 88.499 81.5268Z" fill="#ECF1F7"/>
</g>
<path d="M9.20938 125.984C9.10271 125.984 9.01204 125.947 8.93738 125.872C8.87338 125.808 8.84138 125.723 8.84138 125.616V115.232C8.84138 115.125 8.87338 115.04 8.93738 114.976C9.01204 114.901 9.10271 114.864 9.20938 114.864H9.92938C10.0467 114.864 10.1374 114.901 10.2014 114.976C10.2654 115.04 10.2974 115.125 10.2974 115.232V125.616C10.2974 125.723 10.2654 125.808 10.2014 125.872C10.1374 125.947 10.0467 125.984 9.92938 125.984H9.20938ZM18.9873 124C18.8699 124 18.7793 123.968 18.7153 123.904C18.6513 123.84 18.5926 123.787 18.5393 123.744L12.6673 115.488C12.5926 115.371 12.5553 115.269 12.5553 115.184C12.5553 115.099 12.5873 115.024 12.6513 114.96C12.7259 114.896 12.8059 114.864 12.8913 114.864H13.6273C13.7553 114.864 13.8513 114.896 13.9153 114.96C13.9899 115.024 14.0486 115.083 14.0913 115.136L19.9792 123.376C20.0219 123.451 20.0486 123.509 20.0593 123.552C20.0806 123.595 20.0913 123.637 20.0913 123.68C20.0913 123.765 20.0593 123.84 19.9953 123.904C19.9313 123.968 19.8513 124 19.7552 124H18.9873ZM12.7473 124C12.6406 124 12.5499 123.968 12.4753 123.904C12.4113 123.829 12.3793 123.739 12.3793 123.632V121.232C12.3793 120.741 12.4273 120.277 12.5233 119.84C12.6193 119.392 12.8059 118.971 13.0833 118.576C13.3713 118.171 13.7979 117.792 14.3633 117.44L15.0993 118.512C14.7153 118.757 14.4273 119.04 14.2353 119.36C14.0433 119.669 13.9153 119.995 13.8513 120.336C13.7873 120.667 13.7553 120.987 13.7553 121.296V123.632C13.7553 123.739 13.7179 123.829 13.6432 123.904C13.5793 123.968 13.4939 124 13.3873 124H12.7473ZM17.7073 121.072L17.0513 119.968C17.5739 119.723 17.9419 119.467 18.1553 119.2C18.3793 118.933 18.5126 118.656 18.5553 118.368C18.5979 118.069 18.6193 117.76 18.6193 117.44V115.232C18.6193 115.125 18.6513 115.04 18.7153 114.976C18.7899 114.901 18.8806 114.864 18.9873 114.864H19.6593C19.7659 114.864 19.8513 114.901 19.9153 114.976C19.9899 115.04 20.0273 115.125 20.0273 115.232V117.52C20.0273 117.968 19.9739 118.4 19.8673 118.816C19.7606 119.232 19.5419 119.627 19.2113 120C18.8913 120.373 18.3899 120.731 17.7073 121.072ZM22.5375 124C22.4308 124 22.3402 123.968 22.2655 123.904C22.2015 123.829 22.1695 123.739 22.1695 123.632V123.056C22.1695 122.949 22.2015 122.864 22.2655 122.8C22.3402 122.725 22.4308 122.688 22.5375 122.688H24.8255C25.7748 122.688 26.4575 122.453 26.8735 121.984C27.2895 121.504 27.5188 120.837 27.5615 119.984C27.5722 119.749 27.5775 119.563 27.5775 119.424C27.5775 119.285 27.5722 119.104 27.5615 118.88C27.5295 118.027 27.3002 117.365 26.8735 116.896C26.4575 116.416 25.7748 116.176 24.8255 116.176H22.5375C22.4308 116.176 22.3402 116.144 22.2655 116.08C22.2015 116.005 22.1695 115.915 22.1695 115.808V115.232C22.1695 115.125 22.2015 115.04 22.2655 114.976C22.3402 114.901 22.4308 114.864 22.5375 114.864H24.9055C25.8442 114.864 26.6068 115.024 27.1935 115.344C27.7802 115.653 28.2175 116.107 28.5055 116.704C28.8042 117.291 28.9642 118 28.9855 118.832C28.9962 119.045 29.0015 119.243 29.0015 119.424C29.0015 119.605 28.9962 119.808 28.9855 120.032C28.9642 120.853 28.8042 121.563 28.5055 122.16C28.2175 122.757 27.7802 123.216 27.1935 123.536C26.6068 123.845 25.8442 124 24.9055 124H22.5375ZM32.8563 124.144C32.7603 124.176 32.6696 124.16 32.5843 124.096C32.4989 124.043 32.4563 123.963 32.4563 123.856V123.12C32.4563 123.024 32.4829 122.939 32.5363 122.864C32.6003 122.789 32.6909 122.731 32.8083 122.688L33.4323 122.448C33.8483 122.277 34.2269 122.064 34.5683 121.808C34.9203 121.541 35.1923 121.184 35.3843 120.736C35.5869 120.288 35.6883 119.701 35.6883 118.976C35.6883 118.283 35.6029 117.733 35.4323 117.328C35.2723 116.912 34.9949 116.619 34.6003 116.448C34.2163 116.267 33.6883 116.176 33.0163 116.176H32.5363C32.4296 116.176 32.3389 116.144 32.2643 116.08C32.2003 116.005 32.1683 115.915 32.1683 115.808V115.232C32.1683 115.125 32.2003 115.04 32.2643 114.976C32.3389 114.901 32.4296 114.864 32.5363 114.864H33.2403C34.2109 114.864 34.9843 115.003 35.5603 115.28C36.1363 115.557 36.5469 116.005 36.7923 116.624C37.0483 117.232 37.1763 118.032 37.1763 119.024C37.1763 119.771 37.0749 120.416 36.8723 120.96C36.6696 121.504 36.3923 121.968 36.0403 122.352C35.6989 122.736 35.3096 123.056 34.8723 123.312C34.4349 123.557 33.9816 123.76 33.5123 123.92L32.8563 124.144ZM32.8883 116.176L30.9843 116.16C30.8776 116.16 30.7869 116.128 30.7122 116.064C30.6483 116 30.6163 115.915 30.6163 115.808V113.008C30.6163 112.901 30.6483 112.816 30.7122 112.752C30.7869 112.677 30.8776 112.64 30.9843 112.64H31.6562C31.7629 112.64 31.8483 112.677 31.9123 112.752C31.9869 112.816 32.0243 112.901 32.0243 113.008V114.864H32.9203L32.8883 116.176ZM43.5688 124C43.4621 124 43.3714 123.968 43.2968 123.904C43.2328 123.829 43.2008 123.739 43.2008 123.632V115.232C43.2008 115.125 43.2328 115.04 43.2968 114.976C43.3714 114.901 43.4621 114.864 43.5688 114.864H46.6248C47.5421 114.864 48.2994 115.013 48.8968 115.312C49.4941 115.6 49.9368 116.032 50.2248 116.608C50.5234 117.184 50.6728 117.904 50.6728 118.768V123.632C50.6728 123.739 50.6408 123.829 50.5768 123.904C50.5128 123.968 50.4221 124 50.3048 124H43.5688ZM44.5768 122.72H49.2488V118.848C49.2488 117.995 49.0354 117.333 48.6088 116.864C48.1821 116.384 47.4941 116.144 46.5448 116.144H44.5768V122.72ZM53.3005 120.288C53.1938 120.288 53.1032 120.256 53.0285 120.192C52.9645 120.117 52.9325 120.027 52.9325 119.92V115.232C52.9325 115.125 52.9645 115.04 53.0285 114.976C53.1032 114.901 53.1938 114.864 53.3005 114.864H54.0525C54.1698 114.864 54.2605 114.901 54.3245 114.976C54.3885 115.04 54.4205 115.125 54.4205 115.232V119.92C54.4205 120.027 54.3885 120.117 54.3245 120.192C54.2605 120.256 54.1698 120.288 54.0525 120.288H53.3005ZM56.8265 124C56.7198 124 56.6292 123.968 56.5545 123.904C56.4905 123.829 56.4585 123.739 56.4585 123.632V123.072C56.4585 122.965 56.4905 122.88 56.5545 122.816C56.6292 122.741 56.7198 122.704 56.8265 122.704H61.1625L56.1545 115.488C56.1225 115.424 56.0958 115.371 56.0745 115.328C56.0532 115.275 56.0425 115.227 56.0425 115.184C56.0425 115.099 56.0745 115.024 56.1385 114.96C56.2132 114.896 56.2932 114.864 56.3785 114.864H57.1465C57.2532 114.864 57.3385 114.896 57.4025 114.96C57.4772 115.013 57.5358 115.072 57.5785 115.136L62.7945 122.608C62.8478 122.683 62.8905 122.763 62.9225 122.848C62.9652 122.923 62.9865 123.008 62.9865 123.104V123.632C62.9865 123.739 62.9492 123.829 62.8745 123.904C62.8105 123.968 62.7252 124 62.6185 124H56.8265ZM60.8745 120.352L60.1705 119.312C60.7252 119.109 61.1252 118.779 61.3705 118.32C61.6265 117.851 61.7545 117.28 61.7545 116.608V115.232C61.7545 115.125 61.7865 115.04 61.8505 114.976C61.9252 114.901 62.0158 114.864 62.1225 114.864H62.7785C62.8958 114.864 62.9865 114.901 63.0505 114.976C63.1145 115.04 63.1465 115.125 63.1465 115.232V116.8C63.1465 117.664 62.9545 118.4 62.5705 119.008C62.1865 119.616 61.6212 120.064 60.8745 120.352ZM65.3098 124C65.2031 124 65.1124 123.968 65.0378 123.904C64.9738 123.829 64.9418 123.739 64.9418 123.632V123.088C64.9418 122.981 64.9738 122.896 65.0378 122.832C65.1124 122.757 65.2031 122.72 65.3098 122.72H69.9018V118.848C69.9018 117.995 69.6884 117.333 69.2618 116.864C68.8351 116.384 68.1471 116.144 67.1978 116.144H65.4698C65.3631 116.144 65.2724 116.112 65.1978 116.048C65.1338 115.973 65.1018 115.883 65.1018 115.776V115.232C65.1018 115.125 65.1338 115.04 65.1978 114.976C65.2724 114.901 65.3631 114.864 65.4698 114.864H67.2778C68.1951 114.864 68.9578 115.013 69.5658 115.312C70.1738 115.611 70.6271 116.053 70.9258 116.64C71.2351 117.216 71.3898 117.936 71.3898 118.8V122.72H71.9818C72.0884 122.72 72.1738 122.757 72.2378 122.832C72.3124 122.896 72.3498 122.981 72.3498 123.088V123.632C72.3498 123.739 72.3124 123.829 72.2378 123.904C72.1738 123.968 72.0884 124 71.9818 124H65.3098ZM74.4125 127.056C74.3058 127.056 74.2152 127.019 74.1405 126.944C74.0765 126.88 74.0445 126.795 74.0445 126.688V118.288C74.0445 118.181 74.0765 118.096 74.1405 118.032C74.2152 117.957 74.3058 117.92 74.4125 117.92H75.1165C75.2338 117.92 75.3245 117.957 75.3885 118.032C75.4525 118.096 75.4845 118.181 75.4845 118.288V126.688C75.4845 126.795 75.4525 126.88 75.3885 126.944C75.3245 127.019 75.2338 127.056 75.1165 127.056H74.4125ZM77.4845 124.144C77.3885 124.176 77.2978 124.16 77.2125 124.096C77.1378 124.043 77.1005 123.963 77.1005 123.856V123.12C77.1005 123.024 77.1272 122.939 77.1805 122.864C77.2445 122.789 77.3352 122.731 77.4525 122.688L78.0605 122.448C78.4872 122.277 78.8712 122.064 79.2125 121.808C79.5645 121.541 79.8365 121.184 80.0285 120.736C80.2312 120.288 80.3325 119.701 80.3325 118.976C80.3325 118.283 80.2472 117.733 80.0765 117.328C79.9058 116.912 79.6232 116.619 79.2285 116.448C78.8445 116.267 78.3218 116.176 77.6605 116.176H74.4125C74.3058 116.176 74.2152 116.144 74.1405 116.08C74.0765 116.005 74.0445 115.915 74.0445 115.808V115.232C74.0445 115.125 74.0765 115.04 74.1405 114.976C74.2152 114.901 74.3058 114.864 74.4125 114.864H77.8685C78.8498 114.864 79.6232 115.003 80.1885 115.28C80.7645 115.557 81.1752 116.005 81.4205 116.624C81.6765 117.232 81.8045 118.032 81.8045 119.024C81.8045 119.771 81.7032 120.416 81.5005 120.96C81.2978 121.504 81.0205 121.968 80.6685 122.352C80.3272 122.736 79.9378 123.056 79.5005 123.312C79.0738 123.557 78.6258 123.76 78.1565 123.92L77.4845 124.144ZM92.7594 124C92.6527 124 92.562 123.968 92.4874 123.904C92.4234 123.829 92.3914 123.739 92.3914 123.632V118.848C92.3914 117.995 92.178 117.333 91.7514 116.864C91.3247 116.384 90.6367 116.144 89.6874 116.144H87.5914C87.4847 116.144 87.394 116.112 87.3194 116.048C87.2554 115.973 87.2234 115.883 87.2234 115.776V115.232C87.2234 115.125 87.2554 115.04 87.3194 114.976C87.394 114.901 87.4847 114.864 87.5914 114.864H89.7674C90.6847 114.864 91.442 115.008 92.0394 115.296C92.6474 115.584 93.1007 116.021 93.3994 116.608C93.698 117.184 93.8474 117.904 93.8474 118.768V123.632C93.8474 123.739 93.81 123.829 93.7354 123.904C93.6714 123.968 93.586 124 93.4794 124H92.7594ZM96.5844 124C96.4777 124 96.387 123.968 96.3124 123.904C96.2484 123.829 96.2164 123.739 96.2164 123.632V115.232C96.2164 115.125 96.2484 115.04 96.3124 114.976C96.387 114.901 96.4777 114.864 96.5844 114.864H97.3364C97.4537 114.864 97.5444 114.901 97.6084 114.976C97.6724 115.04 97.7044 115.125 97.7044 115.232V123.632C97.7044 123.739 97.6724 123.829 97.6084 123.904C97.5444 123.968 97.4537 124 97.3364 124H96.5844ZM105.338 124C105.231 124 105.14 123.968 105.066 123.904C105.002 123.829 104.97 123.739 104.97 123.632V118.848C104.97 117.995 104.756 117.333 104.33 116.864C103.903 116.384 103.215 116.144 102.266 116.144H100.17C100.063 116.144 99.9722 116.112 99.8975 116.048C99.8335 115.973 99.8015 115.883 99.8015 115.776V115.232C99.8015 115.125 99.8335 115.04 99.8975 114.976C99.9722 114.901 100.063 114.864 100.17 114.864H102.346C103.263 114.864 104.02 115.008 104.618 115.296C105.226 115.584 105.679 116.021 105.978 116.608C106.276 117.184 106.426 117.904 106.426 118.768V123.632C106.426 123.739 106.388 123.829 106.314 123.904C106.25 123.968 106.164 124 106.058 124H105.338ZM112.987 124C112.88 124 112.795 123.968 112.731 123.904C112.677 123.829 112.64 123.739 112.619 123.632L111.643 118.72C111.536 118.155 111.408 117.685 111.259 117.312C111.12 116.928 110.928 116.64 110.683 116.448C110.448 116.245 110.123 116.144 109.707 116.144H109.131C109.024 116.144 108.933 116.112 108.859 116.048C108.795 115.973 108.763 115.883 108.763 115.776V115.2C108.763 115.093 108.795 115.008 108.859 114.944C108.933 114.869 109.024 114.832 109.131 114.832H109.723C110.437 114.832 111.013 114.976 111.451 115.264C111.888 115.541 112.235 115.963 112.491 116.528C112.757 117.093 112.976 117.797 113.147 118.64L114.107 123.632C114.128 123.739 114.101 123.829 114.027 123.904C113.952 123.968 113.861 124 113.755 124H112.987ZM110.923 123.184C110.528 123.451 110.155 123.659 109.803 123.808C109.461 123.947 109.104 124.053 108.731 124.128C108.624 124.139 108.533 124.128 108.459 124.096C108.384 124.064 108.347 123.995 108.347 123.888V123.088C108.347 122.907 108.459 122.773 108.683 122.688C108.757 122.656 108.896 122.608 109.099 122.544C109.301 122.48 109.52 122.4 109.755 122.304C109.989 122.197 110.192 122.091 110.363 121.984C110.629 121.813 110.891 121.595 111.147 121.328C111.403 121.051 111.616 120.768 111.786 120.48C111.968 120.181 112.059 119.92 112.059 119.696L112.987 119.584C112.976 120.043 112.875 120.507 112.683 120.976C112.491 121.445 112.24 121.872 111.931 122.256C111.621 122.64 111.285 122.949 110.923 123.184ZM117.247 124.144C117.151 124.176 117.06 124.16 116.975 124.096C116.89 124.043 116.847 123.963 116.847 123.856V123.12C116.847 123.024 116.874 122.939 116.927 122.864C116.991 122.789 117.082 122.731 117.199 122.688L117.823 122.448C118.239 122.277 118.618 122.064 118.959 121.808C119.311 121.541 119.583 121.184 119.775 120.736C119.978 120.288 120.079 119.701 120.079 118.976C120.079 118.283 119.994 117.733 119.823 117.328C119.663 116.912 119.386 116.619 118.991 116.448C118.607 116.267 118.079 116.176 117.407 116.176H116.927C116.82 116.176 116.73 116.144 116.655 116.08C116.591 116.005 116.559 115.915 116.559 115.808V115.232C116.559 115.125 116.591 115.04 116.655 114.976C116.73 114.901 116.82 114.864 116.927 114.864H117.631C118.602 114.864 119.375 115.003 119.951 115.28C120.527 115.557 120.938 116.005 121.183 116.624C121.439 117.232 121.567 118.032 121.567 119.024C121.567 119.771 121.466 120.416 121.263 120.96C121.06 121.504 120.783 121.968 120.431 122.352C120.09 122.736 119.7 123.056 119.263 123.312C118.826 123.557 118.372 123.76 117.903 123.92L117.247 124.144ZM117.279 116.176L115.375 116.16C115.268 116.16 115.178 116.128 115.103 116.064C115.039 116 115.007 115.915 115.007 115.808V113.008C115.007 112.901 115.039 112.816 115.103 112.752C115.178 112.677 115.268 112.64 115.375 112.64H116.047C116.154 112.64 116.239 112.677 116.303 112.752C116.378 112.816 116.415 112.901 116.415 113.008V114.864H117.311L117.279 116.176ZM132.135 122.8C132.829 122.811 133.41 122.683 133.879 122.416C134.359 122.149 134.722 121.771 134.967 121.28C135.223 120.779 135.351 120.208 135.351 119.568V115.232C135.351 115.125 135.383 115.04 135.447 114.976C135.522 114.901 135.613 114.864 135.719 114.864H136.375C136.493 114.864 136.583 114.901 136.647 114.976C136.711 115.04 136.743 115.125 136.743 115.232V119.68C136.743 120.363 136.637 120.981 136.423 121.536C136.21 122.08 135.906 122.549 135.511 122.944C135.117 123.328 134.647 123.621 134.103 123.824C133.57 124.027 132.978 124.117 132.327 124.096H131.127C130.434 124.096 129.81 123.936 129.255 123.616C128.701 123.296 128.263 122.848 127.943 122.272C127.623 121.696 127.463 121.029 127.463 120.272V115.232C127.463 115.125 127.495 115.04 127.559 114.976C127.634 114.901 127.725 114.864 127.831 114.864H128.503C128.61 114.864 128.695 114.901 128.759 114.976C128.834 115.04 128.871 115.125 128.871 115.232L128.919 119.952C128.919 120.869 129.175 121.573 129.687 122.064C130.199 122.555 130.85 122.8 131.639 122.8H132.135ZM128.583 120.928L128.551 119.76C129.341 119.749 129.943 119.632 130.359 119.408C130.775 119.173 131.063 118.864 131.223 118.48C131.394 118.096 131.479 117.675 131.479 117.216V115.232C131.479 115.125 131.511 115.04 131.575 114.976C131.639 114.901 131.73 114.864 131.847 114.864H132.503C132.61 114.864 132.695 114.901 132.759 114.976C132.834 115.04 132.871 115.125 132.871 115.232V117.28C132.871 117.973 132.717 118.597 132.407 119.152C132.098 119.707 131.623 120.144 130.983 120.464C130.354 120.784 129.554 120.939 128.583 120.928ZM139.238 120.288C139.131 120.288 139.041 120.256 138.966 120.192C138.902 120.117 138.87 120.027 138.87 119.92V115.232C138.87 115.125 138.902 115.04 138.966 114.976C139.041 114.901 139.131 114.864 139.238 114.864H139.99C140.107 114.864 140.198 114.901 140.262 114.976C140.326 115.04 140.358 115.125 140.358 115.232V119.92C140.358 120.027 140.326 120.117 140.262 120.192C140.198 120.256 140.107 120.288 139.99 120.288H139.238Z" fill="black"/>
</svg>
