<svg width="271" height="145" viewBox="0 0 271 145" fill="none" xmlns="http://www.w3.org/2000/svg">
<path d="M269.059 131.343H0.985059C0.439689 131.343 -0.00292969 131.042 -0.00292969 130.67C-0.00292969 130.298 0.439689 129.997 0.985059 129.997H269.059C269.605 129.997 270.047 130.298 270.047 130.67C270.047 131.042 269.605 131.343 269.059 131.343Z" fill="#4C4F60"/>
<path d="M52.7514 118.205L35.999 110.409L19.2461 118.205V129.898H52.7514V118.205Z" fill="url(#paint0_linear_9429_89073)"/>
<path d="M51.7514 136.898H20.2461C19.6938 136.898 19.2461 137.346 19.2461 137.898V143.499C19.2461 144.051 19.6938 144.499 20.2461 144.499H51.7514C52.3037 144.499 52.7514 144.051 52.7514 143.499V137.898C52.7514 137.346 52.3037 136.898 51.7514 136.898Z" fill="url(#paint1_linear_9429_89073)"/>
<path d="M102.256 102.613L85.5039 94.8176L68.751 102.613V129.898H102.256V102.613Z" fill="url(#paint2_linear_9429_89073)"/>
<path d="M101.256 136.898H69.751C69.1987 136.898 68.751 137.346 68.751 137.898V143.499C68.751 144.051 69.1987 144.499 69.751 144.499H101.256C101.809 144.499 102.256 144.051 102.256 143.499V137.898C102.256 137.346 101.809 136.898 101.256 136.898Z" fill="url(#paint3_linear_9429_89073)"/>
<path d="M151.763 94.8176L135.138 87.0219L118.257 94.8176V129.898H151.763V94.8176Z" fill="url(#paint4_linear_9429_89073)"/>
<path d="M150.762 136.898H119.257C118.705 136.898 118.257 137.346 118.257 137.898V143.499C118.257 144.051 118.705 144.499 119.257 144.499H150.762C151.314 144.499 151.762 144.051 151.762 143.499V137.898C151.762 137.346 151.314 136.898 150.762 136.898Z" fill="url(#paint5_linear_9429_89073)"/>
<path d="M201.268 70.8945L184.515 61.0606L167.763 70.8945V129.898H201.268V70.8945Z" fill="url(#paint6_linear_9429_89073)"/>
<path d="M200.268 136.898H168.763C168.21 136.898 167.763 137.346 167.763 137.898V143.499C167.763 144.051 168.21 144.499 168.763 144.499H200.268C200.82 144.499 201.268 144.051 201.268 143.499V137.898C201.268 137.346 200.82 136.898 200.268 136.898Z" fill="url(#paint7_linear_9429_89073)"/>
<path d="M250.773 42.5865L234.02 31.6725L217.268 42.5865V129.898H250.773V42.5865Z" fill="url(#paint8_linear_9429_89073)"/>
<path d="M249.773 136.898H218.268C217.715 136.898 217.268 137.346 217.268 137.898V143.499C217.268 144.051 217.715 144.499 218.268 144.499H249.773C250.325 144.499 250.773 144.051 250.773 143.499V137.898C250.773 137.346 250.325 136.898 249.773 136.898Z" fill="url(#paint9_linear_9429_89073)"/>
<path d="M12.418 110.409C12.418 110.409 34.8071 89.3608 81.7294 82.3447C115.998 77.2206 149.313 66.8964 183.664 38.2994C201.032 23.8404 216.798 14.2605 230.391 9.27441" stroke="#BDBDBD" stroke-width="1.31732" stroke-miterlimit="10" stroke-linecap="round" stroke-linejoin="round"/>
<path d="M32.1045 101.331C34.0375 101.331 35.6045 99.7636 35.6045 97.8306C35.6045 95.8976 34.0375 94.3306 32.1045 94.3306C30.1715 94.3306 28.6045 95.8976 28.6045 97.8306C28.6045 99.7636 30.1715 101.331 32.1045 101.331Z" fill="#9398C2"/>
<path d="M81.6064 86.1292C83.5394 86.1292 85.1064 84.5621 85.1064 82.6292C85.1064 80.6962 83.5394 79.1292 81.6064 79.1292C79.6734 79.1292 78.1064 80.6962 78.1064 82.6292C78.1064 84.5621 79.6734 86.1292 81.6064 86.1292Z" fill="#9398C2"/>
<path d="M131.159 73.4124C133.092 73.4124 134.659 71.8454 134.659 69.9124C134.659 67.9794 133.092 66.4124 131.159 66.4124C129.226 66.4124 127.659 67.9794 127.659 69.9124C127.659 71.8454 129.226 73.4124 131.159 73.4124Z" fill="#9398C2"/>
<path d="M180.71 44.0325C182.643 44.0325 184.21 42.4655 184.21 40.5325C184.21 38.5995 182.643 37.0325 180.71 37.0325C178.777 37.0325 177.21 38.5995 177.21 40.5325C177.21 42.4655 178.777 44.0325 180.71 44.0325Z" fill="#9398C2"/>
<path d="M230.275 12.6793C232.208 12.6793 233.775 11.1123 233.775 9.17932C233.775 7.24632 232.208 5.67932 230.275 5.67932C228.342 5.67932 226.775 7.24632 226.775 9.17932C226.775 11.1123 228.342 12.6793 230.275 12.6793Z" fill="#9398C2"/>
<defs>
<linearGradient id="paint0_linear_9429_89073" x1="25.1237" y1="112.779" x2="27.9843" y2="135.229" gradientUnits="userSpaceOnUse">
<stop stop-color="#CCCFE6"/>
<stop offset="1" stop-color="#787C9E"/>
</linearGradient>
<linearGradient id="paint1_linear_9429_89073" x1="25.1237" y1="137.823" x2="25.5647" y2="146.698" gradientUnits="userSpaceOnUse">
<stop stop-color="#9398C2"/>
<stop offset="1" stop-color="#CCCFE6"/>
</linearGradient>
<linearGradient id="paint2_linear_9429_89073" x1="74.6285" y1="99.0841" x2="83.5767" y2="138.097" gradientUnits="userSpaceOnUse">
<stop stop-color="#CCCFE6"/>
<stop offset="1" stop-color="#787C9E"/>
</linearGradient>
<linearGradient id="paint3_linear_9429_89073" x1="74.6285" y1="137.823" x2="75.0696" y2="146.698" gradientUnits="userSpaceOnUse">
<stop stop-color="#9398C2"/>
<stop offset="1" stop-color="#CCCFE6"/>
</linearGradient>
<linearGradient id="paint4_linear_9429_89073" x1="124.134" y1="92.2365" x2="137.179" y2="138.771" gradientUnits="userSpaceOnUse">
<stop stop-color="#CCCFE6"/>
<stop offset="1" stop-color="#787C9E"/>
</linearGradient>
<linearGradient id="paint5_linear_9429_89073" x1="124.134" y1="137.823" x2="124.575" y2="146.698" gradientUnits="userSpaceOnUse">
<stop stop-color="#9398C2"/>
<stop offset="1" stop-color="#CCCFE6"/>
</linearGradient>
<linearGradient id="paint6_linear_9429_89073" x1="173.64" y1="69.4327" x2="203.799" y2="136.441" gradientUnits="userSpaceOnUse">
<stop stop-color="#CCCFE6"/>
<stop offset="1" stop-color="#787C9E"/>
</linearGradient>
<linearGradient id="paint7_linear_9429_89073" x1="173.64" y1="137.823" x2="174.081" y2="146.698" gradientUnits="userSpaceOnUse">
<stop stop-color="#9398C2"/>
<stop offset="1" stop-color="#CCCFE6"/>
</linearGradient>
<linearGradient id="paint8_linear_9429_89073" x1="223.145" y1="43.6188" x2="275.426" y2="125.027" gradientUnits="userSpaceOnUse">
<stop stop-color="#CCCFE6"/>
<stop offset="1" stop-color="#787C9E"/>
</linearGradient>
<linearGradient id="paint9_linear_9429_89073" x1="223.145" y1="137.823" x2="223.586" y2="146.698" gradientUnits="userSpaceOnUse">
<stop stop-color="#9398C2"/>
<stop offset="1" stop-color="#CCCFE6"/>
</linearGradient>
</defs>
</svg>
