<svg width="284" height="61" viewBox="0 0 284 61" fill="none" xmlns="http://www.w3.org/2000/svg">
<rect x="0.377495" y="0.828545" width="282.341" height="59.5526" stroke="#CCCFE6" stroke-width="0.659287"/>
<path d="M96.7841 49.2604C96.2172 49.2604 95.7533 48.8056 95.7443 48.2366C95.7352 47.6632 96.1933 47.1894 96.768 47.1804C101.604 47.1033 106.182 45.2091 109.66 41.847C110.075 41.4487 110.732 41.4598 111.13 41.8722C111.53 42.285 111.519 42.9433 111.106 43.3425C107.247 47.072 102.166 49.1735 96.8006 49.2596C96.7952 49.2604 96.7894 49.2604 96.7841 49.2604Z" fill="#9398C2"/>
<path d="M96.1298 9.18788C95.5629 9.18788 95.099 8.73266 95.09 8.16332C95.0817 7.58904 95.5398 7.11652 96.1145 7.10828L96.2097 7.10292C96.2917 7.09674 96.3736 7.0918 96.4573 7.0918C97.0316 7.0918 97.4971 7.55732 97.4971 8.1316C97.4971 8.70588 97.0316 9.17141 96.4573 9.17141L96.3572 9.17718C96.2863 9.18212 96.2167 9.18665 96.145 9.18788C96.1405 9.18788 96.1347 9.18788 96.1298 9.18788Z" fill="#9398C2"/>
<path d="M76.4041 29.2247C75.8298 29.2247 75.3643 28.7592 75.3643 28.1849C75.3643 22.1286 77.9889 16.3532 82.565 12.339C82.9972 11.9592 83.6534 12.0037 84.032 12.435C84.4106 12.8668 84.3682 13.5234 83.9361 13.902C79.8102 17.522 77.4439 22.7276 77.4439 28.1849C77.4443 28.7592 76.9788 29.2247 76.4041 29.2247Z" fill="#9398C2"/>
<path d="M96.1299 49.2604C96.1242 49.2604 96.1192 49.2604 96.1139 49.2604C90.7476 49.1743 85.6676 47.0729 81.8091 43.3433C81.3963 42.9441 81.3852 42.2858 81.7848 41.873C82.1836 41.4606 82.8415 41.4495 83.2551 41.8479C86.7321 45.21 91.3103 47.1038 96.1464 47.1812C96.7207 47.1903 97.1788 47.6636 97.1701 48.2375C97.1611 48.8056 96.6972 49.2604 96.1299 49.2604Z" fill="#9398C2"/>
<path d="M82.5317 43.6349C82.2717 43.6349 82.0109 43.5376 81.8087 43.3428C77.6527 39.3265 75.3643 33.9429 75.3643 28.1845C75.3643 27.6102 75.8298 27.1447 76.4041 27.1447C76.9783 27.1447 77.4439 27.6102 77.4439 28.1845C77.4439 33.374 79.5074 38.2261 83.2547 41.8473C83.6675 42.2465 83.6786 42.9044 83.279 43.3176C83.075 43.529 82.8036 43.6349 82.5317 43.6349Z" fill="#9398C2"/>
<path d="M96.4574 49.2772C96.3713 49.2772 96.2868 49.2714 96.2024 49.2657L96.1072 49.2599C95.5329 49.2467 95.0781 48.7709 95.0901 48.1974C95.1033 47.6314 95.5663 47.1803 96.1291 47.1803C96.1373 47.1803 96.1451 47.1803 96.1525 47.1803C96.2209 47.1819 96.2872 47.1869 96.354 47.1918L96.457 47.1976C97.0313 47.1976 97.4968 47.6631 97.4968 48.2374C97.4972 48.8117 97.0317 49.2772 96.4574 49.2772Z" fill="#9398C2"/>
<path d="M96.4578 49.2772C95.8835 49.2772 95.418 48.8117 95.418 48.2374C95.418 47.6631 95.8835 47.1976 96.4578 47.1976L96.5599 47.1918C96.6267 47.1869 96.693 47.1819 96.7614 47.1803C97.3023 47.1819 97.8111 47.6223 97.8239 48.1974C97.8362 48.7709 97.381 49.2471 96.8067 49.2599L96.7124 49.2657C96.6283 49.2714 96.5439 49.2772 96.4578 49.2772Z" fill="#9398C2"/>
<path d="M109.663 14.1602C109.42 14.1602 109.175 14.0753 108.978 13.9019C105.595 10.9345 101.259 9.25985 96.7672 9.18776C96.1937 9.17828 95.7356 8.70535 95.7443 8.13148C95.7541 7.5572 96.2131 7.11763 96.801 7.10815C101.785 7.18849 106.596 9.04646 110.348 12.3389C110.781 12.7175 110.823 13.3746 110.444 13.8059C110.239 14.0403 109.952 14.1602 109.663 14.1602Z" fill="#9398C2"/>
<path d="M83.2515 14.1603C82.9623 14.1603 82.6748 14.0404 82.4692 13.806C82.0906 13.3746 82.133 12.7175 82.5652 12.3389C86.3174 9.04651 91.1291 7.18854 96.1127 7.10821C96.7138 7.08555 97.1599 7.55684 97.1694 8.13153C97.1785 8.7054 96.7204 9.17875 96.1465 9.18781C91.6548 9.26032 87.3184 10.9346 83.9358 13.902C83.7389 14.0754 83.4942 14.1603 83.2515 14.1603Z" fill="#9398C2"/>
<path d="M96.7839 9.18788C96.779 9.18788 96.774 9.18788 96.7682 9.18788C96.697 9.18665 96.6269 9.18212 96.5561 9.17718L96.4568 9.17141C95.8825 9.17141 95.417 8.70588 95.417 8.1316C95.417 7.55732 95.8825 7.0918 96.4568 7.0918C96.5404 7.0918 96.6224 7.09674 96.7044 7.10292L96.7987 7.10828C97.373 7.11693 97.8311 7.58904 97.8233 8.16332C97.8146 8.73225 97.3508 9.18788 96.7839 9.18788Z" fill="#9398C2"/>
<path d="M110.383 43.6348C110.111 43.6348 109.84 43.5289 109.636 43.3176C109.236 42.9044 109.247 42.2465 109.66 41.8473C113.406 38.2269 115.47 33.3748 115.47 28.1844C115.47 22.7271 113.104 17.5215 108.977 13.9015C108.545 13.5229 108.503 12.8662 108.881 12.4345C109.259 12.0032 109.916 11.9591 110.348 12.3385C114.924 16.3527 117.549 22.1285 117.549 28.1844C117.549 33.9433 115.261 39.3269 111.106 43.3427C110.904 43.538 110.643 43.6348 110.383 43.6348Z" fill="#9398C2"/>
<path d="M89.2179 17.4876C89.0473 17.4876 88.8743 17.4456 88.714 17.3566C88.2118 17.0781 88.031 16.4454 88.3095 15.9432C90.139 12.6458 92.7488 9.741 95.8571 7.54357C96.3235 7.21153 96.9756 7.32235 97.3064 7.79199C97.6381 8.26081 97.5264 8.90965 97.058 9.24129C94.2035 11.2599 91.8071 13.9266 90.1279 16.9521C89.9376 17.2944 89.5837 17.4876 89.2179 17.4876Z" fill="#9398C2"/>
<path d="M96.4579 9.43211C96.1312 9.43211 95.8103 9.27886 95.6072 8.99172C95.2764 8.52249 95.388 7.87406 95.8572 7.54283L95.9726 7.4555C96.0447 7.39906 96.118 7.34303 96.1934 7.29113C96.6672 6.96444 97.3136 7.08473 97.6394 7.55808C97.9653 8.03143 97.8458 8.67863 97.3729 9.0045C97.33 9.03416 97.2884 9.0667 97.2468 9.09884C97.1834 9.14786 97.1208 9.19647 97.0561 9.24179C96.8748 9.37032 96.6651 9.43211 96.4579 9.43211Z" fill="#9398C2"/>
<path d="M88.6853 39.9005C88.3018 39.9005 87.9323 39.6871 87.7518 39.3196C86.0199 35.8022 85.1416 32.0558 85.1416 28.1849C85.1416 27.6107 85.6071 27.1451 86.1814 27.1451C86.7557 27.1451 87.2212 27.6107 87.2212 28.1849C87.2212 31.7345 88.027 35.1715 89.6168 38.4009C89.871 38.9163 89.6592 39.5396 89.143 39.7934C88.9964 39.8659 88.8394 39.9005 88.6853 39.9005Z" fill="#9398C2"/>
<path d="M96.7836 49.2604C96.583 49.2604 96.3807 49.2027 96.2019 49.0816C96.1216 49.0272 96.0441 48.9687 95.9679 48.9094L95.8583 48.8266C95.3887 48.4949 95.2775 47.8461 95.6083 47.3773C95.9407 46.9085 96.5888 46.7964 97.0576 47.1272C97.121 47.1717 97.182 47.2191 97.243 47.266C97.2837 47.2978 97.3241 47.3303 97.3674 47.3596C97.8436 47.6813 97.9676 48.3273 97.6459 48.8031C97.4448 49.1001 97.1173 49.2604 96.7836 49.2604Z" fill="#9398C2"/>
<path d="M96.4567 49.0164C96.2486 49.0164 96.0389 48.9546 95.8573 48.8257C92.4177 46.3934 89.6151 43.1063 87.7514 39.3191C87.498 38.8041 87.7106 38.1804 88.226 37.9271C88.7409 37.6733 89.3642 37.8859 89.6184 38.4012C91.3285 41.8782 93.9012 44.8955 97.0581 47.1279C97.527 47.4596 97.6382 48.1084 97.3066 48.5773C97.1043 48.864 96.7825 49.0164 96.4567 49.0164Z" fill="#9398C2"/>
<path d="M86.1814 29.2247C85.6071 29.2247 85.1416 28.7592 85.1416 28.1849C85.1416 23.9124 86.2366 19.679 88.3088 15.9433C88.5856 15.4411 89.2205 15.2602 89.7223 15.5383C90.2244 15.8168 90.4053 16.4496 90.1268 16.9522C88.226 20.3798 87.2208 24.2638 87.2208 28.1849C87.2212 28.7592 86.7557 29.2247 86.1814 29.2247Z" fill="#9398C2"/>
<path d="M89.2183 17.4881C89.1005 17.4881 88.9811 17.4679 88.8632 17.4255C86.5822 16.5979 84.4766 15.4229 82.6034 13.9345C82.1543 13.5769 82.0794 12.9231 82.437 12.4737C82.7954 12.0242 83.4483 11.9501 83.8986 12.3068C85.5947 13.6552 87.5037 14.7201 89.5739 15.4707C90.1131 15.6668 90.392 16.2633 90.1959 16.803C90.0423 17.2253 89.6435 17.4881 89.2183 17.4881Z" fill="#9398C2"/>
<path d="M103.696 17.4882C103.271 17.4882 102.872 17.2254 102.719 16.8027C102.523 16.263 102.802 15.6665 103.341 15.4704C105.411 14.7198 107.32 13.6553 109.016 12.3065C109.467 11.9493 110.12 12.0239 110.477 12.4733C110.835 12.9228 110.76 13.577 110.311 13.9342C108.438 15.423 106.332 16.5976 104.051 17.4252C103.933 17.4676 103.814 17.4882 103.696 17.4882Z" fill="#9398C2"/>
<path d="M96.4578 18.7793C95.8835 18.7793 95.418 18.3138 95.418 17.7395C95.418 17.1652 95.8835 16.6997 96.4578 16.6997C98.7763 16.6997 101.092 16.2861 103.342 15.4704C103.88 15.2755 104.478 15.5536 104.673 16.0933C104.869 16.633 104.59 17.2299 104.05 17.4256C101.573 18.3241 99.0181 18.7793 96.4578 18.7793Z" fill="#9398C2"/>
<path d="M96.4573 18.7794C93.8961 18.7794 91.3411 18.3241 88.8643 17.4256C88.3243 17.23 88.0454 16.633 88.2415 16.0933C88.4363 15.5537 89.0341 15.2752 89.5729 15.4704C91.8223 16.2866 94.1392 16.6998 96.4577 16.6998C97.032 16.6998 97.4975 17.1653 97.4975 17.7396C97.4971 18.3138 97.0316 18.7794 96.4573 18.7794Z" fill="#9398C2"/>
<path d="M110.381 43.6349C110.14 43.6349 109.897 43.5508 109.7 43.3799C107.959 41.8659 105.99 40.6708 103.848 39.8275C103.313 39.617 103.051 39.0134 103.261 38.4791C103.471 37.9448 104.074 37.6836 104.609 37.8925C106.972 38.8227 109.144 40.141 111.064 41.8103C111.497 42.1872 111.544 42.8439 111.167 43.2773C110.961 43.5138 110.672 43.6349 110.381 43.6349Z" fill="#9398C2"/>
<path d="M104.23 39.9004C104.103 39.9004 103.974 39.8769 103.848 39.8275C101.463 38.889 98.9765 38.4132 96.4578 38.4132C95.8835 38.4132 95.418 37.9477 95.418 37.3734C95.418 36.7991 95.8835 36.3336 96.4578 36.3336C99.2386 36.3336 101.982 36.8581 104.611 37.8925C105.145 38.1026 105.407 38.7065 105.197 39.2405C105.036 39.65 104.644 39.9004 104.23 39.9004Z" fill="#9398C2"/>
<path d="M88.6844 39.9004C88.27 39.9004 87.8778 39.6503 87.7171 39.2408C87.5066 38.7069 87.7698 38.1026 88.3037 37.8929C90.9325 36.8584 93.6758 36.334 96.4574 36.334C97.0317 36.334 97.4972 36.7995 97.4972 37.3738C97.4972 37.9481 97.0317 38.4136 96.4574 38.4136C93.9374 38.4136 91.4507 38.8898 89.0659 39.8279C88.9402 39.8765 88.8109 39.9004 88.6844 39.9004Z" fill="#9398C2"/>
<path d="M82.533 43.6348C82.2421 43.6348 81.9529 43.5137 81.7474 43.2772C81.3704 42.8438 81.4166 42.1871 81.8495 41.8102C83.7685 40.1417 85.94 38.823 88.3038 37.8924C88.8377 37.6827 89.4421 37.9443 89.6522 38.479C89.8627 39.0133 89.6003 39.6173 89.0656 39.8274C86.9225 40.6715 84.9533 41.8662 83.214 43.3798C83.0179 43.5508 82.774 43.6348 82.533 43.6348Z" fill="#9398C2"/>
<path d="M106.732 29.2247C106.158 29.2247 105.693 28.7592 105.693 28.1849C105.693 24.2642 104.688 20.3802 102.787 16.9522C102.509 16.4496 102.689 15.8168 103.192 15.5383C103.695 15.2602 104.327 15.4411 104.605 15.9433C106.677 19.679 107.772 23.912 107.772 28.1849C107.772 28.7592 107.307 29.2247 106.732 29.2247Z" fill="#9398C2"/>
<path d="M96.4566 9.43217C96.2519 9.43217 96.0447 9.37161 95.8634 9.24596C95.7938 9.19735 95.727 9.14585 95.6595 9.09394C95.6203 9.06346 95.5816 9.03215 95.54 9.00413C95.0671 8.67827 94.9476 8.03107 95.2735 7.55772C95.5985 7.08437 96.2449 6.9649 96.7195 7.29076C96.7928 7.34143 96.8632 7.39541 96.9341 7.4502L97.0511 7.53795C97.5224 7.86628 97.6386 8.51389 97.311 8.98559C97.1092 9.27644 96.7858 9.43217 96.4566 9.43217Z" fill="#9398C2"/>
<path d="M96.1304 49.2603C95.7967 49.2603 95.4692 49.1005 95.2686 48.803C94.9468 48.3272 95.0713 47.6812 95.5471 47.3595C95.5879 47.3319 95.6266 47.301 95.6657 47.2709C95.7308 47.2207 95.7959 47.17 95.8631 47.123C96.336 46.7955 96.9824 46.9109 97.3107 47.383C97.6382 47.8543 97.522 48.5023 97.0508 48.8306L96.9395 48.9143C96.8658 48.9719 96.79 49.0288 96.7121 49.0815C96.5333 49.2026 96.331 49.2603 96.1304 49.2603Z" fill="#9398C2"/>
<path d="M104.229 39.9005C104.074 39.9005 103.918 39.8659 103.771 39.7934C103.255 39.5396 103.043 38.9163 103.297 38.4009C104.887 35.1719 105.693 31.7349 105.693 28.1849C105.693 27.6107 106.158 27.1451 106.732 27.1451C107.307 27.1451 107.772 27.6107 107.772 28.1849C107.772 32.0558 106.894 35.8022 105.162 39.3196C104.982 39.6871 104.612 39.9005 104.229 39.9005Z" fill="#9398C2"/>
<path d="M96.4578 49.0165C96.1319 49.0165 95.8101 48.8637 95.6079 48.577C95.2762 48.1081 95.3879 47.4593 95.8563 47.1277C99.0124 44.8948 101.585 41.8775 103.295 38.401C103.549 37.8852 104.173 37.673 104.688 37.9268C105.203 38.1801 105.416 38.8039 105.162 39.3188C103.299 43.1056 100.496 46.3931 97.0572 48.8254C96.8751 48.9547 96.6658 49.0165 96.4578 49.0165Z" fill="#9398C2"/>
<path d="M103.696 17.4877C103.331 17.4877 102.976 17.2949 102.787 16.9526C101.109 13.9279 98.7127 11.2616 95.8574 9.24177C95.3886 8.91014 95.2773 8.26129 95.609 7.79247C95.9406 7.32241 96.5911 7.21201 97.0583 7.54405C100.167 9.74313 102.777 12.6475 104.605 15.9436C104.884 16.4462 104.703 17.079 104.201 17.3575C104.04 17.4457 103.867 17.4877 103.696 17.4877Z" fill="#9398C2"/>
<path d="M86.1817 29.2248H76.4041C75.8298 29.2248 75.3643 28.7592 75.3643 28.1849C75.3643 27.6107 75.8298 27.1451 76.4041 27.1451H86.1817C86.756 27.1451 87.2215 27.6107 87.2215 28.1849C87.2215 28.7592 86.756 29.2248 86.1817 29.2248Z" fill="#9398C2"/>
<path d="M106.733 29.2248H96.4578C95.8835 29.2248 95.418 28.7592 95.418 28.1849C95.418 27.6107 95.8835 27.1451 96.4578 27.1451H106.733C107.307 27.1451 107.772 27.6107 107.772 28.1849C107.772 28.7592 107.307 29.2248 106.733 29.2248Z" fill="#9398C2"/>
<path d="M96.4571 29.2248H86.1814C85.6071 29.2248 85.1416 28.7592 85.1416 28.1849C85.1416 27.6107 85.6071 27.1451 86.1814 27.1451H96.4571C97.0314 27.1451 97.4969 27.6107 97.4969 28.1849C97.4969 28.7592 97.0314 29.2248 96.4571 29.2248Z" fill="#9398C2"/>
<path d="M115.917 29.2248H106.732C106.158 29.2248 105.692 28.7592 105.692 28.1849C105.692 27.6107 106.158 27.1451 106.732 27.1451H115.917C116.492 27.1451 116.957 27.6107 116.957 28.1849C116.957 28.7592 116.492 29.2248 115.917 29.2248Z" fill="#9398C2"/>
<path d="M96.4578 18.7793C95.8835 18.7793 95.418 18.3137 95.418 17.7395V8.39234C95.418 7.81806 95.8835 7.35254 96.4578 7.35254C97.0321 7.35254 97.4976 7.81806 97.4976 8.39234V17.7395C97.4976 18.3137 97.0321 18.7793 96.4578 18.7793Z" fill="#9398C2"/>
<path d="M96.4578 29.2247C95.8835 29.2247 95.418 28.7592 95.418 28.1849V17.7395C95.418 17.1652 95.8835 16.6997 96.4578 16.6997C97.0321 16.6997 97.4976 17.1652 97.4976 17.7395V28.1849C97.4976 28.7592 97.0321 29.2247 96.4578 29.2247Z" fill="#9398C2"/>
<path d="M96.4578 49.0164C95.8835 49.0164 95.418 48.5509 95.418 47.9766V37.3734C95.418 36.7991 95.8835 36.3336 96.4578 36.3336C97.0321 36.3336 97.4976 36.7991 97.4976 37.3734V47.9766C97.4976 48.5509 97.0321 49.0164 96.4578 49.0164Z" fill="#9398C2"/>
<path d="M96.4578 9.43218C95.8835 9.43218 95.418 8.96666 95.418 8.39238V8.1316C95.418 7.55732 95.8835 7.0918 96.4578 7.0918C97.0321 7.0918 97.4976 7.55732 97.4976 8.1316V8.39238C97.4976 8.96666 97.0321 9.43218 96.4578 9.43218Z" fill="#9398C2"/>
<path d="M96.4578 38.4133C95.8835 38.4133 95.418 37.9477 95.418 37.3735V28.1849C95.418 27.6107 95.8835 27.1451 96.4578 27.1451C97.0321 27.1451 97.4976 27.6107 97.4976 28.1849V37.3735C97.4976 37.9477 97.0321 38.4133 96.4578 38.4133Z" fill="#9398C2"/>
<path d="M96.4578 49.2772C95.8835 49.2772 95.418 48.8116 95.418 48.2374V47.9766C95.418 47.4023 95.8835 46.9368 96.4578 46.9368C97.0321 46.9368 97.4976 47.4023 97.4976 47.9766V48.2374C97.4976 48.8116 97.0321 49.2772 96.4578 49.2772Z" fill="#9398C2"/>
<path d="M204.324 36.6817H113.353C112.045 36.6817 110.975 35.6114 110.975 34.303V20.0271C110.975 18.7187 112.045 17.6484 113.353 17.6484H204.324C205.632 17.6484 206.703 18.7187 206.703 20.0271V34.303C206.703 35.6114 205.632 36.6817 204.324 36.6817Z" fill="#EBEFFA"/>
<path d="M204.323 37.7117H113.353C111.473 37.7117 109.944 36.1825 109.944 34.3031V20.0268C109.944 18.1474 111.474 16.6182 113.353 16.6182H204.323C206.203 16.6182 207.732 18.1474 207.732 20.0268V34.3031C207.733 36.1825 206.203 37.7117 204.323 37.7117ZM113.353 18.678C112.609 18.678 112.004 19.2832 112.004 20.0268V34.3031C112.004 35.0471 112.609 35.6519 113.353 35.6519H204.323C205.068 35.6519 205.672 35.0467 205.672 34.3031V20.0268C205.672 19.2832 205.067 18.678 204.323 18.678H113.353Z" fill="#9398C2"/>
<path d="M204.789 43.3451L189.732 30.9528L192.187 50.2983L196.62 47.8516L200.76 55.3544L204.494 53.2945L200.355 45.7918L204.789 43.3451Z" fill="#9398C2"/>
<path d="M200.761 57.4143C200.035 57.4143 199.331 57.0295 198.956 56.349L195.811 50.6502L193.181 52.102C192.584 52.432 191.862 52.4439 191.252 52.1346C190.644 51.8256 190.228 51.2348 190.142 50.5575L187.688 31.212C187.582 30.3749 187.997 29.5571 188.737 29.1493C189.476 28.7414 190.389 28.8259 191.041 29.3627L206.097 41.755C206.624 42.1888 206.902 42.8554 206.839 43.5352C206.777 44.2145 206.381 44.8188 205.783 45.1488L203.153 46.6002L206.297 52.2998C206.561 52.778 206.624 53.3416 206.473 53.8665C206.321 54.3913 205.967 54.8346 205.489 55.0982L201.754 57.1581C201.439 57.3319 201.097 57.4143 200.761 57.4143ZM196.62 45.7919C196.812 45.7919 197.004 45.8187 197.192 45.8727C197.716 46.0243 198.16 46.3785 198.423 46.8568L201.568 52.5556L201.695 52.4856L198.551 46.7864C198.002 45.7907 198.364 44.5375 199.36 43.9879L201.137 43.0074L192.428 35.8396L193.848 47.0286L195.625 46.0482C195.932 45.8788 196.275 45.7919 196.62 45.7919Z" fill="#EBEFFA"/>
<path d="M204.789 43.3451L189.732 30.9528L192.187 50.2983L196.62 47.8516L200.76 55.3544L204.494 53.2945L200.355 45.7918L204.789 43.3451Z" fill="#9398C2"/>
<path d="M136.83 32.1786L133.658 22.3981H136.508L139.177 30.8652H137.738L140.546 22.3981H143.089L145.744 30.8652H144.361L147.113 22.3981H149.754L146.582 32.1786H143.62L141.357 24.9829H142.153L139.792 32.1786H136.83ZM153.367 32.1786L150.195 22.3981H153.046L155.714 30.8652H154.275L157.084 22.3981H159.627L162.281 30.8652H160.898L163.651 22.3981H166.291L163.12 32.1786H160.158L157.894 24.9829H158.691L156.329 32.1786H153.367ZM169.904 32.1786L166.733 22.3981H169.583L172.252 30.8652H170.813L173.621 22.3981H176.164L178.819 30.8652H177.435L180.188 22.3981H182.829L179.657 32.1786H176.695L174.431 24.9829H175.228L172.867 32.1786H169.904Z" fill="#9398C2"/>
</svg>
